M48
METRIC,TZ
T1C0.300
T2C0.800
T3C1.000
T4C1.200
T5C3.200
%
G90
G05
T1
X-46917Y15519
X-46177Y20244
X-43917Y15519
X-41808Y20244
X-39474Y6553
X-38964Y10922
X-38608Y9338
X-38557Y12437
X-37033Y12843
X-37033Y8957
X-36474Y6553
X-35941Y26635
X-35585Y9465
X-35535Y12411
X-35433Y28194
X-35103Y10922
X-33884Y28600
X-33474Y6553
X-32334Y28194
X-31775Y26635
X-27112Y34398
X-27112Y31398
X-27112Y28398
X-26467Y25806
X-24536Y25806
X-24112Y34398
X-24112Y31398
X-24112Y28398
X-22631Y25806
X-22606Y19431
X-21112Y34398
X-21112Y31398
X-21112Y28398
X-19205Y19456
X-18112Y34398
X-18112Y31398
X-18112Y28398
X-17450Y24125
X-17450Y22986
X-17450Y22047
X-17450Y20979
X-10363Y6985
X-7267Y6553
X-4267Y34750
X-4267Y31750
X-4267Y28750
X-4267Y6553
X-3759Y13564
X-3251Y15062
X-3251Y12217
X-1829Y15485
X-1829Y11599
X-1267Y6553
X-1118Y23749
X3404Y23744
T2
X-14326Y28905
X-12090Y11985
X-12090Y6985
X-11786Y28905
X-9246Y28905
X-6822Y13640
X-1822Y13640
T3
X-37033Y15922
X-37033Y10922
X-33884Y26635
X-33884Y21635
T4
X-43993Y23744
X-43993Y20244
X1143Y23744
X1143Y20244
T5
X-45237Y32563
X-45237Y9423
X2489Y32563
X2489Y9423
M30
