%TF.GenerationSoftware,KiCad,Pcbnew,10.0.4*%
%TF.CreationDate,2026-07-06T22:31:50+03:00*%
%TF.ProjectId,LM2596project,4c4d3235-3936-4707-926f-6a6563742e6b,rev?*%
%TF.SameCoordinates,Original*%
%TF.FileFunction,Soldermask,Top*%
%TF.FilePolarity,Negative*%
%FSLAX46Y46*%
G04 Gerber Fmt 4.6, Leading zero omitted, Abs format (unit mm)*
G04 Created by KiCad (PCBNEW 10.0.4) date 2026-07-06 22:31:50*
%MOMM*%
%LPD*%
G01*
G04 APERTURE LIST*
G04 Aperture macros list*
%AMRoundRect*
0 Rectangle with rounded corners*
0 $1 Rounding radius*
0 $2 $3 $4 $5 $6 $7 $8 $9 X,Y pos of 4 corners*
0 Add a 4 corners polygon primitive as box body*
4,1,4,$2,$3,$4,$5,$6,$7,$8,$9,$2,$3,0*
0 Add four circle primitives for the rounded corners*
1,1,$1+$1,$2,$3*
1,1,$1+$1,$4,$5*
1,1,$1+$1,$6,$7*
1,1,$1+$1,$8,$9*
0 Add four rect primitives between the rounded corners*
20,1,$1+$1,$2,$3,$4,$5,0*
20,1,$1+$1,$4,$5,$6,$7,0*
20,1,$1+$1,$6,$7,$8,$9,0*
20,1,$1+$1,$8,$9,$2,$3,0*%
G04 Aperture macros list end*
%ADD10RoundRect,0.250001X0.949999X-0.949999X0.949999X0.949999X-0.949999X0.949999X-0.949999X-0.949999X0*%
%ADD11C,2.400000*%
%ADD12C,6.400000*%
%ADD13RoundRect,0.250000X-0.550000X0.550000X-0.550000X-0.550000X0.550000X-0.550000X0.550000X0.550000X0*%
%ADD14C,1.600000*%
%ADD15C,1.440000*%
%ADD16RoundRect,0.250000X1.400000X1.000000X-1.400000X1.000000X-1.400000X-1.000000X1.400000X-1.000000X0*%
%ADD17RoundRect,0.250000X0.750000X-0.750000X0.750000X0.750000X-0.750000X0.750000X-0.750000X-0.750000X0*%
%ADD18C,2.000000*%
%ADD19RoundRect,0.250000X-0.550000X-0.550000X0.550000X-0.550000X0.550000X0.550000X-0.550000X0.550000X0*%
%ADD20R,5.400000X2.900000*%
%ADD21RoundRect,0.250000X-0.750000X0.750000X-0.750000X-0.750000X0.750000X-0.750000X0.750000X0.750000X0*%
%ADD22RoundRect,0.250000X0.300000X-2.050000X0.300000X2.050000X-0.300000X2.050000X-0.300000X-2.050000X0*%
%ADD23RoundRect,0.250002X5.149998X-4.449998X5.149998X4.449998X-5.149998X4.449998X-5.149998X-4.449998X0*%
%ADD24RoundRect,0.250001X-0.949999X0.949999X-0.949999X-0.949999X0.949999X-0.949999X0.949999X0.949999X0*%
%ADD25RoundRect,0.250000X0.262500X0.450000X-0.262500X0.450000X-0.262500X-0.450000X0.262500X-0.450000X0*%
%ADD26C,0.350000*%
G04 APERTURE END LIST*
D10*
%TO.C,J2*%
X1143000Y20243800D03*
D11*
X1143000Y23743800D03*
%TD*%
D12*
%TO.C,REF\u002A\u002A*%
X2489200Y32562800D03*
%TD*%
%TO.C,REF\u002A\u002A*%
X-45237400Y32562800D03*
%TD*%
D13*
%TO.C,C3*%
X-12090400Y11985000D03*
D14*
X-12090400Y6985000D03*
%TD*%
D15*
%TO.C,RV1*%
X-9245600Y28905200D03*
X-11785600Y28905200D03*
X-14325600Y28905200D03*
%TD*%
D16*
%TO.C,D1*%
X-12954000Y17301000D03*
X-12954000Y24101000D03*
%TD*%
D17*
%TO.C,C2*%
X-33883600Y21635323D03*
D18*
X-33883600Y26635323D03*
%TD*%
D19*
%TO.C,C4*%
X-6822251Y13639800D03*
D14*
X-1822251Y13639800D03*
%TD*%
D20*
%TO.C,L1*%
X-24340245Y16761000D03*
X-24340245Y6861000D03*
%TD*%
D12*
%TO.C,REF\u002A\u002A*%
X-45237400Y9423400D03*
%TD*%
%TO.C,REF\u002A\u002A*%
X2489200Y9423400D03*
%TD*%
D21*
%TO.C,C1*%
X-37033200Y15922000D03*
D18*
X-37033200Y10922000D03*
%TD*%
D22*
%TO.C,U1*%
X-19202400Y22250400D03*
X-26002400Y22250400D03*
X-24302400Y22250400D03*
X-22602400Y22250400D03*
D23*
X-22602400Y31400400D03*
D22*
X-20902400Y22250400D03*
%TD*%
D24*
%TO.C,J1*%
X-43992800Y23743800D03*
D11*
X-43992800Y20243800D03*
%TD*%
D25*
%TO.C,R1*%
X-9933300Y32613600D03*
X-11758300Y32613600D03*
%TD*%
D26*
X1143000Y20243800D03*
X1143000Y23743800D03*
X2489200Y32562800D03*
X-45237400Y32562800D03*
X-12090400Y11985000D03*
X-12090400Y6985000D03*
X-9245600Y28905200D03*
X-11785600Y28905200D03*
X-14325600Y28905200D03*
X-33883600Y21635323D03*
X-33883600Y26635323D03*
X-6822251Y13639800D03*
X-1822251Y13639800D03*
X-45237400Y9423400D03*
X2489200Y9423400D03*
X-37033200Y15922000D03*
X-37033200Y10922000D03*
X-43992800Y23743800D03*
X-43992800Y20243800D03*
M02*
