%TF.GenerationSoftware,KiCad,Pcbnew,10.0.4*%
%TF.CreationDate,2026-07-06T22:31:50+03:00*%
%TF.ProjectId,LM2596project,4c4d3235-3936-4707-926f-6a6563742e6b,rev?*%
%TF.SameCoordinates,Original*%
%TF.FileFunction,Legend,Bot*%
%TF.FilePolarity,Positive*%
%FSLAX46Y46*%
G04 Gerber Fmt 4.6, Leading zero omitted, Abs format (unit mm)*
G04 Created by KiCad (PCBNEW 10.0.4) date 2026-07-06 22:31:50*
%MOMM*%
%LPD*%
G01*
G04 APERTURE LIST*
%ADD10C,1.387898*%
%ADD11C,0.250000*%
%ADD12C,0.500000*%
%ADD13C,0.000000*%
G04 APERTURE END LIST*
D10*
X-31673800Y21463000D02*
X-7137400Y21463000D01*
X-6482153Y21463000D02*
X-8834648Y23815499D01*
X-6482153Y21463000D02*
X-8834648Y19110501D01*
D11*
G36*
X-46699029Y20130505D02*
G01*
X-46300730Y20130505D01*
X-46300730Y20271189D01*
X-46699029Y20271189D01*
X-46699029Y20130505D01*
G37*
G36*
X-46128356Y23665026D02*
G01*
X-46456923Y23665026D01*
X-46456923Y23993288D01*
X-46546377Y23993288D01*
X-46546377Y23665026D01*
X-46874945Y23665026D01*
X-46874945Y23571236D01*
X-46546377Y23571236D01*
X-46546377Y23250790D01*
X-46456923Y23250790D01*
X-46456923Y23571236D01*
X-46128356Y23571236D01*
X-46128356Y23665026D01*
G37*
G36*
X3163758Y20302375D02*
G01*
X3492325Y20302375D01*
X3492325Y19974113D01*
X3581779Y19974113D01*
X3581779Y20302375D01*
X3910347Y20302375D01*
X3910347Y20396165D01*
X3581779Y20396165D01*
X3581779Y20716611D01*
X3492325Y20716611D01*
X3492325Y20396165D01*
X3163758Y20396165D01*
X3163758Y20302375D01*
G37*
G36*
X3734431Y23836896D02*
G01*
X3336132Y23836896D01*
X3336132Y23696212D01*
X3734431Y23696212D01*
X3734431Y23836896D01*
G37*
D12*
G36*
X-34484480Y18155106D02*
G01*
X-34484480Y18202000D01*
X-35453147Y18202000D01*
X-35453147Y18155106D01*
X-35391720Y18155106D01*
X-35316018Y18147075D01*
X-35261905Y18125675D01*
X-35231296Y18100012D01*
X-35207194Y18058264D01*
X-35197293Y18011336D01*
X-35192173Y17881554D01*
X-35192173Y16670109D01*
X-35197240Y16537549D01*
X-35207194Y16487782D01*
X-35228735Y16454806D01*
X-35268011Y16423913D01*
X-35318788Y16404091D01*
X-35391720Y16396557D01*
X-35453147Y16396557D01*
X-35453147Y16349663D01*
X-34484480Y16349663D01*
X-34484480Y16396557D01*
X-34545907Y16396557D01*
X-34621518Y16404581D01*
X-34675722Y16425989D01*
X-34706611Y16451609D01*
X-34731776Y16493400D01*
X-34741677Y16540327D01*
X-34746796Y16670109D01*
X-34746796Y17881554D01*
X-34741529Y18014110D01*
X-34731165Y18064003D01*
X-34709070Y18096910D01*
X-34669616Y18127751D01*
X-34618838Y18147572D01*
X-34545907Y18155106D01*
X-34484480Y18155106D01*
G37*
G36*
X-33804630Y16928030D02*
G01*
X-33804630Y17099977D01*
X-33703888Y17000749D01*
X-33616196Y16939265D01*
X-33522615Y16901544D01*
X-33422145Y16888951D01*
X-33341800Y16897108D01*
X-33273911Y16920359D01*
X-33215882Y16958194D01*
X-33167114Y17008263D01*
X-33130945Y17065162D01*
X-33106584Y17130019D01*
X-33091635Y17225892D01*
X-33084724Y17429949D01*
X-33084724Y17928449D01*
X-33075855Y18060015D01*
X-33058101Y18109921D01*
X-33021751Y18137061D01*
X-32946727Y18155106D01*
X-32946727Y18202000D01*
X-33592871Y18202000D01*
X-33592871Y18155106D01*
X-33529247Y18134716D01*
X-33489068Y18095755D01*
X-33474497Y18049432D01*
X-33467208Y17928449D01*
X-33467208Y17360462D01*
X-33471339Y17217682D01*
X-33479542Y17162625D01*
X-33496443Y17125652D01*
X-33521186Y17099122D01*
X-33552217Y17082120D01*
X-33586032Y17076529D01*
X-33638537Y17085394D01*
X-33691288Y17113372D01*
X-33746305Y17165179D01*
X-33804630Y17248476D01*
X-33804630Y17928449D01*
X-33795885Y18056728D01*
X-33778007Y18107967D01*
X-33742949Y18137138D01*
X-33678967Y18155106D01*
X-33678967Y18202000D01*
X-34325233Y18202000D01*
X-34325233Y18155106D01*
X-34253320Y18136914D01*
X-34210439Y18103815D01*
X-34195232Y18059522D01*
X-34187236Y17928449D01*
X-34187236Y17201582D01*
X-34196102Y17070915D01*
X-34213859Y17021331D01*
X-34250171Y16994075D01*
X-34325233Y16974924D01*
X-34325233Y16928030D01*
X-33804630Y16928030D01*
G37*
G36*
X-32084061Y18756920D02*
G01*
X-32171716Y18751713D01*
X-32212533Y18740434D01*
X-32240827Y18719358D01*
X-32261015Y18688288D01*
X-32271743Y18644668D01*
X-32276646Y18553710D01*
X-32276646Y18073040D01*
X-32199492Y18149627D01*
X-32133154Y18194673D01*
X-32038547Y18229404D01*
X-31936416Y18241079D01*
X-31842518Y18231693D01*
X-31755484Y18203922D01*
X-31673489Y18157182D01*
X-31602605Y18094611D01*
X-31542508Y18014199D01*
X-31493115Y17912939D01*
X-31459089Y17804424D01*
X-31438152Y17686856D01*
X-31430956Y17558909D01*
X-31437808Y17439973D01*
X-31457946Y17328202D01*
X-31491039Y17222587D01*
X-31538624Y17123575D01*
X-31597120Y17042720D01*
X-31666650Y16977611D01*
X-31747188Y16927978D01*
X-31831912Y16898768D01*
X-31922739Y16888951D01*
X-31999230Y16896186D01*
X-32071217Y16917684D01*
X-32139993Y16953920D01*
X-32205708Y17007904D01*
X-32276646Y17096069D01*
X-32276646Y16928030D01*
X-32812271Y16928030D01*
X-32812271Y16974924D01*
X-32731940Y16990417D01*
X-32690760Y17018522D01*
X-32669416Y17069932D01*
X-32659253Y17193766D01*
X-32659253Y17933822D01*
X-32276646Y17933822D01*
X-32276646Y17252384D01*
X-32223104Y17156448D01*
X-32168057Y17096575D01*
X-32111085Y17063750D01*
X-32049867Y17053082D01*
X-31995873Y17061914D01*
X-31950194Y17087971D01*
X-31910526Y17133682D01*
X-31872393Y17220082D01*
X-31844057Y17363049D01*
X-31832613Y17585654D01*
X-31843169Y17803164D01*
X-31869134Y17940964D01*
X-31903688Y18022604D01*
X-31940259Y18067493D01*
X-31980159Y18092240D01*
X-32025198Y18100395D01*
X-32086589Y18091395D01*
X-32147796Y18063407D01*
X-32210753Y18012872D01*
X-32276646Y17933822D01*
X-32659253Y17933822D01*
X-32659253Y18545894D01*
X-32668326Y18664217D01*
X-32686608Y18708927D01*
X-32735763Y18742513D01*
X-32812271Y18756920D01*
X-32812271Y18803815D01*
X-32084061Y18803815D01*
X-32084061Y18756920D01*
G37*
G36*
X-29982229Y16928030D02*
G01*
X-29982229Y17928449D01*
X-29973144Y18059546D01*
X-29954874Y18109677D01*
X-29918091Y18137028D01*
X-29844232Y18155106D01*
X-29844232Y18202000D01*
X-30364713Y18202000D01*
X-30364713Y18031275D01*
X-30460020Y18129041D01*
X-30547896Y18190887D01*
X-30643785Y18228274D01*
X-30752693Y18241079D01*
X-30822372Y18233630D01*
X-30885833Y18211686D01*
X-30944668Y18174767D01*
X-31015816Y18101480D01*
X-31057386Y18019551D01*
X-31077251Y17914086D01*
X-31086085Y17708996D01*
X-31086085Y17201582D01*
X-31094951Y17070915D01*
X-31112707Y17021331D01*
X-31149020Y16994075D01*
X-31224082Y16974924D01*
X-31224082Y16928030D01*
X-30703600Y16928030D01*
X-30703600Y17797656D01*
X-30699354Y17921845D01*
X-30690655Y17973267D01*
X-30673386Y18008641D01*
X-30649623Y18033107D01*
X-30619686Y18048321D01*
X-30584776Y18053501D01*
X-30537734Y18046967D01*
X-30495872Y18027611D01*
X-30441827Y17980497D01*
X-30364713Y17884241D01*
X-30364713Y17201582D01*
X-30373580Y17070915D01*
X-30391336Y17021331D01*
X-30427648Y16994075D01*
X-30502711Y16974924D01*
X-30502711Y16928030D01*
X-29982229Y16928030D01*
G37*
G36*
X-29153635Y16459084D02*
G01*
X-29153635Y16928030D01*
X-28850408Y16928030D01*
X-28850408Y17060898D01*
X-29153635Y17060898D01*
X-29153635Y17847360D01*
X-29150268Y17948127D01*
X-29143377Y17989753D01*
X-29129142Y18018795D01*
X-29107229Y18041533D01*
X-29080991Y18056881D01*
X-29059358Y18061317D01*
X-29006049Y18049667D01*
X-28950962Y18011387D01*
X-28891318Y17936264D01*
X-28850408Y17965207D01*
X-28903049Y18060216D01*
X-28964301Y18129736D01*
X-29034450Y18178070D01*
X-29115245Y18207419D01*
X-29209689Y18217632D01*
X-29288396Y18209767D01*
X-29356196Y18187182D01*
X-29415341Y18150221D01*
X-29485674Y18076660D01*
X-29522564Y17999645D01*
X-29531540Y17934285D01*
X-29536242Y17748930D01*
X-29536242Y17060898D01*
X-29702937Y17060898D01*
X-29702937Y17013148D01*
X-29540649Y16886036D01*
X-29409846Y16757915D01*
X-29297153Y16617115D01*
X-29198698Y16459084D01*
X-29153635Y16459084D01*
G37*
G36*
X-7569556Y17976369D02*
G01*
X-7421144Y17945565D01*
X-7288310Y17895965D01*
X-7168875Y17827908D01*
X-7061192Y17740755D01*
X-6964237Y17632927D01*
X-6874079Y17494374D01*
X-6810076Y17346539D01*
X-6771240Y17187453D01*
X-6757974Y17014626D01*
X-6769577Y16851949D01*
X-6803293Y16704268D01*
X-6858314Y16569188D01*
X-6934969Y16444772D01*
X-7034701Y16329647D01*
X-7150353Y16232876D01*
X-7277946Y16159174D01*
X-7419317Y16107461D01*
X-7576981Y16077966D01*
X-7753996Y16072215D01*
X-7916191Y16077684D01*
X-8064117Y16106483D01*
X-8200246Y16157734D01*
X-8326590Y16231826D01*
X-8444593Y16330380D01*
X-8545959Y16446008D01*
X-8623741Y16570744D01*
X-8679491Y16705950D01*
X-8713615Y16853557D01*
X-8725350Y17015970D01*
X-8724419Y17027938D01*
X-8232101Y17027938D01*
X-8223854Y16822085D01*
X-8201314Y16655690D01*
X-8167345Y16522574D01*
X-8124146Y16417208D01*
X-8062807Y16319423D01*
X-7994453Y16247856D01*
X-7918688Y16198300D01*
X-7833917Y16168464D01*
X-7737510Y16158189D01*
X-7647996Y16166748D01*
X-7567379Y16191737D01*
X-7493755Y16233171D01*
X-7431553Y16290150D01*
X-7373327Y16373561D01*
X-7319610Y16490237D01*
X-7285055Y16614450D01*
X-7260627Y16792339D01*
X-7251222Y17038929D01*
X-7259813Y17244685D01*
X-7283162Y17408930D01*
X-7318145Y17538527D01*
X-7371938Y17660548D01*
X-7434526Y17751586D01*
X-7505357Y17817331D01*
X-7571285Y17854319D01*
X-7648700Y17877350D01*
X-7740318Y17885474D01*
X-7841460Y17875057D01*
X-7927431Y17845270D01*
X-8001422Y17796613D01*
X-8065406Y17727327D01*
X-8132186Y17612552D01*
X-8184438Y17463323D01*
X-8219254Y17271592D01*
X-8232101Y17027938D01*
X-8724419Y17027938D01*
X-8711326Y17196253D01*
X-8670482Y17360081D01*
X-8603488Y17510342D01*
X-8509439Y17649291D01*
X-8413301Y17751392D01*
X-8306102Y17834354D01*
X-8186724Y17899451D01*
X-8053471Y17947081D01*
X-7904152Y17976747D01*
X-7736166Y17987079D01*
X-7569556Y17976369D01*
G37*
G36*
X-5330008Y16674030D02*
G01*
X-5330008Y17674449D01*
X-5320923Y17805546D01*
X-5302653Y17855677D01*
X-5265870Y17883028D01*
X-5192011Y17901106D01*
X-5192011Y17948000D01*
X-5712492Y17948000D01*
X-5712492Y17777275D01*
X-5807799Y17875041D01*
X-5895674Y17936887D01*
X-5991564Y17974274D01*
X-6100472Y17987079D01*
X-6170151Y17979630D01*
X-6233611Y17957686D01*
X-6292447Y17920767D01*
X-6363595Y17847480D01*
X-6405165Y17765551D01*
X-6425029Y17660086D01*
X-6433863Y17454996D01*
X-6433863Y16947582D01*
X-6442730Y16816915D01*
X-6460486Y16767331D01*
X-6496798Y16740075D01*
X-6571861Y16720924D01*
X-6571861Y16674030D01*
X-6051379Y16674030D01*
X-6051379Y17543656D01*
X-6047133Y17667845D01*
X-6038434Y17719267D01*
X-6021165Y17754641D01*
X-5997401Y17779107D01*
X-5967465Y17794321D01*
X-5932555Y17799501D01*
X-5885512Y17792967D01*
X-5843651Y17773611D01*
X-5789606Y17726497D01*
X-5712492Y17630241D01*
X-5712492Y16947582D01*
X-5721358Y16816915D01*
X-5739115Y16767331D01*
X-5775427Y16740075D01*
X-5850489Y16720924D01*
X-5850489Y16674030D01*
X-5330008Y16674030D01*
G37*
G36*
X-4501414Y16205084D02*
G01*
X-4501414Y16674030D01*
X-4198187Y16674030D01*
X-4198187Y16806898D01*
X-4501414Y16806898D01*
X-4501414Y17593360D01*
X-4498047Y17694127D01*
X-4491156Y17735753D01*
X-4476920Y17764795D01*
X-4455008Y17787533D01*
X-4428769Y17802881D01*
X-4407136Y17807317D01*
X-4353828Y17795667D01*
X-4298740Y17757387D01*
X-4239097Y17682264D01*
X-4198187Y17711207D01*
X-4250828Y17806216D01*
X-4312080Y17875736D01*
X-4382228Y17924070D01*
X-4463024Y17953419D01*
X-4557468Y17963632D01*
X-4636175Y17955767D01*
X-4703975Y17933182D01*
X-4763120Y17896221D01*
X-4833453Y17822660D01*
X-4870343Y17745645D01*
X-4879319Y17680285D01*
X-4884020Y17494930D01*
X-4884020Y16806898D01*
X-5050716Y16806898D01*
X-5050716Y16759148D01*
X-4888428Y16632036D01*
X-4757625Y16503915D01*
X-4644932Y16363115D01*
X-4546477Y16205084D01*
X-4501414Y16205084D01*
G37*
G36*
X-3389132Y18502920D02*
G01*
X-3476787Y18497713D01*
X-3517604Y18486434D01*
X-3545898Y18465358D01*
X-3566086Y18434288D01*
X-3576815Y18390668D01*
X-3581718Y18299710D01*
X-3581718Y17819040D01*
X-3504563Y17895627D01*
X-3438225Y17940673D01*
X-3343619Y17975404D01*
X-3241487Y17987079D01*
X-3147589Y17977693D01*
X-3060556Y17949922D01*
X-2978560Y17903182D01*
X-2907676Y17840611D01*
X-2847579Y17760199D01*
X-2798187Y17658939D01*
X-2764160Y17550424D01*
X-2743224Y17432856D01*
X-2736027Y17304909D01*
X-2742880Y17185973D01*
X-2763018Y17074202D01*
X-2796110Y16968587D01*
X-2843696Y16869575D01*
X-2902191Y16788720D01*
X-2971721Y16723611D01*
X-3052259Y16673978D01*
X-3136983Y16644768D01*
X-3227810Y16634951D01*
X-3304301Y16642186D01*
X-3376288Y16663684D01*
X-3445064Y16699920D01*
X-3510779Y16753904D01*
X-3581718Y16842069D01*
X-3581718Y16674030D01*
X-4117342Y16674030D01*
X-4117342Y16720924D01*
X-4037011Y16736417D01*
X-3995831Y16764522D01*
X-3974487Y16815932D01*
X-3964324Y16939766D01*
X-3964324Y17679822D01*
X-3581718Y17679822D01*
X-3581718Y16998384D01*
X-3528175Y16902448D01*
X-3473128Y16842575D01*
X-3416157Y16809750D01*
X-3354938Y16799082D01*
X-3300944Y16807914D01*
X-3255265Y16833971D01*
X-3215598Y16879682D01*
X-3177464Y16966082D01*
X-3149128Y17109049D01*
X-3137684Y17331654D01*
X-3148240Y17549164D01*
X-3174205Y17686964D01*
X-3208759Y17768604D01*
X-3245330Y17813493D01*
X-3285230Y17838240D01*
X-3330270Y17846395D01*
X-3391660Y17837395D01*
X-3452867Y17809407D01*
X-3515825Y17758872D01*
X-3581718Y17679822D01*
X-3964324Y17679822D01*
X-3964324Y18291894D01*
X-3973397Y18410217D01*
X-3991679Y18454927D01*
X-4040834Y18488513D01*
X-4117342Y18502920D01*
X-4117342Y18549815D01*
X-3389132Y18549815D01*
X-3389132Y18502920D01*
G37*
G36*
X-1287300Y16674030D02*
G01*
X-1287300Y17674449D01*
X-1278216Y17805546D01*
X-1259945Y17855677D01*
X-1223162Y17883028D01*
X-1149303Y17901106D01*
X-1149303Y17948000D01*
X-1669785Y17948000D01*
X-1669785Y17777275D01*
X-1765091Y17875041D01*
X-1852967Y17936887D01*
X-1948856Y17974274D01*
X-2057764Y17987079D01*
X-2127443Y17979630D01*
X-2190904Y17957686D01*
X-2249739Y17920767D01*
X-2320887Y17847480D01*
X-2362457Y17765551D01*
X-2382322Y17660086D01*
X-2391156Y17454996D01*
X-2391156Y16947582D01*
X-2400022Y16816915D01*
X-2417778Y16767331D01*
X-2454091Y16740075D01*
X-2529153Y16720924D01*
X-2529153Y16674030D01*
X-2008672Y16674030D01*
X-2008672Y17543656D01*
X-2004425Y17667845D01*
X-1995727Y17719267D01*
X-1978457Y17754641D01*
X-1954694Y17779107D01*
X-1924757Y17794321D01*
X-1889847Y17799501D01*
X-1842805Y17792967D01*
X-1800943Y17773611D01*
X-1746898Y17726497D01*
X-1669785Y17630241D01*
X-1669785Y16947582D01*
X-1678651Y16816915D01*
X-1696407Y16767331D01*
X-1732719Y16740075D01*
X-1807782Y16720924D01*
X-1807782Y16674030D01*
X-1287300Y16674030D01*
G37*
G36*
X-458706Y16205084D02*
G01*
X-458706Y16674030D01*
X-155479Y16674030D01*
X-155479Y16806898D01*
X-458706Y16806898D01*
X-458706Y17593360D01*
X-455339Y17694127D01*
X-448448Y17735753D01*
X-434213Y17764795D01*
X-412300Y17787533D01*
X-386062Y17802881D01*
X-364429Y17807317D01*
X-311120Y17795667D01*
X-256033Y17757387D01*
X-196390Y17682264D01*
X-155479Y17711207D01*
X-208120Y17806216D01*
X-269372Y17875736D01*
X-339521Y17924070D01*
X-420316Y17953419D01*
X-514760Y17963632D01*
X-593467Y17955767D01*
X-661267Y17933182D01*
X-720413Y17896221D01*
X-790745Y17822660D01*
X-827635Y17745645D01*
X-836611Y17680285D01*
X-841313Y17494930D01*
X-841313Y16806898D01*
X-1008009Y16806898D01*
X-1008009Y16759148D01*
X-845721Y16632036D01*
X-714917Y16503915D01*
X-602224Y16363115D01*
X-503769Y16205084D01*
X-458706Y16205084D01*
G37*
D13*
%TO.C,G\u002A\u002A\u002A*%
G36*
X-26287403Y17631175D02*
G01*
X-26299087Y17619491D01*
X-26310770Y17631175D01*
X-26299087Y17642858D01*
X-26287403Y17631175D01*
G37*
G36*
X-23717026Y17631175D02*
G01*
X-23728709Y17619491D01*
X-23740393Y17631175D01*
X-23728709Y17642858D01*
X-23717026Y17631175D01*
G37*
G36*
X-26345134Y17641172D02*
G01*
X-26341926Y17627280D01*
X-26345351Y17624483D01*
X-26373082Y17627280D01*
X-26376738Y17634308D01*
X-26357504Y17642858D01*
X-26345134Y17641172D01*
G37*
G36*
X-23657921Y17641172D02*
G01*
X-23654714Y17627280D01*
X-23658139Y17624483D01*
X-23685870Y17627280D01*
X-23689526Y17634308D01*
X-23670292Y17642858D01*
X-23657921Y17641172D01*
G37*
G36*
X-16631429Y18870005D02*
G01*
X-16613438Y18834578D01*
X-16620722Y18805035D01*
X-16658793Y18787844D01*
X-16689620Y18792698D01*
X-16722146Y18819207D01*
X-16718590Y18857945D01*
X-16710207Y18868213D01*
X-16670923Y18882825D01*
X-16631429Y18870005D01*
G37*
G36*
X-16458076Y18864807D02*
G01*
X-16438185Y18834578D01*
X-16449655Y18811159D01*
X-16490761Y18792061D01*
X-16492963Y18791760D01*
X-16532664Y18797104D01*
X-16543337Y18834578D01*
X-16543325Y18836670D01*
X-16531772Y18872773D01*
X-16490761Y18877096D01*
X-16458076Y18864807D01*
G37*
G36*
X-16484281Y19301232D02*
G01*
X-16465700Y19291847D01*
X-16455338Y19263944D01*
X-16450844Y19208123D01*
X-16449869Y19114983D01*
X-16450041Y19065696D01*
X-16452387Y18991373D01*
X-16459363Y18949925D01*
X-16473318Y18931949D01*
X-16496603Y18928047D01*
X-16508925Y18928735D01*
X-16527505Y18938120D01*
X-16537867Y18966022D01*
X-16542361Y19021843D01*
X-16543337Y19114983D01*
X-16543165Y19164270D01*
X-16540819Y19238593D01*
X-16533843Y19280042D01*
X-16519888Y19298017D01*
X-16496603Y19301920D01*
X-16484281Y19301232D01*
G37*
G36*
X-17300691Y19300923D02*
G01*
X-17285378Y19292038D01*
X-17275715Y19267398D01*
X-17270410Y19219261D01*
X-17268174Y19139882D01*
X-17267716Y19021515D01*
X-17267882Y18938964D01*
X-17269363Y18847084D01*
X-17273469Y18789104D01*
X-17281492Y18757278D01*
X-17294722Y18743861D01*
X-17314450Y18741110D01*
X-17328209Y18742107D01*
X-17343522Y18750992D01*
X-17353185Y18775631D01*
X-17358490Y18823768D01*
X-17360726Y18903148D01*
X-17361184Y19021515D01*
X-17361018Y19104066D01*
X-17359537Y19195946D01*
X-17355431Y19253926D01*
X-17347408Y19285752D01*
X-17334178Y19299169D01*
X-17314450Y19301920D01*
X-17300691Y19300923D01*
G37*
G36*
X-16716229Y19479034D02*
G01*
X-16660172Y19442122D01*
X-16643528Y19422633D01*
X-16627931Y19389888D01*
X-16618799Y19340610D01*
X-16614508Y19264740D01*
X-16613438Y19152221D01*
X-16613472Y19112377D01*
X-16614464Y19017317D01*
X-16618036Y18958557D01*
X-16625782Y18928217D01*
X-16639295Y18918417D01*
X-16660172Y18921276D01*
X-16671582Y18924968D01*
X-16690382Y18939978D01*
X-16701049Y18972171D01*
X-16705814Y19031391D01*
X-16706906Y19127481D01*
X-16708132Y19227742D01*
X-16713988Y19312109D01*
X-16726509Y19363274D01*
X-16747685Y19388584D01*
X-16779508Y19395388D01*
X-16805206Y19402269D01*
X-16824199Y19434038D01*
X-16808164Y19473278D01*
X-16773479Y19488400D01*
X-16716229Y19479034D01*
G37*
G36*
X-16929809Y19313140D02*
G01*
X-16845311Y19256983D01*
X-16797861Y19195544D01*
X-16777008Y19114983D01*
X-16789284Y19052752D01*
X-16837436Y18978487D01*
X-16910469Y18925131D01*
X-16995894Y18904680D01*
X-17046401Y18909639D01*
X-17131797Y18947992D01*
X-17187998Y19018674D01*
X-17208236Y19114983D01*
X-17104146Y19114983D01*
X-17099533Y19077281D01*
X-17067235Y19022160D01*
X-17015063Y18997798D01*
X-16956088Y19007999D01*
X-16903378Y19056565D01*
X-16882653Y19091707D01*
X-16878654Y19127667D01*
X-16903378Y19173401D01*
X-16928000Y19202596D01*
X-16985461Y19231601D01*
X-17042685Y19224131D01*
X-17086603Y19183991D01*
X-17104146Y19114983D01*
X-17208236Y19114983D01*
X-17206342Y19158138D01*
X-17188314Y19218771D01*
X-17143205Y19269349D01*
X-17111951Y19292536D01*
X-17021469Y19325106D01*
X-16929809Y19313140D01*
G37*
G36*
X-25983631Y18612591D02*
G01*
X-25983631Y18250402D01*
X-25761644Y18250402D01*
X-25539657Y18250402D01*
X-25539657Y18612591D01*
X-25539657Y18974781D01*
X-25399455Y18974781D01*
X-25259252Y18974781D01*
X-25259252Y18472389D01*
X-25259252Y17969997D01*
X-25621442Y17969997D01*
X-25983631Y17969997D01*
X-25983631Y17748010D01*
X-25983631Y17526023D01*
X-25621442Y17526023D01*
X-25259252Y17526023D01*
X-25259252Y17385820D01*
X-25259252Y17245618D01*
X-25749961Y17245618D01*
X-26240669Y17245618D01*
X-26243133Y17438396D01*
X-26243160Y17440555D01*
X-26244100Y17548565D01*
X-26244755Y17692683D01*
X-26245126Y17862545D01*
X-26245218Y18047787D01*
X-26245031Y18238044D01*
X-26244568Y18422953D01*
X-26243833Y18592149D01*
X-26242827Y18735268D01*
X-26240669Y18974781D01*
X-26112150Y18974781D01*
X-25983631Y18974781D01*
X-25983631Y18612591D01*
G37*
G36*
X-17581209Y19309145D02*
G01*
X-17505482Y19266828D01*
X-17451725Y19200379D01*
X-17431285Y19114983D01*
X-17448360Y19046492D01*
X-17495373Y18977188D01*
X-17559184Y18925177D01*
X-17626587Y18904680D01*
X-17641529Y18905061D01*
X-17736322Y18927699D01*
X-17808393Y18978610D01*
X-17853697Y19048459D01*
X-17865829Y19114983D01*
X-17758424Y19114983D01*
X-17753811Y19077281D01*
X-17721513Y19022160D01*
X-17669341Y18997798D01*
X-17610366Y19007999D01*
X-17557655Y19056565D01*
X-17536930Y19091707D01*
X-17532932Y19127667D01*
X-17557655Y19173401D01*
X-17582278Y19202596D01*
X-17639738Y19231601D01*
X-17696962Y19224131D01*
X-17740881Y19183991D01*
X-17758424Y19114983D01*
X-17865829Y19114983D01*
X-17868186Y19127909D01*
X-17847812Y19207624D01*
X-17788530Y19278268D01*
X-17753189Y19300637D01*
X-17667559Y19322143D01*
X-17581209Y19309145D01*
G37*
G36*
X-18861402Y19300734D02*
G01*
X-18802270Y19287856D01*
X-18784218Y19266174D01*
X-18808659Y19242422D01*
X-18877009Y19223331D01*
X-18884301Y19222109D01*
X-18966668Y19195087D01*
X-19009302Y19147597D01*
X-19016092Y19075504D01*
X-18999048Y19024176D01*
X-18955882Y19002351D01*
X-18944437Y19001466D01*
X-18899779Y19018521D01*
X-18882784Y19061851D01*
X-18899921Y19118078D01*
X-18912415Y19141603D01*
X-18904975Y19158203D01*
X-18859408Y19161717D01*
X-18846688Y19161428D01*
X-18799524Y19147119D01*
X-18776859Y19102820D01*
X-18774421Y19035099D01*
X-18804959Y18970650D01*
X-18861312Y18926213D01*
X-18932927Y18906694D01*
X-19009249Y18917000D01*
X-19079726Y18962035D01*
X-19102557Y18988506D01*
X-19135869Y19068492D01*
X-19124523Y19152335D01*
X-19068777Y19233616D01*
X-19029669Y19268119D01*
X-18972272Y19295039D01*
X-18893524Y19301920D01*
X-18861402Y19300734D01*
G37*
G36*
X-19201852Y19314695D02*
G01*
X-19183815Y19281278D01*
X-19192366Y19253618D01*
X-19230549Y19225048D01*
X-19258453Y19210401D01*
X-19273423Y19174614D01*
X-19277284Y19105487D01*
X-19277244Y19094160D01*
X-19273371Y19032942D01*
X-19259521Y19004877D01*
X-19230549Y18998148D01*
X-19200338Y18990467D01*
X-19183815Y18951414D01*
X-19191496Y18921203D01*
X-19230549Y18904680D01*
X-19266330Y18892071D01*
X-19277284Y18846262D01*
X-19287370Y18801536D01*
X-19324018Y18787844D01*
X-19359799Y18800453D01*
X-19370752Y18846262D01*
X-19376553Y18884682D01*
X-19394119Y18904680D01*
X-19407700Y18913443D01*
X-19417486Y18951414D01*
X-19413104Y18978577D01*
X-19394119Y18998148D01*
X-19384661Y19009066D01*
X-19374641Y19055138D01*
X-19370752Y19124998D01*
X-19370724Y19131891D01*
X-19361014Y19231450D01*
X-19334032Y19288567D01*
X-19297936Y19313532D01*
X-19245248Y19325707D01*
X-19201852Y19314695D01*
G37*
G36*
X-23810494Y18308819D02*
G01*
X-23810169Y18132199D01*
X-23808862Y17965777D01*
X-23806388Y17838573D01*
X-23802571Y17746541D01*
X-23797232Y17685634D01*
X-23790196Y17651807D01*
X-23781285Y17641013D01*
X-23764066Y17637940D01*
X-23781285Y17627382D01*
X-23796513Y17604757D01*
X-23807055Y17539669D01*
X-23810494Y17430607D01*
X-23810494Y17245618D01*
X-23950697Y17245618D01*
X-24090899Y17245618D01*
X-24090899Y17607807D01*
X-24090899Y17969997D01*
X-24312886Y17969997D01*
X-24534873Y17969997D01*
X-24534873Y17607807D01*
X-24534873Y17245618D01*
X-24675076Y17245618D01*
X-24815278Y17245618D01*
X-24815278Y17748010D01*
X-24815278Y18250402D01*
X-24453088Y18250402D01*
X-24090899Y18250402D01*
X-24090899Y18472389D01*
X-24090899Y18694376D01*
X-24453088Y18694376D01*
X-24815278Y18694376D01*
X-24815278Y18834578D01*
X-24815278Y18974781D01*
X-24312886Y18974781D01*
X-23810494Y18974781D01*
X-23810494Y18308819D01*
G37*
G36*
X-18413867Y19198640D02*
G01*
X-18488037Y19095360D01*
X-18427003Y19015339D01*
X-18389811Y18964450D01*
X-18370031Y18925992D01*
X-18379809Y18908739D01*
X-18418544Y18904839D01*
X-18471659Y18926173D01*
X-18529537Y18990973D01*
X-18587955Y19076947D01*
X-18594821Y18909029D01*
X-18596080Y18879763D01*
X-18601222Y18804168D01*
X-18610153Y18762499D01*
X-18626337Y18744798D01*
X-18653238Y18741110D01*
X-18672231Y18742347D01*
X-18687767Y18751401D01*
X-18697361Y18776064D01*
X-18702442Y18824116D01*
X-18704442Y18903339D01*
X-18704790Y19021515D01*
X-18704554Y19128505D01*
X-18702853Y19211693D01*
X-18698229Y19262844D01*
X-18689221Y19289743D01*
X-18674369Y19300173D01*
X-18652215Y19301920D01*
X-18649231Y19301902D01*
X-18617095Y19294994D01*
X-18602857Y19266903D01*
X-18599639Y19204945D01*
X-18599639Y19107971D01*
X-18529391Y19204945D01*
X-18504084Y19237728D01*
X-18450783Y19287024D01*
X-18399420Y19301920D01*
X-18339697Y19301920D01*
X-18413867Y19198640D01*
G37*
G36*
X-17932402Y19301664D02*
G01*
X-17911234Y19295052D01*
X-17900841Y19271880D01*
X-17898813Y19222134D01*
X-17902739Y19135803D01*
X-17905606Y19095136D01*
X-17921089Y19000617D01*
X-17951259Y18942343D01*
X-18001788Y18912851D01*
X-18078346Y18904680D01*
X-18092813Y18904944D01*
X-18142225Y18915641D01*
X-18158375Y18945572D01*
X-18159230Y18957777D01*
X-18162891Y18974371D01*
X-18171772Y18945572D01*
X-18185187Y18923014D01*
X-18227479Y18904680D01*
X-18241084Y18905794D01*
X-18257919Y18916904D01*
X-18267393Y18947466D01*
X-18271566Y19006568D01*
X-18272500Y19103300D01*
X-18272199Y19169676D01*
X-18269556Y19241240D01*
X-18262369Y19281043D01*
X-18248489Y19298224D01*
X-18225766Y19301920D01*
X-18211424Y19300941D01*
X-18190601Y19287898D01*
X-18181217Y19250688D01*
X-18179031Y19178074D01*
X-18178487Y19148356D01*
X-18165810Y19061752D01*
X-18134405Y19013260D01*
X-18081712Y18998148D01*
X-18075632Y18998424D01*
X-18030223Y19024671D01*
X-18001877Y19091374D01*
X-17992095Y19195232D01*
X-17992016Y19211497D01*
X-17987841Y19269773D01*
X-17973271Y19295893D01*
X-17942724Y19301920D01*
X-17932402Y19301664D01*
G37*
G36*
X-22560356Y19199708D02*
G01*
X-22551735Y19199563D01*
X-22409542Y19196506D01*
X-22304517Y19192165D01*
X-22227569Y19185411D01*
X-22169609Y19175116D01*
X-22121544Y19160153D01*
X-22074284Y19139392D01*
X-21979941Y19081279D01*
X-21884963Y18978174D01*
X-21826719Y18846262D01*
X-21825821Y18842653D01*
X-21818510Y18785113D01*
X-21812401Y18683098D01*
X-21807548Y18538629D01*
X-21804005Y18353725D01*
X-21801823Y18130405D01*
X-21801057Y17870687D01*
X-21800927Y16988580D01*
X-22069648Y16988580D01*
X-22338369Y16988580D01*
X-22338369Y17513240D01*
X-22338831Y17639144D01*
X-22341660Y17818247D01*
X-22347005Y17955129D01*
X-22354799Y18048306D01*
X-22364974Y18096290D01*
X-22370321Y18106894D01*
X-22428518Y18169536D01*
X-22512455Y18209787D01*
X-22607433Y18224996D01*
X-22698755Y18212511D01*
X-22771722Y18169679D01*
X-22829077Y18112324D01*
X-22829077Y17550452D01*
X-22829077Y16988580D01*
X-23097799Y16988580D01*
X-23366520Y16988580D01*
X-23366520Y17583290D01*
X-23366353Y17690169D01*
X-23364590Y17889579D01*
X-23360295Y18050140D01*
X-23352724Y18177230D01*
X-23341131Y18276225D01*
X-23324772Y18352501D01*
X-23302901Y18411436D01*
X-23274773Y18458406D01*
X-23239644Y18498787D01*
X-23169228Y18554523D01*
X-23076121Y18594853D01*
X-22956306Y18617192D01*
X-22800661Y18624144D01*
X-22736664Y18622948D01*
X-22612092Y18608530D01*
X-22518176Y18574017D01*
X-22444982Y18514697D01*
X-22382575Y18425859D01*
X-22315441Y18308819D01*
X-22315221Y18559193D01*
X-22315216Y18568942D01*
X-22317092Y18690246D01*
X-22326939Y18772822D01*
X-22351008Y18824153D01*
X-22395548Y18851722D01*
X-22466808Y18863014D01*
X-22571039Y18865512D01*
X-22624912Y18865193D01*
X-22724419Y18858562D01*
X-22788911Y18841246D01*
X-22826335Y18810254D01*
X-22844642Y18762598D01*
X-22858286Y18694376D01*
X-23112403Y18694376D01*
X-23366520Y18694376D01*
X-23366520Y18813448D01*
X-23366049Y18835638D01*
X-23340690Y18962928D01*
X-23276882Y19063768D01*
X-23174914Y19137833D01*
X-23035076Y19184799D01*
X-23010578Y19188535D01*
X-22932587Y19194629D01*
X-22824295Y19198751D01*
X-22696589Y19200558D01*
X-22560356Y19199708D01*
G37*
G36*
X-18957987Y18641365D02*
G01*
X-18815838Y18634990D01*
X-18687898Y18624476D01*
X-18584970Y18610089D01*
X-18517854Y18592092D01*
X-18453910Y18560204D01*
X-18345972Y18475670D01*
X-18273707Y18365311D01*
X-18235410Y18225947D01*
X-18229375Y18054402D01*
X-18231298Y18023588D01*
X-18247820Y17910171D01*
X-18281597Y17820745D01*
X-18337506Y17752047D01*
X-18420427Y17700814D01*
X-18535238Y17663786D01*
X-18686818Y17637698D01*
X-18880043Y17619289D01*
X-18975791Y17612053D01*
X-19083838Y17602290D01*
X-19158387Y17592329D01*
X-19207311Y17580652D01*
X-19238477Y17565744D01*
X-19259758Y17546086D01*
X-19290701Y17501087D01*
X-19296021Y17451127D01*
X-19264275Y17391020D01*
X-19258080Y17382582D01*
X-19233464Y17359518D01*
X-19196815Y17346373D01*
X-19136579Y17340460D01*
X-19041201Y17339086D01*
X-18964650Y17339491D01*
X-18899907Y17343088D01*
X-18861102Y17353480D01*
X-18836582Y17374264D01*
X-18814697Y17409040D01*
X-18774892Y17478993D01*
X-18532406Y17479141D01*
X-18289921Y17479289D01*
X-18301314Y17360713D01*
X-18305945Y17324088D01*
X-18339913Y17215044D01*
X-18406498Y17131042D01*
X-18512592Y17062350D01*
X-18541993Y17048515D01*
X-18601874Y17027218D01*
X-18673136Y17012648D01*
X-18767562Y17002755D01*
X-18896934Y16995489D01*
X-18988048Y16992958D01*
X-19122011Y16993539D01*
X-19245949Y16998528D01*
X-19341571Y17007435D01*
X-19478710Y17033735D01*
X-19606662Y17080797D01*
X-19697171Y17149223D01*
X-19754410Y17243941D01*
X-19782556Y17369881D01*
X-19785781Y17531972D01*
X-19778151Y17637998D01*
X-19758428Y17738129D01*
X-19722005Y17811196D01*
X-19663063Y17867925D01*
X-19575782Y17919041D01*
X-19571972Y17920938D01*
X-19518911Y17943549D01*
X-19458700Y17960366D01*
X-19381444Y17973045D01*
X-19277251Y17983243D01*
X-19136225Y17992616D01*
X-19068889Y17996701D01*
X-18945337Y18006117D01*
X-18858099Y18017729D01*
X-18799945Y18034100D01*
X-18763643Y18057791D01*
X-18741962Y18091364D01*
X-18727670Y18137383D01*
X-18724445Y18165288D01*
X-18746024Y18225032D01*
X-18803731Y18271346D01*
X-18890745Y18301414D01*
X-19000242Y18312420D01*
X-19125398Y18301547D01*
X-19169802Y18291412D01*
X-19219134Y18263290D01*
X-19252292Y18209423D01*
X-19285717Y18133566D01*
X-19551654Y18133566D01*
X-19817590Y18133566D01*
X-19801926Y18244560D01*
X-19770343Y18372046D01*
X-19706443Y18480893D01*
X-19608291Y18560576D01*
X-19471990Y18615478D01*
X-19452652Y18620185D01*
X-19361679Y18633012D01*
X-19241709Y18640640D01*
X-19103545Y18643337D01*
X-18957987Y18641365D01*
G37*
G36*
X-17366636Y18639291D02*
G01*
X-17247413Y18630493D01*
X-17160480Y18611370D01*
X-17095704Y18577398D01*
X-17042954Y18524057D01*
X-16992099Y18446825D01*
X-16938469Y18355554D01*
X-16945365Y18495756D01*
X-16952261Y18635958D01*
X-16687261Y18635958D01*
X-16422261Y18635958D01*
X-16430723Y17993364D01*
X-16432236Y17881886D01*
X-16434916Y17714101D01*
X-16437951Y17583759D01*
X-16441825Y17484884D01*
X-16447021Y17411503D01*
X-16454026Y17357642D01*
X-16463323Y17317325D01*
X-16475397Y17284578D01*
X-16490732Y17253428D01*
X-16518109Y17206695D01*
X-16576272Y17135701D01*
X-16649800Y17082258D01*
X-16744863Y17044236D01*
X-16867633Y17019506D01*
X-17024282Y17005936D01*
X-17220982Y17001398D01*
X-17318436Y17001824D01*
X-17489215Y17008317D01*
X-17622774Y17023972D01*
X-17725244Y17050710D01*
X-17802753Y17090454D01*
X-17861433Y17145126D01*
X-17907413Y17216648D01*
X-17911278Y17224614D01*
X-17935472Y17301997D01*
X-17945361Y17384660D01*
X-17945361Y17479289D01*
X-17676640Y17479289D01*
X-17617943Y17479201D01*
X-17521305Y17477934D01*
X-17459870Y17474101D01*
X-17425751Y17466370D01*
X-17411062Y17453407D01*
X-17407918Y17433879D01*
X-17390741Y17385757D01*
X-17339250Y17345717D01*
X-17265116Y17321372D01*
X-17180204Y17314887D01*
X-17096381Y17328425D01*
X-17025513Y17364149D01*
X-17000267Y17385846D01*
X-16980244Y17413891D01*
X-16969352Y17454477D01*
X-16964837Y17518998D01*
X-16963944Y17618850D01*
X-16963944Y17825121D01*
X-17041029Y17748036D01*
X-17074776Y17716720D01*
X-17123600Y17685354D01*
X-17185341Y17666677D01*
X-17276903Y17653947D01*
X-17455107Y17645061D01*
X-17631344Y17661895D01*
X-17776597Y17706543D01*
X-17888050Y17778094D01*
X-17962886Y17875638D01*
X-17980892Y17917629D01*
X-18010695Y18049642D01*
X-18012437Y18129050D01*
X-17477662Y18129050D01*
X-17477235Y18111140D01*
X-17460781Y18044150D01*
X-17416345Y18000625D01*
X-17338292Y17977072D01*
X-17220982Y17969997D01*
X-17192006Y17970306D01*
X-17083662Y17980648D01*
X-17013355Y18008224D01*
X-16975448Y18056526D01*
X-16964302Y18129050D01*
X-16964991Y18158176D01*
X-16977652Y18227799D01*
X-17013574Y18269732D01*
X-17082268Y18297563D01*
X-17094769Y18301110D01*
X-17144302Y18312937D01*
X-17189491Y18316368D01*
X-17247118Y18311447D01*
X-17333962Y18298218D01*
X-17374779Y18290138D01*
X-17438057Y18262482D01*
X-17469147Y18212558D01*
X-17477662Y18129050D01*
X-18012437Y18129050D01*
X-18013998Y18200232D01*
X-17989952Y18354383D01*
X-17986528Y18366779D01*
X-17933698Y18472033D01*
X-17849250Y18561575D01*
X-17746741Y18620567D01*
X-17715355Y18627763D01*
X-17638815Y18636018D01*
X-17538226Y18640704D01*
X-17427073Y18640961D01*
X-17366636Y18639291D01*
G37*
G36*
X-20005571Y17999989D02*
G01*
X-20005636Y17994585D01*
X-20008238Y17801194D01*
X-20011128Y17648557D01*
X-20014717Y17530839D01*
X-20019417Y17442205D01*
X-20025637Y17376822D01*
X-20033788Y17328853D01*
X-20044281Y17292466D01*
X-20057527Y17261824D01*
X-20108830Y17183299D01*
X-20213872Y17092957D01*
X-20352169Y17032517D01*
X-20356038Y17031435D01*
X-20433603Y17017845D01*
X-20543557Y17008167D01*
X-20674622Y17002402D01*
X-20815516Y17000552D01*
X-20954961Y17002620D01*
X-21081677Y17008608D01*
X-21184383Y17018518D01*
X-21251801Y17032351D01*
X-21339268Y17072600D01*
X-21437804Y17156293D01*
X-21499302Y17265809D01*
X-21520522Y17396753D01*
X-21520522Y17479289D01*
X-21251801Y17479289D01*
X-21193104Y17479201D01*
X-21096466Y17477934D01*
X-21035031Y17474101D01*
X-21000912Y17466370D01*
X-20986223Y17453407D01*
X-20983079Y17433879D01*
X-20965902Y17385757D01*
X-20914411Y17345717D01*
X-20840277Y17321372D01*
X-20755365Y17314887D01*
X-20671542Y17328425D01*
X-20600674Y17364149D01*
X-20572514Y17388791D01*
X-20554052Y17417002D01*
X-20544144Y17458733D01*
X-20540224Y17525052D01*
X-20539727Y17627029D01*
X-20539788Y17646973D01*
X-20540592Y17739684D01*
X-20543340Y17792925D01*
X-20549678Y17812915D01*
X-20561252Y17805871D01*
X-20579709Y17778011D01*
X-20615434Y17733020D01*
X-20671297Y17695305D01*
X-20749990Y17671156D01*
X-20859313Y17658319D01*
X-21007070Y17654542D01*
X-21098439Y17655216D01*
X-21188057Y17659297D01*
X-21254148Y17669005D01*
X-21309911Y17686508D01*
X-21368545Y17713978D01*
X-21453811Y17768047D01*
X-21523017Y17845325D01*
X-21564776Y17947023D01*
X-21584796Y18082881D01*
X-21587112Y18129050D01*
X-21052823Y18129050D01*
X-21052396Y18111140D01*
X-21035942Y18044150D01*
X-20991506Y18000625D01*
X-20913453Y17977072D01*
X-20796143Y17969997D01*
X-20767167Y17970306D01*
X-20658823Y17980648D01*
X-20588516Y18008224D01*
X-20550609Y18056526D01*
X-20539463Y18129050D01*
X-20540562Y18165125D01*
X-20555349Y18232842D01*
X-20595219Y18272957D01*
X-20670047Y18298268D01*
X-20721185Y18309275D01*
X-20778763Y18315991D01*
X-20838174Y18312159D01*
X-20921254Y18297731D01*
X-20952721Y18290643D01*
X-21014068Y18262388D01*
X-21044424Y18212384D01*
X-21052823Y18129050D01*
X-21587112Y18129050D01*
X-21587279Y18132388D01*
X-21576557Y18297167D01*
X-21533511Y18429533D01*
X-21457307Y18531323D01*
X-21347105Y18604373D01*
X-21330588Y18611705D01*
X-21276012Y18629838D01*
X-21211160Y18640099D01*
X-21123934Y18643819D01*
X-21002234Y18642330D01*
X-20943229Y18640386D01*
X-20823350Y18630974D01*
X-20735940Y18611452D01*
X-20670905Y18577280D01*
X-20618151Y18523918D01*
X-20567584Y18446825D01*
X-20514278Y18355554D01*
X-20519577Y18495756D01*
X-20524875Y18635958D01*
X-20261336Y18642583D01*
X-19997797Y18649209D01*
X-20005571Y17999989D01*
G37*
G36*
X-24885379Y17537706D02*
G01*
X-24885379Y17175517D01*
X-24663392Y17175517D01*
X-24441405Y17175517D01*
X-24441405Y17537706D01*
X-24441405Y17899896D01*
X-24301203Y17899896D01*
X-24161000Y17899896D01*
X-24161000Y17397504D01*
X-24161000Y16895112D01*
X-24406354Y16895112D01*
X-24651709Y16895112D01*
X-24655448Y16819169D01*
X-24659188Y16743226D01*
X-24668612Y16819169D01*
X-24669194Y16823576D01*
X-24687183Y16880951D01*
X-24712798Y16896480D01*
X-24736589Y16871534D01*
X-24749105Y16807485D01*
X-24753033Y16719860D01*
X-24762199Y16807485D01*
X-24762396Y16809324D01*
X-24777929Y16872945D01*
X-24805005Y16895112D01*
X-24805499Y16895107D01*
X-24831410Y16873051D01*
X-24842573Y16807485D01*
X-24846501Y16719860D01*
X-24855667Y16807485D01*
X-24855864Y16809324D01*
X-24871398Y16872945D01*
X-24898473Y16895112D01*
X-24898967Y16895107D01*
X-24924878Y16873051D01*
X-24936041Y16807485D01*
X-24939969Y16719860D01*
X-24949135Y16807485D01*
X-24949332Y16809324D01*
X-24964866Y16872945D01*
X-24991942Y16895112D01*
X-24992436Y16895107D01*
X-25018346Y16873051D01*
X-25029510Y16807485D01*
X-25033438Y16719860D01*
X-25042604Y16807485D01*
X-25043846Y16818968D01*
X-25054323Y16870487D01*
X-25079046Y16891260D01*
X-25132144Y16895112D01*
X-25145239Y16895050D01*
X-25191355Y16889464D01*
X-25210640Y16864902D01*
X-25216446Y16807485D01*
X-25220374Y16719860D01*
X-25229540Y16807485D01*
X-25229737Y16809324D01*
X-25245271Y16872945D01*
X-25272346Y16895112D01*
X-25272840Y16895107D01*
X-25298751Y16873051D01*
X-25309914Y16807485D01*
X-25313843Y16719860D01*
X-25323009Y16807485D01*
X-25324347Y16818523D01*
X-25342340Y16879077D01*
X-25367578Y16897421D01*
X-25390960Y16873558D01*
X-25403383Y16807485D01*
X-25407311Y16719860D01*
X-25416477Y16807485D01*
X-25425643Y16895112D01*
X-25657903Y16895112D01*
X-25890163Y16895112D01*
X-25890163Y17035314D01*
X-25890163Y17175517D01*
X-25527973Y17175517D01*
X-25165784Y17175517D01*
X-25165784Y17397504D01*
X-25165784Y17619491D01*
X-25527973Y17619491D01*
X-25890163Y17619491D01*
X-25890163Y17732432D01*
X-25749961Y17732432D01*
X-25747929Y17720206D01*
X-25720740Y17693973D01*
X-25679020Y17690197D01*
X-25644809Y17712959D01*
X-25632714Y17719226D01*
X-25581254Y17728074D01*
X-25499601Y17734100D01*
X-25398076Y17736326D01*
X-25345302Y17735845D01*
X-25250092Y17731690D01*
X-25187991Y17723834D01*
X-25165784Y17712959D01*
X-25157128Y17696714D01*
X-25123413Y17689808D01*
X-25083106Y17700476D01*
X-25056796Y17726213D01*
X-25053932Y17735057D01*
X-25059114Y17779715D01*
X-25093331Y17800819D01*
X-25142683Y17788317D01*
X-25148843Y17785196D01*
X-25198959Y17773305D01*
X-25276539Y17765061D01*
X-25369253Y17760592D01*
X-25464768Y17760029D01*
X-25550754Y17763500D01*
X-25614878Y17771134D01*
X-25644809Y17783060D01*
X-25661775Y17801382D01*
X-25700669Y17807761D01*
X-25735113Y17782346D01*
X-25749961Y17732432D01*
X-25890163Y17732432D01*
X-25890163Y17759693D01*
X-25890163Y17899896D01*
X-25387771Y17899896D01*
X-24885379Y17899896D01*
X-24885379Y17537706D01*
G37*
G36*
X-24658084Y19413433D02*
G01*
X-24654701Y19387833D01*
X-24638614Y19341184D01*
X-24609437Y19329509D01*
X-24599437Y19330006D01*
X-24545315Y19330671D01*
X-24462833Y19330323D01*
X-24365462Y19328989D01*
X-24161000Y19325287D01*
X-24161000Y19185084D01*
X-24161000Y19044882D01*
X-24523190Y19044882D01*
X-24885379Y19044882D01*
X-24885379Y18835187D01*
X-24885379Y18625492D01*
X-24529031Y18619042D01*
X-24172684Y18612591D01*
X-24172684Y18472389D01*
X-24172684Y18332186D01*
X-24669234Y18329733D01*
X-25165784Y18327279D01*
X-25165784Y18485342D01*
X-24997231Y18485342D01*
X-24992049Y18440683D01*
X-24957832Y18419580D01*
X-24908480Y18432082D01*
X-24865857Y18445350D01*
X-24790936Y18454870D01*
X-24697707Y18459914D01*
X-24599131Y18460428D01*
X-24508167Y18456356D01*
X-24437775Y18447643D01*
X-24400915Y18434236D01*
X-24360457Y18418421D01*
X-24319676Y18433712D01*
X-24301203Y18472389D01*
X-24319026Y18510503D01*
X-24359580Y18526335D01*
X-24400915Y18510542D01*
X-24416954Y18502953D01*
X-24470607Y18493342D01*
X-24548299Y18487022D01*
X-24638260Y18484070D01*
X-24728719Y18484560D01*
X-24807905Y18488568D01*
X-24864049Y18496169D01*
X-24885379Y18507439D01*
X-24894035Y18523684D01*
X-24927750Y18530590D01*
X-24968058Y18519923D01*
X-24994367Y18494185D01*
X-24997231Y18485342D01*
X-25165784Y18485342D01*
X-25165784Y18686080D01*
X-25165784Y19044882D01*
X-25387771Y19044882D01*
X-25609758Y19044882D01*
X-25609758Y18682692D01*
X-25609758Y18320503D01*
X-25749961Y18320503D01*
X-25890163Y18320503D01*
X-25890163Y18822895D01*
X-25890163Y19325287D01*
X-25656492Y19325287D01*
X-25422822Y19325287D01*
X-25418894Y19412913D01*
X-25414966Y19500540D01*
X-25405800Y19412913D01*
X-25405603Y19411075D01*
X-25390069Y19347453D01*
X-25362993Y19325287D01*
X-25362499Y19325291D01*
X-25336589Y19347348D01*
X-25325425Y19412913D01*
X-25321497Y19500540D01*
X-25312331Y19412913D01*
X-25312135Y19411075D01*
X-25296601Y19347453D01*
X-25269525Y19325287D01*
X-25269031Y19325291D01*
X-25243120Y19347348D01*
X-25231957Y19412913D01*
X-25228029Y19500540D01*
X-25219002Y19415250D01*
X-25218240Y19408194D01*
X-25207875Y19355396D01*
X-25183183Y19333985D01*
X-25129462Y19329960D01*
X-25120100Y19329990D01*
X-25071490Y19335101D01*
X-25051102Y19358836D01*
X-25045021Y19415250D01*
X-25041092Y19500540D01*
X-25031926Y19412913D01*
X-25031730Y19411075D01*
X-25016196Y19347453D01*
X-24989120Y19325287D01*
X-24988626Y19325291D01*
X-24962716Y19347348D01*
X-24951552Y19412913D01*
X-24947624Y19500540D01*
X-24938458Y19412913D01*
X-24938262Y19411075D01*
X-24922728Y19347453D01*
X-24895652Y19325287D01*
X-24895158Y19325291D01*
X-24869247Y19347348D01*
X-24858084Y19412913D01*
X-24854156Y19500540D01*
X-24844990Y19412913D01*
X-24844793Y19411075D01*
X-24829260Y19347453D01*
X-24802184Y19325287D01*
X-24801690Y19325291D01*
X-24775779Y19347348D01*
X-24764616Y19412913D01*
X-24760688Y19500540D01*
X-24751522Y19412913D01*
X-24751325Y19411075D01*
X-24735791Y19347453D01*
X-24708716Y19325287D01*
X-24708222Y19325291D01*
X-24682311Y19347348D01*
X-24671148Y19412913D01*
X-24667219Y19500540D01*
X-24658084Y19413433D01*
G37*
%TD*%
M02*
