%TF.GenerationSoftware,KiCad,Pcbnew,10.0.4*%
%TF.CreationDate,2026-07-06T22:31:50+03:00*%
%TF.ProjectId,LM2596project,4c4d3235-3936-4707-926f-6a6563742e6b,rev?*%
%TF.SameCoordinates,Original*%
%TF.FileFunction,Copper,L1,Top*%
%TF.FilePolarity,Positive*%
%FSLAX46Y46*%
G04 Gerber Fmt 4.6, Leading zero omitted, Abs format (unit mm)*
G04 Created by KiCad (PCBNEW 10.0.4) date 2026-07-06 22:31:50*
%MOMM*%
%LPD*%
G01*
G04 APERTURE LIST*
G04 Aperture macros list*
%AMRoundRect*
0 Rectangle with rounded corners*
0 $1 Rounding radius*
0 $2 $3 $4 $5 $6 $7 $8 $9 X,Y pos of 4 corners*
0 Add a 4 corners polygon primitive as box body*
4,1,4,$2,$3,$4,$5,$6,$7,$8,$9,$2,$3,0*
0 Add four circle primitives for the rounded corners*
1,1,$1+$1,$2,$3*
1,1,$1+$1,$4,$5*
1,1,$1+$1,$6,$7*
1,1,$1+$1,$8,$9*
0 Add four rect primitives between the rounded corners*
20,1,$1+$1,$2,$3,$4,$5,0*
20,1,$1+$1,$4,$5,$6,$7,0*
20,1,$1+$1,$6,$7,$8,$9,0*
20,1,$1+$1,$8,$9,$2,$3,0*%
G04 Aperture macros list end*
%ADD10C,0.300000*%
%TA.AperFunction,NonConductor*%
%ADD11C,0.200000*%
%TD*%
%TA.AperFunction,ComponentPad*%
%ADD12RoundRect,0.250001X0.949999X-0.949999X0.949999X0.949999X-0.949999X0.949999X-0.949999X-0.949999X0*%
%TD*%
%TA.AperFunction,ComponentPad*%
%ADD13C,2.400000*%
%TD*%
%TA.AperFunction,ComponentPad*%
%ADD14C,6.400000*%
%TD*%
%TA.AperFunction,ComponentPad*%
%ADD15RoundRect,0.250000X-0.550000X0.550000X-0.550000X-0.550000X0.550000X-0.550000X0.550000X0.550000X0*%
%TD*%
%TA.AperFunction,ComponentPad*%
%ADD16C,1.600000*%
%TD*%
%TA.AperFunction,ComponentPad*%
%ADD17C,1.440000*%
%TD*%
%TA.AperFunction,SMDPad,CuDef*%
%ADD18RoundRect,0.250000X1.400000X1.000000X-1.400000X1.000000X-1.400000X-1.000000X1.400000X-1.000000X0*%
%TD*%
%TA.AperFunction,ComponentPad*%
%ADD19RoundRect,0.250000X0.750000X-0.750000X0.750000X0.750000X-0.750000X0.750000X-0.750000X-0.750000X0*%
%TD*%
%TA.AperFunction,ComponentPad*%
%ADD20C,2.000000*%
%TD*%
%TA.AperFunction,ComponentPad*%
%ADD21RoundRect,0.250000X-0.550000X-0.550000X0.550000X-0.550000X0.550000X0.550000X-0.550000X0.550000X0*%
%TD*%
%TA.AperFunction,SMDPad,CuDef*%
%ADD22R,5.400000X2.900000*%
%TD*%
%TA.AperFunction,ComponentPad*%
%ADD23RoundRect,0.250000X-0.750000X0.750000X-0.750000X-0.750000X0.750000X-0.750000X0.750000X0.750000X0*%
%TD*%
%TA.AperFunction,SMDPad,CuDef*%
%ADD24RoundRect,0.250000X0.300000X-2.050000X0.300000X2.050000X-0.300000X2.050000X-0.300000X-2.050000X0*%
%TD*%
%TA.AperFunction,SMDPad,CuDef*%
%ADD25RoundRect,0.250002X5.149998X-4.449998X5.149998X4.449998X-5.149998X4.449998X-5.149998X-4.449998X0*%
%TD*%
%TA.AperFunction,ComponentPad*%
%ADD26RoundRect,0.250001X-0.949999X0.949999X-0.949999X-0.949999X0.949999X-0.949999X0.949999X0.949999X0*%
%TD*%
%TA.AperFunction,SMDPad,CuDef*%
%ADD27RoundRect,0.250000X0.262500X0.450000X-0.262500X0.450000X-0.262500X-0.450000X0.262500X-0.450000X0*%
%TD*%
%TA.AperFunction,ViaPad*%
%ADD28C,0.600000*%
%TD*%
%TA.AperFunction,Conductor*%
%ADD29C,0.750000*%
%TD*%
%TA.AperFunction,Conductor*%
%ADD30C,0.200000*%
%TD*%
%TA.AperFunction,Conductor*%
%ADD31C,2.000000*%
%TD*%
%ADD32C,0.300000*%
%ADD33C,0.350000*%
G04 APERTURE END LIST*
D10*
G36*
X-23858598Y40921315D02*
G01*
X-23938637Y40745496D01*
X-24356659Y40745686D01*
X-24447966Y40564011D01*
X-24314043Y40534776D01*
X-24199424Y40490860D01*
X-24101345Y40433140D01*
X-24017671Y40361582D01*
X-23957285Y40287498D01*
X-23915241Y40208946D01*
X-23890063Y40124707D01*
X-23881533Y40033075D01*
X-23886636Y39960894D01*
X-23901576Y39893431D01*
X-23926230Y39829855D01*
X-23977257Y39742540D01*
X-24038501Y39670812D01*
X-24110190Y39611446D01*
X-24189217Y39565184D01*
X-24269264Y39533620D01*
X-24349595Y39515023D01*
X-24431043Y39508874D01*
X-24513884Y39514676D01*
X-24572499Y39529695D01*
X-24612923Y39551455D01*
X-24646178Y39582807D01*
X-24664074Y39613634D01*
X-24669759Y39645178D01*
X-24664034Y39671866D01*
X-24646197Y39695909D01*
X-24619890Y39712303D01*
X-24586653Y39717955D01*
X-24540128Y39709691D01*
X-24471912Y39667711D01*
X-24418811Y39637318D01*
X-24367261Y39619985D01*
X-24316231Y39614335D01*
X-24240011Y39624318D01*
X-24170546Y39654127D01*
X-24105622Y39705555D01*
X-24055110Y39771003D01*
X-24025135Y39844217D01*
X-24014846Y39927806D01*
X-24023655Y40009861D01*
X-24050193Y40088256D01*
X-24095705Y40164605D01*
X-24155222Y40231224D01*
X-24228952Y40287756D01*
X-24318927Y40334425D01*
X-24394961Y40359230D01*
X-24494667Y40377835D01*
X-24623259Y40388236D01*
X-24356579Y40921541D01*
X-23858598Y40921315D01*
G37*
G36*
X-22809331Y40920838D02*
G01*
X-22889370Y40745020D01*
X-23307392Y40745209D01*
X-23398699Y40563534D01*
X-23264776Y40534299D01*
X-23150156Y40490384D01*
X-23052078Y40432664D01*
X-22968404Y40361106D01*
X-22908018Y40287022D01*
X-22865974Y40208470D01*
X-22840796Y40124231D01*
X-22832266Y40032598D01*
X-22837368Y39960418D01*
X-22852309Y39892955D01*
X-22876963Y39829378D01*
X-22927990Y39742064D01*
X-22989234Y39670335D01*
X-23060923Y39610970D01*
X-23139950Y39564708D01*
X-23219997Y39533144D01*
X-23300328Y39514546D01*
X-23381776Y39508397D01*
X-23464617Y39514199D01*
X-23523231Y39529219D01*
X-23563656Y39550978D01*
X-23596911Y39582330D01*
X-23614807Y39613157D01*
X-23620492Y39644702D01*
X-23614767Y39671390D01*
X-23596930Y39695432D01*
X-23570623Y39711826D01*
X-23537386Y39717479D01*
X-23490861Y39709215D01*
X-23422645Y39667235D01*
X-23369544Y39636841D01*
X-23317993Y39619509D01*
X-23266964Y39613858D01*
X-23190744Y39623841D01*
X-23121279Y39653651D01*
X-23056355Y39705079D01*
X-23005842Y39770526D01*
X-22975868Y39843740D01*
X-22965579Y39927329D01*
X-22974388Y40009385D01*
X-23000926Y40087780D01*
X-23046438Y40164129D01*
X-23105955Y40230748D01*
X-23179684Y40287279D01*
X-23269660Y40333948D01*
X-23345694Y40358754D01*
X-23445400Y40377359D01*
X-23573992Y40387759D01*
X-23307312Y40921064D01*
X-22809331Y40920838D01*
G37*
G36*
X-22409253Y39729515D02*
G01*
X-22364771Y39721095D01*
X-22328301Y39696139D01*
X-22303747Y39659452D01*
X-22295548Y39615707D01*
X-22303900Y39572075D01*
X-22328924Y39535305D01*
X-22365647Y39510393D01*
X-22409356Y39502094D01*
X-22453074Y39510430D01*
X-22489849Y39535378D01*
X-22514769Y39572164D01*
X-22523061Y39615810D01*
X-22514661Y39660300D01*
X-22489776Y39696761D01*
X-22453013Y39721319D01*
X-22409253Y39729515D01*
G37*
G36*
X-21547829Y40940852D02*
G01*
X-21472765Y40915087D01*
X-21402870Y40871713D01*
X-21336964Y40808520D01*
X-21272251Y40717344D01*
X-21225852Y40616434D01*
X-21197338Y40503953D01*
X-21187500Y40377516D01*
X-21194731Y40263517D01*
X-21216071Y40154389D01*
X-21251498Y40049186D01*
X-21301451Y39947090D01*
X-21363539Y39852074D01*
X-21436576Y39765514D01*
X-21521173Y39686871D01*
X-21618232Y39615857D01*
X-21703248Y39568223D01*
X-21790961Y39534651D01*
X-21882202Y39514519D01*
X-21977959Y39507760D01*
X-22036395Y39507786D01*
X-22036375Y39550285D01*
X-21948985Y39558038D01*
X-21866636Y39578383D01*
X-21788319Y39611355D01*
X-21716970Y39657273D01*
X-21643216Y39724761D01*
X-21566391Y39818250D01*
X-21502150Y39920246D01*
X-21452526Y40028665D01*
X-21417133Y40144430D01*
X-21528084Y40083798D01*
X-21624037Y40051101D01*
X-21708256Y40041064D01*
X-21778995Y40048163D01*
X-21843497Y40068962D01*
X-21903249Y40103732D01*
X-21959256Y40153926D01*
X-22003822Y40213113D01*
X-22036245Y40281540D01*
X-22056516Y40360962D01*
X-22063626Y40453660D01*
X-22056896Y40543052D01*
X-22053223Y40558540D01*
X-21881128Y40558540D01*
X-21874598Y40449827D01*
X-21856313Y40359476D01*
X-21827880Y40284515D01*
X-21790148Y40222451D01*
X-21740835Y40172636D01*
X-21686938Y40144311D01*
X-21626240Y40134816D01*
X-21577445Y40139847D01*
X-21514489Y40157113D01*
X-21453283Y40184366D01*
X-21400704Y40220259D01*
X-21386260Y40346192D01*
X-21382198Y40432010D01*
X-21390199Y40532188D01*
X-21415898Y40645341D01*
X-21443185Y40719460D01*
X-21475272Y40777090D01*
X-21511622Y40821056D01*
X-21555839Y40855620D01*
X-21602347Y40875550D01*
X-21652553Y40882211D01*
X-21709686Y40873544D01*
X-21762341Y40847278D01*
X-21812417Y40800767D01*
X-21848455Y40742510D01*
X-21872233Y40663815D01*
X-21881128Y40558540D01*
X-22053223Y40558540D01*
X-22037219Y40626028D01*
X-22004745Y40703764D01*
X-21958973Y40777204D01*
X-21889339Y40854240D01*
X-21812518Y40907147D01*
X-21726945Y40938785D01*
X-21629900Y40949612D01*
X-21547829Y40940852D01*
G37*
G36*
X-20990635Y40657879D02*
G01*
X-20945406Y40747863D01*
X-20895284Y40818855D01*
X-20840511Y40873691D01*
X-20776341Y40915019D01*
X-20701910Y40940328D01*
X-20614521Y40949151D01*
X-20532412Y40941691D01*
X-20464002Y40920725D01*
X-20406612Y40887214D01*
X-20358390Y40840682D01*
X-20319986Y40784008D01*
X-20297999Y40726882D01*
X-20290783Y40667911D01*
X-20300706Y40598446D01*
X-20332223Y40524710D01*
X-20390116Y40444264D01*
X-20481526Y40355122D01*
X-20400647Y40315277D01*
X-20336975Y40267383D01*
X-20287968Y40211419D01*
X-20251957Y40146522D01*
X-20230037Y40074019D01*
X-20222488Y39992029D01*
X-20229899Y39903632D01*
X-20251479Y39822977D01*
X-20287061Y39748576D01*
X-20337394Y39679298D01*
X-20400464Y39618999D01*
X-20473585Y39571675D01*
X-20558237Y39536839D01*
X-20656488Y39514914D01*
X-20770881Y39507212D01*
X-20865340Y39512381D01*
X-20925715Y39525088D01*
X-20962016Y39542195D01*
X-21001440Y39580684D01*
X-21012631Y39617231D01*
X-21006781Y39644765D01*
X-20988611Y39669427D01*
X-20962165Y39686274D01*
X-20930623Y39691932D01*
X-20878420Y39683757D01*
X-20799577Y39646260D01*
X-20714507Y39607845D01*
X-20675727Y39599436D01*
X-20633545Y39596542D01*
X-20567265Y39605414D01*
X-20507321Y39631862D01*
X-20451700Y39677518D01*
X-20408422Y39735286D01*
X-20382908Y39798529D01*
X-20374219Y39869274D01*
X-20383036Y39948864D01*
X-20409959Y40027285D01*
X-20439315Y40079944D01*
X-20468355Y40114506D01*
X-20517981Y40152020D01*
X-20589221Y40188933D01*
X-20667277Y40214067D01*
X-20746010Y40222344D01*
X-20778799Y40222358D01*
X-20778782Y40260460D01*
X-20699150Y40279350D01*
X-20616365Y40317997D01*
X-20544401Y40371840D01*
X-20497977Y40432158D01*
X-20470367Y40501777D01*
X-20461000Y40578778D01*
X-20468721Y40645408D01*
X-20490779Y40700673D01*
X-20527052Y40747153D01*
X-20574360Y40782680D01*
X-20628465Y40804028D01*
X-20691429Y40811433D01*
X-20765330Y40801480D01*
X-20832921Y40771660D01*
X-20896420Y40719913D01*
X-20956845Y40641468D01*
X-20990635Y40657879D01*
G37*
G36*
X-19444093Y40939194D02*
G01*
X-19372423Y40910626D01*
X-19302206Y40860849D01*
X-19232303Y40785674D01*
X-19177809Y40703955D01*
X-19134118Y40610288D01*
X-19101539Y40502953D01*
X-19080944Y40379881D01*
X-19073732Y40238712D01*
X-19082338Y40078480D01*
X-19106304Y39942788D01*
X-19143620Y39828049D01*
X-19197606Y39720338D01*
X-19257004Y39640257D01*
X-19321509Y39582849D01*
X-19396308Y39538791D01*
X-19465221Y39514372D01*
X-19530005Y39506648D01*
X-19603673Y39515281D01*
X-19672182Y39540967D01*
X-19737309Y39584934D01*
X-19800123Y39650210D01*
X-19860909Y39741363D01*
X-19908261Y39841523D01*
X-19943089Y39953134D01*
X-19964816Y40077856D01*
X-19970921Y40191218D01*
X-19771495Y40191218D01*
X-19762592Y39999873D01*
X-19738090Y39845680D01*
X-19700999Y39722514D01*
X-19664654Y39650107D01*
X-19623955Y39604167D01*
X-19578748Y39578319D01*
X-19526954Y39569661D01*
X-19473063Y39581005D01*
X-19412168Y39619343D01*
X-19378199Y39656409D01*
X-19347836Y39710352D01*
X-19321875Y39785906D01*
X-19297703Y39905167D01*
X-19280901Y40067624D01*
X-19274480Y40283316D01*
X-19280594Y40442111D01*
X-19297585Y40573058D01*
X-19323484Y40680202D01*
X-19353052Y40756691D01*
X-19385006Y40810780D01*
X-19418754Y40847399D01*
X-19464498Y40872562D01*
X-19520130Y40881243D01*
X-19563887Y40874632D01*
X-19604761Y40854503D01*
X-19644173Y40818742D01*
X-19684887Y40757709D01*
X-19719107Y40670974D01*
X-19744770Y40551159D01*
X-19764836Y40369062D01*
X-19771495Y40191218D01*
X-19970921Y40191218D01*
X-19972342Y40217596D01*
X-19963597Y40374861D01*
X-19939040Y40510196D01*
X-19900440Y40626700D01*
X-19844729Y40735527D01*
X-19781105Y40819362D01*
X-19709723Y40882153D01*
X-19645772Y40919941D01*
X-19582656Y40941588D01*
X-19519092Y40948653D01*
X-19444093Y40939194D01*
G37*
G36*
X-18390415Y40941889D02*
G01*
X-18318758Y40924110D01*
X-18256978Y40895759D01*
X-18203520Y40856923D01*
X-18145038Y40790973D01*
X-18111998Y40722433D01*
X-18101124Y40648964D01*
X-18106861Y40598601D01*
X-18124721Y40546058D01*
X-18156517Y40490171D01*
X-18198772Y40440808D01*
X-18271938Y40378397D01*
X-18387138Y40299857D01*
X-18225095Y40163955D01*
X-18148460Y40080572D01*
X-18104430Y40007979D01*
X-18079049Y39935080D01*
X-18070707Y39860351D01*
X-18077760Y39789603D01*
X-18098405Y39725206D01*
X-18132872Y39665672D01*
X-18182562Y39609992D01*
X-18241192Y39565493D01*
X-18308408Y39533256D01*
X-18385836Y39513186D01*
X-18475609Y39506169D01*
X-18573017Y39514677D01*
X-18655100Y39538664D01*
X-18724751Y39577047D01*
X-18784031Y39630232D01*
X-18833936Y39700335D01*
X-18862590Y39772109D01*
X-18872043Y39847435D01*
X-18871467Y39852676D01*
X-18715237Y39852676D01*
X-18706585Y39767365D01*
X-18682238Y39698032D01*
X-18643159Y39641251D01*
X-18590646Y39597180D01*
X-18530180Y39570934D01*
X-18459189Y39561849D01*
X-18387860Y39569292D01*
X-18329728Y39590290D01*
X-18281932Y39624142D01*
X-18244611Y39669226D01*
X-18222731Y39719137D01*
X-18215276Y39775695D01*
X-18225094Y39845915D01*
X-18254143Y39907696D01*
X-18308721Y39976192D01*
X-18402183Y40068661D01*
X-18548021Y40191395D01*
X-18623461Y40114945D01*
X-18674213Y40035381D01*
X-18704843Y39948005D01*
X-18715237Y39852676D01*
X-18871467Y39852676D01*
X-18865482Y39907091D01*
X-18845328Y39967590D01*
X-18809953Y40030131D01*
X-18764227Y40086683D01*
X-18695006Y40152869D01*
X-18596180Y40230343D01*
X-18704619Y40325481D01*
X-18771699Y40396063D01*
X-18808756Y40447511D01*
X-18835501Y40503669D01*
X-18851143Y40560072D01*
X-18856306Y40617525D01*
X-18849752Y40682749D01*
X-18848479Y40686701D01*
X-18707714Y40686701D01*
X-18701152Y40634242D01*
X-18680652Y40580259D01*
X-18648459Y40529345D01*
X-18603303Y40479016D01*
X-18435297Y40339813D01*
X-18326683Y40447828D01*
X-18279421Y40514132D01*
X-18255038Y40581216D01*
X-18246566Y40658831D01*
X-18253869Y40728022D01*
X-18274279Y40783062D01*
X-18306940Y40827111D01*
X-18350710Y40860194D01*
X-18404735Y40880741D01*
X-18471959Y40888094D01*
X-18539284Y40880975D01*
X-18595166Y40860728D01*
X-18642071Y40827813D01*
X-18679204Y40784269D01*
X-18700558Y40737760D01*
X-18707714Y40686701D01*
X-18848479Y40686701D01*
X-18830510Y40742493D01*
X-18798285Y40798101D01*
X-18751695Y40850485D01*
X-18696817Y40892233D01*
X-18633400Y40922574D01*
X-18559818Y40941531D01*
X-18473947Y40948178D01*
X-18390415Y40941889D01*
G37*
D11*
X-49326573Y37126800D02*
X-49325744Y38952546D01*
X6604227Y37101400D02*
X6605056Y38927146D01*
X-49326010Y38366126D02*
X6604790Y38340726D01*
X-49326010Y38366126D02*
X-48199240Y38952035D01*
X-49326010Y38366126D02*
X-48199773Y37779194D01*
X6604790Y38340726D02*
X5478020Y37754817D01*
X6604790Y38340726D02*
X5478553Y38927658D01*
D10*
G36*
X10717297Y23893454D02*
G01*
X10807338Y23848338D01*
X10878393Y23798304D01*
X10933296Y23743599D01*
X10974704Y23679480D01*
X11000106Y23605082D01*
X11009038Y23517704D01*
X11001680Y23435585D01*
X10980800Y23367149D01*
X10947360Y23309717D01*
X10900888Y23261438D01*
X10844262Y23222963D01*
X10787164Y23200905D01*
X10728201Y23193615D01*
X10658724Y23203451D01*
X10584949Y23234876D01*
X10504431Y23292669D01*
X10415175Y23383968D01*
X10375431Y23303040D01*
X10327617Y23239308D01*
X10271714Y23190231D01*
X10206862Y23154140D01*
X10134386Y23132129D01*
X10052405Y23124478D01*
X9963999Y23131779D01*
X9883318Y23153258D01*
X9808872Y23188747D01*
X9739531Y23238994D01*
X9679154Y23301989D01*
X9631739Y23375052D01*
X9596797Y23459660D01*
X9574750Y23557883D01*
X9566905Y23672267D01*
X9571957Y23766732D01*
X9584589Y23827123D01*
X9601650Y23863445D01*
X9640090Y23902917D01*
X9676623Y23914154D01*
X9704164Y23908337D01*
X9728849Y23890198D01*
X9745729Y23863774D01*
X9751426Y23832239D01*
X9743316Y23780026D01*
X9705918Y23701136D01*
X9667608Y23616018D01*
X9659248Y23577228D01*
X9656407Y23535042D01*
X9665361Y23468773D01*
X9691884Y23408863D01*
X9737609Y23353298D01*
X9795430Y23310092D01*
X9858705Y23284657D01*
X9929462Y23276056D01*
X10009040Y23284972D01*
X10087428Y23311993D01*
X10140051Y23341414D01*
X10174576Y23370497D01*
X10212028Y23420171D01*
X10248852Y23491456D01*
X10273889Y23569543D01*
X10282067Y23648286D01*
X10282042Y23681076D01*
X10320143Y23681106D01*
X10339132Y23601498D01*
X10377883Y23518761D01*
X10431815Y23446864D01*
X10492190Y23400516D01*
X10561844Y23372992D01*
X10638857Y23363721D01*
X10705477Y23371524D01*
X10760714Y23393652D01*
X10807149Y23429983D01*
X10842617Y23477335D01*
X10863898Y23531467D01*
X10871224Y23594439D01*
X10861179Y23668328D01*
X10831276Y23735882D01*
X10779449Y23799316D01*
X10700929Y23859644D01*
X10717297Y23893454D01*
G37*
G36*
X9861330Y21987956D02*
G01*
X9591609Y22085104D01*
X9590960Y22904844D01*
X9628970Y22904874D01*
X9857039Y22666734D01*
X10033974Y22502461D01*
X10169028Y22396055D01*
X10279794Y22327078D01*
X10379288Y22281879D01*
X10469390Y22256714D01*
X10551995Y22248805D01*
X10636978Y22258338D01*
X10708473Y22285454D01*
X10769460Y22329944D01*
X10817234Y22388246D01*
X10845096Y22452064D01*
X10854486Y22523635D01*
X10847643Y22589965D01*
X10827571Y22650789D01*
X10793891Y22707502D01*
X10748894Y22755718D01*
X10690695Y22795814D01*
X10616841Y22827712D01*
X10616811Y22865631D01*
X10711040Y22846543D01*
X10789452Y22817805D01*
X10854492Y22780307D01*
X10908084Y22734245D01*
X10952343Y22678301D01*
X10983844Y22616386D01*
X11003147Y22547308D01*
X11009868Y22469444D01*
X11002821Y22386571D01*
X10982310Y22312956D01*
X10948730Y22246878D01*
X10901464Y22187075D01*
X10843489Y22136525D01*
X10782222Y22101557D01*
X10716687Y22080688D01*
X10645465Y22073574D01*
X10576130Y22078828D01*
X10506019Y22094935D01*
X10434401Y22122591D01*
X10327907Y22179609D01*
X10211181Y22260145D01*
X10082771Y22368235D01*
X9831554Y22601686D01*
X9746471Y22686705D01*
X9746759Y22323913D01*
X9749403Y22221534D01*
X9755216Y22168765D01*
X9767912Y22126205D01*
X9788985Y22088374D01*
X9818892Y22055605D01*
X9861300Y22025875D01*
X9861330Y21987956D01*
G37*
G36*
X9790074Y21638480D02*
G01*
X9781710Y21593987D01*
X9756799Y21557487D01*
X9720143Y21532887D01*
X9676408Y21524634D01*
X9632766Y21532931D01*
X9595965Y21557909D01*
X9571007Y21594601D01*
X9562654Y21638300D01*
X9570935Y21682028D01*
X9595838Y21718835D01*
X9632592Y21743800D01*
X9676228Y21752146D01*
X9720728Y21743802D01*
X9757221Y21718962D01*
X9781824Y21682230D01*
X9790074Y21638480D01*
G37*
G36*
X10436806Y21292163D02*
G01*
X10572171Y21267775D01*
X10688724Y21229321D01*
X10797619Y21173745D01*
X10881534Y21110226D01*
X10944414Y21038923D01*
X10982282Y20975018D01*
X11004007Y20911930D01*
X11011151Y20848374D01*
X11001785Y20773363D01*
X10973307Y20701658D01*
X10923617Y20631379D01*
X10848530Y20561382D01*
X10766879Y20506787D01*
X10673266Y20462979D01*
X10565972Y20430266D01*
X10442926Y20409518D01*
X10301765Y20402130D01*
X10141523Y20410536D01*
X10005802Y20434334D01*
X9891016Y20471506D01*
X9783238Y20525358D01*
X9703083Y20584656D01*
X9645594Y20649090D01*
X9601443Y20723834D01*
X9576938Y20792716D01*
X9569492Y20854518D01*
X9632151Y20854518D01*
X9643562Y20800642D01*
X9681976Y20739794D01*
X9719084Y20705871D01*
X9773064Y20675575D01*
X9848651Y20649709D01*
X9967941Y20625685D01*
X10130420Y20609086D01*
X10346119Y20602933D01*
X10504906Y20609245D01*
X10635832Y20626400D01*
X10742945Y20652432D01*
X10819396Y20682095D01*
X10873445Y20714117D01*
X10910023Y20747910D01*
X10935128Y20793685D01*
X10943739Y20849328D01*
X10937074Y20893077D01*
X10916895Y20933925D01*
X10881085Y20973293D01*
X10820000Y21013931D01*
X10733223Y21048043D01*
X10613376Y21073557D01*
X10431255Y21093396D01*
X10253402Y21099833D01*
X10062069Y21090692D01*
X9907906Y21065998D01*
X9784787Y21028754D01*
X9712424Y20992319D01*
X9666536Y20951561D01*
X9640743Y20906323D01*
X9632151Y20854518D01*
X9569492Y20854518D01*
X9569134Y20857491D01*
X9577675Y20931169D01*
X9603275Y20999710D01*
X9647162Y21064892D01*
X9712359Y21127788D01*
X9803436Y21188686D01*
X9903537Y21236163D01*
X10015105Y21271130D01*
X10139800Y21293013D01*
X10279530Y21300713D01*
X10436806Y21292163D01*
G37*
G36*
X9970404Y20193467D02*
G01*
X10030928Y20173388D01*
X10093513Y20138092D01*
X10150122Y20092436D01*
X10216394Y20023297D01*
X10293992Y19924568D01*
X10388994Y20033126D01*
X10459493Y20100293D01*
X10510894Y20137414D01*
X10567020Y20164230D01*
X10623403Y20179941D01*
X10680849Y20185176D01*
X10746081Y20178703D01*
X10805849Y20159536D01*
X10861498Y20127380D01*
X10913940Y20080856D01*
X10955755Y20026029D01*
X10986176Y19962650D01*
X11005225Y19889092D01*
X11011979Y19803229D01*
X11005793Y19719689D01*
X10988103Y19648010D01*
X10959829Y19586195D01*
X10921060Y19532688D01*
X10855184Y19474125D01*
X10786684Y19440999D01*
X10713229Y19430033D01*
X10662859Y19435708D01*
X10610294Y19453502D01*
X10554367Y19485229D01*
X10504952Y19527422D01*
X10442449Y19600511D01*
X10363766Y19715613D01*
X10228066Y19553401D01*
X10144778Y19476661D01*
X10072241Y19432542D01*
X9999373Y19407069D01*
X9924655Y19398634D01*
X9853898Y19405599D01*
X9789475Y19426164D01*
X9729898Y19460557D01*
X9674156Y19510177D01*
X9629584Y19568752D01*
X9597264Y19635927D01*
X9577097Y19713330D01*
X9571267Y19786744D01*
X9625669Y19786744D01*
X9633201Y19715425D01*
X9654271Y19657319D01*
X9688183Y19609565D01*
X9733313Y19572300D01*
X9783251Y19550483D01*
X9839819Y19543098D01*
X9910026Y19553004D01*
X9971771Y19582129D01*
X10040199Y19636792D01*
X10132552Y19730370D01*
X10160632Y19763821D01*
X10403662Y19763821D01*
X10511812Y19655342D01*
X10578175Y19608163D01*
X10645289Y19583863D01*
X10722914Y19575488D01*
X10792097Y19582877D01*
X10847111Y19603356D01*
X10891119Y19636071D01*
X10924148Y19679883D01*
X10944627Y19733933D01*
X10951897Y19801166D01*
X10944694Y19868482D01*
X10924377Y19924339D01*
X10891403Y19971203D01*
X10847814Y20008282D01*
X10801278Y20029578D01*
X10750210Y20036671D01*
X10697760Y20030043D01*
X10643802Y20009475D01*
X10592928Y19977219D01*
X10542656Y19932001D01*
X10403662Y19763821D01*
X10160632Y19763821D01*
X10255104Y19876361D01*
X10178560Y19951705D01*
X10098933Y20002358D01*
X10011519Y20032879D01*
X9916176Y20043154D01*
X9830876Y20034396D01*
X9761573Y20009963D01*
X9704841Y19970813D01*
X9660836Y19918245D01*
X9634666Y19857746D01*
X9625669Y19786744D01*
X9571267Y19786744D01*
X9569969Y19803095D01*
X9578355Y19900513D01*
X9602240Y19982627D01*
X9640536Y20052325D01*
X9693647Y20111671D01*
X9763688Y20161663D01*
X9835426Y20190406D01*
X9910740Y20199954D01*
X9970404Y20193467D01*
G37*
G36*
X10438468Y19193629D02*
G01*
X10573833Y19169241D01*
X10690385Y19130787D01*
X10799281Y19075212D01*
X10883195Y19011692D01*
X10946075Y18940389D01*
X10983943Y18876484D01*
X11005669Y18813396D01*
X11012813Y18749840D01*
X11003447Y18674829D01*
X10974969Y18603124D01*
X10925279Y18532845D01*
X10850191Y18462848D01*
X10768540Y18408253D01*
X10674928Y18364445D01*
X10567633Y18331732D01*
X10444587Y18310984D01*
X10303427Y18303596D01*
X10143185Y18312002D01*
X10007463Y18335800D01*
X9892677Y18372972D01*
X9784900Y18426824D01*
X9704744Y18486123D01*
X9647256Y18550556D01*
X9603105Y18625300D01*
X9578599Y18694182D01*
X9571153Y18755984D01*
X9633812Y18755984D01*
X9645223Y18702108D01*
X9683637Y18641260D01*
X9720746Y18607337D01*
X9774726Y18577042D01*
X9850313Y18551175D01*
X9969603Y18527151D01*
X10132081Y18510552D01*
X10347781Y18504399D01*
X10506568Y18510711D01*
X10637494Y18527866D01*
X10744606Y18553898D01*
X10821058Y18583561D01*
X10875106Y18615583D01*
X10911684Y18649377D01*
X10936790Y18695151D01*
X10945401Y18750795D01*
X10938736Y18794543D01*
X10918556Y18835391D01*
X10882746Y18874759D01*
X10821662Y18915398D01*
X10734884Y18949510D01*
X10615038Y18975023D01*
X10432916Y18994862D01*
X10255064Y19001299D01*
X10063731Y18992158D01*
X9909568Y18967464D01*
X9786448Y18930220D01*
X9714086Y18893785D01*
X9668197Y18853028D01*
X9642405Y18807789D01*
X9633812Y18755984D01*
X9571153Y18755984D01*
X9570795Y18758957D01*
X9579336Y18832635D01*
X9604937Y18901177D01*
X9648823Y18966358D01*
X9714020Y19029254D01*
X9805098Y19090153D01*
X9905198Y19137629D01*
X10016766Y19172596D01*
X10141461Y19194479D01*
X10281191Y19202179D01*
X10438468Y19193629D01*
G37*
G36*
X9865069Y17266255D02*
G01*
X9595348Y17363403D01*
X9594699Y18183143D01*
X9632709Y18183173D01*
X9860778Y17945032D01*
X10037713Y17780759D01*
X10172767Y17674354D01*
X10283533Y17605376D01*
X10383026Y17560178D01*
X10473129Y17535013D01*
X10555734Y17527104D01*
X10640717Y17536637D01*
X10712211Y17563753D01*
X10773198Y17608242D01*
X10820973Y17666545D01*
X10848834Y17730363D01*
X10858225Y17801933D01*
X10851382Y17868264D01*
X10831310Y17929088D01*
X10797629Y17985800D01*
X10752633Y18034017D01*
X10694434Y18074113D01*
X10620580Y18106011D01*
X10620550Y18143930D01*
X10714779Y18124842D01*
X10793190Y18096104D01*
X10858231Y18058606D01*
X10911822Y18012544D01*
X10956082Y17956600D01*
X10987582Y17894685D01*
X11006886Y17825607D01*
X11013606Y17747743D01*
X11006560Y17664870D01*
X10986048Y17591255D01*
X10952469Y17525177D01*
X10905203Y17465373D01*
X10847228Y17414823D01*
X10785960Y17379856D01*
X10720426Y17358987D01*
X10649204Y17351872D01*
X10579868Y17357127D01*
X10509758Y17373234D01*
X10438139Y17400890D01*
X10331645Y17457908D01*
X10214919Y17538444D01*
X10086510Y17646533D01*
X9835293Y17879984D01*
X9750210Y17965004D01*
X9750497Y17602212D01*
X9753142Y17499833D01*
X9758955Y17447063D01*
X9771651Y17404503D01*
X9792724Y17366673D01*
X9822631Y17333904D01*
X9865039Y17304174D01*
X9865069Y17266255D01*
G37*
D11*
X7129400Y4546996D02*
X9014415Y4548488D01*
X7104000Y36627196D02*
X8989015Y36628688D01*
X8427995Y4548024D02*
X8402595Y36628224D01*
X8427995Y4548024D02*
X7840683Y5674063D01*
X8427995Y4548024D02*
X9013524Y5674992D01*
X8402595Y36628224D02*
X8989907Y35502185D01*
X8402595Y36628224D02*
X7817066Y35501256D01*
D12*
%TO.P,J2,1,Pin_1_1*%
%TO.N,Net-(J2-Pin_1)*%
X1143000Y20243800D03*
D13*
%TO.P,J2,2,Pin_2_2*%
%TO.N,GND*%
X1143000Y23743800D03*
%TD*%
D14*
%TO.P,REF\u002A\u002A,*%
%TO.N,GND*%
X2489200Y32562800D03*
%TD*%
%TO.P,REF\u002A\u002A,*%
%TO.N,GND*%
X-45237400Y32562800D03*
%TD*%
D15*
%TO.P,C3,1*%
%TO.N,Net-(J2-Pin_1)*%
X-12090400Y11985000D03*
D16*
%TO.P,C3,2*%
%TO.N,GND*%
X-12090400Y6985000D03*
%TD*%
D17*
%TO.P,RV1,1,1_1*%
%TO.N,unconnected-(RV1-Pad1)*%
X-9245600Y28905200D03*
%TO.P,RV1,2,2_2*%
%TO.N,Net-(U1-FB)*%
X-11785600Y28905200D03*
%TO.P,RV1,3,3_3*%
%TO.N,Net-(J2-Pin_1)*%
X-14325600Y28905200D03*
%TD*%
D18*
%TO.P,D1,1,K_1*%
%TO.N,Net-(D1-K)*%
X-12954000Y17301000D03*
%TO.P,D1,2,A_2*%
%TO.N,GND*%
X-12954000Y24101000D03*
%TD*%
D19*
%TO.P,C2,1*%
%TO.N,Net-(J1-Pin_1)*%
X-33883600Y21635323D03*
D20*
%TO.P,C2,2*%
%TO.N,GND*%
X-33883600Y26635323D03*
%TD*%
D21*
%TO.P,C4,1*%
%TO.N,Net-(J2-Pin_1)*%
X-6822251Y13639800D03*
D16*
%TO.P,C4,2*%
%TO.N,GND*%
X-1822251Y13639800D03*
%TD*%
D22*
%TO.P,L1,1,1_1*%
%TO.N,Net-(D1-K)*%
X-24340245Y16761000D03*
%TO.P,L1,2,2_2*%
%TO.N,Net-(J2-Pin_1)*%
X-24340245Y6861000D03*
%TD*%
D14*
%TO.P,REF\u002A\u002A,*%
%TO.N,GND*%
X-45237400Y9423400D03*
%TD*%
%TO.P,REF\u002A\u002A,*%
%TO.N,GND*%
X2489200Y9423400D03*
%TD*%
D23*
%TO.P,C1,1*%
%TO.N,Net-(J1-Pin_1)*%
X-37033200Y15922000D03*
D20*
%TO.P,C1,2*%
%TO.N,GND*%
X-37033200Y10922000D03*
%TD*%
D24*
%TO.P,U1,*%
%TO.N,GND*%
X-19202400Y22250400D03*
%TO.P,U1,1,VIN_1*%
%TO.N,Net-(J1-Pin_1)*%
X-26002400Y22250400D03*
%TO.P,U1,2,OUT_2*%
%TO.N,Net-(D1-K)*%
X-24302400Y22250400D03*
%TO.P,U1,3,GND_3*%
%TO.N,GND*%
X-22602400Y22250400D03*
D25*
X-22602400Y31400400D03*
D24*
%TO.P,U1,4,FB_4*%
%TO.N,Net-(U1-FB)*%
X-20902400Y22250400D03*
%TD*%
D26*
%TO.P,J1,1,Pin_1_1*%
%TO.N,Net-(J1-Pin_1)*%
X-43992800Y23743800D03*
D13*
%TO.P,J1,2,Pin_2_2*%
%TO.N,GND*%
X-43992800Y20243800D03*
%TD*%
D27*
%TO.P,R1,1*%
%TO.N,GND*%
X-9933300Y32613600D03*
%TO.P,R1,2*%
%TO.N,Net-(U1-FB)*%
X-11758300Y32613600D03*
%TD*%
D28*
%TO.N,GND*%
X-18112000Y34398000D03*
X-38608000Y9337923D03*
X-26466800Y25806400D03*
X-33474400Y6553200D03*
X-4267200Y6553200D03*
X-37033200Y12843123D03*
X-33883600Y28600400D03*
X-22631400Y25806400D03*
X-31775400Y26635323D03*
X-39474400Y6553200D03*
X-35534600Y12411323D03*
X-1828800Y11598523D03*
X3403600Y23743800D03*
X-41808400Y20243800D03*
X-32334200Y28194000D03*
X-3759200Y13563600D03*
X-3251200Y15062200D03*
X-19205050Y19456104D03*
X-4267200Y31750000D03*
X-18112000Y31398000D03*
X-46916600Y15519400D03*
X-35102800Y10922000D03*
X-27112000Y31398000D03*
X-21112000Y31398000D03*
X-37033200Y8956923D03*
X-24112000Y28398000D03*
X-4267200Y28750000D03*
X-1267200Y6553200D03*
X-27112000Y28398000D03*
X-21112000Y28398000D03*
X-38963600Y10922000D03*
X-22606000Y19431000D03*
X-18112000Y28398000D03*
X-21112000Y34398000D03*
X-24112000Y31398000D03*
X-1828800Y15484723D03*
X-35585400Y9464923D03*
X-46177200Y20243800D03*
X-17449800Y22986413D03*
X-7267200Y6553200D03*
X-17449800Y24125209D03*
X-1117600Y23749000D03*
X-35941000Y26635323D03*
X-17449800Y20978846D03*
X-4267200Y34750000D03*
X-36474400Y6553200D03*
X-24536400Y25806400D03*
X-27112000Y34398000D03*
X-38557200Y12436723D03*
X-43916600Y15519400D03*
X-35433000Y28194000D03*
X-17449800Y22047200D03*
X-3251200Y12217400D03*
X-10363200Y6985000D03*
X-24112000Y34398000D03*
%TD*%
%TO.N,GND*%
D29*
X-19202400Y22250400D02*
X-19202400Y19458754D01*
X-22602400Y22250400D02*
X-22602400Y19434600D01*
X-22602400Y19434600D02*
X-22606000Y19431000D01*
X-19202400Y19458754D02*
X-19205050Y19456104D01*
%TO.N,Net-(U1-FB)*%
D30*
X-17094200Y25603200D02*
X-20320000Y25603200D01*
X-20320000Y25603200D02*
X-20320000Y25577800D01*
X-16103600Y26593800D02*
X-17094200Y25603200D01*
X-11758300Y32613600D02*
X-14859000Y32613600D01*
X-14859000Y32613600D02*
X-16103600Y31369000D01*
X-16103600Y31369000D02*
X-16103600Y26593800D01*
X-20902400Y24995400D02*
X-20902400Y22250400D01*
X-20320000Y25577800D02*
X-20902400Y24995400D01*
%TO.N,Net-(D1-K)*%
D31*
X-13023600Y17370600D02*
X-12954000Y17301000D01*
%TD*%
%TA.AperFunction,Conductor*%
%TO.N,Net-(D1-K)*%
G36*
X-23779694Y24886977D02*
G01*
X-23764696Y24882573D01*
X-23749706Y24872943D01*
X-23732625Y24867933D01*
X-23705945Y24844828D01*
X-23704758Y24843459D01*
X-23677282Y24788598D01*
X-23675637Y24781040D01*
X-23672800Y24754669D01*
X-23672800Y18821400D01*
X-23303736Y18821400D01*
X-23284033Y18818567D01*
X-23268802Y18816377D01*
X-23243562Y18808966D01*
X-23190814Y18777670D01*
X-23164103Y18750958D01*
X-23164099Y18750955D01*
X-23020712Y18655146D01*
X-23020699Y18655139D01*
X-23020697Y18655139D01*
X-23020693Y18655136D01*
X-22921981Y18614249D01*
X-22861379Y18589147D01*
X-22861374Y18589145D01*
X-22861372Y18589145D01*
X-22861370Y18589144D01*
X-22783062Y18573568D01*
X-22692234Y18555501D01*
X-22692231Y18555500D01*
X-22692229Y18555500D01*
X-22519769Y18555500D01*
X-22519768Y18555501D01*
X-22350626Y18589145D01*
X-22191295Y18655142D01*
X-22047901Y18750955D01*
X-22026381Y18772476D01*
X-21998130Y18793624D01*
X-21975043Y18806231D01*
X-21915614Y18821400D01*
X-19877683Y18821400D01*
X-19842749Y18816377D01*
X-19817509Y18808966D01*
X-19766622Y18778774D01*
X-19766475Y18778943D01*
X-19765539Y18778131D01*
X-19764762Y18777670D01*
X-19763159Y18776067D01*
X-19763153Y18776062D01*
X-19763149Y18776059D01*
X-19619762Y18680250D01*
X-19619749Y18680243D01*
X-19619747Y18680243D01*
X-19619743Y18680240D01*
X-19559135Y18655136D01*
X-19460429Y18614251D01*
X-19460424Y18614249D01*
X-19460422Y18614249D01*
X-19460420Y18614248D01*
X-19382112Y18598672D01*
X-19291284Y18580605D01*
X-19291281Y18580604D01*
X-19291279Y18580604D01*
X-19118819Y18580604D01*
X-19118818Y18580605D01*
X-18949676Y18614249D01*
X-18826446Y18665293D01*
X-18790352Y18680243D01*
X-18790352Y18680244D01*
X-18790345Y18680246D01*
X-18646951Y18776059D01*
X-18646948Y18776062D01*
X-18646947Y18776064D01*
X-18642241Y18779924D01*
X-18641611Y18779157D01*
X-18622283Y18793625D01*
X-18599191Y18806233D01*
X-18539766Y18821400D01*
X-10606630Y18821400D01*
X-10571694Y18816377D01*
X-10556696Y18811973D01*
X-10497945Y18774228D01*
X-10496758Y18772859D01*
X-10469282Y18718002D01*
X-10467637Y18710437D01*
X-10464800Y18684070D01*
X-10464800Y14746830D01*
X-10464801Y14746824D01*
X-10464800Y14746821D01*
X-10469825Y14711886D01*
X-10474230Y14696888D01*
X-10511973Y14638145D01*
X-10512008Y14638115D01*
X-10512009Y14638113D01*
X-10512011Y14638113D01*
X-10513342Y14636958D01*
X-10568203Y14609482D01*
X-10575761Y14607837D01*
X-10602132Y14605000D01*
X-27290170Y14605000D01*
X-27290175Y14605001D01*
X-27290177Y14605000D01*
X-27325111Y14610025D01*
X-27340110Y14614430D01*
X-27398856Y14652173D01*
X-27398885Y14652207D01*
X-27398886Y14652207D01*
X-27398887Y14652209D01*
X-27400043Y14653542D01*
X-27427523Y14708417D01*
X-27429168Y14715979D01*
X-27432000Y14742332D01*
X-27432000Y18679571D01*
X-27426977Y18714507D01*
X-27422573Y18729505D01*
X-27384828Y18788256D01*
X-27384800Y18788281D01*
X-27384801Y18788281D01*
X-27383459Y18789444D01*
X-27328580Y18816923D01*
X-27321021Y18818567D01*
X-27294668Y18821400D01*
X-24993600Y18821400D01*
X-24993600Y19367313D01*
X-24982394Y19418826D01*
X-24934662Y19523341D01*
X-24914977Y19590380D01*
X-24914976Y19590384D01*
X-24894500Y19732800D01*
X-24894500Y24768000D01*
X-24874815Y24835039D01*
X-24822011Y24880794D01*
X-24770500Y24892000D01*
X-23814630Y24892000D01*
X-23779694Y24886977D01*
G37*
%TD.AperFunction*%
%TD*%
%TA.AperFunction,Conductor*%
%TO.N,GND*%
G36*
X-28602130Y36095879D02*
G01*
X-28596133Y36094119D01*
X-28588006Y36091732D01*
X-28574052Y36082766D01*
X-28558044Y36078419D01*
X-28545266Y36064269D01*
X-28529227Y36053962D01*
X-28521947Y36038445D01*
X-28511218Y36026563D01*
X-28500584Y35992909D01*
X-28498558Y35980610D01*
X-28497551Y35947852D01*
X-28502400Y35900395D01*
X-28502400Y35900387D01*
X-28502400Y31650400D01*
X-22744229Y31650400D01*
X-22709294Y31645377D01*
X-22694296Y31640973D01*
X-22635545Y31603228D01*
X-22635521Y31603200D01*
X-22635518Y31603198D01*
X-22635517Y31603196D01*
X-22634358Y31601859D01*
X-22606882Y31546998D01*
X-22605237Y31539440D01*
X-22602400Y31513069D01*
X-22602400Y31400400D01*
X-22494229Y31400400D01*
X-22459294Y31395377D01*
X-22444296Y31390973D01*
X-22385545Y31353228D01*
X-22385521Y31353200D01*
X-22385518Y31353198D01*
X-22385517Y31353196D01*
X-22384358Y31351859D01*
X-22356882Y31296998D01*
X-22355237Y31289440D01*
X-22352400Y31263069D01*
X-22352400Y26200401D01*
X-20889226Y26200401D01*
X-20854292Y26195378D01*
X-20841715Y26191685D01*
X-20782937Y26153910D01*
X-20753912Y26090355D01*
X-20761543Y26026595D01*
X-20762585Y26023994D01*
X-20763696Y26022311D01*
X-20763856Y26021196D01*
X-20766266Y26018416D01*
X-20790008Y25982428D01*
X-20800521Y25971916D01*
X-20800524Y25971911D01*
X-20822994Y25932994D01*
X-20832002Y25919514D01*
X-20841818Y25906721D01*
X-20852514Y25894524D01*
X-21271114Y25475923D01*
X-21382919Y25364119D01*
X-21382923Y25364114D01*
X-21382925Y25364112D01*
X-21405323Y25325317D01*
X-21405322Y25325316D01*
X-21408526Y25319766D01*
X-21427725Y25286511D01*
X-21461977Y25227185D01*
X-21493442Y25109758D01*
X-21502901Y25074456D01*
X-21503655Y25068728D01*
X-21504788Y25061693D01*
X-21506832Y25050973D01*
X-21507989Y25048719D01*
X-21509278Y25044327D01*
X-21510116Y25044573D01*
X-21510481Y25043863D01*
X-21514478Y25028584D01*
X-21513626Y25028262D01*
X-21515275Y25023896D01*
X-21515278Y25023889D01*
X-21515281Y25023883D01*
X-21516933Y25019505D01*
X-21518895Y25020246D01*
X-21524276Y25011885D01*
X-21529751Y24994111D01*
X-21551274Y24969929D01*
X-21552021Y24968767D01*
X-21553215Y24967747D01*
X-21554781Y24966426D01*
X-21569637Y24955669D01*
X-21677200Y24889323D01*
X-21678178Y24890908D01*
X-21708499Y24875466D01*
X-21717305Y24872957D01*
X-21717604Y24874004D01*
X-21729062Y24873250D01*
X-21742326Y24868073D01*
X-21772411Y24870399D01*
X-21777565Y24870060D01*
X-21780728Y24870699D01*
X-21781216Y24870846D01*
X-21785434Y24871648D01*
X-21786088Y24871780D01*
X-21789053Y24873342D01*
X-21830872Y24890995D01*
X-21830979Y24890820D01*
X-21832106Y24891515D01*
X-21832691Y24891762D01*
X-21834056Y24892718D01*
X-21953557Y24966426D01*
X-21983276Y24984757D01*
X-21983281Y24984759D01*
X-21989443Y24986801D01*
X-22149701Y25039906D01*
X-22149706Y25039907D01*
X-22252409Y25050400D01*
X-22252414Y25050400D01*
X-22352400Y25050400D01*
X-22352400Y19450401D01*
X-22331090Y19450401D01*
X-22301344Y19441667D01*
X-22271074Y19434910D01*
X-22268102Y19431906D01*
X-22264051Y19430716D01*
X-22243754Y19407292D01*
X-22221937Y19385237D01*
X-22221062Y19381104D01*
X-22218296Y19377912D01*
X-22213884Y19347223D01*
X-22207456Y19316885D01*
X-22208954Y19312936D01*
X-22208352Y19308754D01*
X-22221236Y19280544D01*
X-22232227Y19251554D01*
X-22236121Y19247949D01*
X-22237377Y19245198D01*
X-22257319Y19226733D01*
X-22260614Y19224295D01*
X-22301061Y19198301D01*
X-22329312Y19177153D01*
X-22358658Y19151726D01*
X-22362503Y19148879D01*
X-22363229Y19148613D01*
X-22367382Y19145447D01*
X-22418563Y19111249D01*
X-22420586Y19109896D01*
X-22442024Y19098438D01*
X-22486794Y19079894D01*
X-22510051Y19072838D01*
X-22527558Y19069355D01*
X-22557583Y19063383D01*
X-22581771Y19061000D01*
X-22630228Y19061000D01*
X-22654417Y19063383D01*
X-22654420Y19063383D01*
X-22672389Y19066958D01*
X-22683261Y19069120D01*
X-22690425Y19070545D01*
X-22690426Y19070546D01*
X-22690431Y19070546D01*
X-22701956Y19072839D01*
X-22725094Y19079860D01*
X-22725095Y19079856D01*
X-22725105Y19079860D01*
X-22725136Y19079873D01*
X-22725223Y19079899D01*
X-22726428Y19080399D01*
X-22726494Y19080425D01*
X-22728536Y19081271D01*
X-22728538Y19081272D01*
X-22769977Y19098437D01*
X-22791414Y19109895D01*
X-22855639Y19152809D01*
X-22862818Y19157986D01*
X-22887492Y19177153D01*
X-22932878Y19212410D01*
X-22945266Y19219760D01*
X-22992877Y19270897D01*
X-23005283Y19339656D01*
X-22978545Y19404208D01*
X-22921153Y19444056D01*
X-22881997Y19450402D01*
X-22852400Y19450402D01*
X-22852400Y25050401D01*
X-22852400Y25050402D01*
X-22952364Y25050401D01*
X-22952384Y25050400D01*
X-22952388Y25050399D01*
X-22952397Y25050399D01*
X-22952398Y25050398D01*
X-23055101Y25039906D01*
X-23110934Y25021405D01*
X-23180763Y25019004D01*
X-23240804Y25054736D01*
X-23253021Y25070193D01*
X-23322833Y25174614D01*
X-23324005Y25175965D01*
X-23324018Y25175980D01*
X-23324028Y25175990D01*
X-23324039Y25176002D01*
X-23374999Y25226931D01*
X-23375022Y25226954D01*
X-23401702Y25250059D01*
X-23401707Y25250063D01*
X-23401713Y25250068D01*
X-23459454Y25293266D01*
X-23459458Y25293268D01*
X-23509887Y25316281D01*
X-23509908Y25316291D01*
X-23622274Y25367595D01*
X-23627608Y25369161D01*
X-23637273Y25371999D01*
X-23675212Y25380253D01*
X-23707755Y25387333D01*
X-23742690Y25392355D01*
X-23814628Y25397500D01*
X-23814630Y25397500D01*
X-24770500Y25397500D01*
X-24770509Y25397500D01*
X-24770510Y25397499D01*
X-24877951Y25385948D01*
X-24877963Y25385946D01*
X-24929473Y25374740D01*
X-25032001Y25340615D01*
X-25077203Y25311566D01*
X-25144243Y25291883D01*
X-25195753Y25303089D01*
X-25314535Y25357336D01*
X-25314540Y25357338D01*
X-25314541Y25357338D01*
X-25359234Y25370462D01*
X-25381583Y25377024D01*
X-25453286Y25387333D01*
X-25524000Y25397500D01*
X-25524002Y25397500D01*
X-32947967Y25397500D01*
X-33015006Y25417185D01*
X-33035648Y25433819D01*
X-33627451Y26025621D01*
X-33660936Y26086944D01*
X-33655952Y26156635D01*
X-33614081Y26212569D01*
X-33601778Y26220684D01*
X-33576593Y26235224D01*
X-33483501Y26328316D01*
X-33468966Y26353493D01*
X-33418401Y26401707D01*
X-33349795Y26414932D01*
X-33284929Y26388965D01*
X-33273898Y26379174D01*
X-32660943Y25766218D01*
X-32660943Y25766219D01*
X-32660942Y25766218D01*
X-32660942Y25766219D01*
X-32647474Y25771798D01*
X-32641257Y25792968D01*
X-32637260Y25798814D01*
X-32617017Y25826677D01*
X-32600686Y25849154D01*
X-32600682Y25849160D01*
X-32493498Y26059521D01*
X-32420535Y26284076D01*
X-32383600Y26517271D01*
X-32383600Y26753376D01*
X-32406888Y26900407D01*
X-28502399Y26900407D01*
X-28491907Y26797708D01*
X-28491907Y26797707D01*
X-28491906Y26797705D01*
X-28436759Y26631283D01*
X-28436757Y26631278D01*
X-28344716Y26482056D01*
X-28220745Y26358085D01*
X-28071523Y26266044D01*
X-28071518Y26266042D01*
X-27905099Y26210896D01*
X-27905098Y26210896D01*
X-27905096Y26210895D01*
X-27905089Y26210894D01*
X-27802378Y26200401D01*
X-22852400Y26200401D01*
X-22852400Y31150400D01*
X-28502399Y31150400D01*
X-28502399Y26900407D01*
X-32406888Y26900407D01*
X-32420535Y26986571D01*
X-32493498Y27211126D01*
X-32600686Y27421495D01*
X-32637262Y27471836D01*
X-32646801Y27498573D01*
X-32660943Y27504431D01*
X-33273898Y26891474D01*
X-33335221Y26857989D01*
X-33404912Y26862973D01*
X-33460846Y26904844D01*
X-33468964Y26917150D01*
X-33483501Y26942330D01*
X-33576593Y27035422D01*
X-33592737Y27044743D01*
X-33601773Y27049960D01*
X-33649987Y27100529D01*
X-33663208Y27169136D01*
X-33637239Y27234000D01*
X-33627458Y27245020D01*
X-33014495Y27857983D01*
X-33014496Y27857985D01*
X-33097426Y27918236D01*
X-33143643Y27941785D01*
X-33307794Y28025425D01*
X-33377201Y28047977D01*
X-33439385Y28068182D01*
X-33468854Y28088332D01*
X-33765543Y28135323D01*
X-33765548Y28135323D01*
X-34001652Y28135323D01*
X-34001657Y28135323D01*
X-34234845Y28098390D01*
X-34459406Y28025425D01*
X-34669775Y27918237D01*
X-34752706Y27857984D01*
X-34752707Y27857983D01*
X-34139750Y27245026D01*
X-34106265Y27183703D01*
X-34111249Y27114011D01*
X-34153121Y27058078D01*
X-34165429Y27049959D01*
X-34190604Y27035424D01*
X-34190610Y27035420D01*
X-34283697Y26942333D01*
X-34283701Y26942327D01*
X-34298236Y26917152D01*
X-34348804Y26868938D01*
X-34417411Y26855716D01*
X-34482275Y26881685D01*
X-34493303Y26891473D01*
X-35106260Y27504430D01*
X-35106261Y27504429D01*
X-35166514Y27421498D01*
X-35273702Y27211129D01*
X-35273703Y27211127D01*
X-35273703Y27211126D01*
X-35301331Y27126098D01*
X-35346667Y26986568D01*
X-35383600Y26753382D01*
X-35383600Y26517266D01*
X-35353673Y26328316D01*
X-35346666Y26284076D01*
X-35283722Y26090355D01*
X-35273702Y26059519D01*
X-35166514Y25849151D01*
X-35166513Y25849149D01*
X-35106263Y25766220D01*
X-35106261Y25766218D01*
X-35106261Y25766219D01*
X-35106260Y25766218D01*
X-34493302Y26379177D01*
X-34431981Y26412660D01*
X-34362290Y26407676D01*
X-34306356Y26365805D01*
X-34298237Y26353495D01*
X-34283704Y26328323D01*
X-34283701Y26328319D01*
X-34283699Y26328316D01*
X-34190607Y26235224D01*
X-34165431Y26220689D01*
X-34117216Y26170121D01*
X-34103994Y26101514D01*
X-34129962Y26036650D01*
X-34139751Y26025621D01*
X-34731554Y25433819D01*
X-34792877Y25400334D01*
X-34819235Y25397500D01*
X-40839882Y25397500D01*
X-40906921Y25417185D01*
X-40952676Y25469989D01*
X-40961048Y25495141D01*
X-40970060Y25536568D01*
X-41004186Y25639101D01*
X-41004186Y25639102D01*
X-41081972Y25760137D01*
X-41081975Y25760142D01*
X-41087240Y25766218D01*
X-41127724Y25812940D01*
X-41127728Y25812943D01*
X-41127730Y25812946D01*
X-41236459Y25907162D01*
X-41236460Y25907163D01*
X-41236462Y25907164D01*
X-41330726Y25950215D01*
X-41367336Y25966935D01*
X-41367338Y25966936D01*
X-41367341Y25966937D01*
X-41367340Y25966937D01*
X-41406402Y25978407D01*
X-41432236Y25985993D01*
X-41433837Y25986495D01*
X-41434383Y25986624D01*
X-41576797Y26007099D01*
X-41576801Y26007100D01*
X-45672209Y26007100D01*
X-45779656Y25995547D01*
X-45779663Y25995546D01*
X-45831177Y25984339D01*
X-45933702Y25950215D01*
X-45933703Y25950215D01*
X-46054738Y25872429D01*
X-46054749Y25872421D01*
X-46107541Y25826677D01*
X-46201767Y25717936D01*
X-46201770Y25717932D01*
X-46261536Y25587066D01*
X-46281224Y25520018D01*
X-46286250Y25485058D01*
X-46301700Y25377600D01*
X-46301700Y22222000D01*
X-46301699Y22221991D01*
X-46290148Y22114550D01*
X-46290146Y22114538D01*
X-46278940Y22063028D01*
X-46244817Y21960503D01*
X-46244814Y21960497D01*
X-46167029Y21839463D01*
X-46167021Y21839452D01*
X-46121277Y21786660D01*
X-46121274Y21786657D01*
X-46121270Y21786653D01*
X-46012536Y21692433D01*
X-45881659Y21632662D01*
X-45814620Y21612977D01*
X-45814616Y21612976D01*
X-45672200Y21592500D01*
X-45039309Y21592500D01*
X-44972270Y21572815D01*
X-44951628Y21556181D01*
X-44322155Y20926708D01*
X-44288670Y20865385D01*
X-44293654Y20795693D01*
X-44335526Y20739760D01*
X-44347833Y20731641D01*
X-44361208Y20723919D01*
X-44361211Y20723917D01*
X-44472917Y20612211D01*
X-44472919Y20612208D01*
X-44480641Y20598833D01*
X-44531210Y20550619D01*
X-44599817Y20537398D01*
X-44664681Y20563367D01*
X-44675708Y20573155D01*
X-45358757Y21256205D01*
X-45358760Y21256205D01*
X-45409337Y21190292D01*
X-45520742Y20997329D01*
X-45520753Y20997310D01*
X-45575399Y20865385D01*
X-45604266Y20795693D01*
X-45606036Y20791421D01*
X-45606039Y20791413D01*
X-45663709Y20576184D01*
X-45663714Y20576159D01*
X-45663717Y20576146D01*
X-45692800Y20355226D01*
X-45692800Y20132376D01*
X-45663717Y19911456D01*
X-45663714Y19911443D01*
X-45663709Y19911418D01*
X-45619879Y19747841D01*
X-45606037Y19696182D01*
X-45569381Y19607688D01*
X-45520753Y19490292D01*
X-45520748Y19490283D01*
X-45520746Y19490280D01*
X-45415944Y19308754D01*
X-45409334Y19297306D01*
X-45409322Y19297289D01*
X-45358761Y19231398D01*
X-45358760Y19231397D01*
X-45358757Y19231397D01*
X-44675706Y19914449D01*
X-44614385Y19947932D01*
X-44544694Y19942948D01*
X-44488760Y19901077D01*
X-44480643Y19888769D01*
X-44472919Y19875392D01*
X-44361208Y19763681D01*
X-44347836Y19755961D01*
X-44299621Y19705393D01*
X-44286399Y19636786D01*
X-44312367Y19571921D01*
X-44322156Y19560893D01*
X-45005205Y18877846D01*
X-45005205Y18877843D01*
X-44939295Y18827268D01*
X-44939293Y18827267D01*
X-44746315Y18715851D01*
X-44746303Y18715846D01*
X-44540419Y18630564D01*
X-44394243Y18591397D01*
X-44325184Y18572893D01*
X-44325180Y18572893D01*
X-44325168Y18572889D01*
X-44325155Y18572886D01*
X-44104225Y18543800D01*
X-43881382Y18543800D01*
X-43881375Y18543800D01*
X-43660446Y18572886D01*
X-43660433Y18572889D01*
X-43445182Y18630564D01*
X-43239298Y18715846D01*
X-43239286Y18715851D01*
X-43046302Y18827270D01*
X-42980397Y18877843D01*
X-42980396Y18877844D01*
X-42980397Y18877845D01*
X-42980396Y18877845D01*
X-43663446Y19560893D01*
X-43696931Y19622216D01*
X-43691947Y19691907D01*
X-43650076Y19747841D01*
X-43637778Y19755954D01*
X-43624392Y19763681D01*
X-43512681Y19875392D01*
X-43504961Y19888765D01*
X-43454398Y19936979D01*
X-43385791Y19950204D01*
X-43320925Y19924238D01*
X-43309893Y19914446D01*
X-42626845Y19231396D01*
X-42626845Y19231397D01*
X-42626844Y19231396D01*
X-42626843Y19231397D01*
X-42576270Y19297302D01*
X-42464851Y19490286D01*
X-42464846Y19490298D01*
X-42379564Y19696182D01*
X-42321889Y19911433D01*
X-42321886Y19911446D01*
X-42292800Y20132376D01*
X-42292800Y20355225D01*
X-42321886Y20576155D01*
X-42321889Y20576168D01*
X-42327964Y20598839D01*
X-42340397Y20645243D01*
X-42379564Y20791419D01*
X-42464846Y20997303D01*
X-42464851Y20997315D01*
X-42576267Y21190293D01*
X-42576268Y21190295D01*
X-42626843Y21256205D01*
X-42626844Y21256205D01*
X-42626845Y21256205D01*
X-42626846Y21256205D01*
X-43309894Y20573157D01*
X-43371217Y20539672D01*
X-43440909Y20544656D01*
X-43496842Y20586528D01*
X-43504962Y20598839D01*
X-43512678Y20612202D01*
X-43512681Y20612208D01*
X-43624392Y20723919D01*
X-43631214Y20727858D01*
X-43637768Y20731642D01*
X-43685983Y20782210D01*
X-43699204Y20850817D01*
X-43673235Y20915682D01*
X-43663457Y20926699D01*
X-43033973Y21556181D01*
X-42972650Y21589666D01*
X-42946292Y21592500D01*
X-39745500Y21592500D01*
X-39678461Y21572815D01*
X-39632706Y21520011D01*
X-39621500Y21468500D01*
X-39621500Y14398800D01*
X-39621499Y14398791D01*
X-39609948Y14291350D01*
X-39609946Y14291338D01*
X-39598740Y14239828D01*
X-39564617Y14137303D01*
X-39564614Y14137297D01*
X-39486829Y14016263D01*
X-39486821Y14016252D01*
X-39441077Y13963460D01*
X-39441074Y13963457D01*
X-39441070Y13963453D01*
X-39332336Y13869233D01*
X-39332333Y13869232D01*
X-39332332Y13869231D01*
X-39230547Y13822746D01*
X-39201459Y13809462D01*
X-39134420Y13789777D01*
X-39134416Y13789776D01*
X-38992000Y13769300D01*
X-35049010Y13769300D01*
X-35049000Y13769300D01*
X-34941544Y13780853D01*
X-34890033Y13792059D01*
X-34855803Y13803453D01*
X-34787503Y13826184D01*
X-34787499Y13826187D01*
X-34787496Y13826187D01*
X-34666457Y13903975D01*
X-34613653Y13949730D01*
X-34519433Y14058464D01*
X-34459662Y14189341D01*
X-34439977Y14256380D01*
X-34439976Y14256384D01*
X-34419500Y14398800D01*
X-34419500Y18979300D01*
X-34399815Y19046339D01*
X-34347011Y19092094D01*
X-34295500Y19103300D01*
X-27994882Y19103300D01*
X-27927843Y19083615D01*
X-27882088Y19030811D01*
X-27872144Y18961653D01*
X-27882083Y18927801D01*
X-27907595Y18871926D01*
X-27907597Y18871921D01*
X-27910637Y18861570D01*
X-27911999Y18856928D01*
X-27918284Y18828040D01*
X-27927333Y18786447D01*
X-27932355Y18751512D01*
X-27937500Y18679574D01*
X-27937500Y14742327D01*
X-27934609Y14688351D01*
X-27934606Y14688319D01*
X-27931778Y14661990D01*
X-27923118Y14608543D01*
X-27923114Y14608517D01*
X-27921471Y14600967D01*
X-27921471Y14600965D01*
X-27879519Y14482077D01*
X-27879518Y14482075D01*
X-27852037Y14427198D01*
X-27852032Y14427189D01*
X-27807602Y14360735D01*
X-27807542Y14360647D01*
X-27783273Y14324348D01*
X-27783487Y14324164D01*
X-27783458Y14324130D01*
X-27781971Y14322401D01*
X-27781940Y14322355D01*
X-27780784Y14321022D01*
X-27780775Y14321031D01*
X-27780296Y14320616D01*
X-27779796Y14319882D01*
X-27764962Y14302776D01*
X-27758188Y14300523D01*
X-27747697Y14292376D01*
X-27709412Y14259211D01*
X-27692021Y14244146D01*
X-27672180Y14226953D01*
X-27672169Y14226948D01*
X-27672095Y14226884D01*
X-27613349Y14189141D01*
X-27613342Y14189138D01*
X-27482558Y14129416D01*
X-27482554Y14129415D01*
X-27482552Y14129414D01*
X-27467553Y14125009D01*
X-27397083Y14109675D01*
X-27362149Y14104650D01*
X-27344439Y14102421D01*
X-27334487Y14102772D01*
X-27317904Y14102247D01*
X-27290170Y14099500D01*
X-17553734Y14099500D01*
X-17486695Y14079815D01*
X-17440940Y14027011D01*
X-17430996Y13957853D01*
X-17431020Y13957688D01*
X-17435568Y13926358D01*
X-17440811Y13854411D01*
X-17446471Y9570342D01*
X-17466244Y9503329D01*
X-17519109Y9457644D01*
X-17570511Y9446506D01*
X-27624662Y9449777D01*
X-27678699Y9446896D01*
X-27678735Y9446893D01*
X-27705084Y9444068D01*
X-27705090Y9444067D01*
X-27758565Y9435413D01*
X-27766156Y9433763D01*
X-27766168Y9433759D01*
X-27885063Y9391820D01*
X-27885079Y9391813D01*
X-27939963Y9364336D01*
X-27939969Y9364333D01*
X-28044672Y9294373D01*
X-28045402Y9293741D01*
X-28045942Y9293272D01*
X-28046035Y9293192D01*
X-28046104Y9293131D01*
X-28048563Y9290986D01*
X-28048721Y9290847D01*
X-28140333Y9184356D01*
X-28178071Y9125613D01*
X-28178075Y9125604D01*
X-28237794Y8994811D01*
X-28237795Y8994806D01*
X-28242199Y8979808D01*
X-28243089Y8975716D01*
X-28257533Y8909327D01*
X-28262555Y8874392D01*
X-28267700Y8802454D01*
X-28267700Y5209835D01*
X-28267341Y5203139D01*
X-28283408Y5135142D01*
X-28333686Y5086626D01*
X-28391163Y5072500D01*
X-48659070Y5072500D01*
X-48659075Y5072501D01*
X-48659077Y5072500D01*
X-48694011Y5077525D01*
X-48709010Y5081930D01*
X-48767756Y5119673D01*
X-48767785Y5119707D01*
X-48767786Y5119707D01*
X-48767787Y5119709D01*
X-48768943Y5121042D01*
X-48796423Y5175917D01*
X-48798068Y5183479D01*
X-48800900Y5209832D01*
X-48800900Y11040059D01*
X-38533200Y11040059D01*
X-38533200Y10803943D01*
X-38503273Y10614993D01*
X-38496266Y10570753D01*
X-38453469Y10439038D01*
X-38423302Y10346196D01*
X-38316114Y10135828D01*
X-38316113Y10135826D01*
X-38255863Y10052897D01*
X-38255861Y10052895D01*
X-38255861Y10052896D01*
X-38255860Y10052895D01*
X-37642902Y10665854D01*
X-37581581Y10699337D01*
X-37511890Y10694353D01*
X-37455956Y10652482D01*
X-37447837Y10640172D01*
X-37433304Y10615000D01*
X-37433301Y10614996D01*
X-37433299Y10614993D01*
X-37340207Y10521901D01*
X-37315031Y10507366D01*
X-37266816Y10456798D01*
X-37253594Y10388191D01*
X-37279562Y10323327D01*
X-37289351Y10312298D01*
X-37902308Y9699343D01*
X-37902307Y9699343D01*
X-37902307Y9699342D01*
X-37819372Y9639086D01*
X-37609003Y9531898D01*
X-37477418Y9489143D01*
X-37447948Y9468993D01*
X-37384451Y9458936D01*
X-37384448Y9458935D01*
X-37384449Y9458935D01*
X-37151252Y9422000D01*
X-36915149Y9422000D01*
X-36915148Y9422000D01*
X-36681953Y9458935D01*
X-36457398Y9531898D01*
X-36247037Y9639082D01*
X-36247031Y9639086D01*
X-36196691Y9675660D01*
X-36169953Y9685201D01*
X-36164095Y9699343D01*
X-36777051Y10312298D01*
X-36810536Y10373621D01*
X-36805552Y10443312D01*
X-36763681Y10499246D01*
X-36751378Y10507361D01*
X-36726193Y10521901D01*
X-36633101Y10614993D01*
X-36618566Y10640170D01*
X-36568001Y10688384D01*
X-36499395Y10701609D01*
X-36434529Y10675642D01*
X-36423498Y10665851D01*
X-35810543Y10052895D01*
X-35810543Y10052896D01*
X-35810542Y10052895D01*
X-35810542Y10052896D01*
X-35797074Y10058475D01*
X-35790857Y10079645D01*
X-35786860Y10085491D01*
X-35779097Y10096178D01*
X-35750286Y10135831D01*
X-35750282Y10135837D01*
X-35643098Y10346198D01*
X-35570135Y10570753D01*
X-35533200Y10803948D01*
X-35533200Y11040053D01*
X-35570135Y11273248D01*
X-35643098Y11497803D01*
X-35750286Y11708172D01*
X-35786862Y11758513D01*
X-35796401Y11785250D01*
X-35810543Y11791108D01*
X-36423498Y11178151D01*
X-36484821Y11144666D01*
X-36554512Y11149650D01*
X-36610446Y11191521D01*
X-36618564Y11203827D01*
X-36633101Y11229007D01*
X-36726193Y11322099D01*
X-36742337Y11331420D01*
X-36751373Y11336637D01*
X-36799587Y11387206D01*
X-36812808Y11455813D01*
X-36786839Y11520677D01*
X-36777058Y11531697D01*
X-36164095Y12144660D01*
X-36164096Y12144662D01*
X-36247026Y12204913D01*
X-36250820Y12206846D01*
X-36457394Y12312102D01*
X-36542640Y12339800D01*
X-36588985Y12354859D01*
X-36618454Y12375009D01*
X-36915143Y12422000D01*
X-36915148Y12422000D01*
X-37151252Y12422000D01*
X-37151257Y12422000D01*
X-37384445Y12385067D01*
X-37609006Y12312102D01*
X-37819375Y12204914D01*
X-37902306Y12144661D01*
X-37902307Y12144660D01*
X-37289350Y11531703D01*
X-37255865Y11470380D01*
X-37260849Y11400688D01*
X-37302721Y11344755D01*
X-37315029Y11336636D01*
X-37340204Y11322101D01*
X-37340210Y11322097D01*
X-37433297Y11229010D01*
X-37433301Y11229004D01*
X-37447836Y11203829D01*
X-37498404Y11155615D01*
X-37567011Y11142393D01*
X-37631875Y11168362D01*
X-37642903Y11178150D01*
X-38255860Y11791107D01*
X-38255861Y11791106D01*
X-38316114Y11708175D01*
X-38423302Y11497806D01*
X-38423303Y11497804D01*
X-38423303Y11497803D01*
X-38453469Y11404963D01*
X-38496267Y11273245D01*
X-38533200Y11040059D01*
X-48800900Y11040059D01*
X-48800900Y35959071D01*
X-48795877Y35994007D01*
X-48791473Y36009005D01*
X-48753728Y36067756D01*
X-48753700Y36067781D01*
X-48753701Y36067781D01*
X-48752359Y36068944D01*
X-48697480Y36096423D01*
X-48689921Y36098067D01*
X-48663568Y36100900D01*
X-28637058Y36100900D01*
X-28602130Y36095879D01*
G37*
%TD.AperFunction*%
%TA.AperFunction,Conductor*%
G36*
X6250606Y36095877D02*
G01*
X6265604Y36091473D01*
X6280594Y36081843D01*
X6297675Y36076833D01*
X6324355Y36053728D01*
X6325542Y36052359D01*
X6353018Y35997498D01*
X6354663Y35989940D01*
X6357500Y35963569D01*
X6357500Y5214330D01*
X6352475Y5179386D01*
X6348070Y5164388D01*
X6338439Y5149399D01*
X6333432Y5132325D01*
X6310327Y5105645D01*
X6308958Y5104458D01*
X6254097Y5076982D01*
X6246539Y5075337D01*
X6220168Y5072500D01*
X-13239952Y5072500D01*
X-13306991Y5092185D01*
X-13352746Y5144989D01*
X-13363529Y5206735D01*
X-13363272Y5209832D01*
X-13362900Y5214330D01*
X-13362900Y6152740D01*
X-13343215Y6219779D01*
X-13290411Y6265534D01*
X-13221253Y6275478D01*
X-13185342Y6259078D01*
X-13169876Y6259078D01*
X-12626897Y6802058D01*
X-12565576Y6835541D01*
X-12495885Y6830557D01*
X-12439951Y6788686D01*
X-12431833Y6776378D01*
X-12410480Y6739394D01*
X-12336006Y6664920D01*
X-12336005Y6664919D01*
X-12336003Y6664918D01*
X-12299027Y6643570D01*
X-12250812Y6593004D01*
X-12237588Y6524397D01*
X-12263556Y6459532D01*
X-12273346Y6448502D01*
X-12816325Y5905527D01*
X-12816324Y5905527D01*
X-12816324Y5905526D01*
X-12771750Y5873141D01*
X-12685614Y5829253D01*
X-12589437Y5780247D01*
X-12589435Y5780247D01*
X-12589432Y5780245D01*
X-12394818Y5717010D01*
X-12192717Y5685000D01*
X-11988084Y5685000D01*
X-11988083Y5685000D01*
X-11785983Y5717010D01*
X-11591369Y5780245D01*
X-11409051Y5873141D01*
X-11364479Y5905526D01*
X-11907455Y6448502D01*
X-11940940Y6509825D01*
X-11935956Y6579517D01*
X-11894084Y6635450D01*
X-11881782Y6643566D01*
X-11844794Y6664920D01*
X-11770320Y6739394D01*
X-11748970Y6776375D01*
X-11698405Y6824589D01*
X-11629798Y6837813D01*
X-11564933Y6811846D01*
X-11553902Y6802055D01*
X-11010927Y6259080D01*
X-11010926Y6259079D01*
X-10978541Y6303651D01*
X-10885645Y6485969D01*
X-10822410Y6680583D01*
X-10790400Y6882683D01*
X-10790400Y7087318D01*
X-10822410Y7289418D01*
X-10885645Y7484032D01*
X-10885647Y7484035D01*
X-10885647Y7484037D01*
X-10978541Y7666350D01*
X-10987244Y7678328D01*
X-10996785Y7705067D01*
X-11010927Y7710925D01*
X-11553903Y7167947D01*
X-11615226Y7134462D01*
X-11684917Y7139446D01*
X-11740851Y7181317D01*
X-11748970Y7193626D01*
X-11770320Y7230606D01*
X-11844794Y7305080D01*
X-11881775Y7326431D01*
X-11929990Y7376997D01*
X-11943214Y7445604D01*
X-11917246Y7510469D01*
X-11907464Y7521491D01*
X-11364478Y8064476D01*
X-11364479Y8064477D01*
X-11364480Y8064478D01*
X-11364481Y8064479D01*
X-11364486Y8064483D01*
X-11409040Y8096853D01*
X-11409043Y8096856D01*
X-11474994Y8130460D01*
X-11591369Y8189756D01*
X-11602494Y8193371D01*
X-11660166Y8232808D01*
X-11687363Y8297167D01*
X-11675448Y8366013D01*
X-11628203Y8417488D01*
X-11564171Y8435300D01*
X-5325977Y8435300D01*
X-5271907Y8438200D01*
X-5245536Y8441037D01*
X-5192101Y8449701D01*
X-5184543Y8451346D01*
X-5105303Y8479315D01*
X-5065684Y8493298D01*
X-5065682Y8493299D01*
X-5010821Y8520775D01*
X-4991982Y8533376D01*
X-4977716Y8539292D01*
X-4951400Y8560519D01*
X-4942799Y8566273D01*
X-4930011Y8570284D01*
X-4908757Y8588502D01*
X-4908236Y8588922D01*
X-4905890Y8590959D01*
X-4905879Y8590965D01*
X-4904548Y8592120D01*
X-4904550Y8592122D01*
X-4883493Y8610392D01*
X-4883490Y8610399D01*
X-4871468Y8622853D01*
X-4871766Y8623130D01*
X-4865730Y8629621D01*
X-4865726Y8629623D01*
X-4843890Y8661105D01*
X-4835740Y8671603D01*
X-4810535Y8700696D01*
X-4772792Y8759439D01*
X-4713062Y8890237D01*
X-4708657Y8905235D01*
X-4693320Y8975716D01*
X-4692730Y8979814D01*
X-4688295Y9010651D01*
X-4686919Y9036425D01*
X-4686682Y9039903D01*
X-4683145Y9082630D01*
X-4683145Y13742124D01*
X-3122251Y13742124D01*
X-3122251Y13537478D01*
X-3090243Y13335389D01*
X-3090242Y13335383D01*
X-3027007Y13140769D01*
X-3007916Y13103302D01*
X-2934107Y12958443D01*
X-2934104Y12958440D01*
X-2901734Y12913886D01*
X-2901730Y12913881D01*
X-2901728Y12913879D01*
X-2901727Y12913878D01*
X-2358748Y13456858D01*
X-2297427Y13490341D01*
X-2227736Y13485357D01*
X-2171802Y13443486D01*
X-2163684Y13431178D01*
X-2142331Y13394194D01*
X-2067857Y13319720D01*
X-2067856Y13319719D01*
X-2067854Y13319718D01*
X-2030878Y13298370D01*
X-1982663Y13247804D01*
X-1969439Y13179197D01*
X-1995407Y13114332D01*
X-2005197Y13103302D01*
X-2548176Y12560327D01*
X-2548175Y12560327D01*
X-2548175Y12560326D01*
X-2503601Y12527941D01*
X-2417465Y12484053D01*
X-2321288Y12435047D01*
X-2321286Y12435047D01*
X-2321283Y12435045D01*
X-2126669Y12371810D01*
X-1924568Y12339800D01*
X-1719935Y12339800D01*
X-1719934Y12339800D01*
X-1517834Y12371810D01*
X-1323220Y12435045D01*
X-1140902Y12527941D01*
X-1096330Y12560326D01*
X-1639306Y13103302D01*
X-1672791Y13164625D01*
X-1667807Y13234317D01*
X-1625935Y13290250D01*
X-1613633Y13298366D01*
X-1576645Y13319720D01*
X-1502171Y13394194D01*
X-1480821Y13431175D01*
X-1430256Y13479389D01*
X-1361649Y13492613D01*
X-1296784Y13466646D01*
X-1285753Y13456855D01*
X-742778Y12913880D01*
X-742777Y12913879D01*
X-710392Y12958451D01*
X-617496Y13140769D01*
X-554261Y13335383D01*
X-522251Y13537483D01*
X-522251Y13742118D01*
X-554261Y13944218D01*
X-617496Y14138832D01*
X-617498Y14138835D01*
X-617498Y14138837D01*
X-710392Y14321150D01*
X-719095Y14333128D01*
X-728636Y14359867D01*
X-742778Y14365725D01*
X-1285754Y13822747D01*
X-1347077Y13789262D01*
X-1416768Y13794246D01*
X-1472702Y13836117D01*
X-1480821Y13848426D01*
X-1502171Y13885406D01*
X-1576645Y13959880D01*
X-1613626Y13981231D01*
X-1661841Y14031797D01*
X-1675065Y14100404D01*
X-1649097Y14165269D01*
X-1639315Y14176291D01*
X-1096329Y14719276D01*
X-1096330Y14719277D01*
X-1096331Y14719278D01*
X-1096332Y14719279D01*
X-1096337Y14719283D01*
X-1140891Y14751653D01*
X-1140894Y14751656D01*
X-1206053Y14784856D01*
X-1323220Y14844556D01*
X-1517834Y14907791D01*
X-1517840Y14907792D01*
X-1719929Y14939800D01*
X-1719934Y14939800D01*
X-1924568Y14939800D01*
X-1924573Y14939800D01*
X-2126664Y14907792D01*
X-2126666Y14907792D01*
X-2126669Y14907791D01*
X-2223976Y14876174D01*
X-2321288Y14844555D01*
X-2503611Y14751655D01*
X-2548174Y14719278D01*
X-2548174Y14719277D01*
X-2548174Y14719276D01*
X-2227689Y14398791D01*
X-2005196Y14176299D01*
X-1971711Y14114976D01*
X-1976695Y14045285D01*
X-2018566Y13989351D01*
X-2030877Y13981231D01*
X-2067854Y13959883D01*
X-2067859Y13959879D01*
X-2142330Y13885408D01*
X-2142336Y13885400D01*
X-2163683Y13848426D01*
X-2214250Y13800211D01*
X-2282858Y13786989D01*
X-2347722Y13812957D01*
X-2358750Y13822746D01*
X-2901727Y14365723D01*
X-2901728Y14365723D01*
X-2901729Y14365723D01*
X-2934106Y14321160D01*
X-3027006Y14138837D01*
X-3039787Y14099500D01*
X-3090242Y13944218D01*
X-3090243Y13944215D01*
X-3090243Y13944213D01*
X-3122251Y13742124D01*
X-4683145Y13742124D01*
X-4683145Y17353700D01*
X-4663460Y17420739D01*
X-4610656Y17466494D01*
X-4559145Y17477700D01*
X3621868Y17477700D01*
X3675938Y17480600D01*
X3702309Y17483437D01*
X3755744Y17492101D01*
X3763302Y17493746D01*
X3842542Y17521715D01*
X3882161Y17535698D01*
X3882163Y17535699D01*
X3937024Y17563175D01*
X3955863Y17575776D01*
X3970129Y17581692D01*
X3996445Y17602919D01*
X4005046Y17608673D01*
X4017834Y17612684D01*
X4039088Y17630902D01*
X4039609Y17631322D01*
X4041955Y17633359D01*
X4041966Y17633365D01*
X4043297Y17634520D01*
X4043295Y17634522D01*
X4064352Y17652792D01*
X4064355Y17652799D01*
X4076377Y17665253D01*
X4076079Y17665530D01*
X4082115Y17672021D01*
X4082119Y17672023D01*
X4103955Y17703505D01*
X4112105Y17714003D01*
X4137310Y17743096D01*
X4175053Y17801839D01*
X4234783Y17932637D01*
X4239188Y17947635D01*
X4254525Y18018116D01*
X4259550Y18053051D01*
X4260926Y18078825D01*
X4261163Y18082303D01*
X4264700Y18125030D01*
X4264700Y21808269D01*
X4261800Y21862339D01*
X4258963Y21888710D01*
X4250299Y21942145D01*
X4248654Y21949703D01*
X4230760Y22000400D01*
X4206702Y22068563D01*
X4179225Y22123425D01*
X4162276Y22148778D01*
X4161668Y22149696D01*
X4133345Y22192887D01*
X4129998Y22203907D01*
X4111296Y22225726D01*
X4110876Y22226242D01*
X4108054Y22229498D01*
X4108037Y22229517D01*
X4057483Y22273310D01*
X4055908Y22274698D01*
X4006489Y22318995D01*
X4006480Y22319002D01*
X3970356Y22343084D01*
X3964440Y22346110D01*
X3940543Y22361463D01*
X3940538Y22361466D01*
X3940537Y22361466D01*
X3809725Y22421195D01*
X3809720Y22421197D01*
X3809719Y22421197D01*
X3803004Y22423169D01*
X3794727Y22425599D01*
X3724248Y22440932D01*
X3724245Y22440933D01*
X3724238Y22440934D01*
X3689314Y22445955D01*
X3617372Y22451100D01*
X3617371Y22451100D01*
X2545327Y22451100D01*
X2532146Y22454971D01*
X2518442Y22454050D01*
X2499282Y22464621D01*
X2478288Y22470785D01*
X2469293Y22481165D01*
X2457265Y22487801D01*
X2446860Y22507055D01*
X2432533Y22523589D01*
X2430578Y22537184D01*
X2424047Y22549269D01*
X2425703Y22571089D01*
X2422589Y22592747D01*
X2428406Y22606706D01*
X2429335Y22618939D01*
X2445927Y22648747D01*
X2446384Y22649842D01*
X2446707Y22650270D01*
X2559533Y22797305D01*
X2559535Y22797309D01*
X2670945Y22990280D01*
X2670954Y22990298D01*
X2756236Y23196182D01*
X2813911Y23411433D01*
X2813914Y23411446D01*
X2843000Y23632376D01*
X2843000Y23855225D01*
X2813914Y24076155D01*
X2813911Y24076168D01*
X2807836Y24098839D01*
X2795403Y24145243D01*
X2756236Y24291419D01*
X2670954Y24497303D01*
X2670949Y24497315D01*
X2559533Y24690293D01*
X2559532Y24690295D01*
X2508957Y24756205D01*
X2508956Y24756205D01*
X2508955Y24756205D01*
X2508954Y24756205D01*
X1825906Y24073157D01*
X1764583Y24039672D01*
X1694891Y24044656D01*
X1638958Y24086528D01*
X1630838Y24098839D01*
X1623122Y24112202D01*
X1623119Y24112208D01*
X1511408Y24223919D01*
X1504586Y24227858D01*
X1498032Y24231642D01*
X1449817Y24282210D01*
X1436596Y24350817D01*
X1462565Y24415682D01*
X1472343Y24426699D01*
X2155403Y25109757D01*
X2155403Y25109760D01*
X2138566Y25122680D01*
X2089511Y25160322D01*
X2089494Y25160334D01*
X2089487Y25160338D01*
X1896520Y25271746D01*
X1896508Y25271753D01*
X1780596Y25319766D01*
X1690618Y25357037D01*
X1690611Y25357039D01*
X1475382Y25414709D01*
X1475367Y25414712D01*
X1475354Y25414715D01*
X1475350Y25414716D01*
X1475344Y25414717D01*
X1254426Y25443800D01*
X1254425Y25443800D01*
X1031575Y25443800D01*
X1031574Y25443800D01*
X810654Y25414717D01*
X810641Y25414714D01*
X810616Y25414709D01*
X595387Y25357039D01*
X595383Y25357038D01*
X595381Y25357037D01*
X595379Y25357036D01*
X389490Y25271753D01*
X389471Y25271742D01*
X196508Y25160337D01*
X130595Y25109760D01*
X130595Y25109757D01*
X813645Y24426708D01*
X847130Y24365385D01*
X842146Y24295694D01*
X800274Y24239760D01*
X787967Y24231641D01*
X774592Y24223919D01*
X774589Y24223917D01*
X662883Y24112211D01*
X662881Y24112208D01*
X655159Y24098833D01*
X604590Y24050619D01*
X535983Y24037398D01*
X471119Y24063367D01*
X460092Y24073155D01*
X-222957Y24756205D01*
X-222960Y24756205D01*
X-273537Y24690292D01*
X-384942Y24497329D01*
X-384953Y24497310D01*
X-470236Y24291421D01*
X-470239Y24291413D01*
X-527909Y24076184D01*
X-527914Y24076159D01*
X-527917Y24076146D01*
X-557000Y23855226D01*
X-557000Y23632376D01*
X-527917Y23411456D01*
X-527914Y23411443D01*
X-527909Y23411418D01*
X-470239Y23196189D01*
X-470237Y23196182D01*
X-423597Y23083584D01*
X-384953Y22990292D01*
X-384942Y22990273D01*
X-279219Y22807151D01*
X-279216Y22807147D01*
X-273536Y22797309D01*
X-273534Y22797305D01*
X-160709Y22650271D01*
X-160385Y22649842D01*
X-148203Y22617611D01*
X-135757Y22585418D01*
X-135856Y22584941D01*
X-135683Y22584485D01*
X-142860Y22550789D01*
X-149795Y22516973D01*
X-150136Y22516625D01*
X-150237Y22516148D01*
X-174494Y22491680D01*
X-198608Y22466983D01*
X-199104Y22466854D01*
X-199426Y22466528D01*
X-205531Y22465173D01*
X-259327Y22451100D01*
X-6743545Y22451100D01*
X-6810584Y22470785D01*
X-6856339Y22523589D01*
X-6867545Y22575100D01*
X-6867545Y26659670D01*
X-6870445Y26713731D01*
X-6870445Y26713739D01*
X-6873282Y26740110D01*
X-6881946Y26793545D01*
X-6883591Y26801103D01*
X-6903669Y26857989D01*
X-6925543Y26919963D01*
X-6953020Y26974825D01*
X-6969969Y27000178D01*
X-6970577Y27001096D01*
X-6998900Y27044287D01*
X-7002247Y27055307D01*
X-7020949Y27077126D01*
X-7021369Y27077642D01*
X-7024191Y27080898D01*
X-7024208Y27080917D01*
X-7074762Y27124710D01*
X-7076337Y27126098D01*
X-7125756Y27170395D01*
X-7125765Y27170402D01*
X-7161889Y27194484D01*
X-7167805Y27197510D01*
X-7191702Y27212863D01*
X-7191707Y27212866D01*
X-7191708Y27212866D01*
X-7322520Y27272595D01*
X-7322525Y27272597D01*
X-7322526Y27272597D01*
X-7329241Y27274569D01*
X-7337518Y27276999D01*
X-7407997Y27292332D01*
X-7408000Y27292333D01*
X-7408007Y27292334D01*
X-7442931Y27297355D01*
X-7514873Y27302500D01*
X-7514874Y27302500D01*
X-10204514Y27302500D01*
X-10271553Y27322185D01*
X-10317308Y27374989D01*
X-10327252Y27444147D01*
X-10317310Y27478009D01*
X-10305245Y27504429D01*
X-10268617Y27584637D01*
X-10264212Y27599635D01*
X-10248872Y27670134D01*
X-10243847Y27705078D01*
X-10238700Y27777030D01*
X-10238700Y27874746D01*
X-10219015Y27941785D01*
X-10166211Y27987540D01*
X-10097053Y27997484D01*
X-10041814Y27975064D01*
X-10040706Y27974259D01*
X-10040702Y27974255D01*
X-9885281Y27861335D01*
X-9719826Y27777031D01*
X-9714103Y27774115D01*
X-9677030Y27762071D01*
X-9622755Y27744436D01*
X-9531401Y27714753D01*
X-9341655Y27684700D01*
X-9341654Y27684700D01*
X-9149546Y27684700D01*
X-9149545Y27684700D01*
X-8959799Y27714753D01*
X-8777091Y27774118D01*
X-8605919Y27861335D01*
X-8450498Y27974255D01*
X-8314655Y28110098D01*
X-8201735Y28265519D01*
X-8114518Y28436691D01*
X-8055153Y28619399D01*
X-8025100Y28809145D01*
X-8025100Y29001255D01*
X-8055153Y29191001D01*
X-8085176Y29283403D01*
X-8114517Y29373707D01*
X-8114519Y29373710D01*
X-8114522Y29373718D01*
X-8201733Y29544878D01*
X-8266161Y29633555D01*
X-8314655Y29700302D01*
X-8450498Y29836145D01*
X-8590015Y29937510D01*
X-8605924Y29949069D01*
X-8777084Y30036280D01*
X-8777100Y30036287D01*
X-8959796Y30095647D01*
X-8959795Y30095647D01*
X-9149541Y30125700D01*
X-9149545Y30125700D01*
X-9341655Y30125700D01*
X-9341659Y30125700D01*
X-9404904Y30115683D01*
X-9531407Y30095647D01*
X-9714102Y30036287D01*
X-9714118Y30036280D01*
X-9885278Y29949069D01*
X-9973955Y29884640D01*
X-10028831Y29844770D01*
X-10039209Y29837996D01*
X-10052192Y29830418D01*
X-10058000Y29828980D01*
X-10063486Y29826707D01*
X-10063830Y29827537D01*
X-10071177Y29825717D01*
X-10088342Y29816344D01*
X-10104393Y29817492D01*
X-10120013Y29813624D01*
X-10138525Y29819933D01*
X-10158034Y29821328D01*
X-10170917Y29830973D01*
X-10186148Y29836163D01*
X-10198312Y29851480D01*
X-10213967Y29863200D01*
X-10219591Y29878277D01*
X-10229598Y29890879D01*
X-10231550Y29910340D01*
X-10238384Y29928664D01*
X-10238700Y29937510D01*
X-10238700Y31306840D01*
X-10219015Y31373879D01*
X-10202381Y31394521D01*
X-10183301Y31413601D01*
X-9683300Y31413601D01*
X-9620840Y31413601D01*
X-9620828Y31413601D01*
X-9620814Y31413602D01*
X-9518103Y31424095D01*
X-9351681Y31479242D01*
X-9351676Y31479244D01*
X-9202455Y31571285D01*
X-9078485Y31695255D01*
X-8986444Y31844476D01*
X-8986439Y31844487D01*
X-8931295Y32010903D01*
X-8931294Y32010910D01*
X-8920801Y32113614D01*
X-8920800Y32113627D01*
X-8920800Y32363600D01*
X-9683300Y32363600D01*
X-9683300Y31413601D01*
X-10183301Y31413601D01*
X-10183300Y31413602D01*
X-10183300Y32863600D01*
X-9683300Y32863600D01*
X-8920801Y32863600D01*
X-8920801Y33113572D01*
X-8920802Y33113587D01*
X-8931295Y33216298D01*
X-8986442Y33382720D01*
X-8986444Y33382725D01*
X-9078485Y33531946D01*
X-9202455Y33655916D01*
X-9351676Y33747957D01*
X-9351681Y33747959D01*
X-9351690Y33747962D01*
X-9518101Y33803106D01*
X-9518106Y33803107D01*
X-9620809Y33813600D01*
X-9620814Y33813600D01*
X-9683300Y33813600D01*
X-9683300Y32863600D01*
X-10183300Y32863600D01*
X-10183300Y33806563D01*
X-10183300Y33813600D01*
X-10183301Y33813601D01*
X-10189230Y33813601D01*
X-10211875Y33840475D01*
X-10214273Y33845924D01*
X-10218907Y33849658D01*
X-10229438Y33880382D01*
X-10240019Y33904425D01*
X-10239281Y33909100D01*
X-10240871Y33913739D01*
X-10241600Y33927339D01*
X-10244437Y33953710D01*
X-10253101Y34007145D01*
X-10254746Y34014703D01*
X-10271131Y34061126D01*
X-10296698Y34133563D01*
X-10324171Y34188417D01*
X-10324175Y34188425D01*
X-10394231Y34293211D01*
X-10394233Y34293214D01*
X-10395405Y34294565D01*
X-10395418Y34294580D01*
X-10395428Y34294590D01*
X-10395439Y34294602D01*
X-10446399Y34345531D01*
X-10446422Y34345554D01*
X-10473102Y34368659D01*
X-10473107Y34368663D01*
X-10473113Y34368668D01*
X-10530854Y34411866D01*
X-10530858Y34411868D01*
X-10581287Y34434881D01*
X-10581308Y34434891D01*
X-10693674Y34486195D01*
X-10699008Y34487761D01*
X-10708673Y34490599D01*
X-10752217Y34500072D01*
X-10779155Y34505933D01*
X-10814090Y34510955D01*
X-10886028Y34516100D01*
X-10886030Y34516100D01*
X-12689668Y34516100D01*
X-12689670Y34516100D01*
X-12743694Y34513205D01*
X-12770063Y34510370D01*
X-12823429Y34501725D01*
X-12823431Y34501724D01*
X-12823448Y34501721D01*
X-12823450Y34501720D01*
X-12831009Y34500076D01*
X-12831014Y34500075D01*
X-12831023Y34500072D01*
X-12949903Y34458128D01*
X-12949909Y34458126D01*
X-13004783Y34430650D01*
X-13004785Y34430648D01*
X-13079723Y34380567D01*
X-13079738Y34380556D01*
X-13109516Y34360654D01*
X-13110858Y34359491D01*
X-13116153Y34354196D01*
X-13116471Y34354552D01*
X-13116499Y34354527D01*
X-13120447Y34349902D01*
X-13128885Y34341465D01*
X-13128893Y34341457D01*
X-13161830Y34308516D01*
X-13175774Y34286820D01*
X-13185765Y34273369D01*
X-13205124Y34250686D01*
X-13205127Y34250682D01*
X-13242863Y34191945D01*
X-13302597Y34061121D01*
X-13305637Y34050770D01*
X-13306999Y34046128D01*
X-13313284Y34017240D01*
X-13322333Y33975647D01*
X-13327355Y33940712D01*
X-13332500Y33868774D01*
X-13332500Y33338100D01*
X-13352185Y33271061D01*
X-13404989Y33225306D01*
X-13456500Y33214100D01*
X-14938060Y33214100D01*
X-15084032Y33174989D01*
X-15084061Y33174979D01*
X-15090785Y33173177D01*
X-15090786Y33173177D01*
X-15090788Y33173176D01*
X-15090791Y33173175D01*
X-15093584Y33171563D01*
X-15093588Y33171561D01*
X-15119913Y33156362D01*
X-15140904Y33144241D01*
X-15140905Y33144240D01*
X-15184311Y33119180D01*
X-15184312Y33119181D01*
X-15227710Y33094125D01*
X-15227722Y33094117D01*
X-16478113Y31843724D01*
X-16500834Y31826714D01*
X-16506363Y31822575D01*
X-16516290Y31817154D01*
X-16584563Y31802300D01*
X-16650028Y31826714D01*
X-16691901Y31882646D01*
X-16694588Y31889852D01*
X-16702401Y31933172D01*
X-16702401Y35900366D01*
X-16702401Y35900370D01*
X-16702402Y35900385D01*
X-16707120Y35946568D01*
X-16705991Y35974068D01*
X-16705674Y35981822D01*
X-16702982Y35996303D01*
X-16671376Y36058611D01*
X-16613559Y36093303D01*
X-16601521Y36096571D01*
X-16569040Y36100900D01*
X6215670Y36100900D01*
X6250606Y36095877D01*
G37*
%TD.AperFunction*%
%TA.AperFunction,Conductor*%
G36*
X-12601194Y8430768D02*
G01*
X-12585108Y8431227D01*
X-12568356Y8421125D01*
X-12549591Y8415615D01*
X-12539057Y8403458D01*
X-12525275Y8395147D01*
X-12516644Y8377592D01*
X-12503836Y8362811D01*
X-12501547Y8346887D01*
X-12494446Y8332446D01*
X-12496676Y8313013D01*
X-12493892Y8293653D01*
X-12500577Y8279018D01*
X-12502410Y8263032D01*
X-12514792Y8247890D01*
X-12522917Y8230097D01*
X-12536946Y8220796D01*
X-12546638Y8208942D01*
X-12578306Y8193372D01*
X-12589432Y8189756D01*
X-12589438Y8189754D01*
X-12771760Y8096855D01*
X-12816323Y8064478D01*
X-12816323Y8064477D01*
X-12816323Y8064476D01*
X-12526773Y7774926D01*
X-12273345Y7521499D01*
X-12239860Y7460176D01*
X-12244844Y7390485D01*
X-12286715Y7334551D01*
X-12299026Y7326431D01*
X-12336003Y7305083D01*
X-12336008Y7305079D01*
X-12410479Y7230608D01*
X-12410485Y7230600D01*
X-12431832Y7193626D01*
X-12482399Y7145411D01*
X-12551007Y7132189D01*
X-12615871Y7158157D01*
X-12626899Y7167946D01*
X-13169876Y7710923D01*
X-13169877Y7710923D01*
X-13169878Y7710923D01*
X-13182606Y7704438D01*
X-13251275Y7691542D01*
X-13316016Y7717819D01*
X-13356272Y7774926D01*
X-13362900Y7814923D01*
X-13362900Y8311300D01*
X-13343215Y8378339D01*
X-13290411Y8424094D01*
X-13238900Y8435300D01*
X-12616630Y8435300D01*
X-12601194Y8430768D01*
G37*
%TD.AperFunction*%
%TA.AperFunction,Conductor*%
G36*
X-16212048Y25533605D02*
G01*
X-16156115Y25491733D01*
X-16131698Y25426269D01*
X-16131560Y25424062D01*
X-16130653Y25407142D01*
X-16130651Y25407119D01*
X-16127823Y25380790D01*
X-16126398Y25371997D01*
X-16121314Y25340615D01*
X-16119163Y25327343D01*
X-16119159Y25327317D01*
X-16117516Y25319767D01*
X-16117516Y25319765D01*
X-16075564Y25200877D01*
X-16075563Y25200874D01*
X-16063096Y25175980D01*
X-16048081Y25145996D01*
X-16023857Y25109761D01*
X-15978014Y25041188D01*
X-15976838Y25039832D01*
X-15976808Y25039800D01*
X-15948876Y25011885D01*
X-15925824Y24988847D01*
X-15915736Y24980111D01*
X-15899145Y24965742D01*
X-15841373Y24922523D01*
X-15841370Y24922522D01*
X-15841365Y24922518D01*
X-15779333Y24894216D01*
X-15779301Y24894189D01*
X-15779296Y24894199D01*
X-15678597Y24848214D01*
X-15663598Y24843809D01*
X-15593114Y24828473D01*
X-15558173Y24823448D01*
X-15486215Y24818300D01*
X-15228000Y24818300D01*
X-15160961Y24798615D01*
X-15115206Y24745811D01*
X-15104000Y24694300D01*
X-15104000Y24351000D01*
X-10804001Y24351000D01*
X-10804001Y24694300D01*
X-10801451Y24702986D01*
X-10802739Y24711947D01*
X-10791761Y24735988D01*
X-10784316Y24761339D01*
X-10777476Y24767267D01*
X-10773714Y24775503D01*
X-10751480Y24789793D01*
X-10731512Y24807094D01*
X-10720998Y24809382D01*
X-10714936Y24813277D01*
X-10680001Y24818300D01*
X-10491745Y24818300D01*
X-10424706Y24798615D01*
X-10378951Y24745811D01*
X-10367745Y24694300D01*
X-10367745Y19440856D01*
X-10387430Y19373817D01*
X-10440234Y19328062D01*
X-10509391Y19318118D01*
X-10534687Y19321755D01*
X-10606628Y19326900D01*
X-10606630Y19326900D01*
X-18452690Y19326900D01*
X-18519729Y19346585D01*
X-18565484Y19399389D01*
X-18575428Y19468547D01*
X-18546403Y19532103D01*
X-18517791Y19556437D01*
X-18434055Y19608085D01*
X-18310085Y19732055D01*
X-18218044Y19881276D01*
X-18218042Y19881281D01*
X-18162895Y20047703D01*
X-18162894Y20047710D01*
X-18152401Y20150414D01*
X-18152400Y20150427D01*
X-18152400Y22000400D01*
X-18952400Y22000400D01*
X-18952400Y19450401D01*
X-18951219Y19449220D01*
X-18922145Y19440683D01*
X-18888819Y19431110D01*
X-18888567Y19430823D01*
X-18888204Y19430716D01*
X-18865650Y19404687D01*
X-18842754Y19378576D01*
X-18842698Y19378199D01*
X-18842449Y19377912D01*
X-18837536Y19343743D01*
X-18832403Y19309478D01*
X-18832560Y19309131D01*
X-18832505Y19308754D01*
X-18846875Y19277289D01*
X-18861053Y19245752D01*
X-18861426Y19245428D01*
X-18861530Y19245198D01*
X-18887590Y19222482D01*
X-18887854Y19222311D01*
X-18925208Y19198306D01*
X-18927852Y19196328D01*
X-18931118Y19194147D01*
X-18931242Y19194065D01*
X-19019638Y19134999D01*
X-19041077Y19123540D01*
X-19085842Y19104998D01*
X-19109100Y19097942D01*
X-19120621Y19095650D01*
X-19156632Y19088487D01*
X-19180821Y19086104D01*
X-19229278Y19086104D01*
X-19253470Y19088487D01*
X-19271603Y19092094D01*
X-19289469Y19095648D01*
X-19289469Y19095649D01*
X-19289481Y19095650D01*
X-19301001Y19097942D01*
X-19324254Y19104996D01*
X-19367657Y19122973D01*
X-19367731Y19123003D01*
X-19369020Y19123538D01*
X-19390463Y19134998D01*
X-19469325Y19187692D01*
X-19473419Y19192590D01*
X-19499443Y19208031D01*
X-19505061Y19211571D01*
X-19522616Y19223301D01*
X-19567421Y19276914D01*
X-19576128Y19346239D01*
X-19545973Y19409266D01*
X-19486530Y19445985D01*
X-19453733Y19450402D01*
X-19452400Y19450402D01*
X-19452400Y22108571D01*
X-19447377Y22143507D01*
X-19445559Y22149696D01*
X-19442973Y22158506D01*
X-19405228Y22217256D01*
X-19405200Y22217281D01*
X-19405201Y22217281D01*
X-19403859Y22218444D01*
X-19348980Y22245923D01*
X-19341421Y22247567D01*
X-19315068Y22250400D01*
X-19202400Y22250400D01*
X-19202400Y22358571D01*
X-19202229Y22359757D01*
X-19197377Y22393507D01*
X-19192973Y22408505D01*
X-19155228Y22467256D01*
X-19155200Y22467281D01*
X-19155201Y22467281D01*
X-19153859Y22468444D01*
X-19098980Y22495923D01*
X-19091421Y22497567D01*
X-19065068Y22500400D01*
X-18152401Y22500400D01*
X-18152401Y23051005D01*
X-15103999Y23051005D01*
X-15093507Y22948306D01*
X-15093506Y22948304D01*
X-15043472Y22797309D01*
X-15038359Y22781881D01*
X-15038357Y22781876D01*
X-14946316Y22632655D01*
X-14822346Y22508685D01*
X-14673125Y22416644D01*
X-14673120Y22416642D01*
X-14506701Y22361496D01*
X-14506700Y22361496D01*
X-14506698Y22361495D01*
X-14506691Y22361494D01*
X-14403981Y22351001D01*
X-13204001Y22351001D01*
X-12704000Y22351001D01*
X-11504040Y22351001D01*
X-11504028Y22351001D01*
X-11504014Y22351002D01*
X-11401303Y22361495D01*
X-11234881Y22416642D01*
X-11234876Y22416644D01*
X-11085655Y22508685D01*
X-10961685Y22632655D01*
X-10869644Y22781876D01*
X-10869642Y22781881D01*
X-10814495Y22948303D01*
X-10814494Y22948310D01*
X-10804001Y23051014D01*
X-10804000Y23051027D01*
X-10804000Y23851000D01*
X-12704000Y23851000D01*
X-12704000Y22351001D01*
X-13204001Y22351001D01*
X-13204000Y22351002D01*
X-13204000Y23851000D01*
X-15103999Y23851000D01*
X-15103999Y23051005D01*
X-18152401Y23051005D01*
X-18152401Y24350368D01*
X-18152401Y24350372D01*
X-18152402Y24350387D01*
X-18162895Y24453098D01*
X-18218042Y24619520D01*
X-18218044Y24619525D01*
X-18310085Y24768746D01*
X-18319751Y24778412D01*
X-18340900Y24806662D01*
X-18344512Y24813277D01*
X-18346322Y24816592D01*
X-18361175Y24884862D01*
X-18336761Y24950327D01*
X-18280831Y24992199D01*
X-18276952Y24993646D01*
X-18273616Y24994889D01*
X-18230302Y25002700D01*
X-17182820Y25002700D01*
X-17182757Y25002699D01*
X-17180853Y25002699D01*
X-17173257Y25002699D01*
X-17015146Y25002699D01*
X-17015143Y25002699D01*
X-16862415Y25043623D01*
X-16812296Y25072561D01*
X-16725484Y25122680D01*
X-16613680Y25234484D01*
X-16613680Y25234485D01*
X-16596240Y25251925D01*
X-16596239Y25251927D01*
X-16343061Y25505106D01*
X-16281740Y25538589D01*
X-16212048Y25533605D01*
G37*
%TD.AperFunction*%
%TD*%
%TA.AperFunction,Conductor*%
%TO.N,Net-(J1-Pin_1)*%
G36*
X-41576797Y25501599D02*
G01*
X-41509761Y25481914D01*
X-41464006Y25429110D01*
X-41452800Y25377600D01*
X-41452800Y24892000D01*
X-25524000Y24892000D01*
X-25456961Y24872315D01*
X-25411206Y24819511D01*
X-25400000Y24768000D01*
X-25400000Y19732800D01*
X-25419685Y19665761D01*
X-25472489Y19620006D01*
X-25524000Y19608800D01*
X-34925000Y19608800D01*
X-34925000Y14398800D01*
X-34944685Y14331761D01*
X-34997489Y14286006D01*
X-35049000Y14274800D01*
X-38992000Y14274800D01*
X-39059039Y14294485D01*
X-39104794Y14347289D01*
X-39116000Y14398800D01*
X-39116000Y22098000D01*
X-45672200Y22098000D01*
X-45739239Y22117685D01*
X-45784994Y22170489D01*
X-45796200Y22222000D01*
X-45796200Y25377600D01*
X-45776515Y25444639D01*
X-45723711Y25490394D01*
X-45672201Y25501600D01*
X-41576797Y25501599D01*
G37*
%TD.AperFunction*%
%TD*%
%TA.AperFunction,Conductor*%
%TO.N,Net-(J2-Pin_1)*%
G36*
X-13220339Y30627377D02*
G01*
X-13205341Y30622973D01*
X-13190351Y30613343D01*
X-13173270Y30608333D01*
X-13146590Y30585228D01*
X-13145403Y30583859D01*
X-13117927Y30528998D01*
X-13116282Y30521440D01*
X-13113445Y30495069D01*
X-13113445Y26797000D01*
X-7514874Y26797000D01*
X-7479939Y26791977D01*
X-7464941Y26787573D01*
X-7406190Y26749828D01*
X-7406166Y26749800D01*
X-7406163Y26749798D01*
X-7406162Y26749796D01*
X-7405003Y26748459D01*
X-7377527Y26693598D01*
X-7375882Y26686040D01*
X-7373045Y26659669D01*
X-7373045Y21945600D01*
X3617371Y21945600D01*
X3652306Y21940577D01*
X3667304Y21936173D01*
X3726055Y21898428D01*
X3726079Y21898400D01*
X3726082Y21898398D01*
X3726083Y21898396D01*
X3727242Y21897059D01*
X3754718Y21842198D01*
X3756363Y21834640D01*
X3759200Y21808269D01*
X3759200Y18125030D01*
X3759199Y18125024D01*
X3759200Y18125021D01*
X3754175Y18090086D01*
X3749770Y18075088D01*
X3712027Y18016345D01*
X3711992Y18016315D01*
X3711991Y18016313D01*
X3711989Y18016313D01*
X3710658Y18015158D01*
X3655797Y17987682D01*
X3648239Y17986037D01*
X3621868Y17983200D01*
X-5188645Y17983200D01*
X-5188645Y9082630D01*
X-5188646Y9082624D01*
X-5188645Y9082621D01*
X-5193670Y9047686D01*
X-5198075Y9032688D01*
X-5235818Y8973945D01*
X-5235853Y8973915D01*
X-5235854Y8973913D01*
X-5235856Y8973913D01*
X-5237187Y8972758D01*
X-5292048Y8945282D01*
X-5299606Y8943637D01*
X-5325977Y8940800D01*
X-13868400Y8940800D01*
X-13868400Y5214330D01*
X-13868401Y5214324D01*
X-13868400Y5214321D01*
X-13873425Y5179386D01*
X-13877830Y5164388D01*
X-13915573Y5105645D01*
X-13915608Y5105615D01*
X-13915609Y5105613D01*
X-13915611Y5105613D01*
X-13916942Y5104458D01*
X-13971803Y5076982D01*
X-13979361Y5075337D01*
X-14005732Y5072500D01*
X-27620370Y5072500D01*
X-27620375Y5072501D01*
X-27620377Y5072500D01*
X-27655311Y5077525D01*
X-27670310Y5081930D01*
X-27729056Y5119673D01*
X-27729085Y5119707D01*
X-27729086Y5119707D01*
X-27729087Y5119709D01*
X-27730243Y5121042D01*
X-27757723Y5175917D01*
X-27759368Y5183479D01*
X-27762200Y5209832D01*
X-27762200Y8802451D01*
X-27757177Y8837387D01*
X-27752773Y8852385D01*
X-27715031Y8911134D01*
X-27714932Y8911221D01*
X-27713667Y8912317D01*
X-27658772Y8939800D01*
X-27651187Y8941449D01*
X-27624824Y8944276D01*
X-16941800Y8940800D01*
X-16935311Y13853741D01*
X-16930242Y13888663D01*
X-16925819Y13903654D01*
X-16887970Y13962381D01*
X-16886551Y13963607D01*
X-16831749Y13990963D01*
X-16824259Y13992588D01*
X-16797998Y13995400D01*
X-9862245Y13995400D01*
X-9862245Y25323800D01*
X-10729827Y25323800D01*
X-10729832Y25323801D01*
X-10729834Y25323800D01*
X-10764768Y25328825D01*
X-10779767Y25333230D01*
X-10838538Y25371001D01*
X-10845485Y25379018D01*
X-10865440Y25414113D01*
X-10866134Y25413789D01*
X-10869185Y25420331D01*
X-10869186Y25420332D01*
X-10869186Y25420334D01*
X-10961288Y25569656D01*
X-11085344Y25693712D01*
X-11234666Y25785814D01*
X-11392735Y25838193D01*
X-11395555Y25839359D01*
X-11401208Y25841001D01*
X-11503981Y25851500D01*
X-11503990Y25851500D01*
X-14404002Y25851500D01*
X-14404019Y25851499D01*
X-14418041Y25850067D01*
X-14506802Y25841000D01*
X-14506807Y25840999D01*
X-14506968Y25840944D01*
X-14673333Y25785815D01*
X-14673335Y25785814D01*
X-14673337Y25785813D01*
X-14772885Y25724412D01*
X-14822660Y25693710D01*
X-14946710Y25569660D01*
X-15038815Y25420335D01*
X-15041846Y25413847D01*
X-15042716Y25414254D01*
X-15052767Y25394168D01*
X-15061687Y25381285D01*
X-15116018Y25337379D01*
X-15121748Y25334997D01*
X-15125812Y25333307D01*
X-15173426Y25323800D01*
X-15486215Y25323800D01*
X-15521156Y25328825D01*
X-15536155Y25333230D01*
X-15551143Y25342860D01*
X-15568221Y25347868D01*
X-15594901Y25370973D01*
X-15596088Y25372342D01*
X-15623568Y25427217D01*
X-15625213Y25434779D01*
X-15628045Y25461132D01*
X-15628045Y26166937D01*
X-15624066Y26197171D01*
X-15623462Y26202785D01*
X-15615309Y26235576D01*
X-15614742Y26236992D01*
X-15607008Y26252923D01*
X-15546525Y26357682D01*
X-15546522Y26357688D01*
X-15546521Y26357689D01*
X-15544023Y26362015D01*
X-15503099Y26514743D01*
X-15503099Y26672857D01*
X-15503099Y26680452D01*
X-15503099Y26682136D01*
X-15503100Y26682210D01*
X-15503100Y30490571D01*
X-15498077Y30525507D01*
X-15493673Y30540505D01*
X-15455928Y30599256D01*
X-15455900Y30599281D01*
X-15455901Y30599281D01*
X-15454559Y30600444D01*
X-15399680Y30627923D01*
X-15392121Y30629567D01*
X-15365768Y30632400D01*
X-13255275Y30632400D01*
X-13220339Y30627377D01*
G37*
%TD.AperFunction*%
%TD*%
%TA.AperFunction,Conductor*%
%TO.N,Net-(U1-FB)*%
G36*
X-10851094Y34005577D02*
G01*
X-10836096Y34001173D01*
X-10821106Y33991543D01*
X-10804025Y33986533D01*
X-10777345Y33963428D01*
X-10776158Y33962059D01*
X-10748682Y33907198D01*
X-10747037Y33899640D01*
X-10744200Y33873269D01*
X-10744200Y33645760D01*
X-10749224Y33610820D01*
X-10756636Y33585581D01*
X-10784628Y33538402D01*
X-10784028Y33537927D01*
X-10787557Y33533465D01*
X-10787923Y33532847D01*
X-10788506Y33532265D01*
X-10788509Y33532261D01*
X-10880613Y33382938D01*
X-10880648Y33382830D01*
X-10924750Y33249743D01*
X-10924756Y33249725D01*
X-10935799Y33216397D01*
X-10935799Y33216396D01*
X-10935800Y33216396D01*
X-10936570Y33208865D01*
X-10936571Y33208859D01*
X-10946300Y33113627D01*
X-10946300Y32113602D01*
X-10946297Y32113555D01*
X-10935800Y32010804D01*
X-10935799Y32010801D01*
X-10880615Y31844269D01*
X-10880613Y31844264D01*
X-10788511Y31694943D01*
X-10788509Y31694941D01*
X-10784033Y31689280D01*
X-10784912Y31688586D01*
X-10771977Y31671307D01*
X-10759369Y31648218D01*
X-10744200Y31588789D01*
X-10744200Y27777030D01*
X-10749225Y27742086D01*
X-10753630Y27727088D01*
X-10791373Y27668345D01*
X-10792742Y27667158D01*
X-10847603Y27639682D01*
X-10855161Y27638037D01*
X-10881532Y27635200D01*
X-12483945Y27635200D01*
X-12550984Y27654885D01*
X-12596739Y27707689D01*
X-12607945Y27759200D01*
X-12607945Y30495070D01*
X-12610845Y30549131D01*
X-12610845Y30549139D01*
X-12613682Y30575510D01*
X-12622346Y30628945D01*
X-12623991Y30636503D01*
X-12635177Y30668195D01*
X-12665943Y30755363D01*
X-12693416Y30810217D01*
X-12693420Y30810225D01*
X-12763476Y30915011D01*
X-12763478Y30915014D01*
X-12764650Y30916365D01*
X-12764663Y30916380D01*
X-12790656Y30942358D01*
X-12824159Y31003672D01*
X-12827000Y31030065D01*
X-12827000Y33868771D01*
X-12821977Y33903707D01*
X-12817573Y33918705D01*
X-12779828Y33977456D01*
X-12779800Y33977481D01*
X-12779801Y33977481D01*
X-12778459Y33978644D01*
X-12723580Y34006123D01*
X-12716021Y34007767D01*
X-12689668Y34010600D01*
X-10886030Y34010600D01*
X-10851094Y34005577D01*
G37*
%TD.AperFunction*%
%TD*%
D32*
X-18112000Y34398000D03*
X-38608000Y9337923D03*
X-26466800Y25806400D03*
X-33474400Y6553200D03*
X-4267200Y6553200D03*
X-37033200Y12843123D03*
X-33883600Y28600400D03*
X-22631400Y25806400D03*
X-31775400Y26635323D03*
X-39474400Y6553200D03*
X-35534600Y12411323D03*
X-1828800Y11598523D03*
X3403600Y23743800D03*
X-41808400Y20243800D03*
X-32334200Y28194000D03*
X-3759200Y13563600D03*
X-3251200Y15062200D03*
X-19205050Y19456104D03*
X-4267200Y31750000D03*
X-18112000Y31398000D03*
X-46916600Y15519400D03*
X-35102800Y10922000D03*
X-27112000Y31398000D03*
X-21112000Y31398000D03*
X-37033200Y8956923D03*
X-24112000Y28398000D03*
X-4267200Y28750000D03*
X-1267200Y6553200D03*
X-27112000Y28398000D03*
X-21112000Y28398000D03*
X-38963600Y10922000D03*
X-22606000Y19431000D03*
X-18112000Y28398000D03*
X-21112000Y34398000D03*
X-24112000Y31398000D03*
X-1828800Y15484723D03*
X-35585400Y9464923D03*
X-46177200Y20243800D03*
X-17449800Y22986413D03*
X-7267200Y6553200D03*
X-17449800Y24125209D03*
X-1117600Y23749000D03*
X-35941000Y26635323D03*
X-17449800Y20978846D03*
X-4267200Y34750000D03*
X-36474400Y6553200D03*
X-24536400Y25806400D03*
X-27112000Y34398000D03*
X-38557200Y12436723D03*
X-43916600Y15519400D03*
X-35433000Y28194000D03*
X-17449800Y22047200D03*
X-3251200Y12217400D03*
X-10363200Y6985000D03*
X-24112000Y34398000D03*
D33*
X1143000Y20243800D03*
X1143000Y23743800D03*
X2489200Y32562800D03*
X-45237400Y32562800D03*
X-12090400Y11985000D03*
X-12090400Y6985000D03*
X-9245600Y28905200D03*
X-11785600Y28905200D03*
X-14325600Y28905200D03*
X-33883600Y21635323D03*
X-33883600Y26635323D03*
X-6822251Y13639800D03*
X-1822251Y13639800D03*
X-45237400Y9423400D03*
X2489200Y9423400D03*
X-37033200Y15922000D03*
X-37033200Y10922000D03*
X-43992800Y23743800D03*
X-43992800Y20243800D03*
M02*
