%TF.GenerationSoftware,KiCad,Pcbnew,10.0.4*%
%TF.CreationDate,2026-07-06T22:31:50+03:00*%
%TF.ProjectId,LM2596project,4c4d3235-3936-4707-926f-6a6563742e6b,rev?*%
%TF.SameCoordinates,Original*%
%TF.FileFunction,Copper,L2,Bot*%
%TF.FilePolarity,Positive*%
%FSLAX46Y46*%
G04 Gerber Fmt 4.6, Leading zero omitted, Abs format (unit mm)*
G04 Created by KiCad (PCBNEW 10.0.4) date 2026-07-06 22:31:50*
%MOMM*%
%LPD*%
G01*
G04 APERTURE LIST*
G04 Aperture macros list*
%AMRoundRect*
0 Rectangle with rounded corners*
0 $1 Rounding radius*
0 $2 $3 $4 $5 $6 $7 $8 $9 X,Y pos of 4 corners*
0 Add a 4 corners polygon primitive as box body*
4,1,4,$2,$3,$4,$5,$6,$7,$8,$9,$2,$3,0*
0 Add four circle primitives for the rounded corners*
1,1,$1+$1,$2,$3*
1,1,$1+$1,$4,$5*
1,1,$1+$1,$6,$7*
1,1,$1+$1,$8,$9*
0 Add four rect primitives between the rounded corners*
20,1,$1+$1,$2,$3,$4,$5,0*
20,1,$1+$1,$4,$5,$6,$7,0*
20,1,$1+$1,$6,$7,$8,$9,0*
20,1,$1+$1,$8,$9,$2,$3,0*%
G04 Aperture macros list end*
%TA.AperFunction,ComponentPad*%
%ADD10RoundRect,0.250001X0.949999X-0.949999X0.949999X0.949999X-0.949999X0.949999X-0.949999X-0.949999X0*%
%TD*%
%TA.AperFunction,ComponentPad*%
%ADD11C,2.400000*%
%TD*%
%TA.AperFunction,ComponentPad*%
%ADD12C,6.400000*%
%TD*%
%TA.AperFunction,ComponentPad*%
%ADD13RoundRect,0.250000X-0.550000X0.550000X-0.550000X-0.550000X0.550000X-0.550000X0.550000X0.550000X0*%
%TD*%
%TA.AperFunction,ComponentPad*%
%ADD14C,1.600000*%
%TD*%
%TA.AperFunction,ComponentPad*%
%ADD15C,1.440000*%
%TD*%
%TA.AperFunction,ComponentPad*%
%ADD16RoundRect,0.250000X0.750000X-0.750000X0.750000X0.750000X-0.750000X0.750000X-0.750000X-0.750000X0*%
%TD*%
%TA.AperFunction,ComponentPad*%
%ADD17C,2.000000*%
%TD*%
%TA.AperFunction,ComponentPad*%
%ADD18RoundRect,0.250000X-0.550000X-0.550000X0.550000X-0.550000X0.550000X0.550000X-0.550000X0.550000X0*%
%TD*%
%TA.AperFunction,ComponentPad*%
%ADD19RoundRect,0.250000X-0.750000X0.750000X-0.750000X-0.750000X0.750000X-0.750000X0.750000X0.750000X0*%
%TD*%
%TA.AperFunction,ComponentPad*%
%ADD20RoundRect,0.250001X-0.949999X0.949999X-0.949999X-0.949999X0.949999X-0.949999X0.949999X0.949999X0*%
%TD*%
%TA.AperFunction,ViaPad*%
%ADD21C,0.600000*%
%TD*%
%ADD22C,0.300000*%
%ADD23C,0.350000*%
G04 APERTURE END LIST*
D10*
%TO.P,J2,1,Pin_1_1*%
%TO.N,Net-(J2-Pin_1)*%
X1143000Y20243800D03*
D11*
%TO.P,J2,2,Pin_2_2*%
%TO.N,GND*%
X1143000Y23743800D03*
%TD*%
D12*
%TO.P,REF\u002A\u002A,*%
%TO.N,GND*%
X2489200Y32562800D03*
%TD*%
%TO.P,REF\u002A\u002A,*%
%TO.N,GND*%
X-45237400Y32562800D03*
%TD*%
D13*
%TO.P,C3,1*%
%TO.N,Net-(J2-Pin_1)*%
X-12090400Y11985000D03*
D14*
%TO.P,C3,2*%
%TO.N,GND*%
X-12090400Y6985000D03*
%TD*%
D15*
%TO.P,RV1,1,1_1*%
%TO.N,unconnected-(RV1-Pad1)*%
X-9245600Y28905200D03*
%TO.P,RV1,2,2_2*%
%TO.N,Net-(U1-FB)*%
X-11785600Y28905200D03*
%TO.P,RV1,3,3_3*%
%TO.N,Net-(J2-Pin_1)*%
X-14325600Y28905200D03*
%TD*%
D16*
%TO.P,C2,1*%
%TO.N,Net-(J1-Pin_1)*%
X-33883600Y21635323D03*
D17*
%TO.P,C2,2*%
%TO.N,GND*%
X-33883600Y26635323D03*
%TD*%
D18*
%TO.P,C4,1*%
%TO.N,Net-(J2-Pin_1)*%
X-6822251Y13639800D03*
D14*
%TO.P,C4,2*%
%TO.N,GND*%
X-1822251Y13639800D03*
%TD*%
D12*
%TO.P,REF\u002A\u002A,*%
%TO.N,GND*%
X-45237400Y9423400D03*
%TD*%
%TO.P,REF\u002A\u002A,*%
%TO.N,GND*%
X2489200Y9423400D03*
%TD*%
D19*
%TO.P,C1,1*%
%TO.N,Net-(J1-Pin_1)*%
X-37033200Y15922000D03*
D17*
%TO.P,C1,2*%
%TO.N,GND*%
X-37033200Y10922000D03*
%TD*%
D20*
%TO.P,J1,1,Pin_1_1*%
%TO.N,Net-(J1-Pin_1)*%
X-43992800Y23743800D03*
D11*
%TO.P,J1,2,Pin_2_2*%
%TO.N,GND*%
X-43992800Y20243800D03*
%TD*%
D21*
%TO.N,GND*%
X-18112000Y34398000D03*
X-38608000Y9337923D03*
X-26466800Y25806400D03*
X-33474400Y6553200D03*
X-4267200Y6553200D03*
X-37033200Y12843123D03*
X-33883600Y28600400D03*
X-22631400Y25806400D03*
X-31775400Y26635323D03*
X-39474400Y6553200D03*
X-35534600Y12411323D03*
X-1828800Y11598523D03*
X3403600Y23743800D03*
X-41808400Y20243800D03*
X-32334200Y28194000D03*
X-3759200Y13563600D03*
X-3251200Y15062200D03*
X-19205050Y19456104D03*
X-4267200Y31750000D03*
X-18112000Y31398000D03*
X-46916600Y15519400D03*
X-35102800Y10922000D03*
X-27112000Y31398000D03*
X-21112000Y31398000D03*
X-37033200Y8956923D03*
X-24112000Y28398000D03*
X-4267200Y28750000D03*
X-1267200Y6553200D03*
X-27112000Y28398000D03*
X-21112000Y28398000D03*
X-38963600Y10922000D03*
X-22606000Y19431000D03*
X-18112000Y28398000D03*
X-21112000Y34398000D03*
X-24112000Y31398000D03*
X-1828800Y15484723D03*
X-35585400Y9464923D03*
X-46177200Y20243800D03*
X-17449800Y22986413D03*
X-7267200Y6553200D03*
X-17449800Y24125209D03*
X-1117600Y23749000D03*
X-35941000Y26635323D03*
X-17449800Y20978846D03*
X-4267200Y34750000D03*
X-36474400Y6553200D03*
X-24536400Y25806400D03*
X-27112000Y34398000D03*
X-38557200Y12436723D03*
X-43916600Y15519400D03*
X-35433000Y28194000D03*
X-17449800Y22047200D03*
X-3251200Y12217400D03*
X-10363200Y6985000D03*
X-24112000Y34398000D03*
%TD*%
%TA.AperFunction,Conductor*%
%TO.N,GND*%
G36*
X6300539Y36081215D02*
G01*
X6346294Y36028411D01*
X6357500Y35976900D01*
X6357500Y5196500D01*
X6337815Y5129461D01*
X6285011Y5083706D01*
X6233500Y5072500D01*
X-48676900Y5072500D01*
X-48743939Y5092185D01*
X-48789694Y5144989D01*
X-48800900Y5196500D01*
X-48800900Y7087318D01*
X-13390400Y7087318D01*
X-13390400Y6882683D01*
X-13358391Y6680583D01*
X-13295156Y6485969D01*
X-13202259Y6303650D01*
X-13202253Y6303641D01*
X-13169877Y6259079D01*
X-13169876Y6259078D01*
X-12490400Y6938554D01*
X-12490400Y6932339D01*
X-12463141Y6830606D01*
X-12410480Y6739394D01*
X-12336006Y6664920D01*
X-12244794Y6612259D01*
X-12143061Y6585000D01*
X-12136847Y6585000D01*
X-12816324Y5905526D01*
X-12771750Y5873141D01*
X-12589432Y5780245D01*
X-12394818Y5717010D01*
X-12192717Y5685000D01*
X-11988083Y5685000D01*
X-11785983Y5717010D01*
X-11591369Y5780245D01*
X-11409051Y5873141D01*
X-11364479Y5905526D01*
X-12043953Y6585000D01*
X-12037739Y6585000D01*
X-11936006Y6612259D01*
X-11844794Y6664920D01*
X-11770320Y6739394D01*
X-11717659Y6830606D01*
X-11690400Y6932339D01*
X-11690400Y6938553D01*
X-11010926Y6259079D01*
X-10978541Y6303651D01*
X-10885645Y6485969D01*
X-10822410Y6680583D01*
X-10790400Y6882683D01*
X-10790400Y7087318D01*
X-10822410Y7289418D01*
X-10885645Y7484032D01*
X-10978541Y7666350D01*
X-11010926Y7710923D01*
X-11010926Y7710924D01*
X-11690400Y7031449D01*
X-11690400Y7037661D01*
X-11717659Y7139394D01*
X-11770320Y7230606D01*
X-11844794Y7305080D01*
X-11936006Y7357741D01*
X-12037739Y7385000D01*
X-12043954Y7385000D01*
X-11364478Y8064476D01*
X-11364479Y8064477D01*
X-11409041Y8096853D01*
X-11409050Y8096859D01*
X-11591369Y8189756D01*
X-11785983Y8252991D01*
X-11988083Y8285000D01*
X-12192717Y8285000D01*
X-12394818Y8252991D01*
X-12589432Y8189756D01*
X-12771756Y8096857D01*
X-12816323Y8064477D01*
X-12816323Y8064476D01*
X-12136846Y7385000D01*
X-12143061Y7385000D01*
X-12244794Y7357741D01*
X-12336006Y7305080D01*
X-12410480Y7230606D01*
X-12463141Y7139394D01*
X-12490400Y7037661D01*
X-12490400Y7031447D01*
X-13169876Y7710923D01*
X-13169877Y7710923D01*
X-13202257Y7666356D01*
X-13295156Y7484032D01*
X-13358391Y7289418D01*
X-13390400Y7087318D01*
X-48800900Y7087318D01*
X-48800900Y11040053D01*
X-38533200Y11040053D01*
X-38533200Y10803948D01*
X-38496266Y10570753D01*
X-38423303Y10346198D01*
X-38316113Y10135826D01*
X-38255862Y10052896D01*
X-38255860Y10052895D01*
X-37516163Y10792592D01*
X-37499125Y10729007D01*
X-37433299Y10614993D01*
X-37340207Y10521901D01*
X-37226193Y10456075D01*
X-37162610Y10439038D01*
X-37902307Y9699342D01*
X-37819372Y9639086D01*
X-37609003Y9531898D01*
X-37384448Y9458935D01*
X-37384449Y9458935D01*
X-37151252Y9422000D01*
X-36915148Y9422000D01*
X-36681953Y9458935D01*
X-36457398Y9531898D01*
X-36247037Y9639082D01*
X-36247031Y9639086D01*
X-36164096Y9699342D01*
X-36164095Y9699342D01*
X-36903792Y10439038D01*
X-36840207Y10456075D01*
X-36726193Y10521901D01*
X-36633101Y10614993D01*
X-36567275Y10729007D01*
X-36550238Y10792592D01*
X-35810542Y10052895D01*
X-35810542Y10052896D01*
X-35750286Y10135831D01*
X-35750282Y10135837D01*
X-35643098Y10346198D01*
X-35570135Y10570753D01*
X-35533200Y10803948D01*
X-35533200Y11040053D01*
X-35570135Y11273248D01*
X-35643098Y11497803D01*
X-35750286Y11708172D01*
X-35810542Y11791106D01*
X-35810542Y11791107D01*
X-36550238Y11051410D01*
X-36567275Y11114993D01*
X-36633101Y11229007D01*
X-36726193Y11322099D01*
X-36840207Y11387925D01*
X-36903791Y11404963D01*
X-36164095Y12144660D01*
X-36164096Y12144662D01*
X-36247026Y12204913D01*
X-36457398Y12312103D01*
X-36681953Y12385066D01*
X-36681952Y12385066D01*
X-36915148Y12422000D01*
X-37151252Y12422000D01*
X-37384448Y12385066D01*
X-37609003Y12312103D01*
X-37819370Y12204916D01*
X-37902306Y12144660D01*
X-37162609Y11404963D01*
X-37226193Y11387925D01*
X-37340207Y11322099D01*
X-37433299Y11229007D01*
X-37499125Y11114993D01*
X-37516163Y11051409D01*
X-38255860Y11791106D01*
X-38316116Y11708170D01*
X-38423303Y11497803D01*
X-38496266Y11273248D01*
X-38533200Y11040053D01*
X-48800900Y11040053D01*
X-48800900Y12585017D01*
X-13390900Y12585017D01*
X-13390900Y11384999D01*
X-13390899Y11384982D01*
X-13380400Y11282204D01*
X-13380399Y11282201D01*
X-13378196Y11275554D01*
X-13325214Y11115666D01*
X-13233112Y10966344D01*
X-13109056Y10842288D01*
X-12959734Y10750186D01*
X-12793197Y10695001D01*
X-12690409Y10684500D01*
X-11490392Y10684501D01*
X-11387603Y10695001D01*
X-11221066Y10750186D01*
X-11071744Y10842288D01*
X-10947688Y10966344D01*
X-10855586Y11115666D01*
X-10800401Y11282203D01*
X-10789900Y11384991D01*
X-10789901Y12585008D01*
X-10800401Y12687797D01*
X-10855586Y12854334D01*
X-10947688Y13003656D01*
X-11071744Y13127712D01*
X-11221066Y13219814D01*
X-11387603Y13274999D01*
X-11387605Y13275000D01*
X-11490390Y13285500D01*
X-12690402Y13285500D01*
X-12690419Y13285499D01*
X-12793197Y13275000D01*
X-12793200Y13274999D01*
X-12959732Y13219815D01*
X-12959737Y13219813D01*
X-13109058Y13127711D01*
X-13233111Y13003658D01*
X-13325213Y12854337D01*
X-13325214Y12854334D01*
X-13380399Y12687797D01*
X-13380399Y12687796D01*
X-13380400Y12687796D01*
X-13390900Y12585017D01*
X-48800900Y12585017D01*
X-48800900Y14239817D01*
X-8122751Y14239817D01*
X-8122751Y13039799D01*
X-8122750Y13039782D01*
X-8112251Y12937004D01*
X-8112250Y12937001D01*
X-8057066Y12770469D01*
X-8057065Y12770466D01*
X-7964963Y12621144D01*
X-7840907Y12497088D01*
X-7691585Y12404986D01*
X-7525048Y12349801D01*
X-7422260Y12339300D01*
X-6222243Y12339301D01*
X-6119454Y12349801D01*
X-5952917Y12404986D01*
X-5803595Y12497088D01*
X-5679539Y12621144D01*
X-5587437Y12770466D01*
X-5532252Y12937003D01*
X-5521751Y13039791D01*
X-5521752Y13742118D01*
X-3122251Y13742118D01*
X-3122251Y13537483D01*
X-3090242Y13335383D01*
X-3027007Y13140769D01*
X-2934110Y12958450D01*
X-2934104Y12958441D01*
X-2901728Y12913879D01*
X-2901727Y12913878D01*
X-2222251Y13593354D01*
X-2222251Y13587139D01*
X-2194992Y13485406D01*
X-2142331Y13394194D01*
X-2067857Y13319720D01*
X-1976645Y13267059D01*
X-1874912Y13239800D01*
X-1868698Y13239800D01*
X-2548175Y12560326D01*
X-2503601Y12527941D01*
X-2321283Y12435045D01*
X-2126669Y12371810D01*
X-1924568Y12339800D01*
X-1719934Y12339800D01*
X-1517834Y12371810D01*
X-1323220Y12435045D01*
X-1140902Y12527941D01*
X-1096330Y12560326D01*
X-1775804Y13239800D01*
X-1769590Y13239800D01*
X-1667857Y13267059D01*
X-1576645Y13319720D01*
X-1502171Y13394194D01*
X-1449510Y13485406D01*
X-1422251Y13587139D01*
X-1422251Y13593353D01*
X-742777Y12913879D01*
X-710392Y12958451D01*
X-617496Y13140769D01*
X-554261Y13335383D01*
X-522251Y13537483D01*
X-522251Y13742118D01*
X-554261Y13944218D01*
X-617496Y14138832D01*
X-710392Y14321150D01*
X-742777Y14365723D01*
X-742777Y14365724D01*
X-1422251Y13686249D01*
X-1422251Y13692461D01*
X-1449510Y13794194D01*
X-1502171Y13885406D01*
X-1576645Y13959880D01*
X-1667857Y14012541D01*
X-1769590Y14039800D01*
X-1775805Y14039800D01*
X-1096329Y14719276D01*
X-1096330Y14719277D01*
X-1140892Y14751653D01*
X-1140901Y14751659D01*
X-1323220Y14844556D01*
X-1517834Y14907791D01*
X-1719934Y14939800D01*
X-1924568Y14939800D01*
X-2126669Y14907791D01*
X-2321283Y14844556D01*
X-2503607Y14751657D01*
X-2548174Y14719277D01*
X-2548174Y14719276D01*
X-1868697Y14039800D01*
X-1874912Y14039800D01*
X-1976645Y14012541D01*
X-2067857Y13959880D01*
X-2142331Y13885406D01*
X-2194992Y13794194D01*
X-2222251Y13692461D01*
X-2222251Y13686247D01*
X-2901727Y14365723D01*
X-2901728Y14365723D01*
X-2934108Y14321156D01*
X-3027007Y14138832D01*
X-3090242Y13944218D01*
X-3122251Y13742118D01*
X-5521752Y13742118D01*
X-5521752Y14239808D01*
X-5532252Y14342597D01*
X-5587437Y14509134D01*
X-5679539Y14658456D01*
X-5803595Y14782512D01*
X-5952917Y14874614D01*
X-6119454Y14929799D01*
X-6119456Y14929800D01*
X-6222241Y14940300D01*
X-7422253Y14940300D01*
X-7422270Y14940299D01*
X-7525048Y14929800D01*
X-7525051Y14929799D01*
X-7691583Y14874615D01*
X-7691588Y14874613D01*
X-7840909Y14782511D01*
X-7964962Y14658458D01*
X-8057064Y14509137D01*
X-8057065Y14509134D01*
X-8112250Y14342597D01*
X-8112250Y14342596D01*
X-8112251Y14342596D01*
X-8122751Y14239817D01*
X-48800900Y14239817D01*
X-48800900Y16722017D01*
X-38533700Y16722017D01*
X-38533700Y15121999D01*
X-38533699Y15121982D01*
X-38523200Y15019204D01*
X-38523199Y15019201D01*
X-38486281Y14907791D01*
X-38468014Y14852666D01*
X-38375912Y14703344D01*
X-38251856Y14579288D01*
X-38102534Y14487186D01*
X-37935997Y14432001D01*
X-37833209Y14421500D01*
X-36233192Y14421501D01*
X-36130403Y14432001D01*
X-35963866Y14487186D01*
X-35814544Y14579288D01*
X-35690488Y14703344D01*
X-35598386Y14852666D01*
X-35543201Y15019203D01*
X-35532700Y15121991D01*
X-35532701Y16722008D01*
X-35543201Y16824797D01*
X-35598386Y16991334D01*
X-35690488Y17140656D01*
X-35814544Y17264712D01*
X-35963866Y17356814D01*
X-36130403Y17411999D01*
X-36130405Y17412000D01*
X-36233190Y17422500D01*
X-37833202Y17422500D01*
X-37833219Y17422499D01*
X-37935997Y17412000D01*
X-37936000Y17411999D01*
X-38102532Y17356815D01*
X-38102537Y17356813D01*
X-38251858Y17264711D01*
X-38375911Y17140658D01*
X-38468013Y16991337D01*
X-38468014Y16991334D01*
X-38523199Y16824797D01*
X-38523199Y16824796D01*
X-38523200Y16824796D01*
X-38533700Y16722017D01*
X-48800900Y16722017D01*
X-48800900Y24743816D01*
X-45693300Y24743816D01*
X-45693300Y22743785D01*
X-45682800Y22641005D01*
X-45682799Y22641004D01*
X-45627614Y22474465D01*
X-45627613Y22474463D01*
X-45535514Y22325149D01*
X-45535511Y22325145D01*
X-45411456Y22201090D01*
X-45411452Y22201087D01*
X-45262138Y22108988D01*
X-45262136Y22108987D01*
X-45262134Y22108986D01*
X-45095597Y22053801D01*
X-44992808Y22043300D01*
X-44992803Y22043300D01*
X-44714126Y22043300D01*
X-44647087Y22023615D01*
X-44601332Y21970811D01*
X-44591388Y21901653D01*
X-44620413Y21838097D01*
X-44666673Y21804739D01*
X-44746303Y21771755D01*
X-44746321Y21771746D01*
X-44939289Y21660338D01*
X-45005205Y21609758D01*
X-44203859Y20808413D01*
X-44224391Y20802911D01*
X-44361208Y20723919D01*
X-44472919Y20612208D01*
X-44551911Y20475391D01*
X-44557413Y20454860D01*
X-45358758Y21256205D01*
X-45409338Y21190289D01*
X-45520746Y20997321D01*
X-45520755Y20997303D01*
X-45606037Y20791419D01*
X-45663712Y20576168D01*
X-45663715Y20576155D01*
X-45692800Y20355225D01*
X-45692800Y20132376D01*
X-45663715Y19911446D01*
X-45663712Y19911433D01*
X-45606037Y19696182D01*
X-45520755Y19490298D01*
X-45520746Y19490280D01*
X-45409336Y19297309D01*
X-45409327Y19297296D01*
X-45358760Y19231397D01*
X-45358757Y19231397D01*
X-44557413Y20032741D01*
X-44551911Y20012209D01*
X-44472919Y19875392D01*
X-44361208Y19763681D01*
X-44224391Y19684689D01*
X-44203860Y19679188D01*
X-45005205Y18877845D01*
X-45005205Y18877844D01*
X-44939293Y18827267D01*
X-44746315Y18715851D01*
X-44746303Y18715846D01*
X-44540419Y18630564D01*
X-44325168Y18572889D01*
X-44325155Y18572886D01*
X-44104225Y18543800D01*
X-43881375Y18543800D01*
X-43660446Y18572886D01*
X-43660433Y18572889D01*
X-43445182Y18630564D01*
X-43239298Y18715846D01*
X-43239286Y18715851D01*
X-43046302Y18827270D01*
X-42980397Y18877843D01*
X-42980396Y18877844D01*
X-43781741Y19679188D01*
X-43761209Y19684689D01*
X-43624392Y19763681D01*
X-43512681Y19875392D01*
X-43433689Y20012209D01*
X-43428188Y20032741D01*
X-42626844Y19231396D01*
X-42626843Y19231397D01*
X-42576270Y19297302D01*
X-42464851Y19490286D01*
X-42464846Y19490298D01*
X-42379564Y19696182D01*
X-42321889Y19911433D01*
X-42321886Y19911446D01*
X-42292800Y20132376D01*
X-42292800Y20355225D01*
X-42321886Y20576155D01*
X-42321889Y20576168D01*
X-42379564Y20791419D01*
X-42464846Y20997303D01*
X-42464851Y20997315D01*
X-42576267Y21190293D01*
X-42626844Y21256205D01*
X-42626845Y21256205D01*
X-43428188Y20454861D01*
X-43433689Y20475391D01*
X-43512681Y20612208D01*
X-43624392Y20723919D01*
X-43761209Y20802911D01*
X-43781742Y20808413D01*
X-42980397Y21609757D01*
X-42980397Y21609760D01*
X-43046296Y21660327D01*
X-43046309Y21660336D01*
X-43239280Y21771746D01*
X-43239298Y21771755D01*
X-43318927Y21804739D01*
X-43373331Y21848580D01*
X-43395395Y21914875D01*
X-43378115Y21982574D01*
X-43326978Y22030184D01*
X-43271474Y22043300D01*
X-42992797Y22043300D01*
X-42992792Y22043300D01*
X-42890003Y22053801D01*
X-42723466Y22108986D01*
X-42574145Y22201089D01*
X-42450089Y22325145D01*
X-42382119Y22435340D01*
X-35384100Y22435340D01*
X-35384100Y20835322D01*
X-35384099Y20835305D01*
X-35373600Y20732527D01*
X-35373599Y20732524D01*
X-35328807Y20597354D01*
X-35318414Y20565989D01*
X-35226312Y20416667D01*
X-35102256Y20292611D01*
X-34952934Y20200509D01*
X-34786397Y20145324D01*
X-34683609Y20134823D01*
X-33083592Y20134824D01*
X-32980803Y20145324D01*
X-32814266Y20200509D01*
X-32664944Y20292611D01*
X-32540888Y20416667D01*
X-32448786Y20565989D01*
X-32393601Y20732526D01*
X-32383100Y20835314D01*
X-32383100Y21243816D01*
X-557500Y21243816D01*
X-557500Y19243785D01*
X-547000Y19141005D01*
X-546999Y19141004D01*
X-491814Y18974465D01*
X-491813Y18974463D01*
X-399714Y18825149D01*
X-399711Y18825145D01*
X-275656Y18701090D01*
X-275652Y18701087D01*
X-126338Y18608988D01*
X-126336Y18608987D01*
X-126334Y18608986D01*
X40203Y18553801D01*
X142992Y18543300D01*
X142997Y18543300D01*
X2143003Y18543300D01*
X2143008Y18543300D01*
X2245797Y18553801D01*
X2412334Y18608986D01*
X2561655Y18701089D01*
X2685711Y18825145D01*
X2777814Y18974466D01*
X2832999Y19141003D01*
X2843500Y19243792D01*
X2843500Y21243808D01*
X2832999Y21346597D01*
X2777814Y21513134D01*
X2685711Y21662455D01*
X2561655Y21786511D01*
X2561651Y21786514D01*
X2412337Y21878613D01*
X2412335Y21878614D01*
X2329065Y21906207D01*
X2245797Y21933799D01*
X2245795Y21933800D01*
X2143015Y21944300D01*
X2143008Y21944300D01*
X1864326Y21944300D01*
X1797287Y21963985D01*
X1751532Y22016789D01*
X1741588Y22085947D01*
X1770613Y22149503D01*
X1816873Y22182861D01*
X1896502Y22215846D01*
X1896514Y22215851D01*
X2089498Y22327270D01*
X2155403Y22377843D01*
X2155404Y22377844D01*
X1354059Y23179188D01*
X1374591Y23184689D01*
X1511408Y23263681D01*
X1623119Y23375392D01*
X1702111Y23512209D01*
X1707612Y23532741D01*
X2508956Y22731396D01*
X2508957Y22731397D01*
X2559530Y22797302D01*
X2670949Y22990286D01*
X2670954Y22990298D01*
X2756236Y23196182D01*
X2813911Y23411433D01*
X2813914Y23411446D01*
X2843000Y23632376D01*
X2843000Y23855225D01*
X2813914Y24076155D01*
X2813911Y24076168D01*
X2756236Y24291419D01*
X2670954Y24497303D01*
X2670949Y24497315D01*
X2559533Y24690293D01*
X2508956Y24756205D01*
X2508955Y24756205D01*
X1707612Y23954861D01*
X1702111Y23975391D01*
X1623119Y24112208D01*
X1511408Y24223919D01*
X1374591Y24302911D01*
X1354058Y24308413D01*
X2155403Y25109757D01*
X2155403Y25109760D01*
X2089504Y25160327D01*
X2089491Y25160336D01*
X1896520Y25271746D01*
X1896502Y25271755D01*
X1690618Y25357037D01*
X1475367Y25414712D01*
X1475354Y25414715D01*
X1254425Y25443800D01*
X1031575Y25443800D01*
X810645Y25414715D01*
X810632Y25414712D01*
X595381Y25357037D01*
X389497Y25271755D01*
X389479Y25271746D01*
X196511Y25160338D01*
X130595Y25109758D01*
X931941Y24308413D01*
X911409Y24302911D01*
X774592Y24223919D01*
X662881Y24112208D01*
X583889Y23975391D01*
X578387Y23954860D01*
X-222958Y24756205D01*
X-273538Y24690289D01*
X-384946Y24497321D01*
X-384955Y24497303D01*
X-470237Y24291419D01*
X-527912Y24076168D01*
X-527915Y24076155D01*
X-557000Y23855225D01*
X-557000Y23632376D01*
X-527915Y23411446D01*
X-527912Y23411433D01*
X-470237Y23196182D01*
X-384955Y22990298D01*
X-384946Y22990280D01*
X-273536Y22797309D01*
X-273527Y22797296D01*
X-222960Y22731397D01*
X-222957Y22731397D01*
X578387Y23532741D01*
X583889Y23512209D01*
X662881Y23375392D01*
X774592Y23263681D01*
X911409Y23184689D01*
X931940Y23179188D01*
X130595Y22377845D01*
X130595Y22377844D01*
X196507Y22327267D01*
X389485Y22215851D01*
X389497Y22215846D01*
X469127Y22182861D01*
X523531Y22139020D01*
X545595Y22072725D01*
X528315Y22005026D01*
X477178Y21957416D01*
X421674Y21944300D01*
X142984Y21944300D01*
X40204Y21933800D01*
X40203Y21933799D01*
X-126336Y21878614D01*
X-126338Y21878613D01*
X-275652Y21786514D01*
X-275656Y21786511D01*
X-399711Y21662456D01*
X-399714Y21662452D01*
X-491813Y21513138D01*
X-491814Y21513136D01*
X-546999Y21346597D01*
X-547000Y21346596D01*
X-557500Y21243816D01*
X-32383100Y21243816D01*
X-32383101Y21660327D01*
X-32383101Y22435325D01*
X-32383102Y22435342D01*
X-32393601Y22538120D01*
X-32393602Y22538123D01*
X-32448786Y22704657D01*
X-32540888Y22853979D01*
X-32664944Y22978035D01*
X-32814266Y23070137D01*
X-32980803Y23125322D01*
X-32980805Y23125323D01*
X-33083590Y23135823D01*
X-34683602Y23135823D01*
X-34683619Y23135822D01*
X-34786397Y23125323D01*
X-34786400Y23125322D01*
X-34952932Y23070138D01*
X-34952937Y23070136D01*
X-35102258Y22978034D01*
X-35226311Y22853981D01*
X-35318413Y22704660D01*
X-35318414Y22704657D01*
X-35373599Y22538120D01*
X-35373599Y22538119D01*
X-35373600Y22538119D01*
X-35384100Y22435340D01*
X-42382119Y22435340D01*
X-42357986Y22474466D01*
X-42302801Y22641003D01*
X-42292300Y22743792D01*
X-42292300Y24743808D01*
X-42302801Y24846597D01*
X-42357986Y25013134D01*
X-42433354Y25135323D01*
X-42450087Y25162452D01*
X-42450090Y25162456D01*
X-42574145Y25286511D01*
X-42574149Y25286514D01*
X-42684186Y25354386D01*
X-42723464Y25378613D01*
X-42723465Y25378614D01*
X-42826225Y25412665D01*
X-42890003Y25433799D01*
X-42890005Y25433800D01*
X-42992785Y25444300D01*
X-42992792Y25444300D01*
X-44992808Y25444300D01*
X-44992816Y25444300D01*
X-45095596Y25433800D01*
X-45095597Y25433799D01*
X-45262136Y25378614D01*
X-45262138Y25378613D01*
X-45411452Y25286514D01*
X-45411456Y25286511D01*
X-45535511Y25162456D01*
X-45535514Y25162452D01*
X-45627613Y25013138D01*
X-45627614Y25013136D01*
X-45682799Y24846597D01*
X-45682800Y24846596D01*
X-45693300Y24743816D01*
X-48800900Y24743816D01*
X-48800900Y26753376D01*
X-35383600Y26753376D01*
X-35383600Y26517271D01*
X-35346666Y26284076D01*
X-35273703Y26059521D01*
X-35166513Y25849149D01*
X-35106262Y25766219D01*
X-35106260Y25766218D01*
X-34366563Y26505915D01*
X-34349525Y26442330D01*
X-34283699Y26328316D01*
X-34190607Y26235224D01*
X-34076593Y26169398D01*
X-34013010Y26152361D01*
X-34752707Y25412665D01*
X-34669772Y25352409D01*
X-34459403Y25245221D01*
X-34234848Y25172258D01*
X-34234849Y25172258D01*
X-34001652Y25135323D01*
X-33765548Y25135323D01*
X-33532352Y25172258D01*
X-33509335Y25179736D01*
X-33307798Y25245221D01*
X-33097437Y25352405D01*
X-33097431Y25352409D01*
X-33014496Y25412665D01*
X-33014495Y25412665D01*
X-33754192Y26152361D01*
X-33690607Y26169398D01*
X-33576593Y26235224D01*
X-33483501Y26328316D01*
X-33417675Y26442330D01*
X-33400638Y26505915D01*
X-32660942Y25766218D01*
X-32660942Y25766219D01*
X-32600686Y25849154D01*
X-32600682Y25849160D01*
X-32493498Y26059521D01*
X-32420535Y26284076D01*
X-32383600Y26517271D01*
X-32383600Y26753376D01*
X-32420535Y26986571D01*
X-32493498Y27211126D01*
X-32600686Y27421495D01*
X-32660942Y27504429D01*
X-32660942Y27504430D01*
X-33400638Y26764733D01*
X-33417675Y26828316D01*
X-33483501Y26942330D01*
X-33576593Y27035422D01*
X-33690607Y27101248D01*
X-33754191Y27118286D01*
X-33014495Y27857983D01*
X-33014496Y27857985D01*
X-33097426Y27918236D01*
X-33307798Y28025426D01*
X-33532353Y28098389D01*
X-33532352Y28098389D01*
X-33765548Y28135323D01*
X-34001652Y28135323D01*
X-34234848Y28098389D01*
X-34459403Y28025426D01*
X-34669770Y27918239D01*
X-34752706Y27857983D01*
X-34013009Y27118286D01*
X-34076593Y27101248D01*
X-34190607Y27035422D01*
X-34283699Y26942330D01*
X-34349525Y26828316D01*
X-34366563Y26764732D01*
X-35106260Y27504429D01*
X-35166516Y27421493D01*
X-35273703Y27211126D01*
X-35346666Y26986571D01*
X-35383600Y26753376D01*
X-48800900Y26753376D01*
X-48800900Y29001255D01*
X-15546100Y29001255D01*
X-15546100Y28809146D01*
X-15516047Y28619398D01*
X-15456684Y28436694D01*
X-15456682Y28436691D01*
X-15369465Y28265519D01*
X-15256545Y28110098D01*
X-15120702Y27974255D01*
X-14965281Y27861335D01*
X-14794109Y27774118D01*
X-14794107Y27774117D01*
X-14702755Y27744436D01*
X-14611401Y27714753D01*
X-14421655Y27684700D01*
X-14421654Y27684700D01*
X-14229546Y27684700D01*
X-14229545Y27684700D01*
X-14039799Y27714753D01*
X-13857091Y27774118D01*
X-13685919Y27861335D01*
X-13530498Y27974255D01*
X-13394655Y28110098D01*
X-13281735Y28265519D01*
X-13194518Y28436691D01*
X-13194516Y28436696D01*
X-13173531Y28501281D01*
X-13134094Y28558957D01*
X-13069736Y28586156D01*
X-13000889Y28574242D01*
X-12949413Y28526998D01*
X-12937669Y28501281D01*
X-12916685Y28436696D01*
X-12916682Y28436691D01*
X-12829465Y28265519D01*
X-12716545Y28110098D01*
X-12580702Y27974255D01*
X-12425281Y27861335D01*
X-12254109Y27774118D01*
X-12254107Y27774117D01*
X-12162755Y27744436D01*
X-12071401Y27714753D01*
X-11881655Y27684700D01*
X-11881654Y27684700D01*
X-11689546Y27684700D01*
X-11689545Y27684700D01*
X-11499799Y27714753D01*
X-11317091Y27774118D01*
X-11145919Y27861335D01*
X-10990498Y27974255D01*
X-10854655Y28110098D01*
X-10741735Y28265519D01*
X-10654518Y28436691D01*
X-10654516Y28436696D01*
X-10633531Y28501281D01*
X-10594094Y28558957D01*
X-10529736Y28586156D01*
X-10460889Y28574242D01*
X-10409413Y28526998D01*
X-10397669Y28501281D01*
X-10376685Y28436696D01*
X-10376682Y28436691D01*
X-10289465Y28265519D01*
X-10176545Y28110098D01*
X-10040702Y27974255D01*
X-9885281Y27861335D01*
X-9714109Y27774118D01*
X-9714107Y27774117D01*
X-9622755Y27744436D01*
X-9531401Y27714753D01*
X-9341655Y27684700D01*
X-9341654Y27684700D01*
X-9149546Y27684700D01*
X-9149545Y27684700D01*
X-8959799Y27714753D01*
X-8777091Y27774118D01*
X-8605919Y27861335D01*
X-8450498Y27974255D01*
X-8314655Y28110098D01*
X-8201735Y28265519D01*
X-8114518Y28436691D01*
X-8055153Y28619399D01*
X-8025100Y28809145D01*
X-8025100Y29001255D01*
X-8055153Y29191001D01*
X-8085176Y29283403D01*
X-8114517Y29373707D01*
X-8201736Y29544882D01*
X-8314655Y29700302D01*
X-8450498Y29836145D01*
X-8605919Y29949065D01*
X-8777094Y30036284D01*
X-8959798Y30095647D01*
X-9054672Y30110674D01*
X-9149545Y30125700D01*
X-9341655Y30125700D01*
X-9404904Y30115683D01*
X-9531403Y30095647D01*
X-9714107Y30036284D01*
X-9885282Y29949065D01*
X-9973955Y29884640D01*
X-10040702Y29836145D01*
X-10040704Y29836143D01*
X-10040705Y29836143D01*
X-10176543Y29700305D01*
X-10176543Y29700304D01*
X-10176545Y29700302D01*
X-10225040Y29633555D01*
X-10289465Y29544882D01*
X-10376684Y29373707D01*
X-10397669Y29309119D01*
X-10437106Y29251444D01*
X-10501465Y29224245D01*
X-10570311Y29236159D01*
X-10621787Y29283403D01*
X-10633531Y29309119D01*
X-10654517Y29373707D01*
X-10741736Y29544882D01*
X-10854655Y29700302D01*
X-10990498Y29836145D01*
X-11145919Y29949065D01*
X-11317094Y30036284D01*
X-11499798Y30095647D01*
X-11594672Y30110674D01*
X-11689545Y30125700D01*
X-11881655Y30125700D01*
X-11944904Y30115683D01*
X-12071403Y30095647D01*
X-12254107Y30036284D01*
X-12425282Y29949065D01*
X-12513955Y29884640D01*
X-12580702Y29836145D01*
X-12580704Y29836143D01*
X-12580705Y29836143D01*
X-12716543Y29700305D01*
X-12716543Y29700304D01*
X-12716545Y29700302D01*
X-12765040Y29633555D01*
X-12829465Y29544882D01*
X-12916684Y29373707D01*
X-12937669Y29309119D01*
X-12977106Y29251444D01*
X-13041465Y29224245D01*
X-13110311Y29236159D01*
X-13161787Y29283403D01*
X-13173531Y29309119D01*
X-13194517Y29373707D01*
X-13281736Y29544882D01*
X-13394655Y29700302D01*
X-13530498Y29836145D01*
X-13685919Y29949065D01*
X-13857094Y30036284D01*
X-14039798Y30095647D01*
X-14134672Y30110674D01*
X-14229545Y30125700D01*
X-14421655Y30125700D01*
X-14484904Y30115683D01*
X-14611403Y30095647D01*
X-14794107Y30036284D01*
X-14965282Y29949065D01*
X-15053955Y29884640D01*
X-15120702Y29836145D01*
X-15120704Y29836143D01*
X-15120705Y29836143D01*
X-15256543Y29700305D01*
X-15256543Y29700304D01*
X-15256545Y29700302D01*
X-15305040Y29633555D01*
X-15369465Y29544882D01*
X-15456684Y29373707D01*
X-15516047Y29191003D01*
X-15546100Y29001255D01*
X-48800900Y29001255D01*
X-48800900Y35976900D01*
X-48781215Y36043939D01*
X-48728411Y36089694D01*
X-48676900Y36100900D01*
X6233500Y36100900D01*
X6300539Y36081215D01*
G37*
%TD.AperFunction*%
%TD*%
D22*
X-18112000Y34398000D03*
X-38608000Y9337923D03*
X-26466800Y25806400D03*
X-33474400Y6553200D03*
X-4267200Y6553200D03*
X-37033200Y12843123D03*
X-33883600Y28600400D03*
X-22631400Y25806400D03*
X-31775400Y26635323D03*
X-39474400Y6553200D03*
X-35534600Y12411323D03*
X-1828800Y11598523D03*
X3403600Y23743800D03*
X-41808400Y20243800D03*
X-32334200Y28194000D03*
X-3759200Y13563600D03*
X-3251200Y15062200D03*
X-19205050Y19456104D03*
X-4267200Y31750000D03*
X-18112000Y31398000D03*
X-46916600Y15519400D03*
X-35102800Y10922000D03*
X-27112000Y31398000D03*
X-21112000Y31398000D03*
X-37033200Y8956923D03*
X-24112000Y28398000D03*
X-4267200Y28750000D03*
X-1267200Y6553200D03*
X-27112000Y28398000D03*
X-21112000Y28398000D03*
X-38963600Y10922000D03*
X-22606000Y19431000D03*
X-18112000Y28398000D03*
X-21112000Y34398000D03*
X-24112000Y31398000D03*
X-1828800Y15484723D03*
X-35585400Y9464923D03*
X-46177200Y20243800D03*
X-17449800Y22986413D03*
X-7267200Y6553200D03*
X-17449800Y24125209D03*
X-1117600Y23749000D03*
X-35941000Y26635323D03*
X-17449800Y20978846D03*
X-4267200Y34750000D03*
X-36474400Y6553200D03*
X-24536400Y25806400D03*
X-27112000Y34398000D03*
X-38557200Y12436723D03*
X-43916600Y15519400D03*
X-35433000Y28194000D03*
X-17449800Y22047200D03*
X-3251200Y12217400D03*
X-10363200Y6985000D03*
X-24112000Y34398000D03*
D23*
X1143000Y20243800D03*
X1143000Y23743800D03*
X2489200Y32562800D03*
X-45237400Y32562800D03*
X-12090400Y11985000D03*
X-12090400Y6985000D03*
X-9245600Y28905200D03*
X-11785600Y28905200D03*
X-14325600Y28905200D03*
X-33883600Y21635323D03*
X-33883600Y26635323D03*
X-6822251Y13639800D03*
X-1822251Y13639800D03*
X-45237400Y9423400D03*
X2489200Y9423400D03*
X-37033200Y15922000D03*
X-37033200Y10922000D03*
X-43992800Y23743800D03*
X-43992800Y20243800D03*
M02*
