%TF.GenerationSoftware,KiCad,Pcbnew,10.0.4*%
%TF.CreationDate,2026-07-06T22:31:50+03:00*%
%TF.ProjectId,LM2596project,4c4d3235-3936-4707-926f-6a6563742e6b,rev?*%
%TF.SameCoordinates,Original*%
%TF.FileFunction,Legend,Top*%
%TF.FilePolarity,Positive*%
%FSLAX46Y46*%
G04 Gerber Fmt 4.6, Leading zero omitted, Abs format (unit mm)*
G04 Created by KiCad (PCBNEW 10.0.4) date 2026-07-06 22:31:50*
%MOMM*%
%LPD*%
G01*
G04 APERTURE LIST*
%ADD10C,0.250000*%
%ADD11C,0.150000*%
%ADD12C,0.000000*%
%ADD13C,0.120000*%
G04 APERTURE END LIST*
D10*
G36*
X-47267445Y26535226D02*
G01*
X-46938878Y26535226D01*
X-46938878Y26863488D01*
X-46849424Y26863488D01*
X-46849424Y26535226D01*
X-46520856Y26535226D01*
X-46520856Y26441436D01*
X-46849424Y26441436D01*
X-46849424Y26120990D01*
X-46938878Y26120990D01*
X-46938878Y26441436D01*
X-47267445Y26441436D01*
X-47267445Y26535226D01*
G37*
G36*
X-45635476Y26050648D02*
G01*
X-45635476Y26027200D01*
X-46119809Y26027200D01*
X-46119809Y26050648D01*
X-46089096Y26050648D01*
X-46051245Y26054663D01*
X-46024188Y26065363D01*
X-46008884Y26078195D01*
X-45996833Y26099069D01*
X-45991882Y26122533D01*
X-45989322Y26187424D01*
X-45989322Y26793146D01*
X-45991856Y26859426D01*
X-45996833Y26884310D01*
X-46007603Y26900798D01*
X-46027241Y26916244D01*
X-46052630Y26926155D01*
X-46089096Y26929922D01*
X-46119809Y26929922D01*
X-46119809Y26953369D01*
X-45635476Y26953369D01*
X-45635476Y26929922D01*
X-45666189Y26929922D01*
X-45703995Y26925910D01*
X-45731097Y26915206D01*
X-45746541Y26902396D01*
X-45759124Y26881501D01*
X-45764074Y26858037D01*
X-45766634Y26793146D01*
X-45766634Y26187424D01*
X-45764000Y26121146D01*
X-45758818Y26096199D01*
X-45747771Y26079746D01*
X-45728044Y26064325D01*
X-45702655Y26054415D01*
X-45666189Y26050648D01*
X-45635476Y26050648D01*
G37*
G36*
X-45295551Y26664186D02*
G01*
X-45295551Y26578212D01*
X-45245180Y26627826D01*
X-45201334Y26658568D01*
X-45154543Y26677429D01*
X-45104309Y26683725D01*
X-45064136Y26679647D01*
X-45030191Y26668021D01*
X-45001177Y26649104D01*
X-44976793Y26624069D01*
X-44958708Y26595620D01*
X-44946528Y26563191D01*
X-44939054Y26515255D01*
X-44935598Y26413226D01*
X-44935598Y26163976D01*
X-44931163Y26098193D01*
X-44922287Y26073240D01*
X-44904112Y26059670D01*
X-44866599Y26050648D01*
X-44866599Y26027200D01*
X-45189671Y26027200D01*
X-45189671Y26050648D01*
X-45157859Y26060843D01*
X-45137770Y26080323D01*
X-45130484Y26103485D01*
X-45126840Y26163976D01*
X-45126840Y26447970D01*
X-45128906Y26519360D01*
X-45133007Y26546888D01*
X-45141457Y26565375D01*
X-45153829Y26578640D01*
X-45169345Y26587141D01*
X-45186252Y26589936D01*
X-45212504Y26585504D01*
X-45238880Y26571515D01*
X-45266388Y26545611D01*
X-45295551Y26503963D01*
X-45295551Y26163976D01*
X-45291179Y26099837D01*
X-45282239Y26074217D01*
X-45264710Y26059632D01*
X-45232719Y26050648D01*
X-45232719Y26027200D01*
X-45555852Y26027200D01*
X-45555852Y26050648D01*
X-45519896Y26059744D01*
X-45498455Y26076293D01*
X-45490852Y26098440D01*
X-45486854Y26163976D01*
X-45486854Y26527410D01*
X-45491287Y26592743D01*
X-45500165Y26617535D01*
X-45518321Y26631163D01*
X-45555852Y26640739D01*
X-45555852Y26664186D01*
X-45295551Y26664186D01*
G37*
G36*
X-44309192Y26678817D02*
G01*
X-44266830Y26664212D01*
X-44226561Y26639395D01*
X-44191796Y26606841D01*
X-44162548Y26566413D01*
X-44138755Y26516907D01*
X-44122209Y26464100D01*
X-44112140Y26408214D01*
X-44108714Y26348746D01*
X-44112312Y26284773D01*
X-44122780Y26225989D01*
X-44139794Y26171731D01*
X-44164490Y26121101D01*
X-44194538Y26080895D01*
X-44229980Y26049610D01*
X-44270978Y26026240D01*
X-44314495Y26012354D01*
X-44361444Y26007661D01*
X-44412510Y26013499D01*
X-44459813Y26030864D01*
X-44492982Y26053387D01*
X-44531559Y26091681D01*
X-44531559Y25851346D01*
X-44529108Y25805867D01*
X-44523743Y25784057D01*
X-44513649Y25768522D01*
X-44499502Y25757984D01*
X-44479094Y25752344D01*
X-44435266Y25749741D01*
X-44435266Y25726293D01*
X-44799371Y25726293D01*
X-44799371Y25749741D01*
X-44761117Y25756944D01*
X-44736540Y25773737D01*
X-44727399Y25796092D01*
X-44722862Y25855254D01*
X-44722862Y26502009D01*
X-44531559Y26502009D01*
X-44531559Y26161290D01*
X-44498613Y26121765D01*
X-44467134Y26096497D01*
X-44436530Y26082503D01*
X-44405835Y26078003D01*
X-44383315Y26082081D01*
X-44363365Y26094454D01*
X-44345080Y26116899D01*
X-44327803Y26157719D01*
X-44314820Y26226619D01*
X-44309542Y26335374D01*
X-44315264Y26446676D01*
X-44329432Y26518160D01*
X-44348499Y26561360D01*
X-44368333Y26584215D01*
X-44391172Y26597244D01*
X-44418169Y26601660D01*
X-44448779Y26596326D01*
X-44477264Y26579913D01*
X-44504788Y26549977D01*
X-44531559Y26502009D01*
X-44722862Y26502009D01*
X-44722862Y26531318D01*
X-44727944Y26593235D01*
X-44738616Y26618940D01*
X-44759206Y26632992D01*
X-44799371Y26640739D01*
X-44799371Y26664186D01*
X-44531559Y26664186D01*
X-44531559Y26580166D01*
X-44496090Y26624249D01*
X-44463232Y26651241D01*
X-44428845Y26669359D01*
X-44392851Y26680108D01*
X-44354605Y26683725D01*
X-44309192Y26678817D01*
G37*
G36*
X-43384350Y26664186D02*
G01*
X-43384350Y26163976D01*
X-43379808Y26098428D01*
X-43370673Y26073362D01*
X-43352281Y26059687D01*
X-43315352Y26050648D01*
X-43315352Y26027200D01*
X-43575593Y26027200D01*
X-43575593Y26112563D01*
X-43623246Y26063680D01*
X-43667184Y26032757D01*
X-43715128Y26014064D01*
X-43769582Y26007661D01*
X-43804422Y26011386D01*
X-43836152Y26022358D01*
X-43865570Y26040817D01*
X-43901144Y26077461D01*
X-43921929Y26118425D01*
X-43931861Y26171158D01*
X-43936278Y26273703D01*
X-43936278Y26527410D01*
X-43940711Y26592743D01*
X-43949589Y26617535D01*
X-43967746Y26631163D01*
X-44005277Y26640739D01*
X-44005277Y26664186D01*
X-43745036Y26664186D01*
X-43745036Y26229373D01*
X-43742913Y26167278D01*
X-43738564Y26141567D01*
X-43729929Y26123880D01*
X-43718047Y26111647D01*
X-43703079Y26104040D01*
X-43685624Y26101450D01*
X-43662103Y26104717D01*
X-43641172Y26114395D01*
X-43614149Y26137952D01*
X-43575593Y26186080D01*
X-43575593Y26527410D01*
X-43580026Y26592743D01*
X-43588904Y26617535D01*
X-43607060Y26631163D01*
X-43644591Y26640739D01*
X-43644591Y26664186D01*
X-43384350Y26664186D01*
G37*
G36*
X-42970053Y26898659D02*
G01*
X-42970053Y26664186D01*
X-42818440Y26664186D01*
X-42818440Y26597752D01*
X-42970053Y26597752D01*
X-42970053Y26204521D01*
X-42968370Y26154137D01*
X-42964924Y26133324D01*
X-42957807Y26118803D01*
X-42946850Y26107434D01*
X-42933731Y26099760D01*
X-42922915Y26097542D01*
X-42896260Y26103367D01*
X-42868717Y26122507D01*
X-42838895Y26160069D01*
X-42818440Y26145597D01*
X-42844760Y26098093D01*
X-42875386Y26063333D01*
X-42910461Y26039166D01*
X-42950858Y26024491D01*
X-42998080Y26019385D01*
X-43037434Y26023317D01*
X-43071334Y26034610D01*
X-43100907Y26053090D01*
X-43136073Y26089871D01*
X-43154518Y26128378D01*
X-43159006Y26161058D01*
X-43161357Y26253736D01*
X-43161357Y26597752D01*
X-43244705Y26597752D01*
X-43244705Y26621627D01*
X-43163561Y26685183D01*
X-43098159Y26749243D01*
X-43041812Y26819643D01*
X-42992585Y26898659D01*
X-42970053Y26898659D01*
G37*
G36*
X-46696772Y17336505D02*
G01*
X-47095071Y17336505D01*
X-47095071Y17477189D01*
X-46696772Y17477189D01*
X-46696772Y17336505D01*
G37*
G36*
X-45801072Y17109848D02*
G01*
X-45801072Y17086400D01*
X-46285406Y17086400D01*
X-46285406Y17109848D01*
X-46254692Y17109848D01*
X-46216841Y17113863D01*
X-46189784Y17124563D01*
X-46174480Y17137395D01*
X-46162429Y17158269D01*
X-46157479Y17181733D01*
X-46154919Y17246624D01*
X-46154919Y17852346D01*
X-46157452Y17918626D01*
X-46162429Y17943510D01*
X-46173199Y17959998D01*
X-46192837Y17975444D01*
X-46218226Y17985355D01*
X-46254692Y17989122D01*
X-46285406Y17989122D01*
X-46285406Y18012569D01*
X-45801072Y18012569D01*
X-45801072Y17989122D01*
X-45831785Y17989122D01*
X-45869591Y17985110D01*
X-45896693Y17974406D01*
X-45912137Y17961596D01*
X-45924720Y17940701D01*
X-45929670Y17917237D01*
X-45932230Y17852346D01*
X-45932230Y17246624D01*
X-45929597Y17180346D01*
X-45924415Y17155399D01*
X-45913367Y17138946D01*
X-45893640Y17123525D01*
X-45868251Y17113615D01*
X-45831785Y17109848D01*
X-45801072Y17109848D01*
G37*
G36*
X-45461147Y17723386D02*
G01*
X-45461147Y17637412D01*
X-45410776Y17687026D01*
X-45366930Y17717768D01*
X-45320139Y17736629D01*
X-45269905Y17742925D01*
X-45229732Y17738847D01*
X-45195788Y17727221D01*
X-45166773Y17708304D01*
X-45142389Y17683269D01*
X-45124305Y17654820D01*
X-45112124Y17622391D01*
X-45104650Y17574455D01*
X-45101194Y17472426D01*
X-45101194Y17223176D01*
X-45096760Y17157393D01*
X-45087883Y17132440D01*
X-45069708Y17118870D01*
X-45032195Y17109848D01*
X-45032195Y17086400D01*
X-45355268Y17086400D01*
X-45355268Y17109848D01*
X-45323456Y17120043D01*
X-45303366Y17139523D01*
X-45296081Y17162685D01*
X-45292436Y17223176D01*
X-45292436Y17507170D01*
X-45294502Y17578560D01*
X-45298603Y17606088D01*
X-45307054Y17624575D01*
X-45319425Y17637840D01*
X-45334941Y17646341D01*
X-45351848Y17649136D01*
X-45378100Y17644704D01*
X-45404476Y17630715D01*
X-45431984Y17604811D01*
X-45461147Y17563163D01*
X-45461147Y17223176D01*
X-45456775Y17159037D01*
X-45447836Y17133417D01*
X-45430307Y17118832D01*
X-45398316Y17109848D01*
X-45398316Y17086400D01*
X-45721449Y17086400D01*
X-45721449Y17109848D01*
X-45685492Y17118944D01*
X-45664052Y17135493D01*
X-45656448Y17157640D01*
X-45652450Y17223176D01*
X-45652450Y17586610D01*
X-45656883Y17651943D01*
X-45665761Y17676735D01*
X-45683918Y17690363D01*
X-45721449Y17699939D01*
X-45721449Y17723386D01*
X-45461147Y17723386D01*
G37*
G36*
X-44474788Y17738017D02*
G01*
X-44432426Y17723412D01*
X-44392157Y17698595D01*
X-44357392Y17666041D01*
X-44328144Y17625613D01*
X-44304352Y17576107D01*
X-44287805Y17523300D01*
X-44277736Y17467414D01*
X-44274310Y17407946D01*
X-44277908Y17343973D01*
X-44288377Y17285189D01*
X-44305390Y17230931D01*
X-44330086Y17180301D01*
X-44360135Y17140095D01*
X-44395576Y17108810D01*
X-44436574Y17085440D01*
X-44480091Y17071554D01*
X-44527040Y17066861D01*
X-44578106Y17072699D01*
X-44625409Y17090064D01*
X-44658578Y17112587D01*
X-44697155Y17150881D01*
X-44697155Y16910546D01*
X-44694704Y16865067D01*
X-44689340Y16843257D01*
X-44679246Y16827722D01*
X-44665098Y16817184D01*
X-44644690Y16811544D01*
X-44600863Y16808941D01*
X-44600863Y16785493D01*
X-44964968Y16785493D01*
X-44964968Y16808941D01*
X-44926714Y16816144D01*
X-44902136Y16832937D01*
X-44892995Y16855292D01*
X-44888459Y16914454D01*
X-44888459Y17561209D01*
X-44697155Y17561209D01*
X-44697155Y17220490D01*
X-44664209Y17180965D01*
X-44632730Y17155697D01*
X-44602127Y17141703D01*
X-44571431Y17137203D01*
X-44548912Y17141281D01*
X-44528962Y17153654D01*
X-44510676Y17176099D01*
X-44493399Y17216919D01*
X-44480417Y17285819D01*
X-44475139Y17394574D01*
X-44480860Y17505876D01*
X-44495029Y17577360D01*
X-44514095Y17620560D01*
X-44533929Y17643415D01*
X-44556769Y17656444D01*
X-44583766Y17660860D01*
X-44614375Y17655526D01*
X-44642860Y17639113D01*
X-44670384Y17609177D01*
X-44697155Y17561209D01*
X-44888459Y17561209D01*
X-44888459Y17590518D01*
X-44893540Y17652435D01*
X-44904212Y17678140D01*
X-44924802Y17692192D01*
X-44964968Y17699939D01*
X-44964968Y17723386D01*
X-44697155Y17723386D01*
X-44697155Y17639366D01*
X-44661686Y17683449D01*
X-44628828Y17710441D01*
X-44594441Y17728559D01*
X-44558447Y17739308D01*
X-44520201Y17742925D01*
X-44474788Y17738017D01*
G37*
G36*
X-43549947Y17723386D02*
G01*
X-43549947Y17223176D01*
X-43545404Y17157628D01*
X-43536269Y17132562D01*
X-43517878Y17118887D01*
X-43480948Y17109848D01*
X-43480948Y17086400D01*
X-43741189Y17086400D01*
X-43741189Y17171763D01*
X-43788842Y17122880D01*
X-43832780Y17091957D01*
X-43880725Y17073264D01*
X-43935179Y17066861D01*
X-43970018Y17070586D01*
X-44001748Y17081558D01*
X-44031166Y17100017D01*
X-44066740Y17136661D01*
X-44087525Y17177625D01*
X-44097457Y17230358D01*
X-44101874Y17332903D01*
X-44101874Y17586610D01*
X-44106308Y17651943D01*
X-44115186Y17676735D01*
X-44133342Y17690363D01*
X-44170873Y17699939D01*
X-44170873Y17723386D01*
X-43910632Y17723386D01*
X-43910632Y17288573D01*
X-43908509Y17226478D01*
X-43904160Y17200767D01*
X-43895525Y17183080D01*
X-43883643Y17170847D01*
X-43868675Y17163240D01*
X-43851220Y17160650D01*
X-43827699Y17163917D01*
X-43806768Y17173595D01*
X-43779746Y17197152D01*
X-43741189Y17245280D01*
X-43741189Y17586610D01*
X-43745622Y17651943D01*
X-43754500Y17676735D01*
X-43772656Y17690363D01*
X-43810187Y17699939D01*
X-43810187Y17723386D01*
X-43549947Y17723386D01*
G37*
G36*
X-43135650Y17957859D02*
G01*
X-43135650Y17723386D01*
X-42984036Y17723386D01*
X-42984036Y17656952D01*
X-43135650Y17656952D01*
X-43135650Y17263721D01*
X-43133966Y17213337D01*
X-43130521Y17192524D01*
X-43123403Y17178003D01*
X-43112447Y17166634D01*
X-43099327Y17158960D01*
X-43088511Y17156742D01*
X-43061857Y17162567D01*
X-43034313Y17181707D01*
X-43004491Y17219269D01*
X-42984036Y17204797D01*
X-43010357Y17157293D01*
X-43040983Y17122533D01*
X-43076057Y17098366D01*
X-43116455Y17083691D01*
X-43163677Y17078585D01*
X-43203030Y17082517D01*
X-43236930Y17093810D01*
X-43266503Y17112290D01*
X-43301669Y17149071D01*
X-43320114Y17187578D01*
X-43324602Y17220258D01*
X-43326953Y17312936D01*
X-43326953Y17656952D01*
X-43410301Y17656952D01*
X-43410301Y17680827D01*
X-43329157Y17744383D01*
X-43263755Y17808443D01*
X-43207409Y17878843D01*
X-43158181Y17957859D01*
X-43135650Y17957859D01*
G37*
G36*
X-45826514Y28725509D02*
G01*
X-45826514Y28397246D01*
X-45851793Y28397246D01*
X-45878885Y28463930D01*
X-45910913Y28519732D01*
X-45947635Y28566041D01*
X-45989118Y28603937D01*
X-46036842Y28635390D01*
X-46085718Y28657294D01*
X-46136300Y28670329D01*
X-46189275Y28674706D01*
X-46256336Y28667850D01*
X-46313227Y28648269D01*
X-46362077Y28616332D01*
X-46402589Y28573626D01*
X-46435206Y28520020D01*
X-46459774Y28453483D01*
X-46481273Y28347887D01*
X-46488473Y28239160D01*
X-46484690Y28150637D01*
X-46473964Y28073226D01*
X-46457088Y28005603D01*
X-46430594Y27942340D01*
X-46396739Y27894048D01*
X-46355605Y27858141D01*
X-46306984Y27832383D01*
X-46252027Y27816562D01*
X-46189275Y27811064D01*
X-46120643Y27818269D01*
X-46048531Y27839152D01*
X-46048531Y28037721D01*
X-46050982Y28086112D01*
X-46056041Y28106353D01*
X-46066686Y28120364D01*
X-46087121Y28134502D01*
X-46112355Y28143800D01*
X-46144152Y28147142D01*
X-46168087Y28147142D01*
X-46168087Y28170589D01*
X-45717887Y28170589D01*
X-45717887Y28147142D01*
X-45765066Y28141343D01*
X-45789267Y28133525D01*
X-45806815Y28120186D01*
X-45820347Y28099392D01*
X-45824448Y28082313D01*
X-45826514Y28037721D01*
X-45826514Y27839152D01*
X-45916981Y27804903D01*
X-46011283Y27780167D01*
X-46108447Y27765299D01*
X-46210402Y27760261D01*
X-46298003Y27764715D01*
X-46370184Y27777029D01*
X-46429366Y27795921D01*
X-46511907Y27837599D01*
X-46583056Y27889771D01*
X-46624762Y27930726D01*
X-46659315Y27974273D01*
X-46687226Y28020624D01*
X-46713482Y28084683D01*
X-46729527Y28154335D01*
X-46735036Y28230673D01*
X-46728979Y28312483D01*
X-46711294Y28387486D01*
X-46682253Y28456845D01*
X-46641524Y28521493D01*
X-46588185Y28582077D01*
X-46526711Y28633500D01*
X-46459925Y28673213D01*
X-46387060Y28701838D01*
X-46307062Y28719438D01*
X-46218646Y28725509D01*
X-46151386Y28722853D01*
X-46094265Y28715434D01*
X-45996934Y28686674D01*
X-45935760Y28666709D01*
X-45917372Y28662983D01*
X-45899152Y28666174D01*
X-45881896Y28676050D01*
X-45867401Y28692951D01*
X-45851793Y28725509D01*
X-45826514Y28725509D01*
G37*
G36*
X-45355003Y28705969D02*
G01*
X-44898025Y28136822D01*
X-44898025Y28530115D01*
X-44901518Y28586458D01*
X-44910173Y28622360D01*
X-44921960Y28643932D01*
X-44946739Y28664857D01*
X-44982112Y28678167D01*
X-45031931Y28682522D01*
X-45031931Y28705969D01*
X-44725894Y28705969D01*
X-44725894Y28682522D01*
X-44779551Y28672633D01*
X-44804785Y28662861D01*
X-44822263Y28647553D01*
X-44836231Y28623537D01*
X-44844035Y28591373D01*
X-44847466Y28530115D01*
X-44847466Y27760261D01*
X-44870669Y27760261D01*
X-45497091Y28532068D01*
X-45497091Y27940024D01*
X-45492097Y27887685D01*
X-45479319Y27853227D01*
X-45460577Y27831397D01*
X-45421472Y27810323D01*
X-45376863Y27803248D01*
X-45355003Y27803248D01*
X-45355003Y27779800D01*
X-45683632Y27779800D01*
X-45683632Y27803248D01*
X-45633399Y27807878D01*
X-45599375Y27818955D01*
X-45577081Y27834816D01*
X-45561605Y27857545D01*
X-45551047Y27891278D01*
X-45546978Y27940024D01*
X-45546978Y28593496D01*
X-45566761Y28617859D01*
X-45596626Y28652104D01*
X-45618724Y28668844D01*
X-45644067Y28677900D01*
X-45683632Y28682522D01*
X-45683632Y28705969D01*
X-45355003Y28705969D01*
G37*
G36*
X-44149701Y28700205D02*
G01*
X-44062018Y28684528D01*
X-43993044Y28660907D01*
X-43934123Y28629167D01*
X-43883764Y28590889D01*
X-43841078Y28545868D01*
X-43805526Y28493539D01*
X-43770408Y28416651D01*
X-43749007Y28332697D01*
X-43741657Y28240137D01*
X-43745278Y28175640D01*
X-43755851Y28115861D01*
X-43773103Y28060191D01*
X-43796895Y28006940D01*
X-43824035Y27961959D01*
X-43854375Y27924270D01*
X-43908129Y27875914D01*
X-43969474Y27838175D01*
X-44039077Y27810328D01*
X-44128965Y27787983D01*
X-44176647Y27782242D01*
X-44260123Y27779800D01*
X-44674787Y27779800D01*
X-44674787Y27803248D01*
X-44644073Y27803248D01*
X-44606499Y27806905D01*
X-44582219Y27816193D01*
X-44563501Y27831602D01*
X-44550467Y27851669D01*
X-44546465Y27873450D01*
X-44544588Y27931170D01*
X-44321611Y27931170D01*
X-44319746Y27879099D01*
X-44316177Y27860706D01*
X-44308851Y27849292D01*
X-44297676Y27840861D01*
X-44276896Y27833520D01*
X-44244431Y27830603D01*
X-44188607Y27835905D01*
X-44142111Y27850886D01*
X-44103066Y27874960D01*
X-44070225Y27908639D01*
X-44037269Y27962353D01*
X-44011589Y28032132D01*
X-43994516Y28121753D01*
X-43988220Y28235680D01*
X-43992311Y28326985D01*
X-44003702Y28403638D01*
X-44021273Y28467702D01*
X-44044213Y28521016D01*
X-44078134Y28572596D01*
X-44116057Y28609705D01*
X-44158335Y28634650D01*
X-44192312Y28645096D01*
X-44244670Y28652553D01*
X-44321611Y28655167D01*
X-44321611Y27931170D01*
X-44544588Y27931170D01*
X-44544300Y27940024D01*
X-44544300Y28545746D01*
X-44546833Y28612026D01*
X-44551810Y28636910D01*
X-44562581Y28653398D01*
X-44582219Y28668844D01*
X-44607607Y28678755D01*
X-44644073Y28682522D01*
X-44674787Y28682522D01*
X-44674787Y28705969D01*
X-44260123Y28705969D01*
X-44149701Y28700205D01*
G37*
G36*
X-45826514Y14247509D02*
G01*
X-45826514Y13919246D01*
X-45851793Y13919246D01*
X-45878885Y13985930D01*
X-45910913Y14041732D01*
X-45947635Y14088041D01*
X-45989118Y14125937D01*
X-46036842Y14157390D01*
X-46085718Y14179294D01*
X-46136300Y14192329D01*
X-46189275Y14196706D01*
X-46256336Y14189850D01*
X-46313227Y14170269D01*
X-46362077Y14138332D01*
X-46402589Y14095626D01*
X-46435206Y14042020D01*
X-46459774Y13975483D01*
X-46481273Y13869887D01*
X-46488473Y13761160D01*
X-46484690Y13672637D01*
X-46473964Y13595226D01*
X-46457088Y13527603D01*
X-46430594Y13464340D01*
X-46396739Y13416048D01*
X-46355605Y13380141D01*
X-46306984Y13354383D01*
X-46252027Y13338562D01*
X-46189275Y13333064D01*
X-46120643Y13340269D01*
X-46048531Y13361152D01*
X-46048531Y13559721D01*
X-46050982Y13608112D01*
X-46056041Y13628353D01*
X-46066686Y13642364D01*
X-46087121Y13656502D01*
X-46112355Y13665800D01*
X-46144152Y13669142D01*
X-46168087Y13669142D01*
X-46168087Y13692589D01*
X-45717887Y13692589D01*
X-45717887Y13669142D01*
X-45765066Y13663343D01*
X-45789267Y13655525D01*
X-45806815Y13642186D01*
X-45820347Y13621392D01*
X-45824448Y13604313D01*
X-45826514Y13559721D01*
X-45826514Y13361152D01*
X-45916981Y13326903D01*
X-46011283Y13302167D01*
X-46108447Y13287299D01*
X-46210402Y13282261D01*
X-46298003Y13286715D01*
X-46370184Y13299029D01*
X-46429366Y13317921D01*
X-46511907Y13359599D01*
X-46583056Y13411771D01*
X-46624762Y13452726D01*
X-46659315Y13496273D01*
X-46687226Y13542624D01*
X-46713482Y13606683D01*
X-46729527Y13676335D01*
X-46735036Y13752673D01*
X-46728979Y13834483D01*
X-46711294Y13909486D01*
X-46682253Y13978845D01*
X-46641524Y14043493D01*
X-46588185Y14104077D01*
X-46526711Y14155500D01*
X-46459925Y14195213D01*
X-46387060Y14223838D01*
X-46307062Y14241438D01*
X-46218646Y14247509D01*
X-46151386Y14244853D01*
X-46094265Y14237434D01*
X-45996934Y14208674D01*
X-45935760Y14188709D01*
X-45917372Y14184983D01*
X-45899152Y14188174D01*
X-45881896Y14198050D01*
X-45867401Y14214951D01*
X-45851793Y14247509D01*
X-45826514Y14247509D01*
G37*
G36*
X-45355003Y14227969D02*
G01*
X-44898025Y13658822D01*
X-44898025Y14052115D01*
X-44901518Y14108458D01*
X-44910173Y14144360D01*
X-44921960Y14165932D01*
X-44946739Y14186857D01*
X-44982112Y14200167D01*
X-45031931Y14204522D01*
X-45031931Y14227969D01*
X-44725894Y14227969D01*
X-44725894Y14204522D01*
X-44779551Y14194633D01*
X-44804785Y14184861D01*
X-44822263Y14169553D01*
X-44836231Y14145537D01*
X-44844035Y14113373D01*
X-44847466Y14052115D01*
X-44847466Y13282261D01*
X-44870669Y13282261D01*
X-45497091Y14054068D01*
X-45497091Y13462024D01*
X-45492097Y13409685D01*
X-45479319Y13375227D01*
X-45460577Y13353397D01*
X-45421472Y13332323D01*
X-45376863Y13325248D01*
X-45355003Y13325248D01*
X-45355003Y13301800D01*
X-45683632Y13301800D01*
X-45683632Y13325248D01*
X-45633399Y13329878D01*
X-45599375Y13340955D01*
X-45577081Y13356816D01*
X-45561605Y13379545D01*
X-45551047Y13413278D01*
X-45546978Y13462024D01*
X-45546978Y14115496D01*
X-45566761Y14139859D01*
X-45596626Y14174104D01*
X-45618724Y14190844D01*
X-45644067Y14199900D01*
X-45683632Y14204522D01*
X-45683632Y14227969D01*
X-45355003Y14227969D01*
G37*
G36*
X-44149701Y14222205D02*
G01*
X-44062018Y14206528D01*
X-43993044Y14182907D01*
X-43934123Y14151167D01*
X-43883764Y14112889D01*
X-43841078Y14067868D01*
X-43805526Y14015539D01*
X-43770408Y13938651D01*
X-43749007Y13854697D01*
X-43741657Y13762137D01*
X-43745278Y13697640D01*
X-43755851Y13637861D01*
X-43773103Y13582191D01*
X-43796895Y13528940D01*
X-43824035Y13483959D01*
X-43854375Y13446270D01*
X-43908129Y13397914D01*
X-43969474Y13360175D01*
X-44039077Y13332328D01*
X-44128965Y13309983D01*
X-44176647Y13304242D01*
X-44260123Y13301800D01*
X-44674787Y13301800D01*
X-44674787Y13325248D01*
X-44644073Y13325248D01*
X-44606499Y13328905D01*
X-44582219Y13338193D01*
X-44563501Y13353602D01*
X-44550467Y13373669D01*
X-44546465Y13395450D01*
X-44544588Y13453170D01*
X-44321611Y13453170D01*
X-44319746Y13401099D01*
X-44316177Y13382706D01*
X-44308851Y13371292D01*
X-44297676Y13362861D01*
X-44276896Y13355520D01*
X-44244431Y13352603D01*
X-44188607Y13357905D01*
X-44142111Y13372886D01*
X-44103066Y13396960D01*
X-44070225Y13430639D01*
X-44037269Y13484353D01*
X-44011589Y13554132D01*
X-43994516Y13643753D01*
X-43988220Y13757680D01*
X-43992311Y13848985D01*
X-44003702Y13925638D01*
X-44021273Y13989702D01*
X-44044213Y14043016D01*
X-44078134Y14094596D01*
X-44116057Y14131705D01*
X-44158335Y14156650D01*
X-44192312Y14167096D01*
X-44244670Y14174553D01*
X-44321611Y14177167D01*
X-44321611Y13453170D01*
X-44544588Y13453170D01*
X-44544300Y13462024D01*
X-44544300Y14067746D01*
X-44546833Y14134026D01*
X-44551810Y14158910D01*
X-44562581Y14175398D01*
X-44582219Y14190844D01*
X-44607607Y14200755D01*
X-44644073Y14204522D01*
X-44674787Y14204522D01*
X-44674787Y14227969D01*
X-44260123Y14227969D01*
X-44149701Y14222205D01*
G37*
G36*
X-87442Y17543626D02*
G01*
X241125Y17543626D01*
X241125Y17871888D01*
X330579Y17871888D01*
X330579Y17543626D01*
X659147Y17543626D01*
X659147Y17449836D01*
X330579Y17449836D01*
X330579Y17129390D01*
X241125Y17129390D01*
X241125Y17449836D01*
X-87442Y17449836D01*
X-87442Y17543626D01*
G37*
G36*
X1661001Y17970618D02*
G01*
X1739833Y17955870D01*
X1810518Y17930014D01*
X1874315Y17893163D01*
X1932141Y17844777D01*
X1982007Y17787215D01*
X2020334Y17725007D01*
X2047844Y17657467D01*
X2064702Y17583626D01*
X2070504Y17502288D01*
X2063871Y17415874D01*
X2044453Y17336331D01*
X2012451Y17262414D01*
X1967373Y17193137D01*
X1918895Y17139223D01*
X1865054Y17095647D01*
X1805336Y17061618D01*
X1738919Y17036818D01*
X1664713Y17021416D01*
X1581408Y17016061D01*
X1497415Y17021227D01*
X1422756Y17036060D01*
X1356129Y17059875D01*
X1296440Y17092424D01*
X1242840Y17133905D01*
X1194772Y17184955D01*
X1147747Y17254430D01*
X1114250Y17329560D01*
X1093828Y17411474D01*
X1087281Y17495632D01*
X1333440Y17495632D01*
X1339864Y17373805D01*
X1357272Y17277939D01*
X1383398Y17203325D01*
X1416788Y17145937D01*
X1448780Y17111294D01*
X1485776Y17086966D01*
X1528761Y17072072D01*
X1579332Y17066864D01*
X1625141Y17070926D01*
X1663849Y17082441D01*
X1696813Y17100935D01*
X1732228Y17133808D01*
X1763522Y17179327D01*
X1790419Y17240337D01*
X1807910Y17305136D01*
X1819585Y17387258D01*
X1823880Y17490136D01*
X1819178Y17613431D01*
X1806964Y17702376D01*
X1789686Y17764482D01*
X1762828Y17822820D01*
X1733715Y17864526D01*
X1702614Y17893015D01*
X1665801Y17913732D01*
X1625493Y17926227D01*
X1580736Y17930506D01*
X1532533Y17925369D01*
X1490147Y17910451D01*
X1452265Y17885673D01*
X1418088Y17849889D01*
X1387418Y17800997D01*
X1365819Y17748314D01*
X1348834Y17681756D01*
X1337564Y17598558D01*
X1333440Y17495632D01*
X1087281Y17495632D01*
X1086816Y17501616D01*
X1092684Y17582822D01*
X1109746Y17656626D01*
X1137621Y17724229D01*
X1176512Y17786597D01*
X1227195Y17844411D01*
X1286196Y17893688D01*
X1349368Y17930734D01*
X1417433Y17956359D01*
X1491396Y17970759D01*
X1572493Y17973493D01*
X1661001Y17970618D01*
G37*
G36*
X2784487Y17672586D02*
G01*
X2784487Y17172376D01*
X2789030Y17106828D01*
X2798165Y17081762D01*
X2816556Y17068087D01*
X2853486Y17059048D01*
X2853486Y17035600D01*
X2593245Y17035600D01*
X2593245Y17120963D01*
X2545592Y17072080D01*
X2501654Y17041157D01*
X2453709Y17022464D01*
X2399255Y17016061D01*
X2364416Y17019786D01*
X2332685Y17030758D01*
X2303268Y17049217D01*
X2267694Y17085861D01*
X2246909Y17126825D01*
X2236977Y17179558D01*
X2232559Y17282103D01*
X2232559Y17535810D01*
X2228126Y17601143D01*
X2219248Y17625935D01*
X2201092Y17639563D01*
X2163561Y17649139D01*
X2163561Y17672586D01*
X2423802Y17672586D01*
X2423802Y17237773D01*
X2425925Y17175678D01*
X2430274Y17149967D01*
X2438909Y17132280D01*
X2450790Y17120047D01*
X2465759Y17112440D01*
X2483214Y17109850D01*
X2506735Y17113117D01*
X2527666Y17122795D01*
X2554688Y17146352D01*
X2593245Y17194480D01*
X2593245Y17535810D01*
X2588812Y17601143D01*
X2579934Y17625935D01*
X2561778Y17639563D01*
X2524246Y17649139D01*
X2524246Y17672586D01*
X2784487Y17672586D01*
G37*
G36*
X3198784Y17907059D02*
G01*
X3198784Y17672586D01*
X3350398Y17672586D01*
X3350398Y17606152D01*
X3198784Y17606152D01*
X3198784Y17212921D01*
X3200468Y17162537D01*
X3203913Y17141724D01*
X3211031Y17127203D01*
X3221987Y17115834D01*
X3235106Y17108160D01*
X3245923Y17105942D01*
X3272577Y17111767D01*
X3300121Y17130907D01*
X3329943Y17168469D01*
X3350398Y17153997D01*
X3324077Y17106493D01*
X3293451Y17071733D01*
X3258377Y17047566D01*
X3217979Y17032891D01*
X3170757Y17027785D01*
X3131404Y17031717D01*
X3097504Y17043010D01*
X3067931Y17061490D01*
X3032765Y17098271D01*
X3014320Y17136778D01*
X3009832Y17169458D01*
X3007481Y17262136D01*
X3007481Y17606152D01*
X2924133Y17606152D01*
X2924133Y17630027D01*
X3005277Y17693583D01*
X3070679Y17757643D01*
X3127025Y17828043D01*
X3176253Y17907059D01*
X3198784Y17907059D01*
G37*
G36*
X3881000Y17687217D02*
G01*
X3923362Y17672612D01*
X3963631Y17647795D01*
X3998396Y17615241D01*
X4027643Y17574813D01*
X4051436Y17525307D01*
X4067982Y17472500D01*
X4078051Y17416614D01*
X4081478Y17357146D01*
X4077879Y17293173D01*
X4067411Y17234389D01*
X4050398Y17180131D01*
X4025702Y17129501D01*
X3995653Y17089295D01*
X3960211Y17058010D01*
X3919213Y17034640D01*
X3875696Y17020754D01*
X3828748Y17016061D01*
X3777682Y17021899D01*
X3730379Y17039264D01*
X3697210Y17061787D01*
X3658632Y17100081D01*
X3658632Y16859746D01*
X3661084Y16814267D01*
X3666448Y16792457D01*
X3676542Y16776922D01*
X3690689Y16766384D01*
X3711098Y16760744D01*
X3754925Y16758141D01*
X3754925Y16734693D01*
X3390820Y16734693D01*
X3390820Y16758141D01*
X3429074Y16765344D01*
X3453652Y16782137D01*
X3462792Y16804492D01*
X3467329Y16863654D01*
X3467329Y17510409D01*
X3658632Y17510409D01*
X3658632Y17169690D01*
X3691579Y17130165D01*
X3723058Y17104897D01*
X3753661Y17090903D01*
X3784356Y17086403D01*
X3806876Y17090481D01*
X3826826Y17102854D01*
X3845112Y17125299D01*
X3862388Y17166119D01*
X3875371Y17235019D01*
X3880649Y17343774D01*
X3874927Y17455076D01*
X3860759Y17526560D01*
X3841692Y17569760D01*
X3821859Y17592615D01*
X3799019Y17605644D01*
X3772022Y17610060D01*
X3741413Y17604726D01*
X3712927Y17588313D01*
X3685404Y17558377D01*
X3658632Y17510409D01*
X3467329Y17510409D01*
X3467329Y17539718D01*
X3462247Y17601635D01*
X3451575Y17627340D01*
X3430986Y17641392D01*
X3390820Y17649139D01*
X3390820Y17672586D01*
X3658632Y17672586D01*
X3658632Y17588566D01*
X3694101Y17632649D01*
X3726959Y17659641D01*
X3761347Y17677759D01*
X3797341Y17688508D01*
X3835586Y17692125D01*
X3881000Y17687217D01*
G37*
G36*
X4805841Y17672586D02*
G01*
X4805841Y17172376D01*
X4810383Y17106828D01*
X4819519Y17081762D01*
X4837910Y17068087D01*
X4874840Y17059048D01*
X4874840Y17035600D01*
X4614599Y17035600D01*
X4614599Y17120963D01*
X4566945Y17072080D01*
X4523008Y17041157D01*
X4475063Y17022464D01*
X4420609Y17016061D01*
X4385770Y17019786D01*
X4354039Y17030758D01*
X4324622Y17049217D01*
X4289047Y17085861D01*
X4268263Y17126825D01*
X4258330Y17179558D01*
X4253913Y17282103D01*
X4253913Y17535810D01*
X4249480Y17601143D01*
X4240602Y17625935D01*
X4222446Y17639563D01*
X4184915Y17649139D01*
X4184915Y17672586D01*
X4445155Y17672586D01*
X4445155Y17237773D01*
X4447279Y17175678D01*
X4451628Y17149967D01*
X4460263Y17132280D01*
X4472144Y17120047D01*
X4487112Y17112440D01*
X4504567Y17109850D01*
X4528089Y17113117D01*
X4549020Y17122795D01*
X4576042Y17146352D01*
X4614599Y17194480D01*
X4614599Y17535810D01*
X4610166Y17601143D01*
X4601288Y17625935D01*
X4583131Y17639563D01*
X4545600Y17649139D01*
X4545600Y17672586D01*
X4805841Y17672586D01*
G37*
G36*
X5220138Y17907059D02*
G01*
X5220138Y17672586D01*
X5371752Y17672586D01*
X5371752Y17606152D01*
X5220138Y17606152D01*
X5220138Y17212921D01*
X5221822Y17162537D01*
X5225267Y17141724D01*
X5232385Y17127203D01*
X5243341Y17115834D01*
X5256460Y17108160D01*
X5267277Y17105942D01*
X5293931Y17111767D01*
X5321475Y17130907D01*
X5351296Y17168469D01*
X5371752Y17153997D01*
X5345431Y17106493D01*
X5314805Y17071733D01*
X5279731Y17047566D01*
X5239333Y17032891D01*
X5192111Y17027785D01*
X5152758Y17031717D01*
X5118858Y17043010D01*
X5089285Y17061490D01*
X5054119Y17098271D01*
X5035674Y17136778D01*
X5031186Y17169458D01*
X5028835Y17262136D01*
X5028835Y17606152D01*
X4945487Y17606152D01*
X4945487Y17630027D01*
X5026631Y17693583D01*
X5092033Y17757643D01*
X5148379Y17828043D01*
X5197607Y17907059D01*
X5220138Y17907059D01*
G37*
G36*
X483231Y26226505D02*
G01*
X84932Y26226505D01*
X84932Y26367189D01*
X483231Y26367189D01*
X483231Y26226505D01*
G37*
G36*
X1495405Y26911418D02*
G01*
X1574236Y26896670D01*
X1644922Y26870814D01*
X1708719Y26833963D01*
X1766544Y26785577D01*
X1816410Y26728015D01*
X1854738Y26665807D01*
X1882248Y26598267D01*
X1899106Y26524426D01*
X1904908Y26443088D01*
X1898275Y26356674D01*
X1878857Y26277131D01*
X1846855Y26203214D01*
X1801776Y26133937D01*
X1753299Y26080023D01*
X1699458Y26036447D01*
X1639740Y26002418D01*
X1573323Y25977618D01*
X1499117Y25962216D01*
X1415812Y25956861D01*
X1331819Y25962027D01*
X1257159Y25976860D01*
X1190533Y26000675D01*
X1130844Y26033224D01*
X1077244Y26074705D01*
X1029175Y26125755D01*
X982151Y26195230D01*
X948654Y26270360D01*
X928232Y26352274D01*
X921685Y26436432D01*
X1167844Y26436432D01*
X1174268Y26314605D01*
X1191676Y26218739D01*
X1217802Y26144125D01*
X1251192Y26086737D01*
X1283184Y26052094D01*
X1320180Y26027766D01*
X1363165Y26012872D01*
X1413736Y26007664D01*
X1459545Y26011726D01*
X1498253Y26023241D01*
X1531216Y26041735D01*
X1566632Y26074608D01*
X1597926Y26120127D01*
X1624823Y26181137D01*
X1642314Y26245936D01*
X1653988Y26328058D01*
X1658284Y26430936D01*
X1653581Y26554231D01*
X1641367Y26643176D01*
X1624090Y26705282D01*
X1597231Y26763620D01*
X1568118Y26805326D01*
X1537017Y26833815D01*
X1500205Y26854532D01*
X1459897Y26867027D01*
X1415140Y26871306D01*
X1366937Y26866169D01*
X1324551Y26851251D01*
X1286669Y26826473D01*
X1252492Y26790689D01*
X1221822Y26741797D01*
X1200222Y26689114D01*
X1183238Y26622556D01*
X1171968Y26539358D01*
X1167844Y26436432D01*
X921685Y26436432D01*
X921220Y26442416D01*
X927088Y26523622D01*
X944149Y26597426D01*
X972024Y26665029D01*
X1010916Y26727397D01*
X1061599Y26785211D01*
X1120600Y26834488D01*
X1183772Y26871534D01*
X1251836Y26897159D01*
X1325799Y26911559D01*
X1406897Y26914293D01*
X1495405Y26911418D01*
G37*
G36*
X2618891Y26613386D02*
G01*
X2618891Y26113176D01*
X2623433Y26047628D01*
X2632569Y26022562D01*
X2650960Y26008887D01*
X2687890Y25999848D01*
X2687890Y25976400D01*
X2427649Y25976400D01*
X2427649Y26061763D01*
X2379995Y26012880D01*
X2336058Y25981957D01*
X2288113Y25963264D01*
X2233659Y25956861D01*
X2198819Y25960586D01*
X2167089Y25971558D01*
X2137671Y25990017D01*
X2102097Y26026661D01*
X2081312Y26067625D01*
X2071380Y26120358D01*
X2066963Y26222903D01*
X2066963Y26476610D01*
X2062530Y26541943D01*
X2053652Y26566735D01*
X2035496Y26580363D01*
X1997965Y26589939D01*
X1997965Y26613386D01*
X2258205Y26613386D01*
X2258205Y26178573D01*
X2260328Y26116478D01*
X2264678Y26090767D01*
X2273313Y26073080D01*
X2285194Y26060847D01*
X2300162Y26053240D01*
X2317617Y26050650D01*
X2341139Y26053917D01*
X2362070Y26063595D01*
X2389092Y26087152D01*
X2427649Y26135280D01*
X2427649Y26476610D01*
X2423216Y26541943D01*
X2414338Y26566735D01*
X2396181Y26580363D01*
X2358650Y26589939D01*
X2358650Y26613386D01*
X2618891Y26613386D01*
G37*
G36*
X3033188Y26847859D02*
G01*
X3033188Y26613386D01*
X3184802Y26613386D01*
X3184802Y26546952D01*
X3033188Y26546952D01*
X3033188Y26153721D01*
X3034872Y26103337D01*
X3038317Y26082524D01*
X3045435Y26068003D01*
X3056391Y26056634D01*
X3069510Y26048960D01*
X3080327Y26046742D01*
X3106981Y26052567D01*
X3134525Y26071707D01*
X3164346Y26109269D01*
X3184802Y26094797D01*
X3158481Y26047293D01*
X3127855Y26012533D01*
X3092781Y25988366D01*
X3052383Y25973691D01*
X3005161Y25968585D01*
X2965807Y25972517D01*
X2931907Y25983810D01*
X2902335Y26002290D01*
X2867169Y26039071D01*
X2848723Y26077578D01*
X2844236Y26110258D01*
X2841885Y26202936D01*
X2841885Y26546952D01*
X2758537Y26546952D01*
X2758537Y26570827D01*
X2839681Y26634383D01*
X2905082Y26698443D01*
X2961429Y26768843D01*
X3010656Y26847859D01*
X3033188Y26847859D01*
G37*
G36*
X3715404Y26628017D02*
G01*
X3757765Y26613412D01*
X3798034Y26588595D01*
X3832799Y26556041D01*
X3862047Y26515613D01*
X3885840Y26466107D01*
X3902386Y26413300D01*
X3912455Y26357414D01*
X3915881Y26297946D01*
X3912283Y26233973D01*
X3901815Y26175189D01*
X3884802Y26120931D01*
X3860105Y26070301D01*
X3830057Y26030095D01*
X3794615Y25998810D01*
X3753617Y25975440D01*
X3710100Y25961554D01*
X3663151Y25956861D01*
X3612086Y25962699D01*
X3564782Y25980064D01*
X3531613Y26002587D01*
X3493036Y26040881D01*
X3493036Y25800546D01*
X3495488Y25755067D01*
X3500852Y25733257D01*
X3510946Y25717722D01*
X3525093Y25707184D01*
X3545501Y25701544D01*
X3589329Y25698941D01*
X3589329Y25675493D01*
X3225224Y25675493D01*
X3225224Y25698941D01*
X3263478Y25706144D01*
X3288055Y25722937D01*
X3297196Y25745292D01*
X3301733Y25804454D01*
X3301733Y26451209D01*
X3493036Y26451209D01*
X3493036Y26110490D01*
X3525983Y26070965D01*
X3557461Y26045697D01*
X3588065Y26031703D01*
X3618760Y26027203D01*
X3641280Y26031281D01*
X3661230Y26043654D01*
X3679515Y26066099D01*
X3696792Y26106919D01*
X3709775Y26175819D01*
X3715053Y26284574D01*
X3709331Y26395876D01*
X3695163Y26467360D01*
X3676096Y26510560D01*
X3656263Y26533415D01*
X3633423Y26546444D01*
X3606426Y26550860D01*
X3575817Y26545526D01*
X3547331Y26529113D01*
X3519807Y26499177D01*
X3493036Y26451209D01*
X3301733Y26451209D01*
X3301733Y26480518D01*
X3296651Y26542435D01*
X3285979Y26568140D01*
X3265389Y26582192D01*
X3225224Y26589939D01*
X3225224Y26613386D01*
X3493036Y26613386D01*
X3493036Y26529366D01*
X3528505Y26573449D01*
X3561363Y26600441D01*
X3595751Y26618559D01*
X3631744Y26629308D01*
X3669990Y26632925D01*
X3715404Y26628017D01*
G37*
G36*
X4640245Y26613386D02*
G01*
X4640245Y26113176D01*
X4644787Y26047628D01*
X4653922Y26022562D01*
X4672314Y26008887D01*
X4709243Y25999848D01*
X4709243Y25976400D01*
X4449003Y25976400D01*
X4449003Y26061763D01*
X4401349Y26012880D01*
X4357412Y25981957D01*
X4309467Y25963264D01*
X4255013Y25956861D01*
X4220173Y25960586D01*
X4188443Y25971558D01*
X4159025Y25990017D01*
X4123451Y26026661D01*
X4102666Y26067625D01*
X4092734Y26120358D01*
X4088317Y26222903D01*
X4088317Y26476610D01*
X4083884Y26541943D01*
X4075006Y26566735D01*
X4056849Y26580363D01*
X4019318Y26589939D01*
X4019318Y26613386D01*
X4279559Y26613386D01*
X4279559Y26178573D01*
X4281682Y26116478D01*
X4286032Y26090767D01*
X4294666Y26073080D01*
X4306548Y26060847D01*
X4321516Y26053240D01*
X4338971Y26050650D01*
X4362492Y26053917D01*
X4383423Y26063595D01*
X4410446Y26087152D01*
X4449003Y26135280D01*
X4449003Y26476610D01*
X4444569Y26541943D01*
X4435691Y26566735D01*
X4417535Y26580363D01*
X4380004Y26589939D01*
X4380004Y26613386D01*
X4640245Y26613386D01*
G37*
G36*
X5054542Y26847859D02*
G01*
X5054542Y26613386D01*
X5206155Y26613386D01*
X5206155Y26546952D01*
X5054542Y26546952D01*
X5054542Y26153721D01*
X5056225Y26103337D01*
X5059671Y26082524D01*
X5066788Y26068003D01*
X5077745Y26056634D01*
X5090864Y26048960D01*
X5101681Y26046742D01*
X5128335Y26052567D01*
X5155878Y26071707D01*
X5185700Y26109269D01*
X5206155Y26094797D01*
X5179835Y26047293D01*
X5149209Y26012533D01*
X5114135Y25988366D01*
X5073737Y25973691D01*
X5026515Y25968585D01*
X4987161Y25972517D01*
X4953261Y25983810D01*
X4923689Y26002290D01*
X4888522Y26039071D01*
X4870077Y26077578D01*
X4865589Y26110258D01*
X4863238Y26202936D01*
X4863238Y26546952D01*
X4779891Y26546952D01*
X4779891Y26570827D01*
X4861035Y26634383D01*
X4926436Y26698443D01*
X4982783Y26768843D01*
X5032010Y26847859D01*
X5054542Y26847859D01*
G37*
G36*
X1900086Y28725509D02*
G01*
X1900086Y28397246D01*
X1874807Y28397246D01*
X1847715Y28463930D01*
X1815687Y28519732D01*
X1778965Y28566041D01*
X1737482Y28603937D01*
X1689758Y28635390D01*
X1640882Y28657294D01*
X1590300Y28670329D01*
X1537325Y28674706D01*
X1470264Y28667850D01*
X1413373Y28648269D01*
X1364523Y28616332D01*
X1324011Y28573626D01*
X1291394Y28520020D01*
X1266826Y28453483D01*
X1245327Y28347887D01*
X1238127Y28239160D01*
X1241910Y28150637D01*
X1252636Y28073226D01*
X1269512Y28005603D01*
X1296006Y27942340D01*
X1329861Y27894048D01*
X1370995Y27858141D01*
X1419616Y27832383D01*
X1474573Y27816562D01*
X1537325Y27811064D01*
X1605957Y27818269D01*
X1678069Y27839152D01*
X1678069Y28037721D01*
X1675618Y28086112D01*
X1670559Y28106353D01*
X1659914Y28120364D01*
X1639479Y28134502D01*
X1614245Y28143800D01*
X1582448Y28147142D01*
X1558513Y28147142D01*
X1558513Y28170589D01*
X2008713Y28170589D01*
X2008713Y28147142D01*
X1961534Y28141343D01*
X1937333Y28133525D01*
X1919785Y28120186D01*
X1906253Y28099392D01*
X1902152Y28082313D01*
X1900086Y28037721D01*
X1900086Y27839152D01*
X1809619Y27804903D01*
X1715317Y27780167D01*
X1618153Y27765299D01*
X1516198Y27760261D01*
X1428597Y27764715D01*
X1356416Y27777029D01*
X1297234Y27795921D01*
X1214693Y27837599D01*
X1143544Y27889771D01*
X1101838Y27930726D01*
X1067285Y27974273D01*
X1039374Y28020624D01*
X1013118Y28084683D01*
X997073Y28154335D01*
X991564Y28230673D01*
X997621Y28312483D01*
X1015306Y28387486D01*
X1044347Y28456845D01*
X1085076Y28521493D01*
X1138415Y28582077D01*
X1199889Y28633500D01*
X1266675Y28673213D01*
X1339540Y28701838D01*
X1419538Y28719438D01*
X1507954Y28725509D01*
X1575214Y28722853D01*
X1632335Y28715434D01*
X1729666Y28686674D01*
X1790840Y28666709D01*
X1809228Y28662983D01*
X1827448Y28666174D01*
X1844704Y28676050D01*
X1859199Y28692951D01*
X1874807Y28725509D01*
X1900086Y28725509D01*
G37*
G36*
X2371597Y28705969D02*
G01*
X2828575Y28136822D01*
X2828575Y28530115D01*
X2825082Y28586458D01*
X2816427Y28622360D01*
X2804640Y28643932D01*
X2779861Y28664857D01*
X2744488Y28678167D01*
X2694669Y28682522D01*
X2694669Y28705969D01*
X3000706Y28705969D01*
X3000706Y28682522D01*
X2947049Y28672633D01*
X2921815Y28662861D01*
X2904337Y28647553D01*
X2890369Y28623537D01*
X2882565Y28591373D01*
X2879134Y28530115D01*
X2879134Y27760261D01*
X2855931Y27760261D01*
X2229509Y28532068D01*
X2229509Y27940024D01*
X2234503Y27887685D01*
X2247281Y27853227D01*
X2266023Y27831397D01*
X2305128Y27810323D01*
X2349737Y27803248D01*
X2371597Y27803248D01*
X2371597Y27779800D01*
X2042968Y27779800D01*
X2042968Y27803248D01*
X2093201Y27807878D01*
X2127225Y27818955D01*
X2149519Y27834816D01*
X2164995Y27857545D01*
X2175553Y27891278D01*
X2179622Y27940024D01*
X2179622Y28593496D01*
X2159839Y28617859D01*
X2129974Y28652104D01*
X2107876Y28668844D01*
X2082533Y28677900D01*
X2042968Y28682522D01*
X2042968Y28705969D01*
X2371597Y28705969D01*
G37*
G36*
X3576899Y28700205D02*
G01*
X3664582Y28684528D01*
X3733556Y28660907D01*
X3792477Y28629167D01*
X3842836Y28590889D01*
X3885522Y28545868D01*
X3921074Y28493539D01*
X3956192Y28416651D01*
X3977593Y28332697D01*
X3984943Y28240137D01*
X3981322Y28175640D01*
X3970749Y28115861D01*
X3953497Y28060191D01*
X3929705Y28006940D01*
X3902565Y27961959D01*
X3872225Y27924270D01*
X3818471Y27875914D01*
X3757126Y27838175D01*
X3687523Y27810328D01*
X3597635Y27787983D01*
X3549953Y27782242D01*
X3466477Y27779800D01*
X3051813Y27779800D01*
X3051813Y27803248D01*
X3082527Y27803248D01*
X3120101Y27806905D01*
X3144381Y27816193D01*
X3163099Y27831602D01*
X3176133Y27851669D01*
X3180135Y27873450D01*
X3182012Y27931170D01*
X3404989Y27931170D01*
X3406854Y27879099D01*
X3410423Y27860706D01*
X3417749Y27849292D01*
X3428924Y27840861D01*
X3449704Y27833520D01*
X3482169Y27830603D01*
X3537993Y27835905D01*
X3584489Y27850886D01*
X3623534Y27874960D01*
X3656375Y27908639D01*
X3689331Y27962353D01*
X3715011Y28032132D01*
X3732084Y28121753D01*
X3738380Y28235680D01*
X3734289Y28326985D01*
X3722898Y28403638D01*
X3705327Y28467702D01*
X3682387Y28521016D01*
X3648466Y28572596D01*
X3610543Y28609705D01*
X3568265Y28634650D01*
X3534288Y28645096D01*
X3481930Y28652553D01*
X3404989Y28655167D01*
X3404989Y27931170D01*
X3182012Y27931170D01*
X3182300Y27940024D01*
X3182300Y28545746D01*
X3179767Y28612026D01*
X3174790Y28636910D01*
X3164019Y28653398D01*
X3144381Y28668844D01*
X3118993Y28678755D01*
X3082527Y28682522D01*
X3051813Y28682522D01*
X3051813Y28705969D01*
X3466477Y28705969D01*
X3576899Y28700205D01*
G37*
G36*
X1900086Y14247509D02*
G01*
X1900086Y13919246D01*
X1874807Y13919246D01*
X1847715Y13985930D01*
X1815687Y14041732D01*
X1778965Y14088041D01*
X1737482Y14125937D01*
X1689758Y14157390D01*
X1640882Y14179294D01*
X1590300Y14192329D01*
X1537325Y14196706D01*
X1470264Y14189850D01*
X1413373Y14170269D01*
X1364523Y14138332D01*
X1324011Y14095626D01*
X1291394Y14042020D01*
X1266826Y13975483D01*
X1245327Y13869887D01*
X1238127Y13761160D01*
X1241910Y13672637D01*
X1252636Y13595226D01*
X1269512Y13527603D01*
X1296006Y13464340D01*
X1329861Y13416048D01*
X1370995Y13380141D01*
X1419616Y13354383D01*
X1474573Y13338562D01*
X1537325Y13333064D01*
X1605957Y13340269D01*
X1678069Y13361152D01*
X1678069Y13559721D01*
X1675618Y13608112D01*
X1670559Y13628353D01*
X1659914Y13642364D01*
X1639479Y13656502D01*
X1614245Y13665800D01*
X1582448Y13669142D01*
X1558513Y13669142D01*
X1558513Y13692589D01*
X2008713Y13692589D01*
X2008713Y13669142D01*
X1961534Y13663343D01*
X1937333Y13655525D01*
X1919785Y13642186D01*
X1906253Y13621392D01*
X1902152Y13604313D01*
X1900086Y13559721D01*
X1900086Y13361152D01*
X1809619Y13326903D01*
X1715317Y13302167D01*
X1618153Y13287299D01*
X1516198Y13282261D01*
X1428597Y13286715D01*
X1356416Y13299029D01*
X1297234Y13317921D01*
X1214693Y13359599D01*
X1143544Y13411771D01*
X1101838Y13452726D01*
X1067285Y13496273D01*
X1039374Y13542624D01*
X1013118Y13606683D01*
X997073Y13676335D01*
X991564Y13752673D01*
X997621Y13834483D01*
X1015306Y13909486D01*
X1044347Y13978845D01*
X1085076Y14043493D01*
X1138415Y14104077D01*
X1199889Y14155500D01*
X1266675Y14195213D01*
X1339540Y14223838D01*
X1419538Y14241438D01*
X1507954Y14247509D01*
X1575214Y14244853D01*
X1632335Y14237434D01*
X1729666Y14208674D01*
X1790840Y14188709D01*
X1809228Y14184983D01*
X1827448Y14188174D01*
X1844704Y14198050D01*
X1859199Y14214951D01*
X1874807Y14247509D01*
X1900086Y14247509D01*
G37*
G36*
X2371597Y14227969D02*
G01*
X2828575Y13658822D01*
X2828575Y14052115D01*
X2825082Y14108458D01*
X2816427Y14144360D01*
X2804640Y14165932D01*
X2779861Y14186857D01*
X2744488Y14200167D01*
X2694669Y14204522D01*
X2694669Y14227969D01*
X3000706Y14227969D01*
X3000706Y14204522D01*
X2947049Y14194633D01*
X2921815Y14184861D01*
X2904337Y14169553D01*
X2890369Y14145537D01*
X2882565Y14113373D01*
X2879134Y14052115D01*
X2879134Y13282261D01*
X2855931Y13282261D01*
X2229509Y14054068D01*
X2229509Y13462024D01*
X2234503Y13409685D01*
X2247281Y13375227D01*
X2266023Y13353397D01*
X2305128Y13332323D01*
X2349737Y13325248D01*
X2371597Y13325248D01*
X2371597Y13301800D01*
X2042968Y13301800D01*
X2042968Y13325248D01*
X2093201Y13329878D01*
X2127225Y13340955D01*
X2149519Y13356816D01*
X2164995Y13379545D01*
X2175553Y13413278D01*
X2179622Y13462024D01*
X2179622Y14115496D01*
X2159839Y14139859D01*
X2129974Y14174104D01*
X2107876Y14190844D01*
X2082533Y14199900D01*
X2042968Y14204522D01*
X2042968Y14227969D01*
X2371597Y14227969D01*
G37*
G36*
X3576899Y14222205D02*
G01*
X3664582Y14206528D01*
X3733556Y14182907D01*
X3792477Y14151167D01*
X3842836Y14112889D01*
X3885522Y14067868D01*
X3921074Y14015539D01*
X3956192Y13938651D01*
X3977593Y13854697D01*
X3984943Y13762137D01*
X3981322Y13697640D01*
X3970749Y13637861D01*
X3953497Y13582191D01*
X3929705Y13528940D01*
X3902565Y13483959D01*
X3872225Y13446270D01*
X3818471Y13397914D01*
X3757126Y13360175D01*
X3687523Y13332328D01*
X3597635Y13309983D01*
X3549953Y13304242D01*
X3466477Y13301800D01*
X3051813Y13301800D01*
X3051813Y13325248D01*
X3082527Y13325248D01*
X3120101Y13328905D01*
X3144381Y13338193D01*
X3163099Y13353602D01*
X3176133Y13373669D01*
X3180135Y13395450D01*
X3182012Y13453170D01*
X3404989Y13453170D01*
X3406854Y13401099D01*
X3410423Y13382706D01*
X3417749Y13371292D01*
X3428924Y13362861D01*
X3449704Y13355520D01*
X3482169Y13352603D01*
X3537993Y13357905D01*
X3584489Y13372886D01*
X3623534Y13396960D01*
X3656375Y13430639D01*
X3689331Y13484353D01*
X3715011Y13554132D01*
X3732084Y13643753D01*
X3738380Y13757680D01*
X3734289Y13848985D01*
X3722898Y13925638D01*
X3705327Y13989702D01*
X3682387Y14043016D01*
X3648466Y14094596D01*
X3610543Y14131705D01*
X3568265Y14156650D01*
X3534288Y14167096D01*
X3481930Y14174553D01*
X3404989Y14177167D01*
X3404989Y13453170D01*
X3182012Y13453170D01*
X3182300Y13462024D01*
X3182300Y14067746D01*
X3179767Y14134026D01*
X3174790Y14158910D01*
X3164019Y14175398D01*
X3144381Y14190844D01*
X3118993Y14200755D01*
X3082527Y14204522D01*
X3051813Y14204522D01*
X3051813Y14227969D01*
X3466477Y14227969D01*
X3576899Y14222205D01*
G37*
G36*
X-1415098Y26903722D02*
G01*
X-1415098Y26927169D01*
X-922582Y26927169D01*
X-922582Y26903722D01*
X-952624Y26903722D01*
X-991068Y26899689D01*
X-1018203Y26889006D01*
X-1033101Y26876260D01*
X-1045558Y26855301D01*
X-1050509Y26831837D01*
X-1053069Y26766946D01*
X-1053069Y26315402D01*
X-1056819Y26226141D01*
X-1066411Y26164049D01*
X-1079752Y26122572D01*
X-1101358Y26085610D01*
X-1132378Y26052151D01*
X-1174335Y26021883D01*
X-1221216Y25999955D01*
X-1275253Y25986269D01*
X-1337917Y25981461D01*
X-1396062Y25985683D01*
X-1446088Y25997672D01*
X-1489329Y26016796D01*
X-1526839Y26042949D01*
X-1568436Y26087602D01*
X-1591440Y26132420D01*
X-1598891Y26178992D01*
X-1595436Y26209660D01*
X-1585608Y26235122D01*
X-1569520Y26256540D01*
X-1548417Y26273106D01*
X-1524788Y26282918D01*
X-1497774Y26286276D01*
X-1459193Y26279380D01*
X-1427798Y26259104D01*
X-1406524Y26228896D01*
X-1399405Y26192304D01*
X-1404168Y26158232D01*
X-1425722Y26123061D01*
X-1440982Y26096315D01*
X-1444468Y26083066D01*
X-1440266Y26066628D01*
X-1426699Y26051742D01*
X-1397906Y26037451D01*
X-1359105Y26032264D01*
X-1331715Y26036203D01*
X-1310623Y26047285D01*
X-1294809Y26065659D01*
X-1283634Y26094179D01*
X-1278481Y26139598D01*
X-1275757Y26271011D01*
X-1275757Y26766946D01*
X-1278413Y26833216D01*
X-1283634Y26858110D01*
X-1294640Y26874611D01*
X-1314348Y26890044D01*
X-1339729Y26899957D01*
X-1376141Y26903722D01*
X-1415098Y26903722D01*
G37*
G36*
X-335117Y26001000D02*
G01*
X-880267Y26001000D01*
X-880267Y26016082D01*
X-711890Y26222922D01*
X-618994Y26348395D01*
X-575940Y26417984D01*
X-545411Y26488319D01*
X-527929Y26555228D01*
X-522268Y26619668D01*
X-527422Y26665782D01*
X-542229Y26705043D01*
X-566659Y26738980D01*
X-598743Y26765548D01*
X-634506Y26781163D01*
X-675286Y26786485D01*
X-724510Y26779998D01*
X-767154Y26761041D01*
X-804936Y26728844D01*
X-838563Y26680728D01*
X-863842Y26689704D01*
X-832986Y26773948D01*
X-795438Y26837336D01*
X-751856Y26883816D01*
X-698955Y26918864D01*
X-641630Y26939650D01*
X-578322Y26946709D01*
X-532299Y26942984D01*
X-489724Y26932043D01*
X-449911Y26913919D01*
X-413850Y26889271D01*
X-383733Y26859494D01*
X-359053Y26824160D01*
X-333888Y26767079D01*
X-326263Y26717365D01*
X-331614Y26657995D01*
X-348096Y26596844D01*
X-376821Y26533022D01*
X-430030Y26452115D01*
X-525305Y26337909D01*
X-678034Y26180763D01*
X-477877Y26180763D01*
X-410457Y26182693D01*
X-381890Y26186686D01*
X-361337Y26194895D01*
X-345314Y26206897D01*
X-330922Y26225571D01*
X-307762Y26266737D01*
X-283215Y26266737D01*
X-335117Y26001000D01*
G37*
G36*
X-12062248Y14735858D02*
G01*
X-12062248Y14415411D01*
X-12088871Y14415411D01*
X-12108127Y14477635D01*
X-12133372Y14529888D01*
X-12164277Y14573560D01*
X-12200917Y14609706D01*
X-12258463Y14647467D01*
X-12319876Y14669726D01*
X-12386725Y14677240D01*
X-12442978Y14671655D01*
X-12495673Y14655066D01*
X-12545849Y14627048D01*
X-12589944Y14590040D01*
X-12625020Y14546557D01*
X-12651728Y14495828D01*
X-12675281Y14425436D01*
X-12689783Y14348783D01*
X-12694776Y14264897D01*
X-12691104Y14181953D01*
X-12680483Y14106267D01*
X-12663391Y14037079D01*
X-12637234Y13971719D01*
X-12604365Y13920761D01*
X-12565022Y13881802D01*
X-12517787Y13853398D01*
X-12460761Y13835577D01*
X-12391487Y13829228D01*
X-12334158Y13833594D01*
X-12281031Y13846407D01*
X-12231325Y13867574D01*
X-12185472Y13896703D01*
X-12134617Y13939796D01*
X-12077941Y13999893D01*
X-12077941Y13919965D01*
X-12132351Y13870920D01*
X-12186316Y13833339D01*
X-12240179Y13805964D01*
X-12297482Y13786856D01*
X-12362762Y13774832D01*
X-12437283Y13770610D01*
X-12534637Y13777516D01*
X-12621893Y13797469D01*
X-12700638Y13829839D01*
X-12755320Y13862982D01*
X-12802774Y13902170D01*
X-12843633Y13947668D01*
X-12878263Y14000015D01*
X-12913107Y14075959D01*
X-12933793Y14154322D01*
X-12940728Y14236198D01*
X-12933086Y14322414D01*
X-12910198Y14405521D01*
X-12871425Y14486730D01*
X-12833395Y14543048D01*
X-12789725Y14592118D01*
X-12740155Y14634499D01*
X-12684212Y14670523D01*
X-12603606Y14706967D01*
X-12520532Y14728605D01*
X-12433864Y14735858D01*
X-12369338Y14731695D01*
X-12300792Y14718784D01*
X-12227539Y14696290D01*
X-12169821Y14677324D01*
X-12147611Y14673332D01*
X-12127211Y14677068D01*
X-12109692Y14688292D01*
X-12097018Y14706443D01*
X-12088871Y14735858D01*
X-12062248Y14735858D01*
G37*
G36*
X-11778865Y14259096D02*
G01*
X-11778865Y14278635D01*
X-11707498Y14302574D01*
X-11670971Y14320645D01*
X-11643720Y14344339D01*
X-11619008Y14380057D01*
X-11602472Y14420838D01*
X-11597149Y14461085D01*
X-11601759Y14497148D01*
X-11615341Y14529225D01*
X-11638487Y14558415D01*
X-11668142Y14580931D01*
X-11701968Y14594422D01*
X-11741252Y14599082D01*
X-11785788Y14593092D01*
X-11826984Y14575115D01*
X-11866130Y14543839D01*
X-11903857Y14496378D01*
X-11929136Y14505293D01*
X-11891440Y14578565D01*
X-11849378Y14635280D01*
X-11803106Y14678033D01*
X-11749529Y14710345D01*
X-11692918Y14729429D01*
X-11632014Y14735858D01*
X-11570083Y14729040D01*
X-11517854Y14709544D01*
X-11473195Y14677545D01*
X-11437843Y14635521D01*
X-11417483Y14590597D01*
X-11410669Y14541257D01*
X-11417781Y14491896D01*
X-11439734Y14443316D01*
X-11461641Y14414353D01*
X-11491560Y14386694D01*
X-11530898Y14360273D01*
X-11480005Y14331112D01*
X-11439863Y14299145D01*
X-11408959Y14264408D01*
X-11386169Y14224537D01*
X-11371967Y14177503D01*
X-11366950Y14121587D01*
X-11373617Y14051462D01*
X-11393115Y13988006D01*
X-11425492Y13929773D01*
X-11471852Y13875757D01*
X-11527060Y13832508D01*
X-11591085Y13801091D01*
X-11665623Y13781442D01*
X-11752914Y13774518D01*
X-11830800Y13779863D01*
X-11886092Y13793779D01*
X-11924373Y13813963D01*
X-11946448Y13834763D01*
X-11959068Y13858179D01*
X-11963330Y13885282D01*
X-11957697Y13914758D01*
X-11940798Y13939565D01*
X-11916275Y13956579D01*
X-11888836Y13962096D01*
X-11866931Y13959671D01*
X-11846521Y13952449D01*
X-11768973Y13891938D01*
X-11722362Y13859664D01*
X-11681319Y13842378D01*
X-11644287Y13837044D01*
X-11612312Y13841435D01*
X-11583732Y13854457D01*
X-11557520Y13876917D01*
X-11537682Y13905348D01*
X-11525557Y13938646D01*
X-11521311Y13978155D01*
X-11528435Y14038147D01*
X-11549874Y14095084D01*
X-11586890Y14150347D01*
X-11621921Y14185387D01*
X-11664769Y14215253D01*
X-11716586Y14239951D01*
X-11778865Y14259096D01*
G37*
G36*
X-15828070Y32511898D02*
G01*
X-15748709Y32503513D01*
X-15695521Y32491905D01*
X-15646452Y32471896D01*
X-15604411Y32443484D01*
X-15568454Y32406176D01*
X-15541225Y32362376D01*
X-15524854Y32313991D01*
X-15519239Y32259691D01*
X-15524001Y32209912D01*
X-15537814Y32165792D01*
X-15560576Y32126167D01*
X-15593000Y32090248D01*
X-15626502Y32065639D01*
X-15669779Y32044312D01*
X-15724830Y32026745D01*
X-15502142Y31712832D01*
X-15460577Y31662001D01*
X-15439982Y31641940D01*
X-15410039Y31626729D01*
X-15375075Y31620264D01*
X-15375075Y31589000D01*
X-15666762Y31589000D01*
X-15965288Y32011052D01*
X-16026104Y32011052D01*
X-16026104Y31749224D01*
X-16023022Y31681192D01*
X-16016884Y31654946D01*
X-16004561Y31637906D01*
X-15984461Y31623988D01*
X-15956060Y31616045D01*
X-15897693Y31612448D01*
X-15897693Y31589000D01*
X-16371769Y31589000D01*
X-16371769Y31612448D01*
X-16312833Y31616178D01*
X-16284696Y31624355D01*
X-16264814Y31638440D01*
X-16252578Y31655312D01*
X-16246450Y31681233D01*
X-16243358Y31749224D01*
X-16243358Y32061855D01*
X-16026104Y32061855D01*
X-15987147Y32061855D01*
X-15898293Y32066930D01*
X-15845120Y32079135D01*
X-15816023Y32093683D01*
X-15791490Y32114241D01*
X-15770992Y32141478D01*
X-15756639Y32172671D01*
X-15747363Y32211291D01*
X-15744004Y32259020D01*
X-15750382Y32327369D01*
X-15767461Y32377639D01*
X-15793524Y32414236D01*
X-15829896Y32440429D01*
X-15881354Y32457805D01*
X-15953014Y32464367D01*
X-16026104Y32464367D01*
X-16026104Y32061855D01*
X-16243358Y32061855D01*
X-16243358Y32354946D01*
X-16246442Y32422971D01*
X-16252578Y32449163D01*
X-16264919Y32466236D01*
X-16285062Y32480121D01*
X-16313413Y32488104D01*
X-16371769Y32491722D01*
X-16371769Y32515169D01*
X-15941413Y32515169D01*
X-15828070Y32511898D01*
G37*
G36*
X-14440418Y32515169D02*
G01*
X-14440418Y32491722D01*
X-14472162Y32482422D01*
X-14502020Y32464847D01*
X-14530605Y32437805D01*
X-14560480Y32391318D01*
X-14615968Y32277399D01*
X-14934949Y31569461D01*
X-14957542Y31569461D01*
X-15275179Y32305304D01*
X-15329911Y32424991D01*
X-15352055Y32462230D01*
X-15377280Y32480079D01*
X-15425450Y32491722D01*
X-15425450Y32515169D01*
X-14981416Y32515169D01*
X-14981416Y32491722D01*
X-14996437Y32491722D01*
X-15051357Y32487030D01*
X-15078442Y32476457D01*
X-15090140Y32463726D01*
X-15094134Y32445865D01*
X-15088700Y32416312D01*
X-15051758Y32326064D01*
X-14854349Y31866033D01*
X-14671289Y32275689D01*
X-14630989Y32375707D01*
X-14623478Y32419243D01*
X-14626260Y32438900D01*
X-14634408Y32455818D01*
X-14647567Y32469547D01*
X-14666526Y32479998D01*
X-14698486Y32488450D01*
X-14744379Y32491722D01*
X-14744379Y32515169D01*
X-14440418Y32515169D01*
G37*
G36*
X-13970556Y32534709D02*
G01*
X-13970556Y31776579D01*
X-13968068Y31698002D01*
X-13963046Y31666548D01*
X-13951699Y31645250D01*
X-13931661Y31627591D01*
X-13903673Y31616887D01*
X-13855090Y31612448D01*
X-13833902Y31612448D01*
X-13833902Y31589000D01*
X-14321655Y31589000D01*
X-14321655Y31612448D01*
X-14297048Y31612448D01*
X-14242172Y31616594D01*
X-14212357Y31626248D01*
X-14190936Y31642904D01*
X-14178224Y31664166D01*
X-14172267Y31696153D01*
X-14169309Y31776579D01*
X-14169309Y32257249D01*
X-14171389Y32316002D01*
X-14175476Y32338093D01*
X-14184029Y32352768D01*
X-14198374Y32365510D01*
X-14216195Y32373925D01*
X-14236964Y32376806D01*
X-14273093Y32371968D01*
X-14321716Y32354946D01*
X-14333990Y32378393D01*
X-13993088Y32534709D01*
X-13970556Y32534709D01*
G37*
G36*
X-16744840Y19016101D02*
G01*
X-16685061Y19005527D01*
X-16629391Y18988275D01*
X-16576140Y18964484D01*
X-16531159Y18937343D01*
X-16493470Y18907004D01*
X-16445114Y18853250D01*
X-16407375Y18791904D01*
X-16379528Y18722301D01*
X-16357183Y18632414D01*
X-16351442Y18584732D01*
X-16349000Y18501255D01*
X-16349000Y18086592D01*
X-16372448Y18086592D01*
X-16372448Y18117305D01*
X-16376105Y18154880D01*
X-16385393Y18179160D01*
X-16400802Y18197878D01*
X-16420869Y18210911D01*
X-16442650Y18214914D01*
X-16509224Y18217079D01*
X-17114946Y18217079D01*
X-17181226Y18214545D01*
X-17206110Y18209568D01*
X-17222598Y18198798D01*
X-17238044Y18179160D01*
X-17247955Y18153771D01*
X-17251722Y18117305D01*
X-17251722Y18086592D01*
X-17275169Y18086592D01*
X-17275169Y18439767D01*
X-17224367Y18439767D01*
X-16500370Y18439767D01*
X-16448299Y18441633D01*
X-16429906Y18445201D01*
X-16418492Y18452528D01*
X-16410061Y18463703D01*
X-16402720Y18484482D01*
X-16399803Y18516948D01*
X-16405105Y18572771D01*
X-16420086Y18619267D01*
X-16444160Y18658313D01*
X-16477839Y18691154D01*
X-16531553Y18724109D01*
X-16601332Y18749789D01*
X-16690953Y18766863D01*
X-16804880Y18773158D01*
X-16896185Y18769067D01*
X-16972838Y18757677D01*
X-17036902Y18740105D01*
X-17090216Y18717166D01*
X-17141796Y18683245D01*
X-17178905Y18645322D01*
X-17203850Y18603043D01*
X-17214296Y18569067D01*
X-17221753Y18516708D01*
X-17224367Y18439767D01*
X-17275169Y18439767D01*
X-17275169Y18501255D01*
X-17269405Y18611677D01*
X-17253728Y18699361D01*
X-17230107Y18768335D01*
X-17198367Y18827255D01*
X-17160089Y18877614D01*
X-17115068Y18920301D01*
X-17062739Y18955852D01*
X-16985851Y18990971D01*
X-16901897Y19012372D01*
X-16809337Y19019722D01*
X-16744840Y19016101D01*
G37*
G36*
X-17294709Y19533975D02*
G01*
X-16536579Y19533975D01*
X-16458002Y19536463D01*
X-16426548Y19541485D01*
X-16405250Y19552833D01*
X-16387591Y19572871D01*
X-16376887Y19600858D01*
X-16372448Y19649441D01*
X-16372448Y19670629D01*
X-16349000Y19670629D01*
X-16349000Y19182876D01*
X-16372448Y19182876D01*
X-16372448Y19207483D01*
X-16376594Y19262359D01*
X-16386248Y19292175D01*
X-16402904Y19313596D01*
X-16424166Y19326307D01*
X-16456153Y19332264D01*
X-16536579Y19335222D01*
X-17017249Y19335222D01*
X-17076002Y19333142D01*
X-17098093Y19329055D01*
X-17112768Y19320502D01*
X-17125510Y19306157D01*
X-17133925Y19288336D01*
X-17136806Y19267567D01*
X-17131968Y19231439D01*
X-17114946Y19182815D01*
X-17138393Y19170542D01*
X-17294709Y19511444D01*
X-17294709Y19533975D01*
G37*
G36*
X-30426448Y29562909D02*
G01*
X-30426448Y29242462D01*
X-30453071Y29242462D01*
X-30472327Y29304686D01*
X-30497572Y29356939D01*
X-30528477Y29400611D01*
X-30565117Y29436757D01*
X-30622663Y29474518D01*
X-30684076Y29496777D01*
X-30750925Y29504291D01*
X-30807178Y29498706D01*
X-30859873Y29482117D01*
X-30910049Y29454099D01*
X-30954144Y29417091D01*
X-30989220Y29373608D01*
X-31015928Y29322879D01*
X-31039481Y29252487D01*
X-31053983Y29175834D01*
X-31058976Y29091948D01*
X-31055304Y29009004D01*
X-31044683Y28933318D01*
X-31027591Y28864130D01*
X-31001434Y28798770D01*
X-30968565Y28747812D01*
X-30929222Y28708853D01*
X-30881987Y28680449D01*
X-30824961Y28662628D01*
X-30755687Y28656279D01*
X-30698358Y28660645D01*
X-30645231Y28673458D01*
X-30595525Y28694625D01*
X-30549672Y28723754D01*
X-30498817Y28766847D01*
X-30442141Y28826944D01*
X-30442141Y28747016D01*
X-30496551Y28697971D01*
X-30550516Y28660390D01*
X-30604379Y28633015D01*
X-30661682Y28613907D01*
X-30726962Y28601883D01*
X-30801483Y28597661D01*
X-30898837Y28604567D01*
X-30986093Y28624520D01*
X-31064838Y28656890D01*
X-31119520Y28690033D01*
X-31166974Y28729221D01*
X-31207833Y28774719D01*
X-31242463Y28827066D01*
X-31277307Y28903010D01*
X-31297993Y28981373D01*
X-31304928Y29063249D01*
X-31297286Y29149465D01*
X-31274398Y29232572D01*
X-31235625Y29313781D01*
X-31197595Y29370099D01*
X-31153925Y29419169D01*
X-31104355Y29461550D01*
X-31048412Y29497574D01*
X-30967806Y29534018D01*
X-30884732Y29555656D01*
X-30798064Y29562909D01*
X-30733538Y29558746D01*
X-30664992Y29545835D01*
X-30591739Y29523341D01*
X-30534021Y29504375D01*
X-30511811Y29500383D01*
X-30491411Y29504119D01*
X-30473892Y29515343D01*
X-30461218Y29533494D01*
X-30453071Y29562909D01*
X-30426448Y29562909D01*
G37*
G36*
X-29770778Y28617200D02*
G01*
X-30315928Y28617200D01*
X-30315928Y28632282D01*
X-30147551Y28839122D01*
X-30054655Y28964595D01*
X-30011602Y29034184D01*
X-29981072Y29104519D01*
X-29963590Y29171428D01*
X-29957929Y29235868D01*
X-29963083Y29281982D01*
X-29977890Y29321243D01*
X-30002320Y29355180D01*
X-30034404Y29381748D01*
X-30070167Y29397363D01*
X-30110947Y29402685D01*
X-30160172Y29396198D01*
X-30202816Y29377241D01*
X-30240597Y29345044D01*
X-30274224Y29296928D01*
X-30299503Y29305904D01*
X-30268647Y29390148D01*
X-30231099Y29453536D01*
X-30187517Y29500016D01*
X-30134617Y29535064D01*
X-30077291Y29555850D01*
X-30013983Y29562909D01*
X-29967960Y29559184D01*
X-29925385Y29548243D01*
X-29885572Y29530119D01*
X-29849511Y29505471D01*
X-29819394Y29475694D01*
X-29794714Y29440360D01*
X-29769549Y29383279D01*
X-29761924Y29333565D01*
X-29767276Y29274195D01*
X-29783757Y29213044D01*
X-29812483Y29149222D01*
X-29865691Y29068315D01*
X-29960966Y28954109D01*
X-30113695Y28796963D01*
X-29913538Y28796963D01*
X-29846118Y28798893D01*
X-29817551Y28802886D01*
X-29796998Y28811095D01*
X-29780975Y28823097D01*
X-29766584Y28841771D01*
X-29743423Y28882937D01*
X-29718877Y28882937D01*
X-29770778Y28617200D01*
G37*
G36*
X-4569248Y18894909D02*
G01*
X-4569248Y18574462D01*
X-4595871Y18574462D01*
X-4615127Y18636686D01*
X-4640372Y18688939D01*
X-4671277Y18732611D01*
X-4707917Y18768757D01*
X-4765463Y18806518D01*
X-4826876Y18828777D01*
X-4893725Y18836291D01*
X-4949978Y18830706D01*
X-5002673Y18814117D01*
X-5052849Y18786099D01*
X-5096944Y18749091D01*
X-5132020Y18705608D01*
X-5158728Y18654879D01*
X-5182281Y18584487D01*
X-5196783Y18507834D01*
X-5201776Y18423948D01*
X-5198104Y18341004D01*
X-5187483Y18265318D01*
X-5170391Y18196130D01*
X-5144234Y18130770D01*
X-5111365Y18079812D01*
X-5072022Y18040853D01*
X-5024787Y18012449D01*
X-4967761Y17994628D01*
X-4898487Y17988279D01*
X-4841158Y17992645D01*
X-4788031Y18005458D01*
X-4738325Y18026625D01*
X-4692472Y18055754D01*
X-4641617Y18098847D01*
X-4584941Y18158944D01*
X-4584941Y18079016D01*
X-4639351Y18029971D01*
X-4693316Y17992390D01*
X-4747179Y17965015D01*
X-4804482Y17945907D01*
X-4869762Y17933883D01*
X-4944283Y17929661D01*
X-5041637Y17936567D01*
X-5128893Y17956520D01*
X-5207638Y17988890D01*
X-5262320Y18022033D01*
X-5309774Y18061221D01*
X-5350633Y18106719D01*
X-5385263Y18159066D01*
X-5420107Y18235010D01*
X-5440793Y18313373D01*
X-5447728Y18395249D01*
X-5440086Y18481465D01*
X-5417198Y18564572D01*
X-5378425Y18645781D01*
X-5340395Y18702099D01*
X-5296725Y18751169D01*
X-5247155Y18793550D01*
X-5191212Y18829574D01*
X-5110606Y18866018D01*
X-5027532Y18887656D01*
X-4940864Y18894909D01*
X-4876338Y18890746D01*
X-4807792Y18877835D01*
X-4734539Y18855341D01*
X-4676821Y18836375D01*
X-4654611Y18832383D01*
X-4634211Y18836119D01*
X-4616692Y18847343D01*
X-4604018Y18865494D01*
X-4595871Y18894909D01*
X-4569248Y18894909D01*
G37*
G36*
X-3934766Y18297002D02*
G01*
X-3850075Y18297002D01*
X-3850075Y18156318D01*
X-3934766Y18156318D01*
X-3934766Y17949200D01*
X-4122589Y17949200D01*
X-4122589Y18156318D01*
X-4457995Y18156318D01*
X-4457995Y18297002D01*
X-4391745Y18297002D01*
X-4122589Y18297002D01*
X-4122589Y18662817D01*
X-4391745Y18297002D01*
X-4457995Y18297002D01*
X-4018114Y18894909D01*
X-3934766Y18894909D01*
X-3934766Y18297002D01*
G37*
G36*
X-29124661Y19035555D02*
G01*
X-29159466Y18711200D01*
X-29981954Y18711200D01*
X-29981954Y18734648D01*
X-29951240Y18734648D01*
X-29913389Y18738663D01*
X-29886333Y18749363D01*
X-29871028Y18762195D01*
X-29858977Y18783069D01*
X-29854027Y18806533D01*
X-29851467Y18871424D01*
X-29851467Y19477146D01*
X-29854000Y19543426D01*
X-29858977Y19568310D01*
X-29869748Y19584798D01*
X-29889386Y19600244D01*
X-29914774Y19610155D01*
X-29951240Y19613922D01*
X-29981954Y19613922D01*
X-29981954Y19637369D01*
X-29488034Y19637369D01*
X-29488034Y19613922D01*
X-29528334Y19613922D01*
X-29566139Y19609910D01*
X-29593241Y19599206D01*
X-29608686Y19586396D01*
X-29621268Y19565501D01*
X-29626219Y19542037D01*
X-29628779Y19477146D01*
X-29628779Y18887544D01*
X-29626069Y18822925D01*
X-29620596Y18797113D01*
X-29608894Y18780550D01*
X-29588478Y18768170D01*
X-29565460Y18764068D01*
X-29505802Y18762003D01*
X-29428622Y18762003D01*
X-29379970Y18765187D01*
X-29339451Y18774075D01*
X-29305706Y18787954D01*
X-29275199Y18807979D01*
X-29246900Y18835000D01*
X-29220649Y18870019D01*
X-29188095Y18933690D01*
X-29152627Y19035555D01*
X-29124661Y19035555D01*
G37*
G36*
X-28619262Y19656909D02*
G01*
X-28619262Y18898779D01*
X-28616774Y18820202D01*
X-28611751Y18788748D01*
X-28600404Y18767450D01*
X-28580366Y18749791D01*
X-28552379Y18739087D01*
X-28503796Y18734648D01*
X-28482608Y18734648D01*
X-28482608Y18711200D01*
X-28970361Y18711200D01*
X-28970361Y18734648D01*
X-28945753Y18734648D01*
X-28890878Y18738794D01*
X-28861062Y18748448D01*
X-28839641Y18765104D01*
X-28826929Y18786366D01*
X-28820973Y18818353D01*
X-28818014Y18898779D01*
X-28818014Y19379449D01*
X-28820094Y19438202D01*
X-28824182Y19460293D01*
X-28832735Y19474968D01*
X-28847079Y19487710D01*
X-28864901Y19496125D01*
X-28885670Y19499006D01*
X-28921798Y19494168D01*
X-28970422Y19477146D01*
X-28982695Y19500593D01*
X-28641793Y19656909D01*
X-28619262Y19656909D01*
G37*
G36*
X-32534648Y18250632D02*
G01*
X-32534648Y17930185D01*
X-32561271Y17930185D01*
X-32580527Y17992409D01*
X-32605772Y18044662D01*
X-32636677Y18088334D01*
X-32673317Y18124480D01*
X-32730863Y18162241D01*
X-32792276Y18184500D01*
X-32859125Y18192014D01*
X-32915378Y18186429D01*
X-32968073Y18169840D01*
X-33018249Y18141822D01*
X-33062344Y18104814D01*
X-33097420Y18061331D01*
X-33124128Y18010602D01*
X-33147681Y17940210D01*
X-33162183Y17863557D01*
X-33167176Y17779671D01*
X-33163504Y17696727D01*
X-33152883Y17621041D01*
X-33135791Y17551853D01*
X-33109634Y17486493D01*
X-33076765Y17435535D01*
X-33037422Y17396576D01*
X-32990187Y17368172D01*
X-32933161Y17350351D01*
X-32863887Y17344002D01*
X-32806558Y17348368D01*
X-32753431Y17361181D01*
X-32703725Y17382348D01*
X-32657872Y17411477D01*
X-32607017Y17454570D01*
X-32550341Y17514667D01*
X-32550341Y17434739D01*
X-32604751Y17385694D01*
X-32658716Y17348113D01*
X-32712579Y17320738D01*
X-32769882Y17301630D01*
X-32835162Y17289606D01*
X-32909683Y17285384D01*
X-33007037Y17292290D01*
X-33094293Y17312243D01*
X-33173038Y17344613D01*
X-33227720Y17377756D01*
X-33275174Y17416944D01*
X-33316033Y17462442D01*
X-33350663Y17514789D01*
X-33385507Y17590733D01*
X-33406193Y17669096D01*
X-33413128Y17750972D01*
X-33405486Y17837188D01*
X-33382598Y17920295D01*
X-33343825Y18001504D01*
X-33305795Y18057822D01*
X-33262125Y18106892D01*
X-33212555Y18149273D01*
X-33156612Y18185297D01*
X-33076006Y18221741D01*
X-32992932Y18243379D01*
X-32906264Y18250632D01*
X-32841738Y18246469D01*
X-32773192Y18233558D01*
X-32699939Y18211064D01*
X-32642221Y18192098D01*
X-32620011Y18188106D01*
X-32599611Y18191842D01*
X-32582092Y18203066D01*
X-32569418Y18221217D01*
X-32561271Y18250632D01*
X-32534648Y18250632D01*
G37*
G36*
X-32002626Y18250632D02*
G01*
X-32002626Y17492502D01*
X-32000138Y17413925D01*
X-31995116Y17382471D01*
X-31983768Y17361173D01*
X-31963730Y17343514D01*
X-31935743Y17332810D01*
X-31887160Y17328371D01*
X-31865972Y17328371D01*
X-31865972Y17304923D01*
X-32353725Y17304923D01*
X-32353725Y17328371D01*
X-32329118Y17328371D01*
X-32274242Y17332517D01*
X-32244426Y17342171D01*
X-32223005Y17358827D01*
X-32210294Y17380089D01*
X-32204337Y17412076D01*
X-32201379Y17492502D01*
X-32201379Y17973172D01*
X-32203459Y18031925D01*
X-32207546Y18054016D01*
X-32216099Y18068691D01*
X-32230444Y18081433D01*
X-32248265Y18089848D01*
X-32269034Y18092729D01*
X-32305162Y18087891D01*
X-32353786Y18070869D01*
X-32366059Y18094316D01*
X-32025157Y18250632D01*
X-32002626Y18250632D01*
G37*
D11*
X-29506658Y34366296D02*
X-28697135Y34366296D01*
X-28697135Y34366296D02*
X-28601897Y34413915D01*
X-28601897Y34413915D02*
X-28554277Y34461534D01*
X-28554277Y34461534D02*
X-28506658Y34556772D01*
X-28506658Y34556772D02*
X-28506658Y34747248D01*
X-28506658Y34747248D02*
X-28554277Y34842486D01*
X-28554277Y34842486D02*
X-28601897Y34890105D01*
X-28601897Y34890105D02*
X-28697135Y34937724D01*
X-28697135Y34937724D02*
X-29506658Y34937724D01*
X-28506658Y35937724D02*
X-28506658Y35366296D01*
X-28506658Y35652010D02*
X-29506658Y35652010D01*
X-29506658Y35652010D02*
X-29363801Y35556772D01*
X-29363801Y35556772D02*
X-29268563Y35461534D01*
X-29268563Y35461534D02*
X-29220944Y35366296D01*
D10*
G36*
X-48608298Y26929122D02*
G01*
X-48608298Y26952569D01*
X-48115782Y26952569D01*
X-48115782Y26929122D01*
X-48145824Y26929122D01*
X-48184268Y26925089D01*
X-48211403Y26914406D01*
X-48226301Y26901660D01*
X-48238758Y26880701D01*
X-48243709Y26857237D01*
X-48246269Y26792346D01*
X-48246269Y26340802D01*
X-48250019Y26251541D01*
X-48259611Y26189449D01*
X-48272952Y26147972D01*
X-48294558Y26111010D01*
X-48325578Y26077551D01*
X-48367535Y26047283D01*
X-48414416Y26025355D01*
X-48468453Y26011669D01*
X-48531117Y26006861D01*
X-48589262Y26011083D01*
X-48639288Y26023072D01*
X-48682529Y26042196D01*
X-48720039Y26068349D01*
X-48761636Y26113002D01*
X-48784640Y26157820D01*
X-48792091Y26204392D01*
X-48788636Y26235060D01*
X-48778808Y26260522D01*
X-48762720Y26281940D01*
X-48741617Y26298506D01*
X-48717988Y26308318D01*
X-48690974Y26311676D01*
X-48652393Y26304780D01*
X-48620998Y26284504D01*
X-48599724Y26254296D01*
X-48592605Y26217704D01*
X-48597368Y26183632D01*
X-48618922Y26148461D01*
X-48634182Y26121715D01*
X-48637668Y26108466D01*
X-48633466Y26092028D01*
X-48619899Y26077142D01*
X-48591106Y26062851D01*
X-48552305Y26057664D01*
X-48524915Y26061603D01*
X-48503823Y26072685D01*
X-48488009Y26091059D01*
X-48476834Y26119579D01*
X-48471681Y26164998D01*
X-48468957Y26296411D01*
X-48468957Y26792346D01*
X-48471613Y26858616D01*
X-48476834Y26883510D01*
X-48487840Y26900011D01*
X-48507548Y26915444D01*
X-48532929Y26925357D01*
X-48569341Y26929122D01*
X-48608298Y26929122D01*
G37*
G36*
X-47651965Y26972109D02*
G01*
X-47651965Y26213979D01*
X-47649477Y26135402D01*
X-47644454Y26103948D01*
X-47633107Y26082650D01*
X-47613069Y26064991D01*
X-47585082Y26054287D01*
X-47536499Y26049848D01*
X-47515311Y26049848D01*
X-47515311Y26026400D01*
X-48003064Y26026400D01*
X-48003064Y26049848D01*
X-47978457Y26049848D01*
X-47923581Y26053994D01*
X-47893765Y26063648D01*
X-47872344Y26080304D01*
X-47859632Y26101566D01*
X-47853676Y26133553D01*
X-47850718Y26213979D01*
X-47850718Y26694649D01*
X-47852797Y26753402D01*
X-47856885Y26775493D01*
X-47865438Y26790168D01*
X-47879782Y26802910D01*
X-47897604Y26811325D01*
X-47918373Y26814206D01*
X-47954501Y26809368D01*
X-48003125Y26792346D01*
X-48015398Y26815793D01*
X-47674496Y26972109D01*
X-47651965Y26972109D01*
G37*
G36*
X-11105600Y34518498D02*
G01*
X-11026239Y34510113D01*
X-10973051Y34498505D01*
X-10923982Y34478496D01*
X-10881941Y34450084D01*
X-10845984Y34412776D01*
X-10818755Y34368976D01*
X-10802384Y34320591D01*
X-10796769Y34266291D01*
X-10801531Y34216512D01*
X-10815344Y34172392D01*
X-10838106Y34132767D01*
X-10870530Y34096848D01*
X-10904032Y34072239D01*
X-10947309Y34050912D01*
X-11002360Y34033345D01*
X-10779672Y33719432D01*
X-10738107Y33668601D01*
X-10717512Y33648540D01*
X-10687569Y33633329D01*
X-10652605Y33626864D01*
X-10652605Y33595600D01*
X-10944292Y33595600D01*
X-11242818Y34017652D01*
X-11303634Y34017652D01*
X-11303634Y33755824D01*
X-11300552Y33687792D01*
X-11294414Y33661546D01*
X-11282091Y33644506D01*
X-11261991Y33630588D01*
X-11233590Y33622645D01*
X-11175223Y33619048D01*
X-11175223Y33595600D01*
X-11649299Y33595600D01*
X-11649299Y33619048D01*
X-11590363Y33622778D01*
X-11562226Y33630955D01*
X-11542344Y33645040D01*
X-11530108Y33661912D01*
X-11523980Y33687833D01*
X-11520888Y33755824D01*
X-11520888Y34068455D01*
X-11303634Y34068455D01*
X-11264677Y34068455D01*
X-11175823Y34073530D01*
X-11122650Y34085735D01*
X-11093553Y34100283D01*
X-11069020Y34120841D01*
X-11048522Y34148078D01*
X-11034169Y34179271D01*
X-11024893Y34217891D01*
X-11021534Y34265620D01*
X-11027912Y34333969D01*
X-11044991Y34384239D01*
X-11071054Y34420836D01*
X-11107426Y34447029D01*
X-11158884Y34464405D01*
X-11230544Y34470967D01*
X-11303634Y34470967D01*
X-11303634Y34068455D01*
X-11520888Y34068455D01*
X-11520888Y34361546D01*
X-11523972Y34429571D01*
X-11530108Y34455763D01*
X-11542449Y34472836D01*
X-11562592Y34486721D01*
X-11590943Y34494704D01*
X-11649299Y34498322D01*
X-11649299Y34521769D01*
X-11218943Y34521769D01*
X-11105600Y34518498D01*
G37*
G36*
X-10209426Y34541309D02*
G01*
X-10209426Y33783179D01*
X-10206938Y33704602D01*
X-10201916Y33673148D01*
X-10190568Y33651850D01*
X-10170530Y33634191D01*
X-10142543Y33623487D01*
X-10093960Y33619048D01*
X-10072772Y33619048D01*
X-10072772Y33595600D01*
X-10560525Y33595600D01*
X-10560525Y33619048D01*
X-10535918Y33619048D01*
X-10481042Y33623194D01*
X-10451226Y33632848D01*
X-10429805Y33649504D01*
X-10417094Y33670766D01*
X-10411137Y33702753D01*
X-10408179Y33783179D01*
X-10408179Y34263849D01*
X-10410259Y34322602D01*
X-10414346Y34344693D01*
X-10422899Y34359368D01*
X-10437244Y34372110D01*
X-10455065Y34380525D01*
X-10475834Y34383406D01*
X-10511962Y34378568D01*
X-10560586Y34361546D01*
X-10572859Y34384993D01*
X-10231957Y34541309D01*
X-10209426Y34541309D01*
G37*
D12*
%TO.C,G\u002A\u002A\u002A*%
G36*
X-40471150Y33524425D02*
G01*
X-40482834Y33512742D01*
X-40494517Y33524425D01*
X-40482834Y33536109D01*
X-40471150Y33524425D01*
G37*
G36*
X-37900773Y33524425D02*
G01*
X-37912456Y33512742D01*
X-37924140Y33524425D01*
X-37912456Y33536109D01*
X-37900773Y33524425D01*
G37*
G36*
X-40525673Y33528320D02*
G01*
X-40528881Y33514428D01*
X-40541251Y33512742D01*
X-40560485Y33521292D01*
X-40556829Y33528320D01*
X-40529098Y33531117D01*
X-40525673Y33528320D01*
G37*
G36*
X-37838461Y33528320D02*
G01*
X-37841668Y33514428D01*
X-37854039Y33512742D01*
X-37873273Y33521292D01*
X-37869617Y33528320D01*
X-37841886Y33531117D01*
X-37838461Y33528320D01*
G37*
G36*
X-30804469Y32350565D02*
G01*
X-30797185Y32321022D01*
X-30815176Y32285595D01*
X-30854670Y32272775D01*
X-30893954Y32287387D01*
X-30902337Y32297655D01*
X-30905893Y32336393D01*
X-30873367Y32362902D01*
X-30842540Y32367756D01*
X-30804469Y32350565D01*
G37*
G36*
X-30674508Y32363539D02*
G01*
X-30633402Y32344441D01*
X-30621932Y32321022D01*
X-30641823Y32290793D01*
X-30674508Y32278504D01*
X-30715519Y32282827D01*
X-30727072Y32318930D01*
X-30727084Y32321022D01*
X-30716411Y32358496D01*
X-30676710Y32363840D01*
X-30674508Y32363539D01*
G37*
G36*
X-30657065Y32223651D02*
G01*
X-30643110Y32205675D01*
X-30636134Y32164227D01*
X-30633788Y32089904D01*
X-30633616Y32040617D01*
X-30634591Y31947477D01*
X-30639085Y31891656D01*
X-30649447Y31863753D01*
X-30668028Y31854368D01*
X-30680350Y31853680D01*
X-30703635Y31857583D01*
X-30717590Y31875558D01*
X-30724566Y31917007D01*
X-30726912Y31991330D01*
X-30727084Y32040617D01*
X-30726108Y32133757D01*
X-30721614Y32189578D01*
X-30711252Y32217480D01*
X-30692672Y32226865D01*
X-30680350Y32227553D01*
X-30657065Y32223651D01*
G37*
G36*
X-31478469Y32411739D02*
G01*
X-31465239Y32398322D01*
X-31457216Y32366496D01*
X-31453110Y32308516D01*
X-31451629Y32216636D01*
X-31451463Y32134085D01*
X-31451921Y32015718D01*
X-31454157Y31936339D01*
X-31459462Y31888202D01*
X-31469125Y31863562D01*
X-31484438Y31854677D01*
X-31498197Y31853680D01*
X-31517925Y31856431D01*
X-31531155Y31869848D01*
X-31539178Y31901674D01*
X-31543284Y31959654D01*
X-31544765Y32051534D01*
X-31544931Y32134085D01*
X-31544473Y32252452D01*
X-31542237Y32331832D01*
X-31536932Y32379969D01*
X-31527269Y32404608D01*
X-31511956Y32413493D01*
X-31498197Y32414490D01*
X-31478469Y32411739D01*
G37*
G36*
X-30809529Y32227383D02*
G01*
X-30801783Y32197043D01*
X-30798211Y32138283D01*
X-30797219Y32043223D01*
X-30797185Y32003379D01*
X-30798255Y31890860D01*
X-30802546Y31814990D01*
X-30811678Y31765712D01*
X-30827275Y31732967D01*
X-30843919Y31713478D01*
X-30899976Y31676566D01*
X-30957226Y31667200D01*
X-30991911Y31682322D01*
X-31007946Y31721562D01*
X-30988953Y31753331D01*
X-30963255Y31760212D01*
X-30931432Y31767016D01*
X-30910256Y31792326D01*
X-30897735Y31843491D01*
X-30891879Y31927858D01*
X-30890653Y32028119D01*
X-30889561Y32124209D01*
X-30884796Y32183429D01*
X-30874129Y32215622D01*
X-30855329Y32230632D01*
X-30843919Y32234324D01*
X-30823042Y32237183D01*
X-30809529Y32227383D01*
G37*
G36*
X-31094216Y32230469D02*
G01*
X-31021183Y32177113D01*
X-30973031Y32102848D01*
X-30960755Y32040617D01*
X-30981608Y31960056D01*
X-31029058Y31898617D01*
X-31113556Y31842460D01*
X-31205216Y31830494D01*
X-31295698Y31863064D01*
X-31326952Y31886251D01*
X-31372061Y31936829D01*
X-31390089Y31997462D01*
X-31391983Y32040617D01*
X-31287893Y32040617D01*
X-31270350Y31971609D01*
X-31226432Y31931469D01*
X-31169208Y31923999D01*
X-31111747Y31953004D01*
X-31087125Y31982199D01*
X-31062401Y32027933D01*
X-31066400Y32063893D01*
X-31087125Y32099035D01*
X-31139835Y32147601D01*
X-31198810Y32157802D01*
X-31250982Y32133440D01*
X-31283280Y32078319D01*
X-31287893Y32040617D01*
X-31391983Y32040617D01*
X-31371745Y32136926D01*
X-31315544Y32207608D01*
X-31230148Y32245961D01*
X-31179641Y32250920D01*
X-31094216Y32230469D01*
G37*
G36*
X-39442999Y33769780D02*
G01*
X-39442999Y33629577D01*
X-39805189Y33629577D01*
X-40167378Y33629577D01*
X-40167378Y33407590D01*
X-40167378Y33185603D01*
X-39805189Y33185603D01*
X-39442999Y33185603D01*
X-39442999Y32683211D01*
X-39442999Y32180819D01*
X-39583202Y32180819D01*
X-39723404Y32180819D01*
X-39723404Y32543009D01*
X-39723404Y32905198D01*
X-39945391Y32905198D01*
X-40167378Y32905198D01*
X-40167378Y32543009D01*
X-40167378Y32180819D01*
X-40295897Y32180819D01*
X-40424416Y32180819D01*
X-40426574Y32420332D01*
X-40427580Y32563451D01*
X-40428315Y32732647D01*
X-40428778Y32917556D01*
X-40428965Y33107813D01*
X-40428873Y33293055D01*
X-40428502Y33462917D01*
X-40427847Y33607035D01*
X-40426907Y33715045D01*
X-40426880Y33717204D01*
X-40424416Y33909982D01*
X-39933708Y33909982D01*
X-39442999Y33909982D01*
X-39442999Y33769780D01*
G37*
G36*
X-31742931Y32230423D02*
G01*
X-31679120Y32178412D01*
X-31632107Y32109108D01*
X-31615032Y32040617D01*
X-31635472Y31955221D01*
X-31689229Y31888772D01*
X-31764956Y31846455D01*
X-31851306Y31833457D01*
X-31936936Y31854963D01*
X-31972277Y31877332D01*
X-32031559Y31947976D01*
X-32051933Y32027691D01*
X-32049576Y32040617D01*
X-31942171Y32040617D01*
X-31924628Y31971609D01*
X-31880709Y31931469D01*
X-31823485Y31923999D01*
X-31766025Y31953004D01*
X-31741402Y31982199D01*
X-31716679Y32027933D01*
X-31720677Y32063893D01*
X-31741402Y32099035D01*
X-31794113Y32147601D01*
X-31853088Y32157802D01*
X-31905260Y32133440D01*
X-31937558Y32078319D01*
X-31942171Y32040617D01*
X-32049576Y32040617D01*
X-32037444Y32107141D01*
X-31992140Y32176990D01*
X-31920069Y32227901D01*
X-31825276Y32250539D01*
X-31810334Y32250920D01*
X-31742931Y32230423D01*
G37*
G36*
X-33045059Y32229387D02*
G01*
X-32988706Y32184950D01*
X-32958168Y32120501D01*
X-32960606Y32052780D01*
X-32983271Y32008481D01*
X-33030435Y31994172D01*
X-33043155Y31993883D01*
X-33088722Y31997397D01*
X-33096162Y32013997D01*
X-33083668Y32037522D01*
X-33066531Y32093749D01*
X-33083526Y32137079D01*
X-33128184Y32154134D01*
X-33139629Y32153249D01*
X-33182795Y32131424D01*
X-33199839Y32080096D01*
X-33193049Y32008003D01*
X-33150415Y31960513D01*
X-33068048Y31933491D01*
X-33060756Y31932269D01*
X-32992406Y31913178D01*
X-32967965Y31889426D01*
X-32986017Y31867744D01*
X-33045149Y31854866D01*
X-33077271Y31853680D01*
X-33156019Y31860561D01*
X-33213416Y31887481D01*
X-33252524Y31921984D01*
X-33308270Y32003265D01*
X-33319616Y32087108D01*
X-33286304Y32167094D01*
X-33263473Y32193565D01*
X-33192996Y32238600D01*
X-33116674Y32248906D01*
X-33045059Y32229387D01*
G37*
G36*
X-33471117Y32354064D02*
G01*
X-33461031Y32309338D01*
X-33450077Y32263529D01*
X-33414296Y32250920D01*
X-33375243Y32234397D01*
X-33367562Y32204186D01*
X-33384085Y32165133D01*
X-33414296Y32157452D01*
X-33443268Y32150723D01*
X-33457118Y32122658D01*
X-33460991Y32061440D01*
X-33461031Y32050113D01*
X-33457170Y31980986D01*
X-33442200Y31945199D01*
X-33414296Y31930552D01*
X-33376113Y31901982D01*
X-33367562Y31874322D01*
X-33385599Y31840905D01*
X-33428995Y31829893D01*
X-33481683Y31842068D01*
X-33517779Y31867033D01*
X-33544761Y31924150D01*
X-33554471Y32023709D01*
X-33554499Y32030602D01*
X-33558388Y32100462D01*
X-33568408Y32146534D01*
X-33577866Y32157452D01*
X-33596851Y32177023D01*
X-33601233Y32204186D01*
X-33591447Y32242157D01*
X-33577866Y32250920D01*
X-33560300Y32270918D01*
X-33554499Y32309338D01*
X-33543546Y32355147D01*
X-33507765Y32367756D01*
X-33471117Y32354064D01*
G37*
G36*
X-38718620Y33547793D02*
G01*
X-38718620Y33185603D01*
X-38496633Y33185603D01*
X-38274646Y33185603D01*
X-38274646Y33547793D01*
X-38274646Y33909982D01*
X-38134444Y33909982D01*
X-37994241Y33909982D01*
X-37994241Y33724993D01*
X-37990802Y33615931D01*
X-37980260Y33550843D01*
X-37965032Y33528218D01*
X-37947813Y33517660D01*
X-37965032Y33514587D01*
X-37973943Y33503793D01*
X-37980979Y33469966D01*
X-37986318Y33409059D01*
X-37990135Y33317027D01*
X-37992609Y33189823D01*
X-37993916Y33023401D01*
X-37994241Y32846781D01*
X-37994241Y32180819D01*
X-38496633Y32180819D01*
X-38999025Y32180819D01*
X-38999025Y32321022D01*
X-38999025Y32461224D01*
X-38636835Y32461224D01*
X-38274646Y32461224D01*
X-38274646Y32683211D01*
X-38274646Y32905198D01*
X-38636835Y32905198D01*
X-38999025Y32905198D01*
X-38999025Y33407590D01*
X-38999025Y33909982D01*
X-38858823Y33909982D01*
X-38718620Y33909982D01*
X-38718620Y33547793D01*
G37*
G36*
X-32810084Y32410802D02*
G01*
X-32793900Y32393101D01*
X-32784969Y32351432D01*
X-32779827Y32275837D01*
X-32778568Y32246571D01*
X-32771702Y32078653D01*
X-32713284Y32164627D01*
X-32655406Y32229427D01*
X-32602291Y32250761D01*
X-32563556Y32246861D01*
X-32553778Y32229608D01*
X-32573558Y32191150D01*
X-32610750Y32140261D01*
X-32671784Y32060240D01*
X-32597614Y31956960D01*
X-32523444Y31853680D01*
X-32583167Y31853680D01*
X-32634530Y31868576D01*
X-32687831Y31917872D01*
X-32713138Y31950655D01*
X-32783386Y32047629D01*
X-32783386Y31950655D01*
X-32786604Y31888697D01*
X-32800842Y31860606D01*
X-32832978Y31853698D01*
X-32835962Y31853680D01*
X-32858116Y31855427D01*
X-32872968Y31865857D01*
X-32881976Y31892756D01*
X-32886600Y31943907D01*
X-32888301Y32027095D01*
X-32888537Y32134085D01*
X-32888189Y32252261D01*
X-32886189Y32331484D01*
X-32881108Y32379536D01*
X-32871514Y32404199D01*
X-32855978Y32413253D01*
X-32836985Y32414490D01*
X-32810084Y32410802D01*
G37*
G36*
X-32185535Y32242749D02*
G01*
X-32135006Y32213257D01*
X-32104836Y32154983D01*
X-32089353Y32060464D01*
X-32086486Y32019797D01*
X-32082560Y31933466D01*
X-32084588Y31883720D01*
X-32094981Y31860548D01*
X-32116149Y31853936D01*
X-32126471Y31853680D01*
X-32157018Y31859707D01*
X-32171588Y31885827D01*
X-32175763Y31944103D01*
X-32175842Y31960368D01*
X-32185624Y32064226D01*
X-32213970Y32130929D01*
X-32259379Y32157176D01*
X-32265459Y32157452D01*
X-32318152Y32142340D01*
X-32349557Y32093848D01*
X-32362234Y32007244D01*
X-32362778Y31977526D01*
X-32364964Y31904912D01*
X-32374348Y31867702D01*
X-32395171Y31854659D01*
X-32409513Y31853680D01*
X-32432236Y31857376D01*
X-32446116Y31874557D01*
X-32453303Y31914360D01*
X-32455946Y31985924D01*
X-32456247Y32052300D01*
X-32455313Y32149032D01*
X-32451140Y32208134D01*
X-32441666Y32238696D01*
X-32424831Y32249806D01*
X-32411226Y32250920D01*
X-32368934Y32232586D01*
X-32355519Y32210028D01*
X-32346638Y32181229D01*
X-32342977Y32197823D01*
X-32342122Y32210028D01*
X-32325972Y32239959D01*
X-32276560Y32250656D01*
X-32262093Y32250920D01*
X-32185535Y32242749D01*
G37*
G36*
X-37012824Y33605148D02*
G01*
X-37012824Y33043276D01*
X-36955469Y32985921D01*
X-36882502Y32943089D01*
X-36791180Y32930604D01*
X-36696202Y32945813D01*
X-36612265Y32986064D01*
X-36554068Y33048706D01*
X-36548721Y33059310D01*
X-36538546Y33107294D01*
X-36530752Y33200471D01*
X-36525407Y33337353D01*
X-36522578Y33516456D01*
X-36522116Y33642360D01*
X-36522116Y34167020D01*
X-36253395Y34167020D01*
X-35984674Y34167020D01*
X-35984804Y33284913D01*
X-35985570Y33025195D01*
X-35987752Y32801875D01*
X-35991295Y32616971D01*
X-35996148Y32472502D01*
X-36002257Y32370487D01*
X-36009568Y32312947D01*
X-36010466Y32309338D01*
X-36068710Y32177426D01*
X-36163688Y32074321D01*
X-36258031Y32016208D01*
X-36305291Y31995447D01*
X-36353356Y31980484D01*
X-36411316Y31970189D01*
X-36488264Y31963435D01*
X-36593289Y31959094D01*
X-36735482Y31956037D01*
X-36744103Y31955892D01*
X-36880336Y31955042D01*
X-37008042Y31956849D01*
X-37116334Y31960971D01*
X-37194325Y31967065D01*
X-37218823Y31970801D01*
X-37358661Y32017767D01*
X-37460629Y32091832D01*
X-37524437Y32192672D01*
X-37549796Y32319962D01*
X-37550267Y32342152D01*
X-37550267Y32461224D01*
X-37296150Y32461224D01*
X-37042033Y32461224D01*
X-37028389Y32393002D01*
X-37010082Y32345346D01*
X-36972658Y32314354D01*
X-36908166Y32297038D01*
X-36808659Y32290407D01*
X-36754786Y32290088D01*
X-36650555Y32292586D01*
X-36579295Y32303878D01*
X-36534755Y32331447D01*
X-36510686Y32382778D01*
X-36500839Y32465354D01*
X-36498963Y32586658D01*
X-36498968Y32596407D01*
X-36499188Y32846781D01*
X-36566322Y32729741D01*
X-36628729Y32640903D01*
X-36701923Y32581583D01*
X-36795839Y32547070D01*
X-36920411Y32532652D01*
X-36984408Y32531456D01*
X-37140053Y32538408D01*
X-37259868Y32560747D01*
X-37352975Y32601077D01*
X-37423391Y32656813D01*
X-37458520Y32697194D01*
X-37486648Y32744164D01*
X-37508519Y32803099D01*
X-37524878Y32879375D01*
X-37536471Y32978370D01*
X-37544042Y33105460D01*
X-37548337Y33266021D01*
X-37550100Y33465431D01*
X-37550267Y33572310D01*
X-37550267Y34167020D01*
X-37281546Y34167020D01*
X-37012824Y34167020D01*
X-37012824Y33605148D01*
G37*
G36*
X-33080681Y34160111D02*
G01*
X-32951309Y34152845D01*
X-32856883Y34142952D01*
X-32785621Y34128382D01*
X-32725740Y34107085D01*
X-32696339Y34093250D01*
X-32590245Y34024558D01*
X-32523660Y33940556D01*
X-32489692Y33831512D01*
X-32485061Y33794887D01*
X-32473668Y33676311D01*
X-32716153Y33676459D01*
X-32958639Y33676607D01*
X-32998444Y33746560D01*
X-33020329Y33781336D01*
X-33044849Y33802120D01*
X-33083654Y33812512D01*
X-33148397Y33816109D01*
X-33224948Y33816514D01*
X-33320326Y33815140D01*
X-33380562Y33809227D01*
X-33417211Y33796082D01*
X-33441827Y33773018D01*
X-33448022Y33764580D01*
X-33479768Y33704473D01*
X-33474448Y33654513D01*
X-33443505Y33609514D01*
X-33422224Y33589856D01*
X-33391058Y33574948D01*
X-33342134Y33563271D01*
X-33267585Y33553310D01*
X-33159538Y33543547D01*
X-33063790Y33536311D01*
X-32870565Y33517902D01*
X-32718985Y33491814D01*
X-32604174Y33454786D01*
X-32521253Y33403553D01*
X-32465344Y33334855D01*
X-32431567Y33245429D01*
X-32415045Y33132012D01*
X-32413122Y33101198D01*
X-32419157Y32929653D01*
X-32457454Y32790289D01*
X-32529719Y32679930D01*
X-32637657Y32595396D01*
X-32701601Y32563508D01*
X-32768717Y32545511D01*
X-32871645Y32531124D01*
X-32999585Y32520610D01*
X-33141734Y32514235D01*
X-33287292Y32512263D01*
X-33425456Y32514960D01*
X-33545426Y32522588D01*
X-33636399Y32535415D01*
X-33655737Y32540122D01*
X-33792038Y32595024D01*
X-33890190Y32674707D01*
X-33954090Y32783554D01*
X-33985673Y32911040D01*
X-34001337Y33022034D01*
X-33735401Y33022034D01*
X-33469464Y33022034D01*
X-33436039Y32946177D01*
X-33402881Y32892310D01*
X-33353549Y32864188D01*
X-33309145Y32854053D01*
X-33183989Y32843180D01*
X-33074492Y32854186D01*
X-32987478Y32884254D01*
X-32929771Y32930568D01*
X-32908192Y32990312D01*
X-32911417Y33018217D01*
X-32925709Y33064236D01*
X-32947390Y33097809D01*
X-32983692Y33121500D01*
X-33041846Y33137871D01*
X-33129084Y33149483D01*
X-33252636Y33158899D01*
X-33319972Y33162984D01*
X-33460998Y33172357D01*
X-33565191Y33182555D01*
X-33642447Y33195234D01*
X-33702658Y33212051D01*
X-33755719Y33234662D01*
X-33759529Y33236559D01*
X-33846810Y33287675D01*
X-33905752Y33344404D01*
X-33942175Y33417471D01*
X-33961898Y33517602D01*
X-33969528Y33623628D01*
X-33966303Y33785719D01*
X-33938157Y33911659D01*
X-33880918Y34006377D01*
X-33790409Y34074803D01*
X-33662457Y34121865D01*
X-33525318Y34148165D01*
X-33429696Y34157072D01*
X-33305758Y34162061D01*
X-33171795Y34162642D01*
X-33080681Y34160111D01*
G37*
G36*
X-31208029Y34149664D02*
G01*
X-31051380Y34136094D01*
X-30928610Y34111364D01*
X-30833547Y34073342D01*
X-30760019Y34019899D01*
X-30701856Y33948905D01*
X-30674479Y33902172D01*
X-30659144Y33871022D01*
X-30647070Y33838275D01*
X-30637773Y33797958D01*
X-30630768Y33744097D01*
X-30625572Y33670716D01*
X-30621698Y33571841D01*
X-30618663Y33441499D01*
X-30615983Y33273714D01*
X-30614470Y33162236D01*
X-30606008Y32519642D01*
X-30871008Y32519642D01*
X-31136008Y32519642D01*
X-31129112Y32659844D01*
X-31122216Y32800046D01*
X-31175846Y32708775D01*
X-31226701Y32631543D01*
X-31279451Y32578202D01*
X-31344227Y32544230D01*
X-31431160Y32525107D01*
X-31550383Y32516309D01*
X-31610820Y32514639D01*
X-31721973Y32514896D01*
X-31822562Y32519582D01*
X-31899102Y32527837D01*
X-31930488Y32535033D01*
X-32032997Y32594025D01*
X-32117445Y32683567D01*
X-32170275Y32788821D01*
X-32173699Y32801217D01*
X-32197745Y32955368D01*
X-32196184Y33026550D01*
X-31661409Y33026550D01*
X-31652894Y32943042D01*
X-31621804Y32893118D01*
X-31558526Y32865462D01*
X-31517709Y32857382D01*
X-31430865Y32844153D01*
X-31373238Y32839232D01*
X-31328049Y32842663D01*
X-31278516Y32854490D01*
X-31266015Y32858037D01*
X-31197321Y32885868D01*
X-31161399Y32927801D01*
X-31148738Y32997424D01*
X-31148049Y33026550D01*
X-31159195Y33099074D01*
X-31197102Y33147376D01*
X-31267409Y33174952D01*
X-31375753Y33185294D01*
X-31404729Y33185603D01*
X-31522039Y33178528D01*
X-31600092Y33154975D01*
X-31644528Y33111450D01*
X-31660982Y33044460D01*
X-31661409Y33026550D01*
X-32196184Y33026550D01*
X-32194442Y33105958D01*
X-32164639Y33237971D01*
X-32146633Y33279962D01*
X-32071797Y33377506D01*
X-31960344Y33449057D01*
X-31815091Y33493705D01*
X-31638854Y33510539D01*
X-31460650Y33501653D01*
X-31369088Y33488923D01*
X-31307347Y33470246D01*
X-31258523Y33438880D01*
X-31224776Y33407564D01*
X-31147691Y33330479D01*
X-31147691Y33536750D01*
X-31148584Y33636602D01*
X-31153099Y33701123D01*
X-31163991Y33741709D01*
X-31184014Y33769754D01*
X-31209260Y33791451D01*
X-31280128Y33827175D01*
X-31363951Y33840713D01*
X-31448863Y33834228D01*
X-31522997Y33809883D01*
X-31574488Y33769843D01*
X-31591665Y33721721D01*
X-31594809Y33702193D01*
X-31609498Y33689230D01*
X-31643617Y33681499D01*
X-31705052Y33677666D01*
X-31801690Y33676399D01*
X-31860387Y33676311D01*
X-32129108Y33676311D01*
X-32129108Y33770940D01*
X-32119219Y33853603D01*
X-32095025Y33930986D01*
X-32091160Y33938952D01*
X-32045180Y34010474D01*
X-31986500Y34065146D01*
X-31908991Y34104890D01*
X-31806521Y34131628D01*
X-31672962Y34147283D01*
X-31502183Y34153776D01*
X-31404729Y34154202D01*
X-31208029Y34149664D01*
G37*
G36*
X-34858369Y34153198D02*
G01*
X-34727304Y34147433D01*
X-34617350Y34137755D01*
X-34539785Y34124165D01*
X-34535916Y34123083D01*
X-34397619Y34062643D01*
X-34292577Y33972301D01*
X-34241274Y33893776D01*
X-34228028Y33863134D01*
X-34217535Y33826747D01*
X-34209384Y33778778D01*
X-34203164Y33713395D01*
X-34198464Y33624761D01*
X-34194875Y33507043D01*
X-34191985Y33354406D01*
X-34189383Y33161015D01*
X-34189318Y33155611D01*
X-34181544Y32506391D01*
X-34445083Y32513017D01*
X-34708622Y32519642D01*
X-34703324Y32659844D01*
X-34698025Y32800046D01*
X-34751331Y32708775D01*
X-34801898Y32631682D01*
X-34854652Y32578320D01*
X-34919687Y32544148D01*
X-35007097Y32524626D01*
X-35126976Y32515214D01*
X-35185981Y32513270D01*
X-35307681Y32511781D01*
X-35394907Y32515501D01*
X-35459759Y32525762D01*
X-35514335Y32543895D01*
X-35530852Y32551227D01*
X-35641054Y32624277D01*
X-35717258Y32726067D01*
X-35760304Y32858433D01*
X-35771026Y33023212D01*
X-35770859Y33026550D01*
X-35236570Y33026550D01*
X-35228171Y32943216D01*
X-35197815Y32893212D01*
X-35136468Y32864957D01*
X-35105001Y32857869D01*
X-35021921Y32843441D01*
X-34962510Y32839609D01*
X-34904932Y32846325D01*
X-34853794Y32857332D01*
X-34778966Y32882643D01*
X-34739096Y32922758D01*
X-34724309Y32990475D01*
X-34723210Y33026550D01*
X-34734356Y33099074D01*
X-34772263Y33147376D01*
X-34842570Y33174952D01*
X-34950914Y33185294D01*
X-34979890Y33185603D01*
X-35097200Y33178528D01*
X-35175253Y33154975D01*
X-35219689Y33111450D01*
X-35236143Y33044460D01*
X-35236570Y33026550D01*
X-35770859Y33026550D01*
X-35768543Y33072719D01*
X-35748523Y33208577D01*
X-35706764Y33310275D01*
X-35637558Y33387553D01*
X-35552292Y33441622D01*
X-35493658Y33469092D01*
X-35437895Y33486595D01*
X-35371804Y33496303D01*
X-35282186Y33500384D01*
X-35190817Y33501058D01*
X-35043060Y33497281D01*
X-34933737Y33484444D01*
X-34855044Y33460295D01*
X-34799181Y33422580D01*
X-34763456Y33377589D01*
X-34744999Y33349729D01*
X-34733425Y33342685D01*
X-34727087Y33362675D01*
X-34724339Y33415916D01*
X-34723535Y33508627D01*
X-34723474Y33528571D01*
X-34723971Y33630548D01*
X-34727891Y33696867D01*
X-34737799Y33738598D01*
X-34756261Y33766809D01*
X-34784421Y33791451D01*
X-34855289Y33827175D01*
X-34939112Y33840713D01*
X-35024024Y33834228D01*
X-35098158Y33809883D01*
X-35149649Y33769843D01*
X-35166826Y33721721D01*
X-35169970Y33702193D01*
X-35184659Y33689230D01*
X-35218778Y33681499D01*
X-35280213Y33677666D01*
X-35376851Y33676399D01*
X-35435548Y33676311D01*
X-35704269Y33676311D01*
X-35704269Y33758847D01*
X-35683049Y33889791D01*
X-35621551Y33999307D01*
X-35523015Y34083000D01*
X-35435548Y34123249D01*
X-35368130Y34137082D01*
X-35265424Y34146992D01*
X-35138708Y34152980D01*
X-34999263Y34155048D01*
X-34858369Y34153198D01*
G37*
G36*
X-38932852Y34348115D02*
G01*
X-38920336Y34284066D01*
X-38896545Y34259120D01*
X-38870930Y34274649D01*
X-38852941Y34332024D01*
X-38852359Y34336431D01*
X-38842935Y34412374D01*
X-38839195Y34336431D01*
X-38835456Y34260488D01*
X-38590101Y34260488D01*
X-38344747Y34260488D01*
X-38344747Y33758096D01*
X-38344747Y33255704D01*
X-38484950Y33255704D01*
X-38625152Y33255704D01*
X-38625152Y33617894D01*
X-38625152Y33980083D01*
X-38847139Y33980083D01*
X-39069126Y33980083D01*
X-39069126Y33617894D01*
X-39069126Y33255704D01*
X-39571518Y33255704D01*
X-40073910Y33255704D01*
X-40073910Y33395907D01*
X-40073910Y33423168D01*
X-39933708Y33423168D01*
X-39918860Y33373254D01*
X-39884416Y33347839D01*
X-39845522Y33354218D01*
X-39828556Y33372540D01*
X-39798625Y33384466D01*
X-39734501Y33392100D01*
X-39648515Y33395571D01*
X-39553000Y33395008D01*
X-39460286Y33390539D01*
X-39382706Y33382295D01*
X-39332590Y33370404D01*
X-39326430Y33367283D01*
X-39277078Y33354781D01*
X-39242861Y33375885D01*
X-39237679Y33420543D01*
X-39240543Y33429387D01*
X-39266853Y33455124D01*
X-39307160Y33465792D01*
X-39340875Y33458886D01*
X-39349531Y33442641D01*
X-39371738Y33431766D01*
X-39433839Y33423910D01*
X-39529049Y33419755D01*
X-39581823Y33419274D01*
X-39683348Y33421500D01*
X-39765001Y33427526D01*
X-39816461Y33436374D01*
X-39828556Y33442641D01*
X-39862767Y33465403D01*
X-39904487Y33461627D01*
X-39931676Y33435394D01*
X-39933708Y33423168D01*
X-40073910Y33423168D01*
X-40073910Y33536109D01*
X-39711720Y33536109D01*
X-39349531Y33536109D01*
X-39349531Y33758096D01*
X-39349531Y33980083D01*
X-39711720Y33980083D01*
X-40073910Y33980083D01*
X-40073910Y34120286D01*
X-40073910Y34260488D01*
X-39841650Y34260488D01*
X-39609390Y34260488D01*
X-39600224Y34348115D01*
X-39591058Y34435740D01*
X-39587130Y34348115D01*
X-39574707Y34282042D01*
X-39551325Y34258179D01*
X-39526087Y34276523D01*
X-39508094Y34337077D01*
X-39506756Y34348115D01*
X-39497590Y34435740D01*
X-39493661Y34348115D01*
X-39482498Y34282549D01*
X-39456587Y34260493D01*
X-39456093Y34260488D01*
X-39429018Y34282655D01*
X-39413484Y34346276D01*
X-39413287Y34348115D01*
X-39404121Y34435740D01*
X-39400193Y34348115D01*
X-39394387Y34290698D01*
X-39375102Y34266136D01*
X-39328986Y34260550D01*
X-39315891Y34260488D01*
X-39262793Y34264340D01*
X-39238070Y34285113D01*
X-39227593Y34336632D01*
X-39226351Y34348115D01*
X-39217185Y34435740D01*
X-39213257Y34348115D01*
X-39202093Y34282549D01*
X-39176183Y34260493D01*
X-39175689Y34260488D01*
X-39148613Y34282655D01*
X-39133079Y34346276D01*
X-39132882Y34348115D01*
X-39123716Y34435740D01*
X-39119788Y34348115D01*
X-39108625Y34282549D01*
X-39082714Y34260493D01*
X-39082220Y34260488D01*
X-39055145Y34282655D01*
X-39039611Y34346276D01*
X-39039414Y34348115D01*
X-39030248Y34435740D01*
X-39026320Y34348115D01*
X-39015157Y34282549D01*
X-38989246Y34260493D01*
X-38988752Y34260488D01*
X-38961676Y34282655D01*
X-38946143Y34346276D01*
X-38945946Y34348115D01*
X-38936780Y34435740D01*
X-38932852Y34348115D01*
G37*
G36*
X-39793505Y32472908D02*
G01*
X-39793505Y32110718D01*
X-39571518Y32110718D01*
X-39349531Y32110718D01*
X-39349531Y32469520D01*
X-39349531Y32670258D01*
X-39180978Y32670258D01*
X-39178114Y32661415D01*
X-39151805Y32635677D01*
X-39111497Y32625010D01*
X-39077782Y32631916D01*
X-39069126Y32648161D01*
X-39047796Y32659431D01*
X-38991652Y32667032D01*
X-38912466Y32671040D01*
X-38822007Y32671530D01*
X-38732046Y32668578D01*
X-38654354Y32662258D01*
X-38600701Y32652647D01*
X-38584662Y32645058D01*
X-38543327Y32629265D01*
X-38502773Y32645097D01*
X-38484950Y32683211D01*
X-38503423Y32721888D01*
X-38544204Y32737179D01*
X-38584662Y32721364D01*
X-38621522Y32707957D01*
X-38691914Y32699244D01*
X-38782878Y32695172D01*
X-38881454Y32695686D01*
X-38974683Y32700730D01*
X-39049604Y32710250D01*
X-39092227Y32723518D01*
X-39141579Y32736020D01*
X-39175796Y32714917D01*
X-39180978Y32670258D01*
X-39349531Y32670258D01*
X-39349531Y32828321D01*
X-38852981Y32825867D01*
X-38356431Y32823414D01*
X-38356431Y32683211D01*
X-38356431Y32543009D01*
X-38712778Y32536558D01*
X-39069126Y32530108D01*
X-39069126Y32320413D01*
X-39069126Y32110718D01*
X-38706937Y32110718D01*
X-38344747Y32110718D01*
X-38344747Y31970516D01*
X-38344747Y31830313D01*
X-38549209Y31826611D01*
X-38646580Y31825277D01*
X-38729062Y31824929D01*
X-38783184Y31825594D01*
X-38793184Y31826091D01*
X-38822361Y31814416D01*
X-38838448Y31767767D01*
X-38841831Y31742167D01*
X-38850966Y31655060D01*
X-38854895Y31742687D01*
X-38866058Y31808252D01*
X-38891969Y31830309D01*
X-38892463Y31830313D01*
X-38919538Y31808147D01*
X-38935072Y31744525D01*
X-38935269Y31742687D01*
X-38944435Y31655060D01*
X-38948363Y31742687D01*
X-38959526Y31808252D01*
X-38985437Y31830309D01*
X-38985931Y31830313D01*
X-39013007Y31808147D01*
X-39028540Y31744525D01*
X-39028737Y31742687D01*
X-39037903Y31655060D01*
X-39041831Y31742687D01*
X-39052994Y31808252D01*
X-39078905Y31830309D01*
X-39079399Y31830313D01*
X-39106475Y31808147D01*
X-39122009Y31744525D01*
X-39122205Y31742687D01*
X-39131371Y31655060D01*
X-39135299Y31742687D01*
X-39146463Y31808252D01*
X-39172373Y31830309D01*
X-39172867Y31830313D01*
X-39199943Y31808147D01*
X-39215477Y31744525D01*
X-39215673Y31742687D01*
X-39224839Y31655060D01*
X-39228768Y31740350D01*
X-39234849Y31796764D01*
X-39255237Y31820499D01*
X-39303847Y31825610D01*
X-39313209Y31825640D01*
X-39366930Y31821615D01*
X-39391622Y31800204D01*
X-39401987Y31747406D01*
X-39402749Y31740350D01*
X-39411776Y31655060D01*
X-39415704Y31742687D01*
X-39426867Y31808252D01*
X-39452778Y31830309D01*
X-39453272Y31830313D01*
X-39480348Y31808147D01*
X-39495882Y31744525D01*
X-39496078Y31742687D01*
X-39505244Y31655060D01*
X-39509172Y31742687D01*
X-39520336Y31808252D01*
X-39546246Y31830309D01*
X-39546740Y31830313D01*
X-39573816Y31808147D01*
X-39589350Y31744525D01*
X-39589547Y31742687D01*
X-39598713Y31655060D01*
X-39602641Y31742687D01*
X-39606569Y31830313D01*
X-39840239Y31830313D01*
X-40073910Y31830313D01*
X-40073910Y32332705D01*
X-40073910Y32835097D01*
X-39933708Y32835097D01*
X-39793505Y32835097D01*
X-39793505Y32472908D01*
G37*
%TO.C,J2*%
D13*
X-2077000Y25613800D02*
X5763000Y25613800D01*
X-2077000Y18373800D02*
X-2077000Y25613800D01*
X4143000Y18373800D02*
X4143000Y25613800D01*
X5243000Y18373800D02*
X5243000Y25613800D01*
X5763000Y25613800D02*
X5763000Y20543800D01*
X5763000Y19943800D02*
X5763000Y18373800D01*
X5763000Y18373800D02*
X-2077000Y18373800D01*
X5763000Y20243800D02*
X6373000Y20683800D01*
X6373000Y19803800D01*
X5763000Y20243800D01*
G36*
X6373000Y19803800D02*
G01*
X5763000Y20243800D01*
X6373000Y20683800D01*
X6373000Y19803800D01*
G37*
%TO.C,C3*%
X-13130400Y8005000D02*
X-15895400Y8005000D01*
X-13130400Y7965000D02*
X-15879400Y7965000D01*
X-13130400Y7925000D02*
X-15863400Y7925000D01*
X-13130400Y7885000D02*
X-15847400Y7885000D01*
X-13130400Y7845000D02*
X-15830400Y7845000D01*
X-13130400Y7805000D02*
X-15812400Y7805000D01*
X-13130400Y7765000D02*
X-15794400Y7765000D01*
X-13130400Y7725000D02*
X-15775400Y7725000D01*
X-13130400Y7685000D02*
X-15756400Y7685000D01*
X-13130400Y7645000D02*
X-15736400Y7645000D01*
X-13130400Y7605000D02*
X-15716400Y7605000D01*
X-13130400Y7565000D02*
X-15695400Y7565000D01*
X-13130400Y7525000D02*
X-15674400Y7525000D01*
X-13130400Y7485000D02*
X-15652400Y7485000D01*
X-13130400Y7445000D02*
X-15629400Y7445000D01*
X-13130400Y7405000D02*
X-15606400Y7405000D01*
X-13130400Y7365000D02*
X-15583400Y7365000D01*
X-13130400Y7325000D02*
X-15558400Y7325000D01*
X-13130400Y7285000D02*
X-15533400Y7285000D01*
X-13130400Y7245000D02*
X-15508400Y7245000D01*
X-13130400Y7205000D02*
X-15482400Y7205000D01*
X-13130400Y7165000D02*
X-15455400Y7165000D01*
X-13130400Y7125000D02*
X-15427400Y7125000D01*
X-13130400Y7085000D02*
X-15399400Y7085000D01*
X-13130400Y7045000D02*
X-15370400Y7045000D01*
X-13130400Y7005000D02*
X-15340400Y7005000D01*
X-13130400Y6965000D02*
X-15309400Y6965000D01*
X-13130400Y6925000D02*
X-15278400Y6925000D01*
X-13130400Y6885000D02*
X-15246400Y6885000D01*
X-13130400Y6845000D02*
X-15213400Y6845000D01*
X-13130400Y6805000D02*
X-15179400Y6805000D01*
X-13130400Y6765000D02*
X-15145400Y6765000D01*
X-13130400Y6725000D02*
X-15109400Y6725000D01*
X-13130400Y6685000D02*
X-15072400Y6685000D01*
X-13130400Y6645000D02*
X-15035400Y6645000D01*
X-13130400Y6605000D02*
X-14996400Y6605000D01*
X-13130400Y6565000D02*
X-14957400Y6565000D01*
X-13130400Y6525000D02*
X-14916400Y6525000D01*
X-13130400Y6485000D02*
X-14874400Y6485000D01*
X-13130400Y6445000D02*
X-14831400Y6445000D01*
X-13130400Y6405000D02*
X-14786400Y6405000D01*
X-13130400Y6365000D02*
X-14741400Y6365000D01*
X-13130400Y6325000D02*
X-14694400Y6325000D01*
X-13130400Y6285000D02*
X-14645400Y6285000D01*
X-13130400Y6245000D02*
X-14595400Y6245000D01*
X-13130400Y6205000D02*
X-14543400Y6205000D01*
X-13130400Y6165000D02*
X-14490400Y6165000D01*
X-13130400Y6125000D02*
X-14434400Y6125000D01*
X-13130400Y6085000D02*
X-14377400Y6085000D01*
X-13130400Y6045000D02*
X-14317400Y6045000D01*
X-13130400Y6005000D02*
X-14255400Y6005000D01*
X-13130400Y5965000D02*
X-14191400Y5965000D01*
X-11557400Y5405000D02*
X-12623400Y5405000D01*
X-11322400Y5445000D02*
X-12858400Y5445000D01*
X-11143400Y5485000D02*
X-13037400Y5485000D01*
X-10993400Y5525000D02*
X-13187400Y5525000D01*
X-10862400Y5565000D02*
X-13318400Y5565000D01*
X-10744400Y5605000D02*
X-13436400Y5605000D01*
X-10637400Y5645000D02*
X-13543400Y5645000D01*
X-10538400Y5685000D02*
X-13642400Y5685000D01*
X-10446400Y5725000D02*
X-13734400Y5725000D01*
X-10359400Y5765000D02*
X-13821400Y5765000D01*
X-10277400Y5805000D02*
X-13903400Y5805000D01*
X-10200400Y5845000D02*
X-13980400Y5845000D01*
X-10126400Y5885000D02*
X-14054400Y5885000D01*
X-10056400Y5925000D02*
X-14124400Y5925000D01*
X-9989400Y5965000D02*
X-11050400Y5965000D01*
X-9925400Y6005000D02*
X-11050400Y6005000D01*
X-9863400Y6045000D02*
X-11050400Y6045000D01*
X-9803400Y6085000D02*
X-11050400Y6085000D01*
X-9775400Y13894698D02*
X-9775400Y13094698D01*
X-9746400Y6125000D02*
X-11050400Y6125000D01*
X-9690400Y6165000D02*
X-11050400Y6165000D01*
X-9637400Y6205000D02*
X-11050400Y6205000D01*
X-9585400Y6245000D02*
X-11050400Y6245000D01*
X-9535400Y6285000D02*
X-11050400Y6285000D01*
X-9486400Y6325000D02*
X-11050400Y6325000D01*
X-9439400Y6365000D02*
X-11050400Y6365000D01*
X-9394400Y6405000D02*
X-11050400Y6405000D01*
X-9375400Y13494698D02*
X-10175400Y13494698D01*
X-9349400Y6445000D02*
X-11050400Y6445000D01*
X-9306400Y6485000D02*
X-11050400Y6485000D01*
X-9264400Y6525000D02*
X-11050400Y6525000D01*
X-9223400Y6565000D02*
X-11050400Y6565000D01*
X-9184400Y6605000D02*
X-11050400Y6605000D01*
X-9145400Y6645000D02*
X-11050400Y6645000D01*
X-9108400Y6685000D02*
X-11050400Y6685000D01*
X-9071400Y6725000D02*
X-11050400Y6725000D01*
X-9035400Y6765000D02*
X-11050400Y6765000D01*
X-9001400Y6805000D02*
X-11050400Y6805000D01*
X-8967400Y6845000D02*
X-11050400Y6845000D01*
X-8934400Y6885000D02*
X-11050400Y6885000D01*
X-8902400Y6925000D02*
X-11050400Y6925000D01*
X-8871400Y6965000D02*
X-11050400Y6965000D01*
X-8840400Y7005000D02*
X-11050400Y7005000D01*
X-8810400Y7045000D02*
X-11050400Y7045000D01*
X-8781400Y7085000D02*
X-11050400Y7085000D01*
X-8753400Y7125000D02*
X-11050400Y7125000D01*
X-8725400Y7165000D02*
X-11050400Y7165000D01*
X-8698400Y7205000D02*
X-11050400Y7205000D01*
X-8672400Y7245000D02*
X-11050400Y7245000D01*
X-8647400Y7285000D02*
X-11050400Y7285000D01*
X-8622400Y7325000D02*
X-11050400Y7325000D01*
X-8597400Y7365000D02*
X-11050400Y7365000D01*
X-8574400Y7405000D02*
X-11050400Y7405000D01*
X-8551400Y7445000D02*
X-11050400Y7445000D01*
X-8528400Y7485000D02*
X-11050400Y7485000D01*
X-8506400Y7525000D02*
X-11050400Y7525000D01*
X-8485400Y7565000D02*
X-11050400Y7565000D01*
X-8464400Y7605000D02*
X-11050400Y7605000D01*
X-8444400Y7645000D02*
X-11050400Y7645000D01*
X-8424400Y7685000D02*
X-11050400Y7685000D01*
X-8405400Y7725000D02*
X-11050400Y7725000D01*
X-8386400Y7765000D02*
X-11050400Y7765000D01*
X-8368400Y7805000D02*
X-11050400Y7805000D01*
X-8350400Y7845000D02*
X-11050400Y7845000D01*
X-8333400Y7885000D02*
X-11050400Y7885000D01*
X-8317400Y7925000D02*
X-11050400Y7925000D01*
X-8301400Y7965000D02*
X-11050400Y7965000D01*
X-8285400Y8005000D02*
X-11050400Y8005000D01*
X-8270400Y8045000D02*
X-15910400Y8045000D01*
X-8255400Y8085000D02*
X-15925400Y8085000D01*
X-8241400Y8125000D02*
X-15939400Y8125000D01*
X-8227400Y8165000D02*
X-15953400Y8165000D01*
X-8214400Y8205000D02*
X-15966400Y8205000D01*
X-8201400Y8245000D02*
X-15979400Y8245000D01*
X-8189400Y8285000D02*
X-15991400Y8285000D01*
X-8177400Y8325000D02*
X-16003400Y8325000D01*
X-8165400Y8365000D02*
X-16015400Y8365000D01*
X-8154400Y8405000D02*
X-16026400Y8405000D01*
X-8143400Y8445000D02*
X-16037400Y8445000D01*
X-8133400Y8485000D02*
X-16047400Y8485000D01*
X-8123400Y8525000D02*
X-16057400Y8525000D01*
X-8114400Y8565000D02*
X-16066400Y8565000D01*
X-8105400Y8605000D02*
X-16075400Y8605000D01*
X-8097400Y8645000D02*
X-16083400Y8645000D01*
X-8088400Y8685000D02*
X-16092400Y8685000D01*
X-8081400Y8725000D02*
X-16099400Y8725000D01*
X-8073400Y8765000D02*
X-16107400Y8765000D01*
X-8067400Y8805000D02*
X-16113400Y8805000D01*
X-8060400Y8845000D02*
X-16120400Y8845000D01*
X-8054400Y8885000D02*
X-16126400Y8885000D01*
X-8048400Y8925000D02*
X-16132400Y8925000D01*
X-8043400Y8965000D02*
X-16137400Y8965000D01*
X-8038400Y9005000D02*
X-16142400Y9005000D01*
X-8034400Y9045000D02*
X-16146400Y9045000D01*
X-8029400Y9085000D02*
X-16151400Y9085000D01*
X-8026400Y9125000D02*
X-16154400Y9125000D01*
X-8022400Y9165000D02*
X-16158400Y9165000D01*
X-8020400Y9205000D02*
X-16160400Y9205000D01*
X-8017400Y9245000D02*
X-16163400Y9245000D01*
X-8015400Y9285000D02*
X-16165400Y9285000D01*
X-8013400Y9325000D02*
X-16167400Y9325000D01*
X-8012400Y9365000D02*
X-16168400Y9365000D01*
X-8011400Y9405000D02*
X-16169400Y9405000D01*
X-8010400Y9485000D02*
X-16170400Y9485000D01*
X-8010400Y9445000D02*
X-16170400Y9445000D01*
X-7970400Y9485000D02*
G75*
G02*
X-16210400Y9485000I-4120000J0D01*
G01*
X-16210400Y9485000D02*
G75*
G02*
X-7970400Y9485000I4120000J0D01*
G01*
%TO.C,RV1*%
X-16660600Y31425200D02*
X-6910600Y31425200D01*
X-16660600Y26375200D02*
X-16660600Y31425200D01*
X-6910600Y31425200D02*
X-6910600Y26375200D01*
X-6910600Y26375200D02*
X-16660600Y26375200D01*
%TO.C,D1*%
X-16204000Y15791000D02*
X-16204000Y24301000D01*
X-9704000Y15791000D02*
X-16204000Y15791000D01*
X-9704000Y15791000D02*
X-9704000Y24301000D01*
%TO.C,C2*%
X-38963600Y24175323D02*
X-28803600Y24175323D01*
X-38963600Y24135323D02*
X-28803600Y24135323D01*
X-38962600Y24255323D02*
X-28804600Y24255323D01*
X-38962600Y24215323D02*
X-28804600Y24215323D01*
X-38960600Y24295323D02*
X-28806600Y24295323D01*
X-38959600Y24335323D02*
X-28807600Y24335323D01*
X-38957600Y24375323D02*
X-28809600Y24375323D01*
X-38955600Y24415323D02*
X-28811600Y24415323D01*
X-38953600Y24455323D02*
X-28813600Y24455323D01*
X-38950600Y24495323D02*
X-28816600Y24495323D01*
X-38947600Y24535323D02*
X-28819600Y24535323D01*
X-38944600Y24575323D02*
X-28822600Y24575323D01*
X-38940600Y24615323D02*
X-28826600Y24615323D01*
X-38937600Y24655323D02*
X-28829600Y24655323D01*
X-38932600Y24695323D02*
X-28834600Y24695323D01*
X-38928600Y24735323D02*
X-28838600Y24735323D01*
X-38923600Y24775323D02*
X-28843600Y24775323D01*
X-38918600Y24815323D02*
X-28848600Y24815323D01*
X-38912600Y24855323D02*
X-28854600Y24855323D01*
X-38906600Y24895323D02*
X-28860600Y24895323D01*
X-38900600Y24935323D02*
X-28866600Y24935323D01*
X-38894600Y24975323D02*
X-28872600Y24975323D01*
X-38887600Y25015323D02*
X-28879600Y25015323D01*
X-38880600Y25055323D02*
X-28886600Y25055323D01*
X-38872600Y25095323D02*
X-28894600Y25095323D01*
X-38864600Y25135323D02*
X-28902600Y25135323D01*
X-38856600Y25175323D02*
X-28910600Y25175323D01*
X-38848600Y25215323D02*
X-28918600Y25215323D01*
X-38839600Y25255323D02*
X-28927600Y25255323D01*
X-38830600Y25295323D02*
X-28936600Y25295323D01*
X-38820600Y25335323D02*
X-28946600Y25335323D01*
X-38811600Y25375323D02*
X-28955600Y25375323D01*
X-38800600Y25415323D02*
X-35123600Y25415323D01*
X-38790600Y25455323D02*
X-35123600Y25455323D01*
X-38779600Y25495323D02*
X-35123600Y25495323D01*
X-38768600Y25535323D02*
X-35123600Y25535323D01*
X-38756600Y25575323D02*
X-35123600Y25575323D01*
X-38744600Y25615323D02*
X-35123600Y25615323D01*
X-38732600Y25655323D02*
X-35123600Y25655323D01*
X-38720600Y25695323D02*
X-35123600Y25695323D01*
X-38707600Y25735323D02*
X-35123600Y25735323D01*
X-38693600Y25775323D02*
X-35123600Y25775323D01*
X-38680600Y25815323D02*
X-35123600Y25815323D01*
X-38665600Y25855323D02*
X-35123600Y25855323D01*
X-38651600Y25895323D02*
X-35123600Y25895323D01*
X-38636600Y25935323D02*
X-35123600Y25935323D01*
X-38621600Y25975323D02*
X-35123600Y25975323D01*
X-38605600Y26015323D02*
X-35123600Y26015323D01*
X-38589600Y26055323D02*
X-35123600Y26055323D01*
X-38573600Y26095323D02*
X-35123600Y26095323D01*
X-38556600Y26135323D02*
X-35123600Y26135323D01*
X-38539600Y26175323D02*
X-35123600Y26175323D01*
X-38521600Y26215323D02*
X-35123600Y26215323D01*
X-38503600Y26255323D02*
X-35123600Y26255323D01*
X-38485600Y26295323D02*
X-35123600Y26295323D01*
X-38466600Y26335323D02*
X-35123600Y26335323D01*
X-38447600Y26375323D02*
X-35123600Y26375323D01*
X-38427600Y26415323D02*
X-35123600Y26415323D01*
X-38407600Y26455323D02*
X-35123600Y26455323D01*
X-38387600Y26495323D02*
X-35123600Y26495323D01*
X-38366600Y26535323D02*
X-35123600Y26535323D01*
X-38344600Y26575323D02*
X-35123600Y26575323D01*
X-38322600Y26615323D02*
X-35123600Y26615323D01*
X-38300600Y26655323D02*
X-35123600Y26655323D01*
X-38277600Y26695323D02*
X-35123600Y26695323D01*
X-38254600Y26735323D02*
X-35123600Y26735323D01*
X-38230600Y26775323D02*
X-35123600Y26775323D01*
X-38206600Y26815323D02*
X-35123600Y26815323D01*
X-38181600Y26855323D02*
X-35123600Y26855323D01*
X-38155600Y26895323D02*
X-35123600Y26895323D01*
X-38130600Y26935323D02*
X-35123600Y26935323D01*
X-38103600Y26975323D02*
X-35123600Y26975323D01*
X-38076600Y27015323D02*
X-35123600Y27015323D01*
X-38049600Y27055323D02*
X-35123600Y27055323D01*
X-38021600Y27095323D02*
X-35123600Y27095323D01*
X-37992600Y27135323D02*
X-35123600Y27135323D01*
X-37963600Y27175323D02*
X-35123600Y27175323D01*
X-37933600Y27215323D02*
X-35123600Y27215323D01*
X-37903600Y27255323D02*
X-35123600Y27255323D01*
X-37871600Y27295323D02*
X-35123600Y27295323D01*
X-37840600Y27335323D02*
X-35123600Y27335323D01*
X-37807600Y27375323D02*
X-35123600Y27375323D01*
X-37774600Y27415323D02*
X-35123600Y27415323D01*
X-37741600Y27455323D02*
X-35123600Y27455323D01*
X-37706600Y27495323D02*
X-35123600Y27495323D01*
X-37671600Y27535323D02*
X-35123600Y27535323D01*
X-37635600Y27575323D02*
X-35123600Y27575323D01*
X-37599600Y27615323D02*
X-35123600Y27615323D01*
X-37561600Y27655323D02*
X-35123600Y27655323D01*
X-37523600Y27695323D02*
X-35123600Y27695323D01*
X-37484600Y27735323D02*
X-35123600Y27735323D01*
X-37444600Y27775323D02*
X-35123600Y27775323D01*
X-37403600Y27815323D02*
X-35123600Y27815323D01*
X-37361600Y27855323D02*
X-35123600Y27855323D01*
X-37318600Y27895323D02*
X-30448600Y27895323D01*
X-37274600Y27935323D02*
X-30492600Y27935323D01*
X-37258600Y19155677D02*
X-36258600Y19155677D01*
X-37230600Y27975323D02*
X-30536600Y27975323D01*
X-37184600Y28015323D02*
X-30582600Y28015323D01*
X-37137600Y28055323D02*
X-30629600Y28055323D01*
X-37088600Y28095323D02*
X-30678600Y28095323D01*
X-37039600Y28135323D02*
X-30727600Y28135323D01*
X-36988600Y28175323D02*
X-30778600Y28175323D01*
X-36936600Y28215323D02*
X-30830600Y28215323D01*
X-36883600Y28255323D02*
X-30883600Y28255323D01*
X-36828600Y28295323D02*
X-30938600Y28295323D01*
X-36771600Y28335323D02*
X-30995600Y28335323D01*
X-36758600Y18655677D02*
X-36758600Y19655677D01*
X-36713600Y28375323D02*
X-31053600Y28375323D01*
X-36653600Y28415323D02*
X-31113600Y28415323D01*
X-36591600Y28455323D02*
X-31175600Y28455323D01*
X-36527600Y28495323D02*
X-31239600Y28495323D01*
X-36461600Y28535323D02*
X-31305600Y28535323D01*
X-36393600Y28575323D02*
X-31373600Y28575323D01*
X-36322600Y28615323D02*
X-31444600Y28615323D01*
X-36248600Y28655323D02*
X-31518600Y28655323D01*
X-36171600Y28695323D02*
X-31595600Y28695323D01*
X-36091600Y28735323D02*
X-31675600Y28735323D01*
X-36007600Y28775323D02*
X-31759600Y28775323D01*
X-35920600Y28815323D02*
X-31846600Y28815323D01*
X-35827600Y28855323D02*
X-31939600Y28855323D01*
X-35729600Y28895323D02*
X-32037600Y28895323D01*
X-35625600Y28935323D02*
X-32141600Y28935323D01*
X-35513600Y28975323D02*
X-32253600Y28975323D01*
X-35392600Y29015323D02*
X-32374600Y29015323D01*
X-35260600Y29055323D02*
X-32506600Y29055323D01*
X-35113600Y29095323D02*
X-32653600Y29095323D01*
X-34945600Y29135323D02*
X-32821600Y29135323D01*
X-34745600Y29175323D02*
X-33021600Y29175323D01*
X-34482600Y29215323D02*
X-33284600Y29215323D01*
X-32643600Y27855323D02*
X-30405600Y27855323D01*
X-32643600Y27815323D02*
X-30363600Y27815323D01*
X-32643600Y27775323D02*
X-30322600Y27775323D01*
X-32643600Y27735323D02*
X-30282600Y27735323D01*
X-32643600Y27695323D02*
X-30243600Y27695323D01*
X-32643600Y27655323D02*
X-30205600Y27655323D01*
X-32643600Y27615323D02*
X-30167600Y27615323D01*
X-32643600Y27575323D02*
X-30131600Y27575323D01*
X-32643600Y27535323D02*
X-30095600Y27535323D01*
X-32643600Y27495323D02*
X-30060600Y27495323D01*
X-32643600Y27455323D02*
X-30025600Y27455323D01*
X-32643600Y27415323D02*
X-29992600Y27415323D01*
X-32643600Y27375323D02*
X-29959600Y27375323D01*
X-32643600Y27335323D02*
X-29926600Y27335323D01*
X-32643600Y27295323D02*
X-29895600Y27295323D01*
X-32643600Y27255323D02*
X-29863600Y27255323D01*
X-32643600Y27215323D02*
X-29833600Y27215323D01*
X-32643600Y27175323D02*
X-29803600Y27175323D01*
X-32643600Y27135323D02*
X-29774600Y27135323D01*
X-32643600Y27095323D02*
X-29745600Y27095323D01*
X-32643600Y27055323D02*
X-29717600Y27055323D01*
X-32643600Y27015323D02*
X-29690600Y27015323D01*
X-32643600Y26975323D02*
X-29663600Y26975323D01*
X-32643600Y26935323D02*
X-29636600Y26935323D01*
X-32643600Y26895323D02*
X-29611600Y26895323D01*
X-32643600Y26855323D02*
X-29585600Y26855323D01*
X-32643600Y26815323D02*
X-29560600Y26815323D01*
X-32643600Y26775323D02*
X-29536600Y26775323D01*
X-32643600Y26735323D02*
X-29512600Y26735323D01*
X-32643600Y26695323D02*
X-29489600Y26695323D01*
X-32643600Y26655323D02*
X-29466600Y26655323D01*
X-32643600Y26615323D02*
X-29444600Y26615323D01*
X-32643600Y26575323D02*
X-29422600Y26575323D01*
X-32643600Y26535323D02*
X-29400600Y26535323D01*
X-32643600Y26495323D02*
X-29379600Y26495323D01*
X-32643600Y26455323D02*
X-29359600Y26455323D01*
X-32643600Y26415323D02*
X-29339600Y26415323D01*
X-32643600Y26375323D02*
X-29319600Y26375323D01*
X-32643600Y26335323D02*
X-29300600Y26335323D01*
X-32643600Y26295323D02*
X-29281600Y26295323D01*
X-32643600Y26255323D02*
X-29263600Y26255323D01*
X-32643600Y26215323D02*
X-29245600Y26215323D01*
X-32643600Y26175323D02*
X-29227600Y26175323D01*
X-32643600Y26135323D02*
X-29210600Y26135323D01*
X-32643600Y26095323D02*
X-29193600Y26095323D01*
X-32643600Y26055323D02*
X-29177600Y26055323D01*
X-32643600Y26015323D02*
X-29161600Y26015323D01*
X-32643600Y25975323D02*
X-29145600Y25975323D01*
X-32643600Y25935323D02*
X-29130600Y25935323D01*
X-32643600Y25895323D02*
X-29115600Y25895323D01*
X-32643600Y25855323D02*
X-29101600Y25855323D01*
X-32643600Y25815323D02*
X-29086600Y25815323D01*
X-32643600Y25775323D02*
X-29073600Y25775323D01*
X-32643600Y25735323D02*
X-29059600Y25735323D01*
X-32643600Y25695323D02*
X-29046600Y25695323D01*
X-32643600Y25655323D02*
X-29034600Y25655323D01*
X-32643600Y25615323D02*
X-29022600Y25615323D01*
X-32643600Y25575323D02*
X-29010600Y25575323D01*
X-32643600Y25535323D02*
X-28998600Y25535323D01*
X-32643600Y25495323D02*
X-28987600Y25495323D01*
X-32643600Y25455323D02*
X-28976600Y25455323D01*
X-32643600Y25415323D02*
X-28966600Y25415323D01*
X-28763600Y24135323D02*
G75*
G02*
X-39003600Y24135323I-5120000J0D01*
G01*
X-39003600Y24135323D02*
G75*
G02*
X-28763600Y24135323I5120000J0D01*
G01*
%TO.C,C4*%
X-8731949Y15954800D02*
X-7931949Y15954800D01*
X-8331949Y16354800D02*
X-8331949Y15554800D01*
X-4322251Y17719800D02*
X-4322251Y9559800D01*
X-4282251Y17719800D02*
X-4282251Y9559800D01*
X-4242251Y17718800D02*
X-4242251Y9560800D01*
X-4202251Y17717800D02*
X-4202251Y9561800D01*
X-4162251Y17716800D02*
X-4162251Y9562800D01*
X-4122251Y17714800D02*
X-4122251Y9564800D01*
X-4082251Y17712800D02*
X-4082251Y9566800D01*
X-4042251Y17709800D02*
X-4042251Y9569800D01*
X-4002251Y17707800D02*
X-4002251Y9571800D01*
X-3962251Y17703800D02*
X-3962251Y9575800D01*
X-3922251Y17700800D02*
X-3922251Y9578800D01*
X-3882251Y17695800D02*
X-3882251Y9583800D01*
X-3842251Y17691800D02*
X-3842251Y9587800D01*
X-3802251Y17686800D02*
X-3802251Y9592800D01*
X-3762251Y17681800D02*
X-3762251Y9597800D01*
X-3722251Y17675800D02*
X-3722251Y9603800D01*
X-3682251Y17669800D02*
X-3682251Y9609800D01*
X-3642251Y17662800D02*
X-3642251Y9616800D01*
X-3602251Y17656800D02*
X-3602251Y9622800D01*
X-3562251Y17648800D02*
X-3562251Y9630800D01*
X-3522251Y17641800D02*
X-3522251Y9637800D01*
X-3482251Y17632800D02*
X-3482251Y9646800D01*
X-3442251Y17624800D02*
X-3442251Y9654800D01*
X-3402251Y17615800D02*
X-3402251Y9663800D01*
X-3362251Y17606800D02*
X-3362251Y9672800D01*
X-3322251Y17596800D02*
X-3322251Y9682800D01*
X-3282251Y17586800D02*
X-3282251Y9692800D01*
X-3242251Y17575800D02*
X-3242251Y9703800D01*
X-3202251Y17564800D02*
X-3202251Y9714800D01*
X-3162251Y17552800D02*
X-3162251Y9726800D01*
X-3122251Y17540800D02*
X-3122251Y9738800D01*
X-3082251Y17528800D02*
X-3082251Y9750800D01*
X-3042251Y17515800D02*
X-3042251Y9763800D01*
X-3002251Y17502800D02*
X-3002251Y9776800D01*
X-2962251Y17488800D02*
X-2962251Y9790800D01*
X-2922251Y17474800D02*
X-2922251Y9804800D01*
X-2882251Y17459800D02*
X-2882251Y9819800D01*
X-2842251Y17444800D02*
X-2842251Y14679800D01*
X-2842251Y12599800D02*
X-2842251Y9834800D01*
X-2802251Y17428800D02*
X-2802251Y14679800D01*
X-2802251Y12599800D02*
X-2802251Y9850800D01*
X-2762251Y17412800D02*
X-2762251Y14679800D01*
X-2762251Y12599800D02*
X-2762251Y9866800D01*
X-2722251Y17396800D02*
X-2722251Y14679800D01*
X-2722251Y12599800D02*
X-2722251Y9882800D01*
X-2682251Y17379800D02*
X-2682251Y14679800D01*
X-2682251Y12599800D02*
X-2682251Y9899800D01*
X-2642251Y17361800D02*
X-2642251Y14679800D01*
X-2642251Y12599800D02*
X-2642251Y9917800D01*
X-2602251Y17343800D02*
X-2602251Y14679800D01*
X-2602251Y12599800D02*
X-2602251Y9935800D01*
X-2562251Y17324800D02*
X-2562251Y14679800D01*
X-2562251Y12599800D02*
X-2562251Y9954800D01*
X-2522251Y17305800D02*
X-2522251Y14679800D01*
X-2522251Y12599800D02*
X-2522251Y9973800D01*
X-2482251Y17285800D02*
X-2482251Y14679800D01*
X-2482251Y12599800D02*
X-2482251Y9993800D01*
X-2442251Y17265800D02*
X-2442251Y14679800D01*
X-2442251Y12599800D02*
X-2442251Y10013800D01*
X-2402251Y17244800D02*
X-2402251Y14679800D01*
X-2402251Y12599800D02*
X-2402251Y10034800D01*
X-2362251Y17223800D02*
X-2362251Y14679800D01*
X-2362251Y12599800D02*
X-2362251Y10055800D01*
X-2322251Y17201800D02*
X-2322251Y14679800D01*
X-2322251Y12599800D02*
X-2322251Y10077800D01*
X-2282251Y17178800D02*
X-2282251Y14679800D01*
X-2282251Y12599800D02*
X-2282251Y10100800D01*
X-2242251Y17155800D02*
X-2242251Y14679800D01*
X-2242251Y12599800D02*
X-2242251Y10123800D01*
X-2202251Y17132800D02*
X-2202251Y14679800D01*
X-2202251Y12599800D02*
X-2202251Y10146800D01*
X-2162251Y17107800D02*
X-2162251Y14679800D01*
X-2162251Y12599800D02*
X-2162251Y10171800D01*
X-2122251Y17082800D02*
X-2122251Y14679800D01*
X-2122251Y12599800D02*
X-2122251Y10196800D01*
X-2082251Y17057800D02*
X-2082251Y14679800D01*
X-2082251Y12599800D02*
X-2082251Y10221800D01*
X-2042251Y17031800D02*
X-2042251Y14679800D01*
X-2042251Y12599800D02*
X-2042251Y10247800D01*
X-2002251Y17004800D02*
X-2002251Y14679800D01*
X-2002251Y12599800D02*
X-2002251Y10274800D01*
X-1962251Y16976800D02*
X-1962251Y14679800D01*
X-1962251Y12599800D02*
X-1962251Y10302800D01*
X-1922251Y16948800D02*
X-1922251Y14679800D01*
X-1922251Y12599800D02*
X-1922251Y10330800D01*
X-1882251Y16919800D02*
X-1882251Y14679800D01*
X-1882251Y12599800D02*
X-1882251Y10359800D01*
X-1842251Y16889800D02*
X-1842251Y14679800D01*
X-1842251Y12599800D02*
X-1842251Y10389800D01*
X-1802251Y16858800D02*
X-1802251Y14679800D01*
X-1802251Y12599800D02*
X-1802251Y10420800D01*
X-1762251Y16827800D02*
X-1762251Y14679800D01*
X-1762251Y12599800D02*
X-1762251Y10451800D01*
X-1722251Y16795800D02*
X-1722251Y14679800D01*
X-1722251Y12599800D02*
X-1722251Y10483800D01*
X-1682251Y16762800D02*
X-1682251Y14679800D01*
X-1682251Y12599800D02*
X-1682251Y10516800D01*
X-1642251Y16728800D02*
X-1642251Y14679800D01*
X-1642251Y12599800D02*
X-1642251Y10550800D01*
X-1602251Y16694800D02*
X-1602251Y14679800D01*
X-1602251Y12599800D02*
X-1602251Y10584800D01*
X-1562251Y16658800D02*
X-1562251Y14679800D01*
X-1562251Y12599800D02*
X-1562251Y10620800D01*
X-1522251Y16621800D02*
X-1522251Y14679800D01*
X-1522251Y12599800D02*
X-1522251Y10657800D01*
X-1482251Y16584800D02*
X-1482251Y14679800D01*
X-1482251Y12599800D02*
X-1482251Y10694800D01*
X-1442251Y16545800D02*
X-1442251Y14679800D01*
X-1442251Y12599800D02*
X-1442251Y10733800D01*
X-1402251Y16506800D02*
X-1402251Y14679800D01*
X-1402251Y12599800D02*
X-1402251Y10772800D01*
X-1362251Y16465800D02*
X-1362251Y14679800D01*
X-1362251Y12599800D02*
X-1362251Y10813800D01*
X-1322251Y16423800D02*
X-1322251Y14679800D01*
X-1322251Y12599800D02*
X-1322251Y10855800D01*
X-1282251Y16380800D02*
X-1282251Y14679800D01*
X-1282251Y12599800D02*
X-1282251Y10898800D01*
X-1242251Y16335800D02*
X-1242251Y14679800D01*
X-1242251Y12599800D02*
X-1242251Y10943800D01*
X-1202251Y16290800D02*
X-1202251Y14679800D01*
X-1202251Y12599800D02*
X-1202251Y10988800D01*
X-1162251Y16243800D02*
X-1162251Y14679800D01*
X-1162251Y12599800D02*
X-1162251Y11035800D01*
X-1122251Y16194800D02*
X-1122251Y14679800D01*
X-1122251Y12599800D02*
X-1122251Y11084800D01*
X-1082251Y16144800D02*
X-1082251Y14679800D01*
X-1082251Y12599800D02*
X-1082251Y11134800D01*
X-1042251Y16092800D02*
X-1042251Y14679800D01*
X-1042251Y12599800D02*
X-1042251Y11186800D01*
X-1002251Y16039800D02*
X-1002251Y14679800D01*
X-1002251Y12599800D02*
X-1002251Y11239800D01*
X-962251Y15983800D02*
X-962251Y14679800D01*
X-962251Y12599800D02*
X-962251Y11295800D01*
X-922251Y15926800D02*
X-922251Y14679800D01*
X-922251Y12599800D02*
X-922251Y11352800D01*
X-882251Y15866800D02*
X-882251Y14679800D01*
X-882251Y12599800D02*
X-882251Y11412800D01*
X-842251Y15804800D02*
X-842251Y14679800D01*
X-842251Y12599800D02*
X-842251Y11474800D01*
X-802251Y15740800D02*
X-802251Y14679800D01*
X-802251Y12599800D02*
X-802251Y11538800D01*
X-762251Y15673800D02*
X-762251Y11605800D01*
X-722251Y15603800D02*
X-722251Y11675800D01*
X-682251Y15529800D02*
X-682251Y11749800D01*
X-642251Y15452800D02*
X-642251Y11826800D01*
X-602251Y15370800D02*
X-602251Y11908800D01*
X-562251Y15283800D02*
X-562251Y11995800D01*
X-522251Y15191800D02*
X-522251Y12087800D01*
X-482251Y15092800D02*
X-482251Y12186800D01*
X-442251Y14985800D02*
X-442251Y12293800D01*
X-402251Y14867800D02*
X-402251Y12411800D01*
X-362251Y14736800D02*
X-362251Y12542800D01*
X-322251Y14586800D02*
X-322251Y12692800D01*
X-282251Y14407800D02*
X-282251Y12871800D01*
X-242251Y14172800D02*
X-242251Y13106800D01*
X-202251Y13639800D02*
G75*
G02*
X-8442251Y13639800I-4120000J0D01*
G01*
X-8442251Y13639800D02*
G75*
G02*
X-202251Y13639800I4120000J0D01*
G01*
%TO.C,L1*%
X-30640245Y18111000D02*
X-27640245Y18111000D01*
X-30640245Y5511000D02*
X-30640245Y18111000D01*
X-27640245Y5511000D02*
X-30640245Y5511000D01*
X-21040245Y18111000D02*
X-18040245Y18111000D01*
X-18040245Y18111000D02*
X-18040245Y5511000D01*
X-18040245Y5511000D02*
X-21040245Y5511000D01*
%TO.C,C1*%
X-38273200Y12142000D02*
X-41950200Y12142000D01*
X-38273200Y12102000D02*
X-41940200Y12102000D01*
X-38273200Y12062000D02*
X-41929200Y12062000D01*
X-38273200Y12022000D02*
X-41918200Y12022000D01*
X-38273200Y11982000D02*
X-41906200Y11982000D01*
X-38273200Y11942000D02*
X-41894200Y11942000D01*
X-38273200Y11902000D02*
X-41882200Y11902000D01*
X-38273200Y11862000D02*
X-41870200Y11862000D01*
X-38273200Y11822000D02*
X-41857200Y11822000D01*
X-38273200Y11782000D02*
X-41843200Y11782000D01*
X-38273200Y11742000D02*
X-41830200Y11742000D01*
X-38273200Y11702000D02*
X-41815200Y11702000D01*
X-38273200Y11662000D02*
X-41801200Y11662000D01*
X-38273200Y11622000D02*
X-41786200Y11622000D01*
X-38273200Y11582000D02*
X-41771200Y11582000D01*
X-38273200Y11542000D02*
X-41755200Y11542000D01*
X-38273200Y11502000D02*
X-41739200Y11502000D01*
X-38273200Y11462000D02*
X-41723200Y11462000D01*
X-38273200Y11422000D02*
X-41706200Y11422000D01*
X-38273200Y11382000D02*
X-41689200Y11382000D01*
X-38273200Y11342000D02*
X-41671200Y11342000D01*
X-38273200Y11302000D02*
X-41653200Y11302000D01*
X-38273200Y11262000D02*
X-41635200Y11262000D01*
X-38273200Y11222000D02*
X-41616200Y11222000D01*
X-38273200Y11182000D02*
X-41597200Y11182000D01*
X-38273200Y11142000D02*
X-41577200Y11142000D01*
X-38273200Y11102000D02*
X-41557200Y11102000D01*
X-38273200Y11062000D02*
X-41537200Y11062000D01*
X-38273200Y11022000D02*
X-41516200Y11022000D01*
X-38273200Y10982000D02*
X-41494200Y10982000D01*
X-38273200Y10942000D02*
X-41472200Y10942000D01*
X-38273200Y10902000D02*
X-41450200Y10902000D01*
X-38273200Y10862000D02*
X-41427200Y10862000D01*
X-38273200Y10822000D02*
X-41404200Y10822000D01*
X-38273200Y10782000D02*
X-41380200Y10782000D01*
X-38273200Y10742000D02*
X-41356200Y10742000D01*
X-38273200Y10702000D02*
X-41331200Y10702000D01*
X-38273200Y10662000D02*
X-41305200Y10662000D01*
X-38273200Y10622000D02*
X-41280200Y10622000D01*
X-38273200Y10582000D02*
X-41253200Y10582000D01*
X-38273200Y10542000D02*
X-41226200Y10542000D01*
X-38273200Y10502000D02*
X-41199200Y10502000D01*
X-38273200Y10462000D02*
X-41171200Y10462000D01*
X-38273200Y10422000D02*
X-41142200Y10422000D01*
X-38273200Y10382000D02*
X-41113200Y10382000D01*
X-38273200Y10342000D02*
X-41083200Y10342000D01*
X-38273200Y10302000D02*
X-41053200Y10302000D01*
X-38273200Y10262000D02*
X-41021200Y10262000D01*
X-38273200Y10222000D02*
X-40990200Y10222000D01*
X-38273200Y10182000D02*
X-40957200Y10182000D01*
X-38273200Y10142000D02*
X-40924200Y10142000D01*
X-38273200Y10102000D02*
X-40891200Y10102000D01*
X-38273200Y10062000D02*
X-40856200Y10062000D01*
X-38273200Y10022000D02*
X-40821200Y10022000D01*
X-38273200Y9982000D02*
X-40785200Y9982000D01*
X-38273200Y9942000D02*
X-40749200Y9942000D01*
X-38273200Y9902000D02*
X-40711200Y9902000D01*
X-38273200Y9862000D02*
X-40673200Y9862000D01*
X-38273200Y9822000D02*
X-40634200Y9822000D01*
X-38273200Y9782000D02*
X-40594200Y9782000D01*
X-38273200Y9742000D02*
X-40553200Y9742000D01*
X-38273200Y9702000D02*
X-40511200Y9702000D01*
X-36434200Y8342000D02*
X-37632200Y8342000D01*
X-36171200Y8382000D02*
X-37895200Y8382000D01*
X-35971200Y8422000D02*
X-38095200Y8422000D01*
X-35803200Y8462000D02*
X-38263200Y8462000D01*
X-35656200Y8502000D02*
X-38410200Y8502000D01*
X-35524200Y8542000D02*
X-38542200Y8542000D01*
X-35403200Y8582000D02*
X-38663200Y8582000D01*
X-35291200Y8622000D02*
X-38775200Y8622000D01*
X-35187200Y8662000D02*
X-38879200Y8662000D01*
X-35089200Y8702000D02*
X-38977200Y8702000D01*
X-34996200Y8742000D02*
X-39070200Y8742000D01*
X-34909200Y8782000D02*
X-39157200Y8782000D01*
X-34825200Y8822000D02*
X-39241200Y8822000D01*
X-34745200Y8862000D02*
X-39321200Y8862000D01*
X-34668200Y8902000D02*
X-39398200Y8902000D01*
X-34594200Y8942000D02*
X-39472200Y8942000D01*
X-34523200Y8982000D02*
X-39543200Y8982000D01*
X-34455200Y9022000D02*
X-39611200Y9022000D01*
X-34389200Y9062000D02*
X-39677200Y9062000D01*
X-34325200Y9102000D02*
X-39741200Y9102000D01*
X-34263200Y9142000D02*
X-39803200Y9142000D01*
X-34203200Y9182000D02*
X-39863200Y9182000D01*
X-34158200Y18901646D02*
X-34158200Y17901646D01*
X-34145200Y9222000D02*
X-39921200Y9222000D01*
X-34088200Y9262000D02*
X-39978200Y9262000D01*
X-34033200Y9302000D02*
X-40033200Y9302000D01*
X-33980200Y9342000D02*
X-40086200Y9342000D01*
X-33928200Y9382000D02*
X-40138200Y9382000D01*
X-33877200Y9422000D02*
X-40189200Y9422000D01*
X-33828200Y9462000D02*
X-40238200Y9462000D01*
X-33779200Y9502000D02*
X-40287200Y9502000D01*
X-33732200Y9542000D02*
X-40334200Y9542000D01*
X-33686200Y9582000D02*
X-40380200Y9582000D01*
X-33658200Y18401646D02*
X-34658200Y18401646D01*
X-33642200Y9622000D02*
X-40424200Y9622000D01*
X-33598200Y9662000D02*
X-40468200Y9662000D01*
X-33555200Y9702000D02*
X-35793200Y9702000D01*
X-33513200Y9742000D02*
X-35793200Y9742000D01*
X-33472200Y9782000D02*
X-35793200Y9782000D01*
X-33432200Y9822000D02*
X-35793200Y9822000D01*
X-33393200Y9862000D02*
X-35793200Y9862000D01*
X-33355200Y9902000D02*
X-35793200Y9902000D01*
X-33317200Y9942000D02*
X-35793200Y9942000D01*
X-33281200Y9982000D02*
X-35793200Y9982000D01*
X-33245200Y10022000D02*
X-35793200Y10022000D01*
X-33210200Y10062000D02*
X-35793200Y10062000D01*
X-33175200Y10102000D02*
X-35793200Y10102000D01*
X-33142200Y10142000D02*
X-35793200Y10142000D01*
X-33109200Y10182000D02*
X-35793200Y10182000D01*
X-33076200Y10222000D02*
X-35793200Y10222000D01*
X-33045200Y10262000D02*
X-35793200Y10262000D01*
X-33013200Y10302000D02*
X-35793200Y10302000D01*
X-32983200Y10342000D02*
X-35793200Y10342000D01*
X-32953200Y10382000D02*
X-35793200Y10382000D01*
X-32924200Y10422000D02*
X-35793200Y10422000D01*
X-32895200Y10462000D02*
X-35793200Y10462000D01*
X-32867200Y10502000D02*
X-35793200Y10502000D01*
X-32840200Y10542000D02*
X-35793200Y10542000D01*
X-32813200Y10582000D02*
X-35793200Y10582000D01*
X-32786200Y10622000D02*
X-35793200Y10622000D01*
X-32761200Y10662000D02*
X-35793200Y10662000D01*
X-32735200Y10702000D02*
X-35793200Y10702000D01*
X-32710200Y10742000D02*
X-35793200Y10742000D01*
X-32686200Y10782000D02*
X-35793200Y10782000D01*
X-32662200Y10822000D02*
X-35793200Y10822000D01*
X-32639200Y10862000D02*
X-35793200Y10862000D01*
X-32616200Y10902000D02*
X-35793200Y10902000D01*
X-32594200Y10942000D02*
X-35793200Y10942000D01*
X-32572200Y10982000D02*
X-35793200Y10982000D01*
X-32550200Y11022000D02*
X-35793200Y11022000D01*
X-32529200Y11062000D02*
X-35793200Y11062000D01*
X-32509200Y11102000D02*
X-35793200Y11102000D01*
X-32489200Y11142000D02*
X-35793200Y11142000D01*
X-32469200Y11182000D02*
X-35793200Y11182000D01*
X-32450200Y11222000D02*
X-35793200Y11222000D01*
X-32431200Y11262000D02*
X-35793200Y11262000D01*
X-32413200Y11302000D02*
X-35793200Y11302000D01*
X-32395200Y11342000D02*
X-35793200Y11342000D01*
X-32377200Y11382000D02*
X-35793200Y11382000D01*
X-32360200Y11422000D02*
X-35793200Y11422000D01*
X-32343200Y11462000D02*
X-35793200Y11462000D01*
X-32327200Y11502000D02*
X-35793200Y11502000D01*
X-32311200Y11542000D02*
X-35793200Y11542000D01*
X-32295200Y11582000D02*
X-35793200Y11582000D01*
X-32280200Y11622000D02*
X-35793200Y11622000D01*
X-32265200Y11662000D02*
X-35793200Y11662000D01*
X-32251200Y11702000D02*
X-35793200Y11702000D01*
X-32236200Y11742000D02*
X-35793200Y11742000D01*
X-32223200Y11782000D02*
X-35793200Y11782000D01*
X-32209200Y11822000D02*
X-35793200Y11822000D01*
X-32196200Y11862000D02*
X-35793200Y11862000D01*
X-32184200Y11902000D02*
X-35793200Y11902000D01*
X-32172200Y11942000D02*
X-35793200Y11942000D01*
X-32160200Y11982000D02*
X-35793200Y11982000D01*
X-32148200Y12022000D02*
X-35793200Y12022000D01*
X-32137200Y12062000D02*
X-35793200Y12062000D01*
X-32126200Y12102000D02*
X-35793200Y12102000D01*
X-32116200Y12142000D02*
X-35793200Y12142000D01*
X-32105200Y12182000D02*
X-41961200Y12182000D01*
X-32096200Y12222000D02*
X-41970200Y12222000D01*
X-32086200Y12262000D02*
X-41980200Y12262000D01*
X-32077200Y12302000D02*
X-41989200Y12302000D01*
X-32068200Y12342000D02*
X-41998200Y12342000D01*
X-32060200Y12382000D02*
X-42006200Y12382000D01*
X-32052200Y12422000D02*
X-42014200Y12422000D01*
X-32044200Y12462000D02*
X-42022200Y12462000D01*
X-32036200Y12502000D02*
X-42030200Y12502000D01*
X-32029200Y12542000D02*
X-42037200Y12542000D01*
X-32022200Y12582000D02*
X-42044200Y12582000D01*
X-32016200Y12622000D02*
X-42050200Y12622000D01*
X-32010200Y12662000D02*
X-42056200Y12662000D01*
X-32004200Y12702000D02*
X-42062200Y12702000D01*
X-31998200Y12742000D02*
X-42068200Y12742000D01*
X-31993200Y12782000D02*
X-42073200Y12782000D01*
X-31988200Y12822000D02*
X-42078200Y12822000D01*
X-31984200Y12862000D02*
X-42082200Y12862000D01*
X-31979200Y12902000D02*
X-42087200Y12902000D01*
X-31976200Y12942000D02*
X-42090200Y12942000D01*
X-31972200Y12982000D02*
X-42094200Y12982000D01*
X-31969200Y13022000D02*
X-42097200Y13022000D01*
X-31966200Y13062000D02*
X-42100200Y13062000D01*
X-31963200Y13102000D02*
X-42103200Y13102000D01*
X-31961200Y13142000D02*
X-42105200Y13142000D01*
X-31959200Y13182000D02*
X-42107200Y13182000D01*
X-31957200Y13222000D02*
X-42109200Y13222000D01*
X-31956200Y13262000D02*
X-42110200Y13262000D01*
X-31954200Y13342000D02*
X-42112200Y13342000D01*
X-31954200Y13302000D02*
X-42112200Y13302000D01*
X-31953200Y13422000D02*
X-42113200Y13422000D01*
X-31953200Y13382000D02*
X-42113200Y13382000D01*
X-31913200Y13422000D02*
G75*
G02*
X-42153200Y13422000I-5120000J0D01*
G01*
X-42153200Y13422000D02*
G75*
G02*
X-31913200Y13422000I5120000J0D01*
G01*
%TO.C,U1*%
X-27802400Y26440400D02*
X-27802400Y25075400D01*
X-27802400Y25075400D02*
X-26852400Y25075400D01*
X-17402400Y26440400D02*
X-17402400Y25075400D01*
X-17402400Y25075400D02*
X-18352400Y25075400D01*
X-26812400Y22250400D02*
X-27282400Y21910400D01*
X-27282400Y22590400D01*
X-26812400Y22250400D01*
G36*
X-26812400Y22250400D02*
G01*
X-27282400Y21910400D01*
X-27282400Y22590400D01*
X-26812400Y22250400D01*
G37*
%TO.C,J1*%
X-48612800Y25613800D02*
X-40772800Y25613800D01*
X-48612800Y24043800D02*
X-48612800Y25613800D01*
X-48612800Y18373800D02*
X-48612800Y23443800D01*
X-48092800Y25613800D02*
X-48092800Y18373800D01*
X-46992800Y25613800D02*
X-46992800Y18373800D01*
X-40772800Y25613800D02*
X-40772800Y18373800D01*
X-40772800Y18373800D02*
X-48612800Y18373800D01*
X-48612800Y23743800D02*
X-49222800Y23303800D01*
X-49222800Y24183800D01*
X-48612800Y23743800D01*
G36*
X-48612800Y23743800D02*
G01*
X-49222800Y23303800D01*
X-49222800Y24183800D01*
X-48612800Y23743800D01*
G37*
%TO.C,R1*%
X-10618736Y33348600D02*
X-11072864Y33348600D01*
X-10618736Y31878600D02*
X-11072864Y31878600D01*
%TD*%
M02*
