M48
; DRILL file KiCad 10.0.4 date 2026-07-06T22:31:50
; FORMAT={-:-/ absolute / metric / decimal}
; #@! TF.CreationDate,2026-07-06T22:31:50+03:00
; #@! TF.GenerationSoftware,Kicad,Pcbnew,10.0.4
; #@! TF.FileFunction,Plated,1,2,PTH
FMAT,2
METRIC
; #@! TA.AperFunction,Plated,PTH,ViaDrill
T1C0.300
; #@! TA.AperFunction,Plated,PTH,ComponentDrill
T2C0.800
; #@! TA.AperFunction,Plated,PTH,ComponentDrill
T3C1.000
; #@! TA.AperFunction,Plated,PTH,ComponentDrill
T4C1.200
; #@! TA.AperFunction,Plated,PTH,ComponentDrill
T5C3.200
%
G90
G05
T1
X25.384Y-140.284
X26.124Y-135.56
X28.384Y-140.284
X30.493Y-135.56
X32.827Y-149.25
X33.337Y-144.882
X33.693Y-146.466
X33.744Y-143.367
X35.268Y-142.96
X35.268Y-146.847
X35.827Y-149.25
X36.36Y-129.168
X36.716Y-146.339
X36.767Y-143.392
X36.868Y-127.61
X37.198Y-144.882
X38.417Y-127.203
X38.827Y-149.25
X39.967Y-127.61
X40.526Y-129.168
X45.189Y-121.406
X45.189Y-124.406
X45.189Y-127.406
X45.834Y-129.997
X47.765Y-129.997
X48.189Y-121.406
X48.189Y-124.406
X48.189Y-127.406
X49.67Y-129.997
X49.695Y-136.373
X51.189Y-121.406
X51.189Y-124.406
X51.189Y-127.406
X53.096Y-136.347
X54.189Y-121.406
X54.189Y-124.406
X54.189Y-127.406
X54.851Y-131.678
X54.851Y-132.817
X54.851Y-133.756
X54.851Y-134.825
X61.938Y-148.819
X65.034Y-149.25
X68.034Y-121.054
X68.034Y-124.054
X68.034Y-127.054
X68.034Y-149.25
X68.542Y-142.24
X69.05Y-140.741
X69.05Y-143.586
X70.472Y-140.319
X70.472Y-144.205
X71.034Y-149.25
X71.183Y-132.055
X75.705Y-132.06
T2
X57.975Y-126.898
X60.211Y-143.819
X60.211Y-148.819
X60.515Y-126.898
X63.055Y-126.898
X65.479Y-142.164
X70.479Y-142.164
T3
X35.268Y-139.882
X35.268Y-144.882
X38.417Y-129.168
X38.417Y-134.168
T4
X28.308Y-132.06
X28.308Y-135.56
X73.444Y-132.06
X73.444Y-135.56
T5
X27.064Y-123.241
X27.064Y-146.38
X74.79Y-123.241
X74.79Y-146.38
M30
