%TF.GenerationSoftware,KiCad,Pcbnew,10.0.4*%
%TF.CreationDate,2026-07-06T22:31:50+03:00*%
%TF.ProjectId,LM2596project,4c4d3235-3936-4707-926f-6a6563742e6b,rev?*%
%TF.SameCoordinates,Original*%
%TF.FileFunction,Copper,L1,Top*%
%TF.FilePolarity,Positive*%
%FSLAX46Y46*%
G04 Gerber Fmt 4.6, Leading zero omitted, Abs format (unit mm)*
G04 Created by KiCad (PCBNEW 10.0.4) date 2026-07-06 22:31:50*
%MOMM*%
%LPD*%
G01*
G04 APERTURE LIST*
G04 Aperture macros list*
%AMRoundRect*
0 Rectangle with rounded corners*
0 $1 Rounding radius*
0 $2 $3 $4 $5 $6 $7 $8 $9 X,Y pos of 4 corners*
0 Add a 4 corners polygon primitive as box body*
4,1,4,$2,$3,$4,$5,$6,$7,$8,$9,$2,$3,0*
0 Add four circle primitives for the rounded corners*
1,1,$1+$1,$2,$3*
1,1,$1+$1,$4,$5*
1,1,$1+$1,$6,$7*
1,1,$1+$1,$8,$9*
0 Add four rect primitives between the rounded corners*
20,1,$1+$1,$2,$3,$4,$5,0*
20,1,$1+$1,$4,$5,$6,$7,0*
20,1,$1+$1,$6,$7,$8,$9,0*
20,1,$1+$1,$8,$9,$2,$3,0*%
G04 Aperture macros list end*
%ADD10C,0.300000*%
%TA.AperFunction,NonConductor*%
%ADD11C,0.200000*%
%TD*%
%TA.AperFunction,ComponentPad*%
%ADD12RoundRect,0.250001X0.949999X-0.949999X0.949999X0.949999X-0.949999X0.949999X-0.949999X-0.949999X0*%
%TD*%
%TA.AperFunction,ComponentPad*%
%ADD13C,2.400000*%
%TD*%
%TA.AperFunction,ComponentPad*%
%ADD14C,6.400000*%
%TD*%
%TA.AperFunction,ComponentPad*%
%ADD15RoundRect,0.250000X-0.550000X0.550000X-0.550000X-0.550000X0.550000X-0.550000X0.550000X0.550000X0*%
%TD*%
%TA.AperFunction,ComponentPad*%
%ADD16C,1.600000*%
%TD*%
%TA.AperFunction,ComponentPad*%
%ADD17C,1.440000*%
%TD*%
%TA.AperFunction,SMDPad,CuDef*%
%ADD18RoundRect,0.250000X1.400000X1.000000X-1.400000X1.000000X-1.400000X-1.000000X1.400000X-1.000000X0*%
%TD*%
%TA.AperFunction,ComponentPad*%
%ADD19RoundRect,0.250000X0.750000X-0.750000X0.750000X0.750000X-0.750000X0.750000X-0.750000X-0.750000X0*%
%TD*%
%TA.AperFunction,ComponentPad*%
%ADD20C,2.000000*%
%TD*%
%TA.AperFunction,ComponentPad*%
%ADD21RoundRect,0.250000X-0.550000X-0.550000X0.550000X-0.550000X0.550000X0.550000X-0.550000X0.550000X0*%
%TD*%
%TA.AperFunction,SMDPad,CuDef*%
%ADD22R,5.400000X2.900000*%
%TD*%
%TA.AperFunction,ComponentPad*%
%ADD23RoundRect,0.250000X-0.750000X0.750000X-0.750000X-0.750000X0.750000X-0.750000X0.750000X0.750000X0*%
%TD*%
%TA.AperFunction,SMDPad,CuDef*%
%ADD24RoundRect,0.250000X0.300000X-2.050000X0.300000X2.050000X-0.300000X2.050000X-0.300000X-2.050000X0*%
%TD*%
%TA.AperFunction,SMDPad,CuDef*%
%ADD25RoundRect,0.250002X5.149998X-4.449998X5.149998X4.449998X-5.149998X4.449998X-5.149998X-4.449998X0*%
%TD*%
%TA.AperFunction,ComponentPad*%
%ADD26RoundRect,0.250001X-0.949999X0.949999X-0.949999X-0.949999X0.949999X-0.949999X0.949999X0.949999X0*%
%TD*%
%TA.AperFunction,SMDPad,CuDef*%
%ADD27RoundRect,0.250000X0.262500X0.450000X-0.262500X0.450000X-0.262500X-0.450000X0.262500X-0.450000X0*%
%TD*%
%TA.AperFunction,ViaPad*%
%ADD28C,0.600000*%
%TD*%
%TA.AperFunction,Conductor*%
%ADD29C,0.750000*%
%TD*%
%TA.AperFunction,Conductor*%
%ADD30C,0.200000*%
%TD*%
%TA.AperFunction,Conductor*%
%ADD31C,2.000000*%
%TD*%
%ADD32C,0.300000*%
%ADD33C,0.350000*%
G04 APERTURE END LIST*
D10*
G36*
X48442502Y-114882285D02*
G01*
X48362463Y-115058104D01*
X47944441Y-115057914D01*
X47853134Y-115239589D01*
X47987057Y-115268824D01*
X48101676Y-115312740D01*
X48199755Y-115370460D01*
X48283429Y-115442018D01*
X48343815Y-115516102D01*
X48385859Y-115594654D01*
X48411037Y-115678893D01*
X48419567Y-115770525D01*
X48414464Y-115842706D01*
X48399524Y-115910169D01*
X48374870Y-115973745D01*
X48323843Y-116061060D01*
X48262599Y-116132788D01*
X48190910Y-116192154D01*
X48111883Y-116238416D01*
X48031836Y-116269980D01*
X47951505Y-116288577D01*
X47870057Y-116294726D01*
X47787216Y-116288924D01*
X47728601Y-116273905D01*
X47688177Y-116252145D01*
X47654922Y-116220793D01*
X47637026Y-116189966D01*
X47631341Y-116158422D01*
X47637066Y-116131734D01*
X47654903Y-116107691D01*
X47681210Y-116091297D01*
X47714447Y-116085645D01*
X47760972Y-116093909D01*
X47829188Y-116135889D01*
X47882289Y-116166282D01*
X47933839Y-116183615D01*
X47984869Y-116189265D01*
X48061089Y-116179282D01*
X48130554Y-116149473D01*
X48195478Y-116098045D01*
X48245990Y-116032597D01*
X48275965Y-115959383D01*
X48286254Y-115875794D01*
X48277445Y-115793739D01*
X48250907Y-115715344D01*
X48205395Y-115638995D01*
X48145878Y-115572376D01*
X48072148Y-115515844D01*
X47982173Y-115469175D01*
X47906139Y-115444370D01*
X47806433Y-115425765D01*
X47677841Y-115415364D01*
X47944521Y-114882059D01*
X48442502Y-114882285D01*
G37*
G36*
X49491769Y-114882762D02*
G01*
X49411730Y-115058580D01*
X48993708Y-115058391D01*
X48902401Y-115240066D01*
X49036324Y-115269301D01*
X49150944Y-115313216D01*
X49249022Y-115370936D01*
X49332696Y-115442494D01*
X49393082Y-115516578D01*
X49435126Y-115595130D01*
X49460304Y-115679369D01*
X49468834Y-115771002D01*
X49463732Y-115843182D01*
X49448791Y-115910645D01*
X49424137Y-115974222D01*
X49373110Y-116061536D01*
X49311866Y-116133265D01*
X49240177Y-116192630D01*
X49161150Y-116238892D01*
X49081103Y-116270456D01*
X49000772Y-116289054D01*
X48919324Y-116295203D01*
X48836483Y-116289401D01*
X48777869Y-116274381D01*
X48737444Y-116252622D01*
X48704189Y-116221270D01*
X48686293Y-116190443D01*
X48680608Y-116158898D01*
X48686333Y-116132210D01*
X48704170Y-116108168D01*
X48730477Y-116091774D01*
X48763714Y-116086121D01*
X48810239Y-116094385D01*
X48878455Y-116136365D01*
X48931556Y-116166759D01*
X48983107Y-116184091D01*
X49034136Y-116189742D01*
X49110356Y-116179759D01*
X49179821Y-116149949D01*
X49244745Y-116098521D01*
X49295258Y-116033074D01*
X49325232Y-115959860D01*
X49335521Y-115876271D01*
X49326712Y-115794215D01*
X49300174Y-115715820D01*
X49254662Y-115639471D01*
X49195145Y-115572852D01*
X49121416Y-115516321D01*
X49031440Y-115469652D01*
X48955406Y-115444846D01*
X48855700Y-115426241D01*
X48727108Y-115415841D01*
X48993788Y-114882536D01*
X49491769Y-114882762D01*
G37*
G36*
X49891847Y-116074085D02*
G01*
X49936329Y-116082505D01*
X49972799Y-116107461D01*
X49997353Y-116144148D01*
X50005552Y-116187893D01*
X49997200Y-116231525D01*
X49972176Y-116268295D01*
X49935453Y-116293207D01*
X49891744Y-116301506D01*
X49848026Y-116293170D01*
X49811251Y-116268222D01*
X49786331Y-116231436D01*
X49778039Y-116187790D01*
X49786439Y-116143300D01*
X49811324Y-116106839D01*
X49848087Y-116082281D01*
X49891847Y-116074085D01*
G37*
G36*
X50753271Y-114862748D02*
G01*
X50828335Y-114888513D01*
X50898230Y-114931887D01*
X50964136Y-114995080D01*
X51028849Y-115086256D01*
X51075248Y-115187166D01*
X51103762Y-115299647D01*
X51113600Y-115426084D01*
X51106369Y-115540083D01*
X51085029Y-115649211D01*
X51049602Y-115754414D01*
X50999649Y-115856510D01*
X50937561Y-115951526D01*
X50864524Y-116038086D01*
X50779927Y-116116729D01*
X50682868Y-116187743D01*
X50597852Y-116235377D01*
X50510139Y-116268949D01*
X50418898Y-116289081D01*
X50323141Y-116295840D01*
X50264705Y-116295814D01*
X50264725Y-116253315D01*
X50352115Y-116245562D01*
X50434464Y-116225217D01*
X50512781Y-116192245D01*
X50584130Y-116146327D01*
X50657884Y-116078839D01*
X50734709Y-115985350D01*
X50798950Y-115883354D01*
X50848574Y-115774935D01*
X50883967Y-115659170D01*
X50773016Y-115719802D01*
X50677063Y-115752499D01*
X50592844Y-115762536D01*
X50522105Y-115755437D01*
X50457603Y-115734638D01*
X50397851Y-115699868D01*
X50341844Y-115649674D01*
X50297278Y-115590487D01*
X50264855Y-115522060D01*
X50244584Y-115442638D01*
X50237474Y-115349940D01*
X50244204Y-115260548D01*
X50247877Y-115245060D01*
X50419972Y-115245060D01*
X50426502Y-115353773D01*
X50444787Y-115444124D01*
X50473220Y-115519085D01*
X50510952Y-115581149D01*
X50560265Y-115630964D01*
X50614162Y-115659289D01*
X50674860Y-115668784D01*
X50723655Y-115663753D01*
X50786611Y-115646487D01*
X50847817Y-115619234D01*
X50900396Y-115583341D01*
X50914840Y-115457408D01*
X50918902Y-115371590D01*
X50910901Y-115271412D01*
X50885202Y-115158259D01*
X50857915Y-115084140D01*
X50825828Y-115026510D01*
X50789478Y-114982544D01*
X50745261Y-114947980D01*
X50698753Y-114928050D01*
X50648547Y-114921389D01*
X50591414Y-114930056D01*
X50538759Y-114956322D01*
X50488683Y-115002833D01*
X50452645Y-115061090D01*
X50428867Y-115139785D01*
X50419972Y-115245060D01*
X50247877Y-115245060D01*
X50263881Y-115177572D01*
X50296355Y-115099836D01*
X50342127Y-115026396D01*
X50411761Y-114949360D01*
X50488582Y-114896453D01*
X50574155Y-114864815D01*
X50671200Y-114853988D01*
X50753271Y-114862748D01*
G37*
G36*
X51310465Y-115145721D02*
G01*
X51355694Y-115055737D01*
X51405816Y-114984745D01*
X51460589Y-114929909D01*
X51524759Y-114888581D01*
X51599190Y-114863272D01*
X51686579Y-114854449D01*
X51768688Y-114861909D01*
X51837098Y-114882875D01*
X51894488Y-114916386D01*
X51942710Y-114962918D01*
X51981114Y-115019592D01*
X52003101Y-115076718D01*
X52010317Y-115135689D01*
X52000394Y-115205154D01*
X51968877Y-115278890D01*
X51910984Y-115359336D01*
X51819574Y-115448478D01*
X51900453Y-115488323D01*
X51964125Y-115536217D01*
X52013132Y-115592181D01*
X52049143Y-115657078D01*
X52071063Y-115729581D01*
X52078612Y-115811571D01*
X52071201Y-115899968D01*
X52049621Y-115980623D01*
X52014039Y-116055024D01*
X51963706Y-116124302D01*
X51900636Y-116184601D01*
X51827515Y-116231925D01*
X51742863Y-116266761D01*
X51644612Y-116288686D01*
X51530219Y-116296388D01*
X51435760Y-116291219D01*
X51375385Y-116278512D01*
X51339084Y-116261405D01*
X51299660Y-116222916D01*
X51288469Y-116186369D01*
X51294319Y-116158835D01*
X51312489Y-116134173D01*
X51338935Y-116117326D01*
X51370477Y-116111668D01*
X51422680Y-116119843D01*
X51501523Y-116157340D01*
X51586593Y-116195755D01*
X51625373Y-116204164D01*
X51667555Y-116207058D01*
X51733835Y-116198186D01*
X51793779Y-116171738D01*
X51849400Y-116126082D01*
X51892678Y-116068314D01*
X51918192Y-116005071D01*
X51926881Y-115934326D01*
X51918064Y-115854736D01*
X51891141Y-115776315D01*
X51861785Y-115723656D01*
X51832745Y-115689094D01*
X51783119Y-115651580D01*
X51711879Y-115614667D01*
X51633823Y-115589533D01*
X51555090Y-115581256D01*
X51522301Y-115581242D01*
X51522318Y-115543140D01*
X51601950Y-115524250D01*
X51684735Y-115485603D01*
X51756699Y-115431760D01*
X51803123Y-115371442D01*
X51830733Y-115301823D01*
X51840100Y-115224822D01*
X51832379Y-115158192D01*
X51810321Y-115102927D01*
X51774048Y-115056447D01*
X51726740Y-115020920D01*
X51672635Y-114999572D01*
X51609671Y-114992167D01*
X51535770Y-115002120D01*
X51468179Y-115031940D01*
X51404680Y-115083687D01*
X51344255Y-115162132D01*
X51310465Y-115145721D01*
G37*
G36*
X52857007Y-114864406D02*
G01*
X52928677Y-114892974D01*
X52998894Y-114942751D01*
X53068797Y-115017926D01*
X53123291Y-115099645D01*
X53166982Y-115193312D01*
X53199561Y-115300647D01*
X53220156Y-115423719D01*
X53227368Y-115564888D01*
X53218762Y-115725120D01*
X53194796Y-115860812D01*
X53157480Y-115975551D01*
X53103494Y-116083262D01*
X53044096Y-116163343D01*
X52979591Y-116220751D01*
X52904792Y-116264809D01*
X52835879Y-116289228D01*
X52771095Y-116296952D01*
X52697427Y-116288319D01*
X52628918Y-116262633D01*
X52563791Y-116218666D01*
X52500977Y-116153390D01*
X52440191Y-116062237D01*
X52392839Y-115962077D01*
X52358011Y-115850466D01*
X52336284Y-115725744D01*
X52330179Y-115612382D01*
X52529605Y-115612382D01*
X52538508Y-115803727D01*
X52563010Y-115957920D01*
X52600101Y-116081086D01*
X52636446Y-116153493D01*
X52677145Y-116199433D01*
X52722352Y-116225281D01*
X52774146Y-116233939D01*
X52828037Y-116222595D01*
X52888932Y-116184257D01*
X52922901Y-116147191D01*
X52953264Y-116093248D01*
X52979225Y-116017694D01*
X53003397Y-115898433D01*
X53020199Y-115735976D01*
X53026620Y-115520284D01*
X53020506Y-115361489D01*
X53003515Y-115230542D01*
X52977616Y-115123398D01*
X52948048Y-115046909D01*
X52916094Y-114992820D01*
X52882346Y-114956201D01*
X52836602Y-114931038D01*
X52780970Y-114922357D01*
X52737213Y-114928968D01*
X52696339Y-114949097D01*
X52656927Y-114984858D01*
X52616213Y-115045891D01*
X52581993Y-115132626D01*
X52556330Y-115252441D01*
X52536264Y-115434538D01*
X52529605Y-115612382D01*
X52330179Y-115612382D01*
X52328758Y-115586004D01*
X52337503Y-115428739D01*
X52362060Y-115293404D01*
X52400660Y-115176900D01*
X52456371Y-115068073D01*
X52519995Y-114984238D01*
X52591377Y-114921447D01*
X52655328Y-114883659D01*
X52718444Y-114862012D01*
X52782008Y-114854947D01*
X52857007Y-114864406D01*
G37*
G36*
X53910685Y-114861711D02*
G01*
X53982342Y-114879490D01*
X54044122Y-114907841D01*
X54097580Y-114946677D01*
X54156062Y-115012627D01*
X54189102Y-115081167D01*
X54199976Y-115154636D01*
X54194239Y-115204999D01*
X54176379Y-115257542D01*
X54144583Y-115313429D01*
X54102328Y-115362792D01*
X54029162Y-115425203D01*
X53913962Y-115503743D01*
X54076005Y-115639645D01*
X54152640Y-115723028D01*
X54196670Y-115795621D01*
X54222051Y-115868520D01*
X54230393Y-115943249D01*
X54223340Y-116013997D01*
X54202695Y-116078394D01*
X54168228Y-116137928D01*
X54118538Y-116193608D01*
X54059908Y-116238107D01*
X53992692Y-116270344D01*
X53915264Y-116290414D01*
X53825491Y-116297431D01*
X53728083Y-116288923D01*
X53646000Y-116264936D01*
X53576349Y-116226553D01*
X53517069Y-116173368D01*
X53467164Y-116103265D01*
X53438510Y-116031491D01*
X53429057Y-115956165D01*
X53429633Y-115950924D01*
X53585863Y-115950924D01*
X53594515Y-116036235D01*
X53618862Y-116105568D01*
X53657941Y-116162349D01*
X53710454Y-116206420D01*
X53770920Y-116232666D01*
X53841911Y-116241751D01*
X53913240Y-116234308D01*
X53971372Y-116213310D01*
X54019168Y-116179458D01*
X54056489Y-116134374D01*
X54078369Y-116084463D01*
X54085824Y-116027905D01*
X54076006Y-115957685D01*
X54046957Y-115895904D01*
X53992379Y-115827408D01*
X53898917Y-115734939D01*
X53753079Y-115612205D01*
X53677639Y-115688655D01*
X53626887Y-115768219D01*
X53596257Y-115855595D01*
X53585863Y-115950924D01*
X53429633Y-115950924D01*
X53435618Y-115896509D01*
X53455772Y-115836010D01*
X53491147Y-115773469D01*
X53536873Y-115716917D01*
X53606094Y-115650731D01*
X53704920Y-115573257D01*
X53596481Y-115478119D01*
X53529401Y-115407537D01*
X53492344Y-115356089D01*
X53465599Y-115299931D01*
X53449957Y-115243528D01*
X53444794Y-115186075D01*
X53451348Y-115120851D01*
X53452621Y-115116899D01*
X53593386Y-115116899D01*
X53599948Y-115169358D01*
X53620448Y-115223341D01*
X53652641Y-115274255D01*
X53697797Y-115324584D01*
X53865803Y-115463787D01*
X53974417Y-115355772D01*
X54021679Y-115289468D01*
X54046062Y-115222384D01*
X54054534Y-115144769D01*
X54047231Y-115075578D01*
X54026821Y-115020538D01*
X53994160Y-114976489D01*
X53950390Y-114943406D01*
X53896365Y-114922859D01*
X53829141Y-114915506D01*
X53761816Y-114922625D01*
X53705934Y-114942872D01*
X53659029Y-114975787D01*
X53621896Y-115019331D01*
X53600542Y-115065840D01*
X53593386Y-115116899D01*
X53452621Y-115116899D01*
X53470590Y-115061107D01*
X53502815Y-115005499D01*
X53549405Y-114953115D01*
X53604283Y-114911367D01*
X53667700Y-114881026D01*
X53741282Y-114862069D01*
X53827153Y-114855422D01*
X53910685Y-114861711D01*
G37*
D11*
X22974527Y-118676800D02*
X22975356Y-116851054D01*
X78905327Y-118702200D02*
X78906156Y-116876454D01*
X22975090Y-117437474D02*
X78905890Y-117462874D01*
X22975090Y-117437474D02*
X24101860Y-116851565D01*
X22975090Y-117437474D02*
X24101327Y-118024406D01*
X78905890Y-117462874D02*
X77779120Y-118048783D01*
X78905890Y-117462874D02*
X77779653Y-116875942D01*
D10*
G36*
X83018397Y-131910146D02*
G01*
X83108438Y-131955262D01*
X83179493Y-132005296D01*
X83234396Y-132060001D01*
X83275804Y-132124120D01*
X83301206Y-132198518D01*
X83310138Y-132285896D01*
X83302780Y-132368015D01*
X83281900Y-132436451D01*
X83248460Y-132493883D01*
X83201988Y-132542162D01*
X83145362Y-132580637D01*
X83088264Y-132602695D01*
X83029301Y-132609985D01*
X82959824Y-132600149D01*
X82886049Y-132568724D01*
X82805531Y-132510931D01*
X82716275Y-132419632D01*
X82676531Y-132500560D01*
X82628717Y-132564292D01*
X82572814Y-132613369D01*
X82507962Y-132649460D01*
X82435486Y-132671471D01*
X82353505Y-132679122D01*
X82265099Y-132671821D01*
X82184418Y-132650342D01*
X82109972Y-132614853D01*
X82040631Y-132564606D01*
X81980254Y-132501611D01*
X81932839Y-132428548D01*
X81897897Y-132343940D01*
X81875850Y-132245717D01*
X81868005Y-132131333D01*
X81873057Y-132036868D01*
X81885689Y-131976477D01*
X81902750Y-131940155D01*
X81941190Y-131900683D01*
X81977723Y-131889446D01*
X82005264Y-131895263D01*
X82029949Y-131913402D01*
X82046829Y-131939826D01*
X82052526Y-131971361D01*
X82044416Y-132023574D01*
X82007018Y-132102464D01*
X81968708Y-132187582D01*
X81960348Y-132226372D01*
X81957507Y-132268558D01*
X81966461Y-132334827D01*
X81992984Y-132394737D01*
X82038709Y-132450302D01*
X82096530Y-132493508D01*
X82159805Y-132518943D01*
X82230562Y-132527544D01*
X82310140Y-132518628D01*
X82388528Y-132491607D01*
X82441151Y-132462186D01*
X82475676Y-132433103D01*
X82513128Y-132383429D01*
X82549952Y-132312144D01*
X82574989Y-132234057D01*
X82583167Y-132155314D01*
X82583142Y-132122524D01*
X82621243Y-132122494D01*
X82640232Y-132202102D01*
X82678983Y-132284839D01*
X82732915Y-132356736D01*
X82793290Y-132403084D01*
X82862944Y-132430608D01*
X82939957Y-132439879D01*
X83006577Y-132432076D01*
X83061814Y-132409948D01*
X83108249Y-132373617D01*
X83143717Y-132326265D01*
X83164998Y-132272133D01*
X83172324Y-132209161D01*
X83162279Y-132135272D01*
X83132376Y-132067718D01*
X83080549Y-132004284D01*
X83002029Y-131943956D01*
X83018397Y-131910146D01*
G37*
G36*
X82162430Y-133815644D02*
G01*
X81892709Y-133718496D01*
X81892060Y-132898756D01*
X81930070Y-132898726D01*
X82158139Y-133136866D01*
X82335074Y-133301139D01*
X82470128Y-133407545D01*
X82580894Y-133476522D01*
X82680388Y-133521721D01*
X82770490Y-133546886D01*
X82853095Y-133554795D01*
X82938078Y-133545262D01*
X83009573Y-133518146D01*
X83070560Y-133473656D01*
X83118334Y-133415354D01*
X83146196Y-133351536D01*
X83155586Y-133279965D01*
X83148743Y-133213635D01*
X83128671Y-133152811D01*
X83094991Y-133096098D01*
X83049994Y-133047882D01*
X82991795Y-133007786D01*
X82917941Y-132975888D01*
X82917911Y-132937969D01*
X83012140Y-132957057D01*
X83090552Y-132985795D01*
X83155592Y-133023293D01*
X83209184Y-133069355D01*
X83253443Y-133125299D01*
X83284944Y-133187214D01*
X83304247Y-133256292D01*
X83310968Y-133334156D01*
X83303921Y-133417029D01*
X83283410Y-133490644D01*
X83249830Y-133556722D01*
X83202564Y-133616525D01*
X83144589Y-133667075D01*
X83083322Y-133702043D01*
X83017787Y-133722912D01*
X82946565Y-133730026D01*
X82877230Y-133724772D01*
X82807119Y-133708665D01*
X82735501Y-133681009D01*
X82629007Y-133623991D01*
X82512281Y-133543455D01*
X82383871Y-133435365D01*
X82132654Y-133201914D01*
X82047571Y-133116895D01*
X82047859Y-133479687D01*
X82050503Y-133582066D01*
X82056316Y-133634835D01*
X82069012Y-133677395D01*
X82090085Y-133715226D01*
X82119992Y-133747995D01*
X82162400Y-133777725D01*
X82162430Y-133815644D01*
G37*
G36*
X82091174Y-134165120D02*
G01*
X82082810Y-134209613D01*
X82057899Y-134246113D01*
X82021243Y-134270713D01*
X81977508Y-134278966D01*
X81933866Y-134270669D01*
X81897065Y-134245691D01*
X81872107Y-134208999D01*
X81863754Y-134165300D01*
X81872035Y-134121572D01*
X81896938Y-134084765D01*
X81933692Y-134059800D01*
X81977328Y-134051454D01*
X82021828Y-134059798D01*
X82058321Y-134084638D01*
X82082924Y-134121370D01*
X82091174Y-134165120D01*
G37*
G36*
X82737906Y-134511437D02*
G01*
X82873271Y-134535825D01*
X82989824Y-134574279D01*
X83098719Y-134629855D01*
X83182634Y-134693374D01*
X83245514Y-134764677D01*
X83283382Y-134828582D01*
X83305107Y-134891670D01*
X83312251Y-134955226D01*
X83302885Y-135030237D01*
X83274407Y-135101942D01*
X83224717Y-135172221D01*
X83149630Y-135242218D01*
X83067979Y-135296813D01*
X82974366Y-135340621D01*
X82867072Y-135373334D01*
X82744026Y-135394082D01*
X82602865Y-135401470D01*
X82442623Y-135393064D01*
X82306902Y-135369266D01*
X82192116Y-135332094D01*
X82084338Y-135278242D01*
X82004183Y-135218944D01*
X81946694Y-135154510D01*
X81902543Y-135079766D01*
X81878038Y-135010884D01*
X81870592Y-134949082D01*
X81933251Y-134949082D01*
X81944662Y-135002958D01*
X81983076Y-135063806D01*
X82020184Y-135097729D01*
X82074164Y-135128025D01*
X82149751Y-135153891D01*
X82269041Y-135177915D01*
X82431520Y-135194514D01*
X82647219Y-135200667D01*
X82806006Y-135194355D01*
X82936932Y-135177200D01*
X83044045Y-135151168D01*
X83120496Y-135121505D01*
X83174545Y-135089483D01*
X83211123Y-135055690D01*
X83236228Y-135009915D01*
X83244839Y-134954272D01*
X83238174Y-134910523D01*
X83217995Y-134869675D01*
X83182185Y-134830307D01*
X83121100Y-134789669D01*
X83034323Y-134755557D01*
X82914476Y-134730043D01*
X82732355Y-134710204D01*
X82554502Y-134703767D01*
X82363169Y-134712908D01*
X82209006Y-134737602D01*
X82085887Y-134774846D01*
X82013524Y-134811281D01*
X81967636Y-134852039D01*
X81941843Y-134897277D01*
X81933251Y-134949082D01*
X81870592Y-134949082D01*
X81870234Y-134946109D01*
X81878775Y-134872431D01*
X81904375Y-134803890D01*
X81948262Y-134738708D01*
X82013459Y-134675812D01*
X82104536Y-134614914D01*
X82204637Y-134567437D01*
X82316205Y-134532470D01*
X82440900Y-134510587D01*
X82580630Y-134502887D01*
X82737906Y-134511437D01*
G37*
G36*
X82271504Y-135610133D02*
G01*
X82332028Y-135630212D01*
X82394613Y-135665508D01*
X82451222Y-135711164D01*
X82517494Y-135780303D01*
X82595092Y-135879032D01*
X82690094Y-135770474D01*
X82760593Y-135703307D01*
X82811994Y-135666186D01*
X82868120Y-135639370D01*
X82924503Y-135623659D01*
X82981949Y-135618424D01*
X83047181Y-135624897D01*
X83106949Y-135644064D01*
X83162598Y-135676220D01*
X83215040Y-135722744D01*
X83256855Y-135777571D01*
X83287276Y-135840950D01*
X83306325Y-135914508D01*
X83313079Y-136000371D01*
X83306893Y-136083911D01*
X83289203Y-136155590D01*
X83260929Y-136217405D01*
X83222160Y-136270912D01*
X83156284Y-136329475D01*
X83087784Y-136362601D01*
X83014329Y-136373567D01*
X82963959Y-136367892D01*
X82911394Y-136350098D01*
X82855467Y-136318371D01*
X82806052Y-136276178D01*
X82743549Y-136203089D01*
X82664866Y-136087987D01*
X82529166Y-136250199D01*
X82445878Y-136326939D01*
X82373341Y-136371058D01*
X82300473Y-136396531D01*
X82225755Y-136404966D01*
X82154998Y-136398001D01*
X82090575Y-136377436D01*
X82030998Y-136343043D01*
X81975256Y-136293423D01*
X81930684Y-136234848D01*
X81898364Y-136167673D01*
X81878197Y-136090270D01*
X81872367Y-136016856D01*
X81926769Y-136016856D01*
X81934301Y-136088175D01*
X81955371Y-136146281D01*
X81989283Y-136194035D01*
X82034413Y-136231300D01*
X82084351Y-136253117D01*
X82140919Y-136260502D01*
X82211126Y-136250596D01*
X82272871Y-136221471D01*
X82341299Y-136166808D01*
X82433652Y-136073230D01*
X82461732Y-136039779D01*
X82704762Y-136039779D01*
X82812912Y-136148258D01*
X82879275Y-136195437D01*
X82946389Y-136219737D01*
X83024014Y-136228112D01*
X83093197Y-136220723D01*
X83148211Y-136200244D01*
X83192219Y-136167529D01*
X83225248Y-136123717D01*
X83245727Y-136069667D01*
X83252997Y-136002434D01*
X83245794Y-135935118D01*
X83225477Y-135879261D01*
X83192503Y-135832397D01*
X83148914Y-135795318D01*
X83102378Y-135774022D01*
X83051310Y-135766929D01*
X82998860Y-135773557D01*
X82944902Y-135794125D01*
X82894028Y-135826381D01*
X82843756Y-135871599D01*
X82704762Y-136039779D01*
X82461732Y-136039779D01*
X82556204Y-135927239D01*
X82479660Y-135851895D01*
X82400033Y-135801242D01*
X82312619Y-135770721D01*
X82217276Y-135760446D01*
X82131976Y-135769204D01*
X82062673Y-135793637D01*
X82005941Y-135832787D01*
X81961936Y-135885355D01*
X81935766Y-135945854D01*
X81926769Y-136016856D01*
X81872367Y-136016856D01*
X81871069Y-136000505D01*
X81879455Y-135903087D01*
X81903340Y-135820973D01*
X81941636Y-135751275D01*
X81994747Y-135691929D01*
X82064788Y-135641937D01*
X82136526Y-135613194D01*
X82211840Y-135603646D01*
X82271504Y-135610133D01*
G37*
G36*
X82739568Y-136609971D02*
G01*
X82874933Y-136634359D01*
X82991485Y-136672813D01*
X83100381Y-136728388D01*
X83184295Y-136791908D01*
X83247175Y-136863211D01*
X83285043Y-136927116D01*
X83306769Y-136990204D01*
X83313913Y-137053760D01*
X83304547Y-137128771D01*
X83276069Y-137200476D01*
X83226379Y-137270755D01*
X83151291Y-137340752D01*
X83069640Y-137395347D01*
X82976028Y-137439155D01*
X82868733Y-137471868D01*
X82745687Y-137492616D01*
X82604527Y-137500004D01*
X82444285Y-137491598D01*
X82308563Y-137467800D01*
X82193777Y-137430628D01*
X82086000Y-137376776D01*
X82005844Y-137317477D01*
X81948356Y-137253044D01*
X81904205Y-137178300D01*
X81879699Y-137109418D01*
X81872253Y-137047616D01*
X81934912Y-137047616D01*
X81946323Y-137101492D01*
X81984737Y-137162340D01*
X82021846Y-137196263D01*
X82075826Y-137226558D01*
X82151413Y-137252425D01*
X82270703Y-137276449D01*
X82433181Y-137293048D01*
X82648881Y-137299201D01*
X82807668Y-137292889D01*
X82938594Y-137275734D01*
X83045706Y-137249702D01*
X83122158Y-137220039D01*
X83176206Y-137188017D01*
X83212784Y-137154223D01*
X83237890Y-137108449D01*
X83246501Y-137052805D01*
X83239836Y-137009057D01*
X83219656Y-136968209D01*
X83183846Y-136928841D01*
X83122762Y-136888202D01*
X83035984Y-136854090D01*
X82916138Y-136828577D01*
X82734016Y-136808738D01*
X82556164Y-136802301D01*
X82364831Y-136811442D01*
X82210668Y-136836136D01*
X82087548Y-136873380D01*
X82015186Y-136909815D01*
X81969297Y-136950572D01*
X81943505Y-136995811D01*
X81934912Y-137047616D01*
X81872253Y-137047616D01*
X81871895Y-137044643D01*
X81880436Y-136970965D01*
X81906037Y-136902423D01*
X81949923Y-136837242D01*
X82015120Y-136774346D01*
X82106198Y-136713447D01*
X82206298Y-136665971D01*
X82317866Y-136631004D01*
X82442561Y-136609121D01*
X82582291Y-136601421D01*
X82739568Y-136609971D01*
G37*
G36*
X82166169Y-138537345D02*
G01*
X81896448Y-138440197D01*
X81895799Y-137620457D01*
X81933809Y-137620427D01*
X82161878Y-137858568D01*
X82338813Y-138022841D01*
X82473867Y-138129246D01*
X82584633Y-138198224D01*
X82684126Y-138243422D01*
X82774229Y-138268587D01*
X82856834Y-138276496D01*
X82941817Y-138266963D01*
X83013311Y-138239847D01*
X83074298Y-138195358D01*
X83122073Y-138137055D01*
X83149934Y-138073237D01*
X83159325Y-138001667D01*
X83152482Y-137935336D01*
X83132410Y-137874512D01*
X83098729Y-137817800D01*
X83053733Y-137769583D01*
X82995534Y-137729487D01*
X82921680Y-137697589D01*
X82921650Y-137659670D01*
X83015879Y-137678758D01*
X83094290Y-137707496D01*
X83159331Y-137744994D01*
X83212922Y-137791056D01*
X83257182Y-137847000D01*
X83288682Y-137908915D01*
X83307986Y-137977993D01*
X83314706Y-138055857D01*
X83307660Y-138138730D01*
X83287148Y-138212345D01*
X83253569Y-138278423D01*
X83206303Y-138338227D01*
X83148328Y-138388777D01*
X83087060Y-138423744D01*
X83021526Y-138444613D01*
X82950304Y-138451728D01*
X82880968Y-138446473D01*
X82810858Y-138430366D01*
X82739239Y-138402710D01*
X82632745Y-138345692D01*
X82516019Y-138265156D01*
X82387610Y-138157067D01*
X82136393Y-137923616D01*
X82051310Y-137838596D01*
X82051597Y-138201388D01*
X82054242Y-138303767D01*
X82060055Y-138356537D01*
X82072751Y-138399097D01*
X82093824Y-138436927D01*
X82123731Y-138469696D01*
X82166139Y-138499426D01*
X82166169Y-138537345D01*
G37*
D11*
X79430500Y-151256604D02*
X81315515Y-151255112D01*
X79405100Y-119176404D02*
X81290115Y-119174912D01*
X80729095Y-151255576D02*
X80703695Y-119175376D01*
X80729095Y-151255576D02*
X80141783Y-150129537D01*
X80729095Y-151255576D02*
X81314624Y-150128608D01*
X80703695Y-119175376D02*
X81291007Y-120301415D01*
X80703695Y-119175376D02*
X80118166Y-120302344D01*
D12*
%TO.P,J2,1,Pin_1_1*%
%TO.N,Net-(J2-Pin_1)*%
X73444100Y-135559800D03*
D13*
%TO.P,J2,2,Pin_2_2*%
%TO.N,GND*%
X73444100Y-132059800D03*
%TD*%
D14*
%TO.P,REF\u002A\u002A,*%
%TO.N,GND*%
X74790300Y-123240800D03*
%TD*%
%TO.P,REF\u002A\u002A,*%
%TO.N,GND*%
X27063700Y-123240800D03*
%TD*%
D15*
%TO.P,C3,1*%
%TO.N,Net-(J2-Pin_1)*%
X60210700Y-143818600D03*
D16*
%TO.P,C3,2*%
%TO.N,GND*%
X60210700Y-148818600D03*
%TD*%
D17*
%TO.P,RV1,1,1_1*%
%TO.N,unconnected-(RV1-Pad1)*%
X63055500Y-126898400D03*
%TO.P,RV1,2,2_2*%
%TO.N,Net-(U1-FB)*%
X60515500Y-126898400D03*
%TO.P,RV1,3,3_3*%
%TO.N,Net-(J2-Pin_1)*%
X57975500Y-126898400D03*
%TD*%
D18*
%TO.P,D1,1,K_1*%
%TO.N,Net-(D1-K)*%
X59347100Y-138502600D03*
%TO.P,D1,2,A_2*%
%TO.N,GND*%
X59347100Y-131702600D03*
%TD*%
D19*
%TO.P,C2,1*%
%TO.N,Net-(J1-Pin_1)*%
X38417500Y-134168277D03*
D20*
%TO.P,C2,2*%
%TO.N,GND*%
X38417500Y-129168277D03*
%TD*%
D21*
%TO.P,C4,1*%
%TO.N,Net-(J2-Pin_1)*%
X65478849Y-142163800D03*
D16*
%TO.P,C4,2*%
%TO.N,GND*%
X70478849Y-142163800D03*
%TD*%
D22*
%TO.P,L1,1,1_1*%
%TO.N,Net-(D1-K)*%
X47960855Y-139042600D03*
%TO.P,L1,2,2_2*%
%TO.N,Net-(J2-Pin_1)*%
X47960855Y-148942600D03*
%TD*%
D14*
%TO.P,REF\u002A\u002A,*%
%TO.N,GND*%
X27063700Y-146380200D03*
%TD*%
%TO.P,REF\u002A\u002A,*%
%TO.N,GND*%
X74790300Y-146380200D03*
%TD*%
D23*
%TO.P,C1,1*%
%TO.N,Net-(J1-Pin_1)*%
X35267900Y-139881600D03*
D20*
%TO.P,C1,2*%
%TO.N,GND*%
X35267900Y-144881600D03*
%TD*%
D24*
%TO.P,U1,*%
%TO.N,GND*%
X53098700Y-133553200D03*
%TO.P,U1,1,VIN_1*%
%TO.N,Net-(J1-Pin_1)*%
X46298700Y-133553200D03*
%TO.P,U1,2,OUT_2*%
%TO.N,Net-(D1-K)*%
X47998700Y-133553200D03*
%TO.P,U1,3,GND_3*%
%TO.N,GND*%
X49698700Y-133553200D03*
D25*
X49698700Y-124403200D03*
D24*
%TO.P,U1,4,FB_4*%
%TO.N,Net-(U1-FB)*%
X51398700Y-133553200D03*
%TD*%
D26*
%TO.P,J1,1,Pin_1_1*%
%TO.N,Net-(J1-Pin_1)*%
X28308300Y-132059800D03*
D13*
%TO.P,J1,2,Pin_2_2*%
%TO.N,GND*%
X28308300Y-135559800D03*
%TD*%
D27*
%TO.P,R1,1*%
%TO.N,GND*%
X62367800Y-123190000D03*
%TO.P,R1,2*%
%TO.N,Net-(U1-FB)*%
X60542800Y-123190000D03*
%TD*%
D28*
%TO.N,GND*%
X54189100Y-121405600D03*
X33693100Y-146465677D03*
X45834300Y-129997200D03*
X38826700Y-149250400D03*
X68033900Y-149250400D03*
X35267900Y-142960477D03*
X38417500Y-127203200D03*
X49669700Y-129997200D03*
X40525700Y-129168277D03*
X32826700Y-149250400D03*
X36766500Y-143392277D03*
X70472300Y-144205077D03*
X75704700Y-132059800D03*
X30492700Y-135559800D03*
X39966900Y-127609600D03*
X68541900Y-142240000D03*
X69049900Y-140741400D03*
X53096050Y-136347496D03*
X68033900Y-124053600D03*
X54189100Y-124405600D03*
X25384500Y-140284200D03*
X37198300Y-144881600D03*
X45189100Y-124405600D03*
X51189100Y-124405600D03*
X35267900Y-146846677D03*
X48189100Y-127405600D03*
X68033900Y-127053600D03*
X71033900Y-149250400D03*
X45189100Y-127405600D03*
X51189100Y-127405600D03*
X33337500Y-144881600D03*
X49695100Y-136372600D03*
X54189100Y-127405600D03*
X51189100Y-121405600D03*
X48189100Y-124405600D03*
X70472300Y-140318877D03*
X36715700Y-146338677D03*
X26123900Y-135559800D03*
X54851300Y-132817187D03*
X65033900Y-149250400D03*
X54851300Y-131678391D03*
X71183500Y-132054600D03*
X36360100Y-129168277D03*
X54851300Y-134824754D03*
X68033900Y-121053600D03*
X35826700Y-149250400D03*
X47764700Y-129997200D03*
X45189100Y-121405600D03*
X33743900Y-143366877D03*
X28384500Y-140284200D03*
X36868100Y-127609600D03*
X54851300Y-133756400D03*
X69049900Y-143586200D03*
X61937900Y-148818600D03*
X48189100Y-121405600D03*
%TD*%
%TO.N,GND*%
D29*
X53098700Y-133553200D02*
X53098700Y-136344846D01*
X49698700Y-133553200D02*
X49698700Y-136369000D01*
X49698700Y-136369000D02*
X49695100Y-136372600D01*
X53098700Y-136344846D02*
X53096050Y-136347496D01*
%TO.N,Net-(U1-FB)*%
D30*
X55206900Y-130200400D02*
X51981100Y-130200400D01*
X51981100Y-130200400D02*
X51981100Y-130225800D01*
X56197500Y-129209800D02*
X55206900Y-130200400D01*
X60542800Y-123190000D02*
X57442100Y-123190000D01*
X57442100Y-123190000D02*
X56197500Y-124434600D01*
X56197500Y-124434600D02*
X56197500Y-129209800D01*
X51398700Y-130808200D02*
X51398700Y-133553200D01*
X51981100Y-130225800D02*
X51398700Y-130808200D01*
%TO.N,Net-(D1-K)*%
D31*
X59277500Y-138433000D02*
X59347100Y-138502600D01*
%TD*%
%TA.AperFunction,Conductor*%
%TO.N,Net-(D1-K)*%
G36*
X48521406Y-130916623D02*
G01*
X48536404Y-130921027D01*
X48551394Y-130930657D01*
X48568475Y-130935667D01*
X48595155Y-130958772D01*
X48596342Y-130960141D01*
X48623818Y-131015002D01*
X48625463Y-131022560D01*
X48628300Y-131048931D01*
X48628300Y-136982200D01*
X48997364Y-136982200D01*
X49017067Y-136985033D01*
X49032298Y-136987223D01*
X49057538Y-136994634D01*
X49110286Y-137025930D01*
X49136997Y-137052642D01*
X49137001Y-137052645D01*
X49280388Y-137148454D01*
X49280401Y-137148461D01*
X49280403Y-137148461D01*
X49280407Y-137148464D01*
X49379119Y-137189351D01*
X49439721Y-137214453D01*
X49439726Y-137214455D01*
X49439728Y-137214455D01*
X49439730Y-137214456D01*
X49518038Y-137230032D01*
X49608866Y-137248099D01*
X49608869Y-137248100D01*
X49608871Y-137248100D01*
X49781331Y-137248100D01*
X49781332Y-137248099D01*
X49950474Y-137214455D01*
X50109805Y-137148458D01*
X50253199Y-137052645D01*
X50274719Y-137031124D01*
X50302970Y-137009976D01*
X50326057Y-136997369D01*
X50385486Y-136982200D01*
X52423417Y-136982200D01*
X52458351Y-136987223D01*
X52483591Y-136994634D01*
X52534478Y-137024826D01*
X52534625Y-137024657D01*
X52535561Y-137025469D01*
X52536338Y-137025930D01*
X52537941Y-137027533D01*
X52537947Y-137027538D01*
X52537951Y-137027541D01*
X52681338Y-137123350D01*
X52681351Y-137123357D01*
X52681353Y-137123357D01*
X52681357Y-137123360D01*
X52741965Y-137148464D01*
X52840671Y-137189349D01*
X52840676Y-137189351D01*
X52840678Y-137189351D01*
X52840680Y-137189352D01*
X52918988Y-137204928D01*
X53009816Y-137222995D01*
X53009819Y-137222996D01*
X53009821Y-137222996D01*
X53182281Y-137222996D01*
X53182282Y-137222995D01*
X53351424Y-137189351D01*
X53474654Y-137138307D01*
X53510748Y-137123357D01*
X53510748Y-137123356D01*
X53510755Y-137123354D01*
X53654149Y-137027541D01*
X53654152Y-137027538D01*
X53654153Y-137027536D01*
X53658859Y-137023676D01*
X53659489Y-137024443D01*
X53678817Y-137009975D01*
X53701909Y-136997367D01*
X53761334Y-136982200D01*
X61694470Y-136982200D01*
X61729406Y-136987223D01*
X61744404Y-136991627D01*
X61803155Y-137029372D01*
X61804342Y-137030741D01*
X61831818Y-137085598D01*
X61833463Y-137093163D01*
X61836300Y-137119530D01*
X61836300Y-141056770D01*
X61836299Y-141056776D01*
X61836300Y-141056779D01*
X61831275Y-141091714D01*
X61826870Y-141106712D01*
X61789127Y-141165455D01*
X61789092Y-141165485D01*
X61789091Y-141165487D01*
X61789089Y-141165487D01*
X61787758Y-141166642D01*
X61732897Y-141194118D01*
X61725339Y-141195763D01*
X61698968Y-141198600D01*
X45010930Y-141198600D01*
X45010925Y-141198599D01*
X45010923Y-141198600D01*
X44975989Y-141193575D01*
X44960990Y-141189170D01*
X44902244Y-141151427D01*
X44902215Y-141151393D01*
X44902214Y-141151393D01*
X44902213Y-141151391D01*
X44901057Y-141150058D01*
X44873577Y-141095183D01*
X44871932Y-141087621D01*
X44869100Y-141061268D01*
X44869100Y-137124029D01*
X44874123Y-137089093D01*
X44878527Y-137074095D01*
X44916272Y-137015344D01*
X44916300Y-137015319D01*
X44916299Y-137015319D01*
X44917641Y-137014156D01*
X44972520Y-136986677D01*
X44980079Y-136985033D01*
X45006432Y-136982200D01*
X47307500Y-136982200D01*
X47307500Y-136436287D01*
X47318706Y-136384774D01*
X47366438Y-136280259D01*
X47386123Y-136213220D01*
X47386124Y-136213216D01*
X47406600Y-136070800D01*
X47406600Y-131035600D01*
X47426285Y-130968561D01*
X47479089Y-130922806D01*
X47530600Y-130911600D01*
X48486470Y-130911600D01*
X48521406Y-130916623D01*
G37*
%TD.AperFunction*%
%TD*%
%TA.AperFunction,Conductor*%
%TO.N,GND*%
G36*
X43698970Y-119707721D02*
G01*
X43704967Y-119709481D01*
X43713094Y-119711868D01*
X43727048Y-119720834D01*
X43743056Y-119725181D01*
X43755834Y-119739331D01*
X43771873Y-119749638D01*
X43779153Y-119765155D01*
X43789882Y-119777037D01*
X43800516Y-119810691D01*
X43802542Y-119822990D01*
X43803549Y-119855748D01*
X43798700Y-119903205D01*
X43798700Y-119903213D01*
X43798700Y-124153200D01*
X49556871Y-124153200D01*
X49591806Y-124158223D01*
X49606804Y-124162627D01*
X49665555Y-124200372D01*
X49665579Y-124200400D01*
X49665582Y-124200402D01*
X49665583Y-124200404D01*
X49666742Y-124201741D01*
X49694218Y-124256602D01*
X49695863Y-124264160D01*
X49698700Y-124290531D01*
X49698700Y-124403200D01*
X49806871Y-124403200D01*
X49841806Y-124408223D01*
X49856804Y-124412627D01*
X49915555Y-124450372D01*
X49915579Y-124450400D01*
X49915582Y-124450402D01*
X49915583Y-124450404D01*
X49916742Y-124451741D01*
X49944218Y-124506602D01*
X49945863Y-124514160D01*
X49948700Y-124540531D01*
X49948700Y-129603199D01*
X51411874Y-129603199D01*
X51446808Y-129608222D01*
X51459385Y-129611915D01*
X51518163Y-129649690D01*
X51547188Y-129713245D01*
X51539557Y-129777005D01*
X51538515Y-129779606D01*
X51537404Y-129781289D01*
X51537244Y-129782404D01*
X51534834Y-129785184D01*
X51511092Y-129821172D01*
X51500579Y-129831684D01*
X51500576Y-129831689D01*
X51478106Y-129870606D01*
X51469098Y-129884086D01*
X51459282Y-129896879D01*
X51448586Y-129909076D01*
X51029986Y-130327677D01*
X50918181Y-130439481D01*
X50918177Y-130439486D01*
X50918175Y-130439488D01*
X50895777Y-130478283D01*
X50895778Y-130478284D01*
X50892574Y-130483834D01*
X50873375Y-130517089D01*
X50839123Y-130576415D01*
X50807658Y-130693842D01*
X50798199Y-130729144D01*
X50797445Y-130734872D01*
X50796312Y-130741907D01*
X50794268Y-130752627D01*
X50793111Y-130754881D01*
X50791822Y-130759273D01*
X50790984Y-130759027D01*
X50790619Y-130759737D01*
X50786622Y-130775016D01*
X50787474Y-130775338D01*
X50785825Y-130779704D01*
X50785822Y-130779711D01*
X50785819Y-130779717D01*
X50784167Y-130784095D01*
X50782205Y-130783354D01*
X50776824Y-130791715D01*
X50771349Y-130809489D01*
X50749826Y-130833671D01*
X50749079Y-130834833D01*
X50747885Y-130835853D01*
X50746319Y-130837174D01*
X50731463Y-130847931D01*
X50623900Y-130914277D01*
X50622922Y-130912692D01*
X50592601Y-130928134D01*
X50583795Y-130930643D01*
X50583496Y-130929596D01*
X50572038Y-130930350D01*
X50558774Y-130935527D01*
X50528689Y-130933201D01*
X50523535Y-130933540D01*
X50520372Y-130932901D01*
X50519884Y-130932754D01*
X50515666Y-130931952D01*
X50515012Y-130931820D01*
X50512047Y-130930258D01*
X50470228Y-130912605D01*
X50470121Y-130912780D01*
X50468994Y-130912085D01*
X50468409Y-130911838D01*
X50467044Y-130910882D01*
X50347543Y-130837174D01*
X50317824Y-130818843D01*
X50317819Y-130818841D01*
X50311657Y-130816799D01*
X50151399Y-130763694D01*
X50151394Y-130763693D01*
X50048691Y-130753200D01*
X50048686Y-130753200D01*
X49948700Y-130753200D01*
X49948700Y-136353199D01*
X49970010Y-136353199D01*
X49999756Y-136361933D01*
X50030026Y-136368690D01*
X50032998Y-136371694D01*
X50037049Y-136372884D01*
X50057346Y-136396308D01*
X50079163Y-136418363D01*
X50080038Y-136422496D01*
X50082804Y-136425688D01*
X50087216Y-136456377D01*
X50093644Y-136486715D01*
X50092146Y-136490664D01*
X50092748Y-136494846D01*
X50079864Y-136523056D01*
X50068873Y-136552046D01*
X50064979Y-136555651D01*
X50063723Y-136558402D01*
X50043781Y-136576867D01*
X50040486Y-136579305D01*
X50000039Y-136605299D01*
X49971788Y-136626447D01*
X49942442Y-136651874D01*
X49938597Y-136654721D01*
X49937871Y-136654987D01*
X49933718Y-136658153D01*
X49882537Y-136692351D01*
X49880514Y-136693704D01*
X49859076Y-136705162D01*
X49814306Y-136723706D01*
X49791049Y-136730762D01*
X49773542Y-136734245D01*
X49743517Y-136740217D01*
X49719329Y-136742600D01*
X49670872Y-136742600D01*
X49646683Y-136740217D01*
X49646680Y-136740217D01*
X49628711Y-136736642D01*
X49617839Y-136734480D01*
X49610675Y-136733055D01*
X49610674Y-136733054D01*
X49610669Y-136733054D01*
X49599144Y-136730761D01*
X49576006Y-136723740D01*
X49576005Y-136723744D01*
X49575995Y-136723740D01*
X49575964Y-136723727D01*
X49575877Y-136723701D01*
X49574672Y-136723201D01*
X49574606Y-136723175D01*
X49572564Y-136722329D01*
X49572562Y-136722328D01*
X49531123Y-136705163D01*
X49509686Y-136693705D01*
X49445461Y-136650791D01*
X49438282Y-136645614D01*
X49413608Y-136626447D01*
X49368222Y-136591190D01*
X49355834Y-136583840D01*
X49308223Y-136532703D01*
X49295817Y-136463944D01*
X49322555Y-136399392D01*
X49379947Y-136359544D01*
X49419103Y-136353198D01*
X49448700Y-136353198D01*
X49448700Y-130753199D01*
X49448700Y-130753198D01*
X49348736Y-130753199D01*
X49348716Y-130753200D01*
X49348712Y-130753201D01*
X49348703Y-130753201D01*
X49348702Y-130753202D01*
X49245999Y-130763694D01*
X49190166Y-130782195D01*
X49120337Y-130784596D01*
X49060296Y-130748864D01*
X49048079Y-130733407D01*
X48978267Y-130628986D01*
X48977095Y-130627635D01*
X48977082Y-130627620D01*
X48977072Y-130627610D01*
X48977061Y-130627598D01*
X48926101Y-130576669D01*
X48926078Y-130576646D01*
X48899398Y-130553541D01*
X48899393Y-130553537D01*
X48899387Y-130553532D01*
X48841646Y-130510334D01*
X48841642Y-130510332D01*
X48791213Y-130487319D01*
X48791192Y-130487309D01*
X48678826Y-130436005D01*
X48673492Y-130434439D01*
X48663827Y-130431601D01*
X48625888Y-130423347D01*
X48593345Y-130416267D01*
X48558410Y-130411245D01*
X48486472Y-130406100D01*
X48486470Y-130406100D01*
X47530600Y-130406100D01*
X47530591Y-130406100D01*
X47530590Y-130406101D01*
X47423149Y-130417652D01*
X47423137Y-130417654D01*
X47371627Y-130428860D01*
X47269099Y-130462985D01*
X47223897Y-130492034D01*
X47156857Y-130511717D01*
X47105347Y-130500511D01*
X46986565Y-130446264D01*
X46986560Y-130446262D01*
X46986559Y-130446262D01*
X46941866Y-130433138D01*
X46919517Y-130426576D01*
X46847814Y-130416267D01*
X46777100Y-130406100D01*
X46777098Y-130406100D01*
X39353133Y-130406100D01*
X39286094Y-130386415D01*
X39265452Y-130369781D01*
X38673649Y-129777979D01*
X38640164Y-129716656D01*
X38645148Y-129646965D01*
X38687019Y-129591031D01*
X38699322Y-129582916D01*
X38724507Y-129568376D01*
X38817599Y-129475284D01*
X38832134Y-129450107D01*
X38882699Y-129401893D01*
X38951305Y-129388668D01*
X39016171Y-129414635D01*
X39027202Y-129424426D01*
X39640157Y-130037382D01*
X39640157Y-130037381D01*
X39640158Y-130037382D01*
X39640158Y-130037381D01*
X39653626Y-130031802D01*
X39659843Y-130010632D01*
X39663840Y-130004786D01*
X39684083Y-129976923D01*
X39700414Y-129954446D01*
X39700418Y-129954440D01*
X39807602Y-129744079D01*
X39880565Y-129519524D01*
X39917500Y-129286329D01*
X39917500Y-129050224D01*
X39894212Y-128903193D01*
X43798701Y-128903193D01*
X43809193Y-129005892D01*
X43809193Y-129005893D01*
X43809194Y-129005895D01*
X43864341Y-129172317D01*
X43864343Y-129172322D01*
X43956384Y-129321544D01*
X44080355Y-129445515D01*
X44229577Y-129537556D01*
X44229582Y-129537558D01*
X44396001Y-129592704D01*
X44396002Y-129592704D01*
X44396004Y-129592705D01*
X44396011Y-129592706D01*
X44498722Y-129603199D01*
X49448700Y-129603199D01*
X49448700Y-124653200D01*
X43798701Y-124653200D01*
X43798701Y-128903193D01*
X39894212Y-128903193D01*
X39880565Y-128817029D01*
X39807602Y-128592474D01*
X39700414Y-128382105D01*
X39663838Y-128331764D01*
X39654299Y-128305027D01*
X39640157Y-128299169D01*
X39027202Y-128912126D01*
X38965879Y-128945611D01*
X38896188Y-128940627D01*
X38840254Y-128898756D01*
X38832136Y-128886450D01*
X38817599Y-128861270D01*
X38724507Y-128768178D01*
X38708363Y-128758857D01*
X38699327Y-128753640D01*
X38651113Y-128703071D01*
X38637892Y-128634464D01*
X38663861Y-128569600D01*
X38673642Y-128558580D01*
X39286605Y-127945617D01*
X39286604Y-127945615D01*
X39203674Y-127885364D01*
X39157457Y-127861815D01*
X38993306Y-127778175D01*
X38923899Y-127755623D01*
X38861715Y-127735418D01*
X38832246Y-127715268D01*
X38535557Y-127668277D01*
X38535552Y-127668277D01*
X38299448Y-127668277D01*
X38299443Y-127668277D01*
X38066255Y-127705210D01*
X37841694Y-127778175D01*
X37631325Y-127885363D01*
X37548394Y-127945616D01*
X37548393Y-127945617D01*
X38161350Y-128558574D01*
X38194835Y-128619897D01*
X38189851Y-128689589D01*
X38147979Y-128745522D01*
X38135671Y-128753641D01*
X38110496Y-128768176D01*
X38110490Y-128768180D01*
X38017403Y-128861267D01*
X38017399Y-128861273D01*
X38002864Y-128886448D01*
X37952296Y-128934662D01*
X37883689Y-128947884D01*
X37818825Y-128921915D01*
X37807797Y-128912127D01*
X37194840Y-128299170D01*
X37194839Y-128299171D01*
X37134586Y-128382102D01*
X37027398Y-128592471D01*
X37027397Y-128592473D01*
X37027397Y-128592474D01*
X36999769Y-128677502D01*
X36954433Y-128817032D01*
X36917500Y-129050218D01*
X36917500Y-129286334D01*
X36947427Y-129475284D01*
X36954434Y-129519524D01*
X37017378Y-129713245D01*
X37027398Y-129744081D01*
X37134586Y-129954449D01*
X37134587Y-129954451D01*
X37194837Y-130037380D01*
X37194839Y-130037382D01*
X37194839Y-130037381D01*
X37194840Y-130037382D01*
X37807798Y-129424423D01*
X37869119Y-129390940D01*
X37938810Y-129395924D01*
X37994744Y-129437795D01*
X38002863Y-129450105D01*
X38017396Y-129475277D01*
X38017399Y-129475281D01*
X38017401Y-129475284D01*
X38110493Y-129568376D01*
X38135669Y-129582911D01*
X38183884Y-129633479D01*
X38197106Y-129702086D01*
X38171138Y-129766950D01*
X38161349Y-129777979D01*
X37569546Y-130369781D01*
X37508223Y-130403266D01*
X37481865Y-130406100D01*
X31461218Y-130406100D01*
X31394179Y-130386415D01*
X31348424Y-130333611D01*
X31340052Y-130308459D01*
X31331040Y-130267032D01*
X31296914Y-130164499D01*
X31296914Y-130164498D01*
X31219128Y-130043463D01*
X31219125Y-130043458D01*
X31213860Y-130037382D01*
X31173376Y-129990660D01*
X31173372Y-129990657D01*
X31173370Y-129990654D01*
X31064641Y-129896438D01*
X31064640Y-129896437D01*
X31064638Y-129896436D01*
X30970374Y-129853385D01*
X30933764Y-129836665D01*
X30933762Y-129836664D01*
X30933759Y-129836663D01*
X30933760Y-129836663D01*
X30894698Y-129825193D01*
X30868864Y-129817607D01*
X30867263Y-129817105D01*
X30866717Y-129816976D01*
X30724303Y-129796501D01*
X30724299Y-129796500D01*
X26628891Y-129796500D01*
X26521444Y-129808053D01*
X26521437Y-129808054D01*
X26469923Y-129819261D01*
X26367398Y-129853385D01*
X26367397Y-129853385D01*
X26246362Y-129931171D01*
X26246351Y-129931179D01*
X26193559Y-129976923D01*
X26099333Y-130085664D01*
X26099330Y-130085668D01*
X26039564Y-130216534D01*
X26019876Y-130283582D01*
X26014850Y-130318542D01*
X25999400Y-130426000D01*
X25999400Y-133581600D01*
X25999401Y-133581609D01*
X26010952Y-133689050D01*
X26010954Y-133689062D01*
X26022160Y-133740572D01*
X26056283Y-133843097D01*
X26056286Y-133843103D01*
X26134071Y-133964137D01*
X26134079Y-133964148D01*
X26179823Y-134016940D01*
X26179826Y-134016943D01*
X26179830Y-134016947D01*
X26288564Y-134111167D01*
X26419441Y-134170938D01*
X26486480Y-134190623D01*
X26486484Y-134190624D01*
X26628900Y-134211100D01*
X27261791Y-134211100D01*
X27328830Y-134230785D01*
X27349472Y-134247419D01*
X27978945Y-134876892D01*
X28012430Y-134938215D01*
X28007446Y-135007907D01*
X27965574Y-135063840D01*
X27953267Y-135071959D01*
X27939892Y-135079681D01*
X27939889Y-135079683D01*
X27828183Y-135191389D01*
X27828181Y-135191392D01*
X27820459Y-135204767D01*
X27769890Y-135252981D01*
X27701283Y-135266202D01*
X27636419Y-135240233D01*
X27625392Y-135230445D01*
X26942343Y-134547395D01*
X26942340Y-134547395D01*
X26891763Y-134613308D01*
X26780358Y-134806271D01*
X26780347Y-134806290D01*
X26725701Y-134938215D01*
X26696834Y-135007907D01*
X26695064Y-135012179D01*
X26695061Y-135012187D01*
X26637391Y-135227416D01*
X26637386Y-135227441D01*
X26637383Y-135227454D01*
X26608300Y-135448374D01*
X26608300Y-135671224D01*
X26637383Y-135892144D01*
X26637386Y-135892157D01*
X26637391Y-135892182D01*
X26681221Y-136055759D01*
X26695063Y-136107418D01*
X26731719Y-136195912D01*
X26780347Y-136313308D01*
X26780352Y-136313317D01*
X26780354Y-136313320D01*
X26885156Y-136494846D01*
X26891766Y-136506294D01*
X26891778Y-136506311D01*
X26942339Y-136572202D01*
X26942340Y-136572203D01*
X26942343Y-136572203D01*
X27625394Y-135889151D01*
X27686715Y-135855668D01*
X27756406Y-135860652D01*
X27812340Y-135902523D01*
X27820457Y-135914831D01*
X27828181Y-135928208D01*
X27939892Y-136039919D01*
X27953264Y-136047639D01*
X28001479Y-136098207D01*
X28014701Y-136166814D01*
X27988733Y-136231679D01*
X27978944Y-136242707D01*
X27295895Y-136925754D01*
X27295895Y-136925757D01*
X27361805Y-136976332D01*
X27361807Y-136976333D01*
X27554785Y-137087749D01*
X27554797Y-137087754D01*
X27760681Y-137173036D01*
X27906857Y-137212203D01*
X27975916Y-137230707D01*
X27975920Y-137230707D01*
X27975932Y-137230711D01*
X27975945Y-137230714D01*
X28196875Y-137259800D01*
X28419718Y-137259800D01*
X28419725Y-137259800D01*
X28640654Y-137230714D01*
X28640667Y-137230711D01*
X28855918Y-137173036D01*
X29061802Y-137087754D01*
X29061814Y-137087749D01*
X29254798Y-136976330D01*
X29320703Y-136925757D01*
X29320704Y-136925756D01*
X29320703Y-136925755D01*
X29320704Y-136925755D01*
X28637654Y-136242707D01*
X28604169Y-136181384D01*
X28609153Y-136111693D01*
X28651024Y-136055759D01*
X28663322Y-136047646D01*
X28676708Y-136039919D01*
X28788419Y-135928208D01*
X28796139Y-135914835D01*
X28846702Y-135866621D01*
X28915309Y-135853396D01*
X28980175Y-135879362D01*
X28991207Y-135889154D01*
X29674255Y-136572204D01*
X29674255Y-136572203D01*
X29674256Y-136572204D01*
X29674257Y-136572203D01*
X29724830Y-136506298D01*
X29836249Y-136313314D01*
X29836254Y-136313302D01*
X29921536Y-136107418D01*
X29979211Y-135892167D01*
X29979214Y-135892154D01*
X30008300Y-135671224D01*
X30008300Y-135448375D01*
X29979214Y-135227445D01*
X29979211Y-135227432D01*
X29973136Y-135204761D01*
X29960703Y-135158357D01*
X29921536Y-135012181D01*
X29836254Y-134806297D01*
X29836249Y-134806285D01*
X29724833Y-134613307D01*
X29724832Y-134613305D01*
X29674257Y-134547395D01*
X29674256Y-134547395D01*
X29674255Y-134547395D01*
X29674254Y-134547395D01*
X28991206Y-135230443D01*
X28929883Y-135263928D01*
X28860191Y-135258944D01*
X28804258Y-135217072D01*
X28796138Y-135204761D01*
X28788422Y-135191398D01*
X28788419Y-135191392D01*
X28676708Y-135079681D01*
X28669886Y-135075742D01*
X28663332Y-135071958D01*
X28615117Y-135021390D01*
X28601896Y-134952783D01*
X28627865Y-134887918D01*
X28637643Y-134876901D01*
X29267127Y-134247419D01*
X29328450Y-134213934D01*
X29354808Y-134211100D01*
X32555600Y-134211100D01*
X32622639Y-134230785D01*
X32668394Y-134283589D01*
X32679600Y-134335100D01*
X32679600Y-141404800D01*
X32679601Y-141404809D01*
X32691152Y-141512250D01*
X32691154Y-141512262D01*
X32702360Y-141563772D01*
X32736483Y-141666297D01*
X32736486Y-141666303D01*
X32814271Y-141787337D01*
X32814279Y-141787348D01*
X32860023Y-141840140D01*
X32860026Y-141840143D01*
X32860030Y-141840147D01*
X32968764Y-141934367D01*
X32968767Y-141934368D01*
X32968768Y-141934369D01*
X33070553Y-141980854D01*
X33099641Y-141994138D01*
X33166680Y-142013823D01*
X33166684Y-142013824D01*
X33309100Y-142034300D01*
X37252090Y-142034300D01*
X37252100Y-142034300D01*
X37359556Y-142022747D01*
X37411067Y-142011541D01*
X37445297Y-142000147D01*
X37513597Y-141977416D01*
X37513601Y-141977413D01*
X37513604Y-141977413D01*
X37634643Y-141899625D01*
X37687447Y-141853870D01*
X37781667Y-141745136D01*
X37841438Y-141614259D01*
X37861123Y-141547220D01*
X37861124Y-141547216D01*
X37881600Y-141404800D01*
X37881600Y-136824300D01*
X37901285Y-136757261D01*
X37954089Y-136711506D01*
X38005600Y-136700300D01*
X44306218Y-136700300D01*
X44373257Y-136719985D01*
X44419012Y-136772789D01*
X44428956Y-136841947D01*
X44419017Y-136875799D01*
X44393505Y-136931674D01*
X44393503Y-136931679D01*
X44390463Y-136942030D01*
X44389101Y-136946672D01*
X44382816Y-136975560D01*
X44373767Y-137017153D01*
X44368745Y-137052088D01*
X44363600Y-137124026D01*
X44363600Y-141061273D01*
X44366491Y-141115249D01*
X44366494Y-141115281D01*
X44369322Y-141141610D01*
X44377982Y-141195057D01*
X44377986Y-141195083D01*
X44379629Y-141202633D01*
X44379629Y-141202635D01*
X44421581Y-141321523D01*
X44421582Y-141321525D01*
X44449063Y-141376402D01*
X44449068Y-141376411D01*
X44493498Y-141442865D01*
X44493558Y-141442953D01*
X44517827Y-141479252D01*
X44517613Y-141479436D01*
X44517642Y-141479470D01*
X44519129Y-141481199D01*
X44519160Y-141481245D01*
X44520316Y-141482578D01*
X44520325Y-141482569D01*
X44520804Y-141482984D01*
X44521304Y-141483718D01*
X44536138Y-141500824D01*
X44542912Y-141503077D01*
X44553403Y-141511224D01*
X44591688Y-141544389D01*
X44609079Y-141559454D01*
X44628920Y-141576647D01*
X44628931Y-141576652D01*
X44629005Y-141576716D01*
X44687751Y-141614459D01*
X44687758Y-141614462D01*
X44818542Y-141674184D01*
X44818546Y-141674185D01*
X44818548Y-141674186D01*
X44833547Y-141678591D01*
X44904017Y-141693925D01*
X44938951Y-141698950D01*
X44956661Y-141701179D01*
X44966613Y-141700828D01*
X44983196Y-141701353D01*
X45010930Y-141704100D01*
X54747366Y-141704100D01*
X54814405Y-141723785D01*
X54860160Y-141776589D01*
X54870104Y-141845747D01*
X54870080Y-141845912D01*
X54865532Y-141877242D01*
X54860289Y-141949189D01*
X54854629Y-146233258D01*
X54834856Y-146300271D01*
X54781991Y-146345956D01*
X54730589Y-146357094D01*
X44676438Y-146353823D01*
X44622401Y-146356704D01*
X44622365Y-146356707D01*
X44596016Y-146359532D01*
X44596010Y-146359533D01*
X44542535Y-146368187D01*
X44534944Y-146369837D01*
X44534932Y-146369841D01*
X44416037Y-146411780D01*
X44416021Y-146411787D01*
X44361137Y-146439264D01*
X44361131Y-146439267D01*
X44256428Y-146509227D01*
X44255698Y-146509859D01*
X44255158Y-146510328D01*
X44255065Y-146510408D01*
X44254996Y-146510469D01*
X44252537Y-146512614D01*
X44252379Y-146512753D01*
X44160767Y-146619244D01*
X44123029Y-146677987D01*
X44123025Y-146677996D01*
X44063306Y-146808789D01*
X44063305Y-146808794D01*
X44058901Y-146823792D01*
X44058011Y-146827884D01*
X44043567Y-146894273D01*
X44038545Y-146929208D01*
X44033400Y-147001146D01*
X44033400Y-150593765D01*
X44033759Y-150600461D01*
X44017692Y-150668458D01*
X43967414Y-150716974D01*
X43909937Y-150731100D01*
X23642030Y-150731100D01*
X23642025Y-150731099D01*
X23642023Y-150731100D01*
X23607089Y-150726075D01*
X23592090Y-150721670D01*
X23533344Y-150683927D01*
X23533315Y-150683893D01*
X23533314Y-150683893D01*
X23533313Y-150683891D01*
X23532157Y-150682558D01*
X23504677Y-150627683D01*
X23503032Y-150620121D01*
X23500200Y-150593768D01*
X23500200Y-144763541D01*
X33767900Y-144763541D01*
X33767900Y-144999657D01*
X33797827Y-145188607D01*
X33804834Y-145232847D01*
X33847631Y-145364562D01*
X33877798Y-145457404D01*
X33984986Y-145667772D01*
X33984987Y-145667774D01*
X34045237Y-145750703D01*
X34045239Y-145750705D01*
X34045239Y-145750704D01*
X34045240Y-145750705D01*
X34658198Y-145137746D01*
X34719519Y-145104263D01*
X34789210Y-145109247D01*
X34845144Y-145151118D01*
X34853263Y-145163428D01*
X34867796Y-145188600D01*
X34867799Y-145188604D01*
X34867801Y-145188607D01*
X34960893Y-145281699D01*
X34986069Y-145296234D01*
X35034284Y-145346802D01*
X35047506Y-145415409D01*
X35021538Y-145480273D01*
X35011749Y-145491302D01*
X34398792Y-146104257D01*
X34398793Y-146104257D01*
X34398793Y-146104258D01*
X34481728Y-146164514D01*
X34692097Y-146271702D01*
X34823682Y-146314457D01*
X34853152Y-146334607D01*
X34916649Y-146344664D01*
X34916652Y-146344665D01*
X34916651Y-146344665D01*
X35149848Y-146381600D01*
X35385951Y-146381600D01*
X35385952Y-146381600D01*
X35619147Y-146344665D01*
X35843702Y-146271702D01*
X36054063Y-146164518D01*
X36054069Y-146164514D01*
X36104409Y-146127940D01*
X36131147Y-146118399D01*
X36137005Y-146104257D01*
X35524049Y-145491302D01*
X35490564Y-145429979D01*
X35495548Y-145360288D01*
X35537419Y-145304354D01*
X35549722Y-145296239D01*
X35574907Y-145281699D01*
X35667999Y-145188607D01*
X35682534Y-145163430D01*
X35733099Y-145115216D01*
X35801705Y-145101991D01*
X35866571Y-145127958D01*
X35877602Y-145137749D01*
X36490557Y-145750705D01*
X36490557Y-145750704D01*
X36490558Y-145750705D01*
X36490558Y-145750704D01*
X36504026Y-145745125D01*
X36510243Y-145723955D01*
X36514240Y-145718109D01*
X36522003Y-145707422D01*
X36550814Y-145667769D01*
X36550818Y-145667763D01*
X36658002Y-145457402D01*
X36730965Y-145232847D01*
X36767900Y-144999652D01*
X36767900Y-144763547D01*
X36730965Y-144530352D01*
X36658002Y-144305797D01*
X36550814Y-144095428D01*
X36514238Y-144045087D01*
X36504699Y-144018350D01*
X36490557Y-144012492D01*
X35877602Y-144625449D01*
X35816279Y-144658934D01*
X35746588Y-144653950D01*
X35690654Y-144612079D01*
X35682536Y-144599773D01*
X35667999Y-144574593D01*
X35574907Y-144481501D01*
X35558763Y-144472180D01*
X35549727Y-144466963D01*
X35501513Y-144416394D01*
X35488292Y-144347787D01*
X35514261Y-144282923D01*
X35524042Y-144271903D01*
X36137005Y-143658940D01*
X36137004Y-143658938D01*
X36054074Y-143598687D01*
X36050280Y-143596754D01*
X35843706Y-143491498D01*
X35758460Y-143463800D01*
X35712115Y-143448741D01*
X35682646Y-143428591D01*
X35385957Y-143381600D01*
X35385952Y-143381600D01*
X35149848Y-143381600D01*
X35149843Y-143381600D01*
X34916655Y-143418533D01*
X34692094Y-143491498D01*
X34481725Y-143598686D01*
X34398794Y-143658939D01*
X34398793Y-143658940D01*
X35011750Y-144271897D01*
X35045235Y-144333220D01*
X35040251Y-144402912D01*
X34998379Y-144458845D01*
X34986071Y-144466964D01*
X34960896Y-144481499D01*
X34960890Y-144481503D01*
X34867803Y-144574590D01*
X34867799Y-144574596D01*
X34853264Y-144599771D01*
X34802696Y-144647985D01*
X34734089Y-144661207D01*
X34669225Y-144635238D01*
X34658197Y-144625450D01*
X34045240Y-144012493D01*
X34045239Y-144012494D01*
X33984986Y-144095425D01*
X33877798Y-144305794D01*
X33877797Y-144305796D01*
X33877797Y-144305797D01*
X33847631Y-144398637D01*
X33804833Y-144530355D01*
X33767900Y-144763541D01*
X23500200Y-144763541D01*
X23500200Y-119844529D01*
X23505223Y-119809593D01*
X23509627Y-119794595D01*
X23547372Y-119735844D01*
X23547400Y-119735819D01*
X23547399Y-119735819D01*
X23548741Y-119734656D01*
X23603620Y-119707177D01*
X23611179Y-119705533D01*
X23637532Y-119702700D01*
X43664042Y-119702700D01*
X43698970Y-119707721D01*
G37*
%TD.AperFunction*%
%TA.AperFunction,Conductor*%
G36*
X78551706Y-119707723D02*
G01*
X78566704Y-119712127D01*
X78581694Y-119721757D01*
X78598775Y-119726767D01*
X78625455Y-119749872D01*
X78626642Y-119751241D01*
X78654118Y-119806102D01*
X78655763Y-119813660D01*
X78658600Y-119840031D01*
X78658600Y-150589270D01*
X78653575Y-150624214D01*
X78649170Y-150639212D01*
X78639539Y-150654201D01*
X78634532Y-150671275D01*
X78611427Y-150697955D01*
X78610058Y-150699142D01*
X78555197Y-150726618D01*
X78547639Y-150728263D01*
X78521268Y-150731100D01*
X59061148Y-150731100D01*
X58994109Y-150711415D01*
X58948354Y-150658611D01*
X58937571Y-150596865D01*
X58937828Y-150593768D01*
X58938200Y-150589270D01*
X58938200Y-149650860D01*
X58957885Y-149583821D01*
X59010689Y-149538066D01*
X59079847Y-149528122D01*
X59115758Y-149544522D01*
X59131224Y-149544522D01*
X59674203Y-149001542D01*
X59735524Y-148968059D01*
X59805215Y-148973043D01*
X59861149Y-149014914D01*
X59869267Y-149027222D01*
X59890620Y-149064206D01*
X59965094Y-149138680D01*
X59965095Y-149138681D01*
X59965097Y-149138682D01*
X60002073Y-149160030D01*
X60050288Y-149210596D01*
X60063512Y-149279203D01*
X60037544Y-149344068D01*
X60027754Y-149355098D01*
X59484775Y-149898073D01*
X59484776Y-149898073D01*
X59484776Y-149898074D01*
X59529350Y-149930459D01*
X59615486Y-149974347D01*
X59711663Y-150023353D01*
X59711665Y-150023353D01*
X59711668Y-150023355D01*
X59906282Y-150086590D01*
X60108383Y-150118600D01*
X60313016Y-150118600D01*
X60313017Y-150118600D01*
X60515117Y-150086590D01*
X60709731Y-150023355D01*
X60892049Y-149930459D01*
X60936621Y-149898074D01*
X60393645Y-149355098D01*
X60360160Y-149293775D01*
X60365144Y-149224083D01*
X60407016Y-149168150D01*
X60419318Y-149160034D01*
X60456306Y-149138680D01*
X60530780Y-149064206D01*
X60552130Y-149027225D01*
X60602695Y-148979011D01*
X60671302Y-148965787D01*
X60736167Y-148991754D01*
X60747198Y-149001545D01*
X61290173Y-149544520D01*
X61290174Y-149544521D01*
X61322559Y-149499949D01*
X61415455Y-149317631D01*
X61478690Y-149123017D01*
X61510700Y-148920917D01*
X61510700Y-148716282D01*
X61478690Y-148514182D01*
X61415455Y-148319568D01*
X61415453Y-148319565D01*
X61415453Y-148319563D01*
X61322559Y-148137250D01*
X61313856Y-148125272D01*
X61304315Y-148098533D01*
X61290173Y-148092675D01*
X60747197Y-148635653D01*
X60685874Y-148669138D01*
X60616183Y-148664154D01*
X60560249Y-148622283D01*
X60552130Y-148609974D01*
X60530780Y-148572994D01*
X60456306Y-148498520D01*
X60419325Y-148477169D01*
X60371110Y-148426603D01*
X60357886Y-148357996D01*
X60383854Y-148293131D01*
X60393636Y-148282109D01*
X60936622Y-147739124D01*
X60936621Y-147739123D01*
X60936620Y-147739122D01*
X60936619Y-147739121D01*
X60936614Y-147739117D01*
X60892060Y-147706747D01*
X60892057Y-147706744D01*
X60826106Y-147673140D01*
X60709731Y-147613844D01*
X60698606Y-147610229D01*
X60640934Y-147570792D01*
X60613737Y-147506433D01*
X60625652Y-147437587D01*
X60672897Y-147386112D01*
X60736929Y-147368300D01*
X66975123Y-147368300D01*
X67029193Y-147365400D01*
X67055564Y-147362563D01*
X67108999Y-147353899D01*
X67116557Y-147352254D01*
X67195797Y-147324285D01*
X67235416Y-147310302D01*
X67235418Y-147310301D01*
X67290279Y-147282825D01*
X67309118Y-147270224D01*
X67323384Y-147264308D01*
X67349700Y-147243081D01*
X67358301Y-147237327D01*
X67371089Y-147233316D01*
X67392343Y-147215098D01*
X67392864Y-147214678D01*
X67395210Y-147212641D01*
X67395221Y-147212635D01*
X67396552Y-147211480D01*
X67396550Y-147211478D01*
X67417607Y-147193208D01*
X67417610Y-147193201D01*
X67429632Y-147180747D01*
X67429334Y-147180470D01*
X67435370Y-147173979D01*
X67435374Y-147173977D01*
X67457210Y-147142495D01*
X67465360Y-147131997D01*
X67490565Y-147102904D01*
X67528308Y-147044161D01*
X67588038Y-146913363D01*
X67592443Y-146898365D01*
X67607780Y-146827884D01*
X67608370Y-146823786D01*
X67612805Y-146792949D01*
X67614181Y-146767175D01*
X67614418Y-146763697D01*
X67617955Y-146720970D01*
X67617955Y-142061476D01*
X69178849Y-142061476D01*
X69178849Y-142266122D01*
X69210857Y-142468211D01*
X69210858Y-142468217D01*
X69274093Y-142662831D01*
X69293184Y-142700298D01*
X69366993Y-142845157D01*
X69366996Y-142845160D01*
X69399366Y-142889714D01*
X69399370Y-142889719D01*
X69399372Y-142889721D01*
X69399373Y-142889722D01*
X69942352Y-142346742D01*
X70003673Y-142313259D01*
X70073364Y-142318243D01*
X70129298Y-142360114D01*
X70137416Y-142372422D01*
X70158769Y-142409406D01*
X70233243Y-142483880D01*
X70233244Y-142483881D01*
X70233246Y-142483882D01*
X70270222Y-142505230D01*
X70318437Y-142555796D01*
X70331661Y-142624403D01*
X70305693Y-142689268D01*
X70295903Y-142700298D01*
X69752924Y-143243273D01*
X69752925Y-143243273D01*
X69752925Y-143243274D01*
X69797499Y-143275659D01*
X69883635Y-143319547D01*
X69979812Y-143368553D01*
X69979814Y-143368553D01*
X69979817Y-143368555D01*
X70174431Y-143431790D01*
X70376532Y-143463800D01*
X70581165Y-143463800D01*
X70581166Y-143463800D01*
X70783266Y-143431790D01*
X70977880Y-143368555D01*
X71160198Y-143275659D01*
X71204770Y-143243274D01*
X70661794Y-142700298D01*
X70628309Y-142638975D01*
X70633293Y-142569283D01*
X70675165Y-142513350D01*
X70687467Y-142505234D01*
X70724455Y-142483880D01*
X70798929Y-142409406D01*
X70820279Y-142372425D01*
X70870844Y-142324211D01*
X70939451Y-142310987D01*
X71004316Y-142336954D01*
X71015347Y-142346745D01*
X71558322Y-142889720D01*
X71558323Y-142889721D01*
X71590708Y-142845149D01*
X71683604Y-142662831D01*
X71746839Y-142468217D01*
X71778849Y-142266117D01*
X71778849Y-142061482D01*
X71746839Y-141859382D01*
X71683604Y-141664768D01*
X71683602Y-141664765D01*
X71683602Y-141664763D01*
X71590708Y-141482450D01*
X71582005Y-141470472D01*
X71572464Y-141443733D01*
X71558322Y-141437875D01*
X71015346Y-141980853D01*
X70954023Y-142014338D01*
X70884332Y-142009354D01*
X70828398Y-141967483D01*
X70820279Y-141955174D01*
X70798929Y-141918194D01*
X70724455Y-141843720D01*
X70687474Y-141822369D01*
X70639259Y-141771803D01*
X70626035Y-141703196D01*
X70652003Y-141638331D01*
X70661785Y-141627309D01*
X71204771Y-141084324D01*
X71204770Y-141084323D01*
X71204769Y-141084322D01*
X71204768Y-141084321D01*
X71204763Y-141084317D01*
X71160209Y-141051947D01*
X71160206Y-141051944D01*
X71095047Y-141018744D01*
X70977880Y-140959044D01*
X70783266Y-140895809D01*
X70783260Y-140895808D01*
X70581171Y-140863800D01*
X70581166Y-140863800D01*
X70376532Y-140863800D01*
X70376527Y-140863800D01*
X70174436Y-140895808D01*
X70174434Y-140895808D01*
X70174431Y-140895809D01*
X70077124Y-140927426D01*
X69979812Y-140959045D01*
X69797489Y-141051945D01*
X69752926Y-141084322D01*
X69752926Y-141084323D01*
X69752926Y-141084324D01*
X70073411Y-141404809D01*
X70295904Y-141627301D01*
X70329389Y-141688624D01*
X70324405Y-141758315D01*
X70282534Y-141814249D01*
X70270223Y-141822369D01*
X70233246Y-141843717D01*
X70233241Y-141843721D01*
X70158770Y-141918192D01*
X70158764Y-141918200D01*
X70137417Y-141955174D01*
X70086850Y-142003389D01*
X70018242Y-142016611D01*
X69953378Y-141990643D01*
X69942350Y-141980854D01*
X69399373Y-141437877D01*
X69399372Y-141437877D01*
X69399371Y-141437877D01*
X69366994Y-141482440D01*
X69274094Y-141664763D01*
X69261313Y-141704100D01*
X69210858Y-141859382D01*
X69210857Y-141859385D01*
X69210857Y-141859387D01*
X69178849Y-142061476D01*
X67617955Y-142061476D01*
X67617955Y-138449900D01*
X67637640Y-138382861D01*
X67690444Y-138337106D01*
X67741955Y-138325900D01*
X75922968Y-138325900D01*
X75977038Y-138323000D01*
X76003409Y-138320163D01*
X76056844Y-138311499D01*
X76064402Y-138309854D01*
X76143642Y-138281885D01*
X76183261Y-138267902D01*
X76183263Y-138267901D01*
X76238124Y-138240425D01*
X76256963Y-138227824D01*
X76271229Y-138221908D01*
X76297545Y-138200681D01*
X76306146Y-138194927D01*
X76318934Y-138190916D01*
X76340188Y-138172698D01*
X76340709Y-138172278D01*
X76343055Y-138170241D01*
X76343066Y-138170235D01*
X76344397Y-138169080D01*
X76344395Y-138169078D01*
X76365452Y-138150808D01*
X76365455Y-138150801D01*
X76377477Y-138138347D01*
X76377179Y-138138070D01*
X76383215Y-138131579D01*
X76383219Y-138131577D01*
X76405055Y-138100095D01*
X76413205Y-138089597D01*
X76438410Y-138060504D01*
X76476153Y-138001761D01*
X76535883Y-137870963D01*
X76540288Y-137855965D01*
X76555625Y-137785484D01*
X76560650Y-137750549D01*
X76562026Y-137724775D01*
X76562263Y-137721297D01*
X76565800Y-137678570D01*
X76565800Y-133995331D01*
X76562900Y-133941261D01*
X76560063Y-133914890D01*
X76551399Y-133861455D01*
X76549754Y-133853897D01*
X76531860Y-133803200D01*
X76507802Y-133735037D01*
X76480325Y-133680175D01*
X76463376Y-133654822D01*
X76462768Y-133653904D01*
X76434445Y-133610713D01*
X76431098Y-133599693D01*
X76412396Y-133577874D01*
X76411976Y-133577358D01*
X76409154Y-133574102D01*
X76409137Y-133574083D01*
X76358583Y-133530290D01*
X76357008Y-133528902D01*
X76307589Y-133484605D01*
X76307580Y-133484598D01*
X76271456Y-133460516D01*
X76265540Y-133457490D01*
X76241643Y-133442137D01*
X76241638Y-133442134D01*
X76241637Y-133442134D01*
X76110825Y-133382405D01*
X76110820Y-133382403D01*
X76110819Y-133382403D01*
X76104104Y-133380431D01*
X76095827Y-133378001D01*
X76025348Y-133362668D01*
X76025345Y-133362667D01*
X76025338Y-133362666D01*
X75990414Y-133357645D01*
X75918472Y-133352500D01*
X75918471Y-133352500D01*
X74846427Y-133352500D01*
X74833246Y-133348629D01*
X74819542Y-133349550D01*
X74800382Y-133338979D01*
X74779388Y-133332815D01*
X74770393Y-133322435D01*
X74758365Y-133315799D01*
X74747960Y-133296545D01*
X74733633Y-133280011D01*
X74731678Y-133266416D01*
X74725147Y-133254331D01*
X74726803Y-133232511D01*
X74723689Y-133210853D01*
X74729506Y-133196894D01*
X74730435Y-133184661D01*
X74747027Y-133154853D01*
X74747484Y-133153758D01*
X74747807Y-133153330D01*
X74860633Y-133006295D01*
X74860635Y-133006291D01*
X74972045Y-132813320D01*
X74972054Y-132813302D01*
X75057336Y-132607418D01*
X75115011Y-132392167D01*
X75115014Y-132392154D01*
X75144100Y-132171224D01*
X75144100Y-131948375D01*
X75115014Y-131727445D01*
X75115011Y-131727432D01*
X75108936Y-131704761D01*
X75096503Y-131658357D01*
X75057336Y-131512181D01*
X74972054Y-131306297D01*
X74972049Y-131306285D01*
X74860633Y-131113307D01*
X74860632Y-131113305D01*
X74810057Y-131047395D01*
X74810056Y-131047395D01*
X74810055Y-131047395D01*
X74810054Y-131047395D01*
X74127006Y-131730443D01*
X74065683Y-131763928D01*
X73995991Y-131758944D01*
X73940058Y-131717072D01*
X73931938Y-131704761D01*
X73924222Y-131691398D01*
X73924219Y-131691392D01*
X73812508Y-131579681D01*
X73805686Y-131575742D01*
X73799132Y-131571958D01*
X73750917Y-131521390D01*
X73737696Y-131452783D01*
X73763665Y-131387918D01*
X73773443Y-131376901D01*
X74456503Y-130693843D01*
X74456503Y-130693840D01*
X74439666Y-130680920D01*
X74390611Y-130643278D01*
X74390594Y-130643266D01*
X74390587Y-130643262D01*
X74197620Y-130531854D01*
X74197608Y-130531847D01*
X74081696Y-130483834D01*
X73991718Y-130446563D01*
X73991711Y-130446561D01*
X73776482Y-130388891D01*
X73776467Y-130388888D01*
X73776454Y-130388885D01*
X73776450Y-130388884D01*
X73776444Y-130388883D01*
X73555526Y-130359800D01*
X73555525Y-130359800D01*
X73332675Y-130359800D01*
X73332674Y-130359800D01*
X73111754Y-130388883D01*
X73111741Y-130388886D01*
X73111716Y-130388891D01*
X72896487Y-130446561D01*
X72896483Y-130446562D01*
X72896481Y-130446563D01*
X72896479Y-130446564D01*
X72690590Y-130531847D01*
X72690571Y-130531858D01*
X72497608Y-130643263D01*
X72431695Y-130693840D01*
X72431695Y-130693843D01*
X73114745Y-131376892D01*
X73148230Y-131438215D01*
X73143246Y-131507906D01*
X73101374Y-131563840D01*
X73089067Y-131571959D01*
X73075692Y-131579681D01*
X73075689Y-131579683D01*
X72963983Y-131691389D01*
X72963981Y-131691392D01*
X72956259Y-131704767D01*
X72905690Y-131752981D01*
X72837083Y-131766202D01*
X72772219Y-131740233D01*
X72761192Y-131730445D01*
X72078143Y-131047395D01*
X72078140Y-131047395D01*
X72027563Y-131113308D01*
X71916158Y-131306271D01*
X71916147Y-131306290D01*
X71830864Y-131512179D01*
X71830861Y-131512187D01*
X71773191Y-131727416D01*
X71773186Y-131727441D01*
X71773183Y-131727454D01*
X71744100Y-131948374D01*
X71744100Y-132171224D01*
X71773183Y-132392144D01*
X71773186Y-132392157D01*
X71773191Y-132392182D01*
X71830861Y-132607411D01*
X71830863Y-132607418D01*
X71877503Y-132720016D01*
X71916147Y-132813308D01*
X71916158Y-132813327D01*
X72021881Y-132996449D01*
X72021884Y-132996453D01*
X72027564Y-133006291D01*
X72027566Y-133006295D01*
X72140391Y-133153329D01*
X72140715Y-133153758D01*
X72152897Y-133185989D01*
X72165343Y-133218182D01*
X72165244Y-133218659D01*
X72165417Y-133219115D01*
X72158240Y-133252811D01*
X72151305Y-133286627D01*
X72150964Y-133286975D01*
X72150863Y-133287452D01*
X72126606Y-133311920D01*
X72102492Y-133336617D01*
X72101996Y-133336746D01*
X72101674Y-133337072D01*
X72095569Y-133338427D01*
X72041773Y-133352500D01*
X65557555Y-133352500D01*
X65490516Y-133332815D01*
X65444761Y-133280011D01*
X65433555Y-133228500D01*
X65433555Y-129143930D01*
X65430655Y-129089869D01*
X65430655Y-129089861D01*
X65427818Y-129063490D01*
X65419154Y-129010055D01*
X65417509Y-129002497D01*
X65397431Y-128945611D01*
X65375557Y-128883637D01*
X65348080Y-128828775D01*
X65331131Y-128803422D01*
X65330523Y-128802504D01*
X65302200Y-128759313D01*
X65298853Y-128748293D01*
X65280151Y-128726474D01*
X65279731Y-128725958D01*
X65276909Y-128722702D01*
X65276892Y-128722683D01*
X65226338Y-128678890D01*
X65224763Y-128677502D01*
X65175344Y-128633205D01*
X65175335Y-128633198D01*
X65139211Y-128609116D01*
X65133295Y-128606090D01*
X65109398Y-128590737D01*
X65109393Y-128590734D01*
X65109392Y-128590734D01*
X64978580Y-128531005D01*
X64978575Y-128531003D01*
X64978574Y-128531003D01*
X64971859Y-128529031D01*
X64963582Y-128526601D01*
X64893103Y-128511268D01*
X64893100Y-128511267D01*
X64893093Y-128511266D01*
X64858169Y-128506245D01*
X64786227Y-128501100D01*
X64786226Y-128501100D01*
X62096586Y-128501100D01*
X62029547Y-128481415D01*
X61983792Y-128428611D01*
X61973848Y-128359453D01*
X61983790Y-128325591D01*
X61995855Y-128299171D01*
X62032483Y-128218963D01*
X62036888Y-128203965D01*
X62052228Y-128133466D01*
X62057253Y-128098522D01*
X62062400Y-128026570D01*
X62062400Y-127928854D01*
X62082085Y-127861815D01*
X62134889Y-127816060D01*
X62204047Y-127806116D01*
X62259286Y-127828536D01*
X62260394Y-127829341D01*
X62260398Y-127829345D01*
X62415819Y-127942265D01*
X62581274Y-128026569D01*
X62586997Y-128029485D01*
X62624070Y-128041529D01*
X62678345Y-128059164D01*
X62769699Y-128088847D01*
X62959445Y-128118900D01*
X62959446Y-128118900D01*
X63151554Y-128118900D01*
X63151555Y-128118900D01*
X63341301Y-128088847D01*
X63524009Y-128029482D01*
X63695181Y-127942265D01*
X63850602Y-127829345D01*
X63986445Y-127693502D01*
X64099365Y-127538081D01*
X64186582Y-127366909D01*
X64245947Y-127184201D01*
X64276000Y-126994455D01*
X64276000Y-126802345D01*
X64245947Y-126612599D01*
X64215924Y-126520197D01*
X64186583Y-126429893D01*
X64186581Y-126429890D01*
X64186578Y-126429882D01*
X64099367Y-126258722D01*
X64034939Y-126170045D01*
X63986445Y-126103298D01*
X63850602Y-125967455D01*
X63711085Y-125866090D01*
X63695176Y-125854531D01*
X63524016Y-125767320D01*
X63524000Y-125767313D01*
X63341304Y-125707953D01*
X63341305Y-125707953D01*
X63151559Y-125677900D01*
X63151555Y-125677900D01*
X62959445Y-125677900D01*
X62959441Y-125677900D01*
X62896196Y-125687917D01*
X62769693Y-125707953D01*
X62586998Y-125767313D01*
X62586982Y-125767320D01*
X62415822Y-125854531D01*
X62327145Y-125918960D01*
X62272269Y-125958830D01*
X62261891Y-125965604D01*
X62248908Y-125973182D01*
X62243100Y-125974620D01*
X62237614Y-125976893D01*
X62237270Y-125976063D01*
X62229923Y-125977883D01*
X62212758Y-125987256D01*
X62196707Y-125986108D01*
X62181087Y-125989976D01*
X62162575Y-125983667D01*
X62143066Y-125982272D01*
X62130183Y-125972627D01*
X62114952Y-125967437D01*
X62102788Y-125952120D01*
X62087133Y-125940400D01*
X62081509Y-125925323D01*
X62071502Y-125912721D01*
X62069550Y-125893260D01*
X62062716Y-125874936D01*
X62062400Y-125866090D01*
X62062400Y-124496760D01*
X62082085Y-124429721D01*
X62098719Y-124409079D01*
X62117799Y-124389999D01*
X62617800Y-124389999D01*
X62680260Y-124389999D01*
X62680272Y-124389999D01*
X62680286Y-124389998D01*
X62782997Y-124379505D01*
X62949419Y-124324358D01*
X62949424Y-124324356D01*
X63098645Y-124232315D01*
X63222615Y-124108345D01*
X63314656Y-123959124D01*
X63314661Y-123959113D01*
X63369805Y-123792697D01*
X63369806Y-123792690D01*
X63380299Y-123689986D01*
X63380300Y-123689973D01*
X63380300Y-123440000D01*
X62617800Y-123440000D01*
X62617800Y-124389999D01*
X62117799Y-124389999D01*
X62117800Y-124389998D01*
X62117800Y-122940000D01*
X62617800Y-122940000D01*
X63380299Y-122940000D01*
X63380299Y-122690028D01*
X63380298Y-122690013D01*
X63369805Y-122587302D01*
X63314658Y-122420880D01*
X63314656Y-122420875D01*
X63222615Y-122271654D01*
X63098645Y-122147684D01*
X62949424Y-122055643D01*
X62949419Y-122055641D01*
X62949410Y-122055638D01*
X62782999Y-122000494D01*
X62782994Y-122000493D01*
X62680291Y-121990000D01*
X62680286Y-121990000D01*
X62617800Y-121990000D01*
X62617800Y-122940000D01*
X62117800Y-122940000D01*
X62117800Y-121997037D01*
X62117800Y-121990000D01*
X62117799Y-121989999D01*
X62111870Y-121989999D01*
X62089225Y-121963125D01*
X62086827Y-121957676D01*
X62082193Y-121953942D01*
X62071662Y-121923218D01*
X62061081Y-121899175D01*
X62061819Y-121894500D01*
X62060229Y-121889861D01*
X62059500Y-121876261D01*
X62056663Y-121849890D01*
X62047999Y-121796455D01*
X62046354Y-121788897D01*
X62029969Y-121742474D01*
X62004402Y-121670037D01*
X61976929Y-121615183D01*
X61976925Y-121615175D01*
X61906869Y-121510389D01*
X61906867Y-121510386D01*
X61905695Y-121509035D01*
X61905682Y-121509020D01*
X61905672Y-121509010D01*
X61905661Y-121508998D01*
X61854701Y-121458069D01*
X61854678Y-121458046D01*
X61827998Y-121434941D01*
X61827993Y-121434937D01*
X61827987Y-121434932D01*
X61770246Y-121391734D01*
X61770242Y-121391732D01*
X61719813Y-121368719D01*
X61719792Y-121368709D01*
X61607426Y-121317405D01*
X61602092Y-121315839D01*
X61592427Y-121313001D01*
X61548883Y-121303528D01*
X61521945Y-121297667D01*
X61487010Y-121292645D01*
X61415072Y-121287500D01*
X61415070Y-121287500D01*
X59611432Y-121287500D01*
X59611430Y-121287500D01*
X59557406Y-121290395D01*
X59531037Y-121293230D01*
X59477671Y-121301875D01*
X59477669Y-121301876D01*
X59477652Y-121301879D01*
X59477650Y-121301880D01*
X59470091Y-121303524D01*
X59470086Y-121303525D01*
X59470077Y-121303528D01*
X59351197Y-121345472D01*
X59351191Y-121345474D01*
X59296317Y-121372950D01*
X59296315Y-121372952D01*
X59221377Y-121423033D01*
X59221362Y-121423044D01*
X59191584Y-121442946D01*
X59190242Y-121444109D01*
X59184947Y-121449404D01*
X59184629Y-121449048D01*
X59184601Y-121449073D01*
X59180653Y-121453698D01*
X59172215Y-121462135D01*
X59172207Y-121462143D01*
X59139270Y-121495084D01*
X59125326Y-121516780D01*
X59115335Y-121530231D01*
X59095976Y-121552914D01*
X59095973Y-121552918D01*
X59058237Y-121611655D01*
X58998503Y-121742479D01*
X58995463Y-121752830D01*
X58994101Y-121757472D01*
X58987816Y-121786360D01*
X58978767Y-121827953D01*
X58973745Y-121862888D01*
X58968600Y-121934826D01*
X58968600Y-122465500D01*
X58948915Y-122532539D01*
X58896111Y-122578294D01*
X58844600Y-122589500D01*
X57363040Y-122589500D01*
X57217068Y-122628611D01*
X57217039Y-122628621D01*
X57210315Y-122630423D01*
X57210314Y-122630423D01*
X57210312Y-122630424D01*
X57210309Y-122630425D01*
X57207516Y-122632037D01*
X57207512Y-122632039D01*
X57181187Y-122647238D01*
X57160196Y-122659359D01*
X57160195Y-122659360D01*
X57116789Y-122684420D01*
X57116788Y-122684419D01*
X57073390Y-122709475D01*
X57073378Y-122709483D01*
X55822987Y-123959876D01*
X55800266Y-123976886D01*
X55794737Y-123981025D01*
X55784810Y-123986446D01*
X55716537Y-124001300D01*
X55651072Y-123976886D01*
X55609199Y-123920954D01*
X55606512Y-123913748D01*
X55598699Y-123870428D01*
X55598699Y-119903234D01*
X55598699Y-119903230D01*
X55598698Y-119903215D01*
X55593980Y-119857032D01*
X55595109Y-119829532D01*
X55595426Y-119821778D01*
X55598118Y-119807297D01*
X55629724Y-119744989D01*
X55687541Y-119710297D01*
X55699579Y-119707029D01*
X55732060Y-119702700D01*
X78516770Y-119702700D01*
X78551706Y-119707723D01*
G37*
%TD.AperFunction*%
%TA.AperFunction,Conductor*%
G36*
X59699906Y-147372832D02*
G01*
X59715992Y-147372373D01*
X59732744Y-147382475D01*
X59751509Y-147387985D01*
X59762043Y-147400142D01*
X59775825Y-147408453D01*
X59784456Y-147426008D01*
X59797264Y-147440789D01*
X59799553Y-147456713D01*
X59806654Y-147471154D01*
X59804424Y-147490587D01*
X59807208Y-147509947D01*
X59800523Y-147524582D01*
X59798690Y-147540568D01*
X59786308Y-147555710D01*
X59778183Y-147573503D01*
X59764154Y-147582804D01*
X59754462Y-147594658D01*
X59722794Y-147610228D01*
X59711668Y-147613844D01*
X59711662Y-147613846D01*
X59529340Y-147706745D01*
X59484777Y-147739122D01*
X59484777Y-147739123D01*
X59484777Y-147739124D01*
X59774327Y-148028674D01*
X60027755Y-148282101D01*
X60061240Y-148343424D01*
X60056256Y-148413115D01*
X60014385Y-148469049D01*
X60002074Y-148477169D01*
X59965097Y-148498517D01*
X59965092Y-148498521D01*
X59890621Y-148572992D01*
X59890615Y-148573000D01*
X59869268Y-148609974D01*
X59818701Y-148658189D01*
X59750093Y-148671411D01*
X59685229Y-148645443D01*
X59674201Y-148635654D01*
X59131224Y-148092677D01*
X59131223Y-148092677D01*
X59131222Y-148092677D01*
X59118494Y-148099162D01*
X59049825Y-148112058D01*
X58985084Y-148085781D01*
X58944828Y-148028674D01*
X58938200Y-147988677D01*
X58938200Y-147492300D01*
X58957885Y-147425261D01*
X59010689Y-147379506D01*
X59062200Y-147368300D01*
X59684470Y-147368300D01*
X59699906Y-147372832D01*
G37*
%TD.AperFunction*%
%TA.AperFunction,Conductor*%
G36*
X56089052Y-130269995D02*
G01*
X56144985Y-130311867D01*
X56169402Y-130377331D01*
X56169540Y-130379538D01*
X56170447Y-130396458D01*
X56170449Y-130396481D01*
X56173277Y-130422810D01*
X56174702Y-130431603D01*
X56179786Y-130462985D01*
X56181937Y-130476257D01*
X56181941Y-130476283D01*
X56183584Y-130483833D01*
X56183584Y-130483835D01*
X56225536Y-130602723D01*
X56225537Y-130602726D01*
X56238004Y-130627620D01*
X56253019Y-130657604D01*
X56277243Y-130693839D01*
X56323086Y-130762412D01*
X56324262Y-130763768D01*
X56324292Y-130763800D01*
X56352224Y-130791715D01*
X56375276Y-130814753D01*
X56385364Y-130823489D01*
X56401955Y-130837858D01*
X56459727Y-130881077D01*
X56459730Y-130881078D01*
X56459735Y-130881082D01*
X56521767Y-130909384D01*
X56521799Y-130909411D01*
X56521804Y-130909401D01*
X56622503Y-130955386D01*
X56637502Y-130959791D01*
X56707986Y-130975127D01*
X56742927Y-130980152D01*
X56814885Y-130985300D01*
X57073100Y-130985300D01*
X57140139Y-131004985D01*
X57185894Y-131057789D01*
X57197100Y-131109300D01*
X57197100Y-131452600D01*
X61497099Y-131452600D01*
X61497099Y-131109300D01*
X61499649Y-131100614D01*
X61498361Y-131091653D01*
X61509339Y-131067612D01*
X61516784Y-131042261D01*
X61523624Y-131036333D01*
X61527386Y-131028097D01*
X61549620Y-131013807D01*
X61569588Y-130996506D01*
X61580102Y-130994218D01*
X61586164Y-130990323D01*
X61621099Y-130985300D01*
X61809355Y-130985300D01*
X61876394Y-131004985D01*
X61922149Y-131057789D01*
X61933355Y-131109300D01*
X61933355Y-136362744D01*
X61913670Y-136429783D01*
X61860866Y-136475538D01*
X61791709Y-136485482D01*
X61766413Y-136481845D01*
X61694472Y-136476700D01*
X61694470Y-136476700D01*
X53848410Y-136476700D01*
X53781371Y-136457015D01*
X53735616Y-136404211D01*
X53725672Y-136335053D01*
X53754697Y-136271497D01*
X53783309Y-136247163D01*
X53867045Y-136195515D01*
X53991015Y-136071545D01*
X54083056Y-135922324D01*
X54083058Y-135922319D01*
X54138205Y-135755897D01*
X54138206Y-135755890D01*
X54148699Y-135653186D01*
X54148700Y-135653173D01*
X54148700Y-133803200D01*
X53348700Y-133803200D01*
X53348700Y-136353199D01*
X53349881Y-136354380D01*
X53378955Y-136362917D01*
X53412281Y-136372490D01*
X53412533Y-136372777D01*
X53412896Y-136372884D01*
X53435450Y-136398913D01*
X53458346Y-136425024D01*
X53458402Y-136425401D01*
X53458651Y-136425688D01*
X53463564Y-136459857D01*
X53468697Y-136494122D01*
X53468540Y-136494469D01*
X53468595Y-136494846D01*
X53454225Y-136526311D01*
X53440047Y-136557848D01*
X53439674Y-136558172D01*
X53439570Y-136558402D01*
X53413510Y-136581118D01*
X53413246Y-136581289D01*
X53375892Y-136605294D01*
X53373248Y-136607272D01*
X53369982Y-136609453D01*
X53369858Y-136609535D01*
X53281462Y-136668601D01*
X53260023Y-136680060D01*
X53215258Y-136698602D01*
X53192000Y-136705658D01*
X53180479Y-136707950D01*
X53144468Y-136715113D01*
X53120279Y-136717496D01*
X53071822Y-136717496D01*
X53047630Y-136715113D01*
X53029497Y-136711506D01*
X53011631Y-136707952D01*
X53011631Y-136707951D01*
X53011619Y-136707950D01*
X53000099Y-136705658D01*
X52976846Y-136698604D01*
X52933443Y-136680627D01*
X52933369Y-136680597D01*
X52932080Y-136680062D01*
X52910637Y-136668602D01*
X52831775Y-136615908D01*
X52827681Y-136611010D01*
X52801657Y-136595569D01*
X52796039Y-136592029D01*
X52778484Y-136580299D01*
X52733679Y-136526686D01*
X52724972Y-136457361D01*
X52755127Y-136394334D01*
X52814570Y-136357615D01*
X52847367Y-136353198D01*
X52848700Y-136353198D01*
X52848700Y-133695029D01*
X52853723Y-133660093D01*
X52855541Y-133653904D01*
X52858127Y-133645094D01*
X52895872Y-133586344D01*
X52895900Y-133586319D01*
X52895899Y-133586319D01*
X52897241Y-133585156D01*
X52952120Y-133557677D01*
X52959679Y-133556033D01*
X52986032Y-133553200D01*
X53098700Y-133553200D01*
X53098700Y-133445029D01*
X53098871Y-133443843D01*
X53103723Y-133410093D01*
X53108127Y-133395095D01*
X53145872Y-133336344D01*
X53145900Y-133336319D01*
X53145899Y-133336319D01*
X53147241Y-133335156D01*
X53202120Y-133307677D01*
X53209679Y-133306033D01*
X53236032Y-133303200D01*
X54148699Y-133303200D01*
X54148699Y-132752595D01*
X57197101Y-132752595D01*
X57207593Y-132855294D01*
X57207594Y-132855296D01*
X57257628Y-133006291D01*
X57262741Y-133021719D01*
X57262743Y-133021724D01*
X57354784Y-133170945D01*
X57478754Y-133294915D01*
X57627975Y-133386956D01*
X57627980Y-133386958D01*
X57794399Y-133442104D01*
X57794400Y-133442104D01*
X57794402Y-133442105D01*
X57794409Y-133442106D01*
X57897119Y-133452599D01*
X59097099Y-133452599D01*
X59597100Y-133452599D01*
X60797060Y-133452599D01*
X60797072Y-133452599D01*
X60797086Y-133452598D01*
X60899797Y-133442105D01*
X61066219Y-133386958D01*
X61066224Y-133386956D01*
X61215445Y-133294915D01*
X61339415Y-133170945D01*
X61431456Y-133021724D01*
X61431458Y-133021719D01*
X61486605Y-132855297D01*
X61486606Y-132855290D01*
X61497099Y-132752586D01*
X61497100Y-132752573D01*
X61497100Y-131952600D01*
X59597100Y-131952600D01*
X59597100Y-133452599D01*
X59097099Y-133452599D01*
X59097100Y-133452598D01*
X59097100Y-131952600D01*
X57197101Y-131952600D01*
X57197101Y-132752595D01*
X54148699Y-132752595D01*
X54148699Y-131453232D01*
X54148699Y-131453228D01*
X54148698Y-131453213D01*
X54138205Y-131350502D01*
X54083058Y-131184080D01*
X54083056Y-131184075D01*
X53991015Y-131034854D01*
X53981349Y-131025188D01*
X53960200Y-130996938D01*
X53956588Y-130990323D01*
X53954778Y-130987008D01*
X53939925Y-130918738D01*
X53964339Y-130853273D01*
X54020269Y-130811401D01*
X54024148Y-130809954D01*
X54027484Y-130808711D01*
X54070798Y-130800900D01*
X55118280Y-130800900D01*
X55118343Y-130800901D01*
X55120247Y-130800901D01*
X55127843Y-130800901D01*
X55285954Y-130800901D01*
X55285957Y-130800901D01*
X55438685Y-130759977D01*
X55488804Y-130731039D01*
X55575616Y-130680920D01*
X55687420Y-130569116D01*
X55687420Y-130569115D01*
X55704860Y-130551675D01*
X55704861Y-130551673D01*
X55958039Y-130298494D01*
X56019360Y-130265011D01*
X56089052Y-130269995D01*
G37*
%TD.AperFunction*%
%TD*%
%TA.AperFunction,Conductor*%
%TO.N,Net-(J1-Pin_1)*%
G36*
X30724303Y-130302001D02*
G01*
X30791339Y-130321686D01*
X30837094Y-130374490D01*
X30848300Y-130426000D01*
X30848300Y-130911600D01*
X46777100Y-130911600D01*
X46844139Y-130931285D01*
X46889894Y-130984089D01*
X46901100Y-131035600D01*
X46901100Y-136070800D01*
X46881415Y-136137839D01*
X46828611Y-136183594D01*
X46777100Y-136194800D01*
X37376100Y-136194800D01*
X37376100Y-141404800D01*
X37356415Y-141471839D01*
X37303611Y-141517594D01*
X37252100Y-141528800D01*
X33309100Y-141528800D01*
X33242061Y-141509115D01*
X33196306Y-141456311D01*
X33185100Y-141404800D01*
X33185100Y-133705600D01*
X26628900Y-133705600D01*
X26561861Y-133685915D01*
X26516106Y-133633111D01*
X26504900Y-133581600D01*
X26504900Y-130426000D01*
X26524585Y-130358961D01*
X26577389Y-130313206D01*
X26628899Y-130302000D01*
X30724303Y-130302001D01*
G37*
%TD.AperFunction*%
%TD*%
%TA.AperFunction,Conductor*%
%TO.N,Net-(J2-Pin_1)*%
G36*
X59080761Y-125176223D02*
G01*
X59095759Y-125180627D01*
X59110749Y-125190257D01*
X59127830Y-125195267D01*
X59154510Y-125218372D01*
X59155697Y-125219741D01*
X59183173Y-125274602D01*
X59184818Y-125282160D01*
X59187655Y-125308531D01*
X59187655Y-129006600D01*
X64786226Y-129006600D01*
X64821161Y-129011623D01*
X64836159Y-129016027D01*
X64894910Y-129053772D01*
X64894934Y-129053800D01*
X64894937Y-129053802D01*
X64894938Y-129053804D01*
X64896097Y-129055141D01*
X64923573Y-129110002D01*
X64925218Y-129117560D01*
X64928055Y-129143931D01*
X64928055Y-133858000D01*
X75918471Y-133858000D01*
X75953406Y-133863023D01*
X75968404Y-133867427D01*
X76027155Y-133905172D01*
X76027179Y-133905200D01*
X76027182Y-133905202D01*
X76027183Y-133905204D01*
X76028342Y-133906541D01*
X76055818Y-133961402D01*
X76057463Y-133968960D01*
X76060300Y-133995331D01*
X76060300Y-137678570D01*
X76060299Y-137678576D01*
X76060300Y-137678579D01*
X76055275Y-137713514D01*
X76050870Y-137728512D01*
X76013127Y-137787255D01*
X76013092Y-137787285D01*
X76013091Y-137787287D01*
X76013089Y-137787287D01*
X76011758Y-137788442D01*
X75956897Y-137815918D01*
X75949339Y-137817563D01*
X75922968Y-137820400D01*
X67112455Y-137820400D01*
X67112455Y-146720970D01*
X67112454Y-146720976D01*
X67112455Y-146720979D01*
X67107430Y-146755914D01*
X67103025Y-146770912D01*
X67065282Y-146829655D01*
X67065247Y-146829685D01*
X67065246Y-146829687D01*
X67065244Y-146829687D01*
X67063913Y-146830842D01*
X67009052Y-146858318D01*
X67001494Y-146859963D01*
X66975123Y-146862800D01*
X58432700Y-146862800D01*
X58432700Y-150589270D01*
X58432699Y-150589276D01*
X58432700Y-150589279D01*
X58427675Y-150624214D01*
X58423270Y-150639212D01*
X58385527Y-150697955D01*
X58385492Y-150697985D01*
X58385491Y-150697987D01*
X58385489Y-150697987D01*
X58384158Y-150699142D01*
X58329297Y-150726618D01*
X58321739Y-150728263D01*
X58295368Y-150731100D01*
X44680730Y-150731100D01*
X44680725Y-150731099D01*
X44680723Y-150731100D01*
X44645789Y-150726075D01*
X44630790Y-150721670D01*
X44572044Y-150683927D01*
X44572015Y-150683893D01*
X44572014Y-150683893D01*
X44572013Y-150683891D01*
X44570857Y-150682558D01*
X44543377Y-150627683D01*
X44541732Y-150620121D01*
X44538900Y-150593768D01*
X44538900Y-147001149D01*
X44543923Y-146966213D01*
X44548327Y-146951215D01*
X44586069Y-146892466D01*
X44586168Y-146892379D01*
X44587433Y-146891283D01*
X44642328Y-146863800D01*
X44649913Y-146862151D01*
X44676276Y-146859324D01*
X55359300Y-146862800D01*
X55365789Y-141949859D01*
X55370858Y-141914937D01*
X55375281Y-141899946D01*
X55413130Y-141841219D01*
X55414549Y-141839993D01*
X55469351Y-141812637D01*
X55476841Y-141811012D01*
X55503102Y-141808200D01*
X62438855Y-141808200D01*
X62438855Y-130479800D01*
X61571273Y-130479800D01*
X61571268Y-130479799D01*
X61571266Y-130479800D01*
X61536332Y-130474775D01*
X61521333Y-130470370D01*
X61462562Y-130432599D01*
X61455615Y-130424582D01*
X61435660Y-130389487D01*
X61434966Y-130389811D01*
X61431915Y-130383269D01*
X61431914Y-130383268D01*
X61431914Y-130383266D01*
X61339812Y-130233944D01*
X61215756Y-130109888D01*
X61066434Y-130017786D01*
X60908365Y-129965407D01*
X60905545Y-129964241D01*
X60899892Y-129962599D01*
X60797119Y-129952100D01*
X60797110Y-129952100D01*
X57897098Y-129952100D01*
X57897081Y-129952101D01*
X57883059Y-129953533D01*
X57794298Y-129962600D01*
X57794293Y-129962601D01*
X57794132Y-129962656D01*
X57627767Y-130017785D01*
X57627765Y-130017786D01*
X57627763Y-130017787D01*
X57528215Y-130079188D01*
X57478440Y-130109890D01*
X57354390Y-130233940D01*
X57262285Y-130383265D01*
X57259254Y-130389753D01*
X57258384Y-130389346D01*
X57248333Y-130409432D01*
X57239413Y-130422315D01*
X57185082Y-130466221D01*
X57179352Y-130468603D01*
X57175288Y-130470293D01*
X57127674Y-130479800D01*
X56814885Y-130479800D01*
X56779944Y-130474775D01*
X56764945Y-130470370D01*
X56749957Y-130460740D01*
X56732879Y-130455732D01*
X56706199Y-130432627D01*
X56705012Y-130431258D01*
X56677532Y-130376383D01*
X56675887Y-130368821D01*
X56673055Y-130342468D01*
X56673055Y-129636663D01*
X56677034Y-129606429D01*
X56677638Y-129600815D01*
X56685791Y-129568024D01*
X56686358Y-129566608D01*
X56694092Y-129550677D01*
X56754575Y-129445918D01*
X56754578Y-129445912D01*
X56754579Y-129445911D01*
X56757077Y-129441585D01*
X56798001Y-129288857D01*
X56798001Y-129130743D01*
X56798001Y-129123148D01*
X56798001Y-129121464D01*
X56798000Y-129121390D01*
X56798000Y-125313029D01*
X56803023Y-125278093D01*
X56807427Y-125263095D01*
X56845172Y-125204344D01*
X56845200Y-125204319D01*
X56845199Y-125204319D01*
X56846541Y-125203156D01*
X56901420Y-125175677D01*
X56908979Y-125174033D01*
X56935332Y-125171200D01*
X59045825Y-125171200D01*
X59080761Y-125176223D01*
G37*
%TD.AperFunction*%
%TD*%
%TA.AperFunction,Conductor*%
%TO.N,Net-(U1-FB)*%
G36*
X61450006Y-121798023D02*
G01*
X61465004Y-121802427D01*
X61479994Y-121812057D01*
X61497075Y-121817067D01*
X61523755Y-121840172D01*
X61524942Y-121841541D01*
X61552418Y-121896402D01*
X61554063Y-121903960D01*
X61556900Y-121930331D01*
X61556900Y-122157840D01*
X61551876Y-122192780D01*
X61544464Y-122218019D01*
X61516472Y-122265198D01*
X61517072Y-122265673D01*
X61513543Y-122270135D01*
X61513177Y-122270753D01*
X61512594Y-122271335D01*
X61512591Y-122271339D01*
X61420487Y-122420662D01*
X61420452Y-122420770D01*
X61376350Y-122553857D01*
X61376344Y-122553875D01*
X61365301Y-122587203D01*
X61365301Y-122587204D01*
X61365300Y-122587204D01*
X61364530Y-122594735D01*
X61364529Y-122594741D01*
X61354800Y-122689973D01*
X61354800Y-123689998D01*
X61354803Y-123690045D01*
X61365300Y-123792796D01*
X61365301Y-123792799D01*
X61420485Y-123959331D01*
X61420487Y-123959336D01*
X61512589Y-124108657D01*
X61512591Y-124108659D01*
X61517067Y-124114320D01*
X61516188Y-124115014D01*
X61529123Y-124132293D01*
X61541731Y-124155382D01*
X61556900Y-124214811D01*
X61556900Y-128026570D01*
X61551875Y-128061514D01*
X61547470Y-128076512D01*
X61509727Y-128135255D01*
X61508358Y-128136442D01*
X61453497Y-128163918D01*
X61445939Y-128165563D01*
X61419568Y-128168400D01*
X59817155Y-128168400D01*
X59750116Y-128148715D01*
X59704361Y-128095911D01*
X59693155Y-128044400D01*
X59693155Y-125308530D01*
X59690255Y-125254469D01*
X59690255Y-125254461D01*
X59687418Y-125228090D01*
X59678754Y-125174655D01*
X59677109Y-125167097D01*
X59665923Y-125135405D01*
X59635157Y-125048237D01*
X59607684Y-124993383D01*
X59607680Y-124993375D01*
X59537624Y-124888589D01*
X59537622Y-124888586D01*
X59536450Y-124887235D01*
X59536437Y-124887220D01*
X59510444Y-124861242D01*
X59476941Y-124799928D01*
X59474100Y-124773535D01*
X59474100Y-121934829D01*
X59479123Y-121899893D01*
X59483527Y-121884895D01*
X59521272Y-121826144D01*
X59521300Y-121826119D01*
X59521299Y-121826119D01*
X59522641Y-121824956D01*
X59577520Y-121797477D01*
X59585079Y-121795833D01*
X59611432Y-121793000D01*
X61415070Y-121793000D01*
X61450006Y-121798023D01*
G37*
%TD.AperFunction*%
%TD*%
D32*
X54189100Y-121405600D03*
X33693100Y-146465677D03*
X45834300Y-129997200D03*
X38826700Y-149250400D03*
X68033900Y-149250400D03*
X35267900Y-142960477D03*
X38417500Y-127203200D03*
X49669700Y-129997200D03*
X40525700Y-129168277D03*
X32826700Y-149250400D03*
X36766500Y-143392277D03*
X70472300Y-144205077D03*
X75704700Y-132059800D03*
X30492700Y-135559800D03*
X39966900Y-127609600D03*
X68541900Y-142240000D03*
X69049900Y-140741400D03*
X53096050Y-136347496D03*
X68033900Y-124053600D03*
X54189100Y-124405600D03*
X25384500Y-140284200D03*
X37198300Y-144881600D03*
X45189100Y-124405600D03*
X51189100Y-124405600D03*
X35267900Y-146846677D03*
X48189100Y-127405600D03*
X68033900Y-127053600D03*
X71033900Y-149250400D03*
X45189100Y-127405600D03*
X51189100Y-127405600D03*
X33337500Y-144881600D03*
X49695100Y-136372600D03*
X54189100Y-127405600D03*
X51189100Y-121405600D03*
X48189100Y-124405600D03*
X70472300Y-140318877D03*
X36715700Y-146338677D03*
X26123900Y-135559800D03*
X54851300Y-132817187D03*
X65033900Y-149250400D03*
X54851300Y-131678391D03*
X71183500Y-132054600D03*
X36360100Y-129168277D03*
X54851300Y-134824754D03*
X68033900Y-121053600D03*
X35826700Y-149250400D03*
X47764700Y-129997200D03*
X45189100Y-121405600D03*
X33743900Y-143366877D03*
X28384500Y-140284200D03*
X36868100Y-127609600D03*
X54851300Y-133756400D03*
X69049900Y-143586200D03*
X61937900Y-148818600D03*
X48189100Y-121405600D03*
D33*
X73444100Y-135559800D03*
X73444100Y-132059800D03*
X74790300Y-123240800D03*
X27063700Y-123240800D03*
X60210700Y-143818600D03*
X60210700Y-148818600D03*
X63055500Y-126898400D03*
X60515500Y-126898400D03*
X57975500Y-126898400D03*
X38417500Y-134168277D03*
X38417500Y-129168277D03*
X65478849Y-142163800D03*
X70478849Y-142163800D03*
X27063700Y-146380200D03*
X74790300Y-146380200D03*
X35267900Y-139881600D03*
X35267900Y-144881600D03*
X28308300Y-132059800D03*
X28308300Y-135559800D03*
M02*
