%TF.GenerationSoftware,KiCad,Pcbnew,10.0.4*%
%TF.CreationDate,2026-07-06T22:31:50+03:00*%
%TF.ProjectId,LM2596project,4c4d3235-3936-4707-926f-6a6563742e6b,rev?*%
%TF.SameCoordinates,Original*%
%TF.FileFunction,Legend,Top*%
%TF.FilePolarity,Positive*%
%FSLAX46Y46*%
G04 Gerber Fmt 4.6, Leading zero omitted, Abs format (unit mm)*
G04 Created by KiCad (PCBNEW 10.0.4) date 2026-07-06 22:31:50*
%MOMM*%
%LPD*%
G01*
G04 APERTURE LIST*
%ADD10C,0.250000*%
%ADD11C,0.150000*%
%ADD12C,0.000000*%
%ADD13C,0.120000*%
G04 APERTURE END LIST*
D10*
G36*
X25033655Y-129268374D02*
G01*
X25362222Y-129268374D01*
X25362222Y-128940112D01*
X25451676Y-128940112D01*
X25451676Y-129268374D01*
X25780244Y-129268374D01*
X25780244Y-129362164D01*
X25451676Y-129362164D01*
X25451676Y-129682610D01*
X25362222Y-129682610D01*
X25362222Y-129362164D01*
X25033655Y-129362164D01*
X25033655Y-129268374D01*
G37*
G36*
X26665624Y-129752952D02*
G01*
X26665624Y-129776400D01*
X26181291Y-129776400D01*
X26181291Y-129752952D01*
X26212004Y-129752952D01*
X26249855Y-129748937D01*
X26276912Y-129738237D01*
X26292216Y-129725405D01*
X26304267Y-129704531D01*
X26309218Y-129681067D01*
X26311778Y-129616176D01*
X26311778Y-129010454D01*
X26309244Y-128944174D01*
X26304267Y-128919290D01*
X26293497Y-128902802D01*
X26273859Y-128887356D01*
X26248470Y-128877445D01*
X26212004Y-128873678D01*
X26181291Y-128873678D01*
X26181291Y-128850231D01*
X26665624Y-128850231D01*
X26665624Y-128873678D01*
X26634911Y-128873678D01*
X26597105Y-128877690D01*
X26570003Y-128888394D01*
X26554559Y-128901204D01*
X26541976Y-128922099D01*
X26537026Y-128945563D01*
X26534466Y-129010454D01*
X26534466Y-129616176D01*
X26537100Y-129682454D01*
X26542282Y-129707401D01*
X26553329Y-129723854D01*
X26573056Y-129739275D01*
X26598445Y-129749185D01*
X26634911Y-129752952D01*
X26665624Y-129752952D01*
G37*
G36*
X27005549Y-129139414D02*
G01*
X27005549Y-129225388D01*
X27055920Y-129175774D01*
X27099766Y-129145032D01*
X27146557Y-129126171D01*
X27196791Y-129119875D01*
X27236964Y-129123953D01*
X27270909Y-129135579D01*
X27299923Y-129154496D01*
X27324307Y-129179531D01*
X27342392Y-129207980D01*
X27354572Y-129240409D01*
X27362046Y-129288345D01*
X27365502Y-129390374D01*
X27365502Y-129639624D01*
X27369937Y-129705407D01*
X27378813Y-129730360D01*
X27396988Y-129743930D01*
X27434501Y-129752952D01*
X27434501Y-129776400D01*
X27111429Y-129776400D01*
X27111429Y-129752952D01*
X27143241Y-129742757D01*
X27163330Y-129723277D01*
X27170616Y-129700115D01*
X27174260Y-129639624D01*
X27174260Y-129355630D01*
X27172194Y-129284240D01*
X27168093Y-129256712D01*
X27159643Y-129238225D01*
X27147271Y-129224960D01*
X27131755Y-129216459D01*
X27114848Y-129213664D01*
X27088596Y-129218096D01*
X27062220Y-129232085D01*
X27034712Y-129257989D01*
X27005549Y-129299637D01*
X27005549Y-129639624D01*
X27009921Y-129703763D01*
X27018861Y-129729383D01*
X27036390Y-129743968D01*
X27068381Y-129752952D01*
X27068381Y-129776400D01*
X26745248Y-129776400D01*
X26745248Y-129752952D01*
X26781204Y-129743856D01*
X26802645Y-129727307D01*
X26810248Y-129705160D01*
X26814246Y-129639624D01*
X26814246Y-129276190D01*
X26809813Y-129210857D01*
X26800935Y-129186065D01*
X26782779Y-129172437D01*
X26745248Y-129162861D01*
X26745248Y-129139414D01*
X27005549Y-129139414D01*
G37*
G36*
X27991908Y-129124783D02*
G01*
X28034270Y-129139388D01*
X28074539Y-129164205D01*
X28109304Y-129196759D01*
X28138552Y-129237187D01*
X28162345Y-129286693D01*
X28178891Y-129339500D01*
X28188960Y-129395386D01*
X28192386Y-129454854D01*
X28188788Y-129518827D01*
X28178320Y-129577611D01*
X28161306Y-129631869D01*
X28136610Y-129682499D01*
X28106562Y-129722705D01*
X28071120Y-129753990D01*
X28030122Y-129777360D01*
X27986605Y-129791246D01*
X27939656Y-129795939D01*
X27888590Y-129790101D01*
X27841287Y-129772736D01*
X27808118Y-129750213D01*
X27769541Y-129711919D01*
X27769541Y-129952254D01*
X27771992Y-129997733D01*
X27777357Y-130019543D01*
X27787451Y-130035078D01*
X27801598Y-130045616D01*
X27822006Y-130051256D01*
X27865834Y-130053859D01*
X27865834Y-130077307D01*
X27501729Y-130077307D01*
X27501729Y-130053859D01*
X27539983Y-130046656D01*
X27564560Y-130029863D01*
X27573701Y-130007508D01*
X27578238Y-129948346D01*
X27578238Y-129301591D01*
X27769541Y-129301591D01*
X27769541Y-129642310D01*
X27802487Y-129681835D01*
X27833966Y-129707103D01*
X27864570Y-129721097D01*
X27895265Y-129725597D01*
X27917785Y-129721519D01*
X27937735Y-129709146D01*
X27956020Y-129686701D01*
X27973297Y-129645881D01*
X27986280Y-129576981D01*
X27991558Y-129468226D01*
X27985836Y-129356924D01*
X27971668Y-129285440D01*
X27952601Y-129242240D01*
X27932767Y-129219385D01*
X27909928Y-129206356D01*
X27882931Y-129201940D01*
X27852321Y-129207274D01*
X27823836Y-129223687D01*
X27796312Y-129253623D01*
X27769541Y-129301591D01*
X27578238Y-129301591D01*
X27578238Y-129272282D01*
X27573156Y-129210365D01*
X27562484Y-129184660D01*
X27541894Y-129170608D01*
X27501729Y-129162861D01*
X27501729Y-129139414D01*
X27769541Y-129139414D01*
X27769541Y-129223434D01*
X27805010Y-129179351D01*
X27837868Y-129152359D01*
X27872255Y-129134241D01*
X27908249Y-129123492D01*
X27946495Y-129119875D01*
X27991908Y-129124783D01*
G37*
G36*
X28916750Y-129139414D02*
G01*
X28916750Y-129639624D01*
X28921292Y-129705172D01*
X28930427Y-129730238D01*
X28948819Y-129743913D01*
X28985748Y-129752952D01*
X28985748Y-129776400D01*
X28725507Y-129776400D01*
X28725507Y-129691037D01*
X28677854Y-129739920D01*
X28633916Y-129770843D01*
X28585972Y-129789536D01*
X28531518Y-129795939D01*
X28496678Y-129792214D01*
X28464948Y-129781242D01*
X28435530Y-129762783D01*
X28399956Y-129726139D01*
X28379171Y-129685175D01*
X28369239Y-129632442D01*
X28364822Y-129529897D01*
X28364822Y-129276190D01*
X28360389Y-129210857D01*
X28351511Y-129186065D01*
X28333354Y-129172437D01*
X28295823Y-129162861D01*
X28295823Y-129139414D01*
X28556064Y-129139414D01*
X28556064Y-129574227D01*
X28558187Y-129636322D01*
X28562536Y-129662033D01*
X28571171Y-129679720D01*
X28583053Y-129691953D01*
X28598021Y-129699560D01*
X28615476Y-129702150D01*
X28638997Y-129698883D01*
X28659928Y-129689205D01*
X28686951Y-129665648D01*
X28725507Y-129617520D01*
X28725507Y-129276190D01*
X28721074Y-129210857D01*
X28712196Y-129186065D01*
X28694040Y-129172437D01*
X28656509Y-129162861D01*
X28656509Y-129139414D01*
X28916750Y-129139414D01*
G37*
G36*
X29331047Y-128904941D02*
G01*
X29331047Y-129139414D01*
X29482660Y-129139414D01*
X29482660Y-129205848D01*
X29331047Y-129205848D01*
X29331047Y-129599079D01*
X29332730Y-129649463D01*
X29336176Y-129670276D01*
X29343293Y-129684797D01*
X29354250Y-129696166D01*
X29367369Y-129703840D01*
X29378185Y-129706058D01*
X29404840Y-129700233D01*
X29432383Y-129681093D01*
X29462205Y-129643531D01*
X29482660Y-129658003D01*
X29456340Y-129705507D01*
X29425714Y-129740267D01*
X29390639Y-129764434D01*
X29350242Y-129779109D01*
X29303020Y-129784215D01*
X29263666Y-129780283D01*
X29229766Y-129768990D01*
X29200193Y-129750510D01*
X29165027Y-129713729D01*
X29146582Y-129675222D01*
X29142094Y-129642542D01*
X29139743Y-129549864D01*
X29139743Y-129205848D01*
X29056395Y-129205848D01*
X29056395Y-129181973D01*
X29137539Y-129118417D01*
X29202941Y-129054357D01*
X29259288Y-128983957D01*
X29308515Y-128904941D01*
X29331047Y-128904941D01*
G37*
G36*
X25604328Y-138467095D02*
G01*
X25206029Y-138467095D01*
X25206029Y-138326411D01*
X25604328Y-138326411D01*
X25604328Y-138467095D01*
G37*
G36*
X26500028Y-138693752D02*
G01*
X26500028Y-138717200D01*
X26015694Y-138717200D01*
X26015694Y-138693752D01*
X26046408Y-138693752D01*
X26084259Y-138689737D01*
X26111316Y-138679037D01*
X26126620Y-138666205D01*
X26138671Y-138645331D01*
X26143621Y-138621867D01*
X26146181Y-138556976D01*
X26146181Y-137951254D01*
X26143648Y-137884974D01*
X26138671Y-137860090D01*
X26127901Y-137843602D01*
X26108263Y-137828156D01*
X26082874Y-137818245D01*
X26046408Y-137814478D01*
X26015694Y-137814478D01*
X26015694Y-137791031D01*
X26500028Y-137791031D01*
X26500028Y-137814478D01*
X26469315Y-137814478D01*
X26431509Y-137818490D01*
X26404407Y-137829194D01*
X26388963Y-137842004D01*
X26376380Y-137862899D01*
X26371430Y-137886363D01*
X26368870Y-137951254D01*
X26368870Y-138556976D01*
X26371503Y-138623254D01*
X26376685Y-138648201D01*
X26387733Y-138664654D01*
X26407460Y-138680075D01*
X26432849Y-138689985D01*
X26469315Y-138693752D01*
X26500028Y-138693752D01*
G37*
G36*
X26839953Y-138080214D02*
G01*
X26839953Y-138166188D01*
X26890324Y-138116574D01*
X26934170Y-138085832D01*
X26980961Y-138066971D01*
X27031195Y-138060675D01*
X27071368Y-138064753D01*
X27105312Y-138076379D01*
X27134327Y-138095296D01*
X27158711Y-138120331D01*
X27176795Y-138148780D01*
X27188976Y-138181209D01*
X27196450Y-138229145D01*
X27199906Y-138331174D01*
X27199906Y-138580424D01*
X27204340Y-138646207D01*
X27213217Y-138671160D01*
X27231392Y-138684730D01*
X27268905Y-138693752D01*
X27268905Y-138717200D01*
X26945832Y-138717200D01*
X26945832Y-138693752D01*
X26977644Y-138683557D01*
X26997734Y-138664077D01*
X27005019Y-138640915D01*
X27008664Y-138580424D01*
X27008664Y-138296430D01*
X27006598Y-138225040D01*
X27002497Y-138197512D01*
X26994046Y-138179025D01*
X26981675Y-138165760D01*
X26966159Y-138157259D01*
X26949252Y-138154464D01*
X26923000Y-138158896D01*
X26896624Y-138172885D01*
X26869116Y-138198789D01*
X26839953Y-138240437D01*
X26839953Y-138580424D01*
X26844325Y-138644563D01*
X26853264Y-138670183D01*
X26870793Y-138684768D01*
X26902784Y-138693752D01*
X26902784Y-138717200D01*
X26579651Y-138717200D01*
X26579651Y-138693752D01*
X26615608Y-138684656D01*
X26637048Y-138668107D01*
X26644652Y-138645960D01*
X26648650Y-138580424D01*
X26648650Y-138216990D01*
X26644217Y-138151657D01*
X26635339Y-138126865D01*
X26617182Y-138113237D01*
X26579651Y-138103661D01*
X26579651Y-138080214D01*
X26839953Y-138080214D01*
G37*
G36*
X27826312Y-138065583D02*
G01*
X27868674Y-138080188D01*
X27908943Y-138105005D01*
X27943708Y-138137559D01*
X27972956Y-138177987D01*
X27996748Y-138227493D01*
X28013295Y-138280300D01*
X28023364Y-138336186D01*
X28026790Y-138395654D01*
X28023192Y-138459627D01*
X28012723Y-138518411D01*
X27995710Y-138572669D01*
X27971014Y-138623299D01*
X27940965Y-138663505D01*
X27905524Y-138694790D01*
X27864526Y-138718160D01*
X27821009Y-138732046D01*
X27774060Y-138736739D01*
X27722994Y-138730901D01*
X27675691Y-138713536D01*
X27642522Y-138691013D01*
X27603945Y-138652719D01*
X27603945Y-138893054D01*
X27606396Y-138938533D01*
X27611760Y-138960343D01*
X27621854Y-138975878D01*
X27636002Y-138986416D01*
X27656410Y-138992056D01*
X27700237Y-138994659D01*
X27700237Y-139018107D01*
X27336132Y-139018107D01*
X27336132Y-138994659D01*
X27374386Y-138987456D01*
X27398964Y-138970663D01*
X27408105Y-138948308D01*
X27412641Y-138889146D01*
X27412641Y-138242391D01*
X27603945Y-138242391D01*
X27603945Y-138583110D01*
X27636891Y-138622635D01*
X27668370Y-138647903D01*
X27698973Y-138661897D01*
X27729669Y-138666397D01*
X27752188Y-138662319D01*
X27772138Y-138649946D01*
X27790424Y-138627501D01*
X27807701Y-138586681D01*
X27820683Y-138517781D01*
X27825961Y-138409026D01*
X27820240Y-138297724D01*
X27806071Y-138226240D01*
X27787005Y-138183040D01*
X27767171Y-138160185D01*
X27744331Y-138147156D01*
X27717334Y-138142740D01*
X27686725Y-138148074D01*
X27658240Y-138164487D01*
X27630716Y-138194423D01*
X27603945Y-138242391D01*
X27412641Y-138242391D01*
X27412641Y-138213082D01*
X27407560Y-138151165D01*
X27396888Y-138125460D01*
X27376298Y-138111408D01*
X27336132Y-138103661D01*
X27336132Y-138080214D01*
X27603945Y-138080214D01*
X27603945Y-138164234D01*
X27639414Y-138120151D01*
X27672272Y-138093159D01*
X27706659Y-138075041D01*
X27742653Y-138064292D01*
X27780899Y-138060675D01*
X27826312Y-138065583D01*
G37*
G36*
X28751153Y-138080214D02*
G01*
X28751153Y-138580424D01*
X28755696Y-138645972D01*
X28764831Y-138671038D01*
X28783222Y-138684713D01*
X28820152Y-138693752D01*
X28820152Y-138717200D01*
X28559911Y-138717200D01*
X28559911Y-138631837D01*
X28512258Y-138680720D01*
X28468320Y-138711643D01*
X28420375Y-138730336D01*
X28365921Y-138736739D01*
X28331082Y-138733014D01*
X28299352Y-138722042D01*
X28269934Y-138703583D01*
X28234360Y-138666939D01*
X28213575Y-138625975D01*
X28203643Y-138573242D01*
X28199226Y-138470697D01*
X28199226Y-138216990D01*
X28194792Y-138151657D01*
X28185914Y-138126865D01*
X28167758Y-138113237D01*
X28130227Y-138103661D01*
X28130227Y-138080214D01*
X28390468Y-138080214D01*
X28390468Y-138515027D01*
X28392591Y-138577122D01*
X28396940Y-138602833D01*
X28405575Y-138620520D01*
X28417457Y-138632753D01*
X28432425Y-138640360D01*
X28449880Y-138642950D01*
X28473401Y-138639683D01*
X28494332Y-138630005D01*
X28521354Y-138606448D01*
X28559911Y-138558320D01*
X28559911Y-138216990D01*
X28555478Y-138151657D01*
X28546600Y-138126865D01*
X28528444Y-138113237D01*
X28490913Y-138103661D01*
X28490913Y-138080214D01*
X28751153Y-138080214D01*
G37*
G36*
X29165450Y-137845741D02*
G01*
X29165450Y-138080214D01*
X29317064Y-138080214D01*
X29317064Y-138146648D01*
X29165450Y-138146648D01*
X29165450Y-138539879D01*
X29167134Y-138590263D01*
X29170579Y-138611076D01*
X29177697Y-138625597D01*
X29188653Y-138636966D01*
X29201773Y-138644640D01*
X29212589Y-138646858D01*
X29239243Y-138641033D01*
X29266787Y-138621893D01*
X29296609Y-138584331D01*
X29317064Y-138598803D01*
X29290743Y-138646307D01*
X29260117Y-138681067D01*
X29225043Y-138705234D01*
X29184645Y-138719909D01*
X29137423Y-138725015D01*
X29098070Y-138721083D01*
X29064170Y-138709790D01*
X29034597Y-138691310D01*
X28999431Y-138654529D01*
X28980986Y-138616022D01*
X28976498Y-138583342D01*
X28974147Y-138490664D01*
X28974147Y-138146648D01*
X28890799Y-138146648D01*
X28890799Y-138122773D01*
X28971943Y-138059217D01*
X29037345Y-137995157D01*
X29093691Y-137924757D01*
X29142919Y-137845741D01*
X29165450Y-137845741D01*
G37*
G36*
X26474586Y-127078091D02*
G01*
X26474586Y-127406354D01*
X26449307Y-127406354D01*
X26422215Y-127339670D01*
X26390187Y-127283868D01*
X26353465Y-127237559D01*
X26311982Y-127199663D01*
X26264258Y-127168210D01*
X26215382Y-127146306D01*
X26164800Y-127133271D01*
X26111825Y-127128894D01*
X26044764Y-127135750D01*
X25987873Y-127155331D01*
X25939023Y-127187268D01*
X25898511Y-127229974D01*
X25865894Y-127283580D01*
X25841326Y-127350117D01*
X25819827Y-127455713D01*
X25812627Y-127564440D01*
X25816410Y-127652963D01*
X25827136Y-127730374D01*
X25844012Y-127797997D01*
X25870506Y-127861260D01*
X25904361Y-127909552D01*
X25945495Y-127945459D01*
X25994116Y-127971217D01*
X26049073Y-127987038D01*
X26111825Y-127992536D01*
X26180457Y-127985331D01*
X26252569Y-127964448D01*
X26252569Y-127765879D01*
X26250118Y-127717488D01*
X26245059Y-127697247D01*
X26234414Y-127683236D01*
X26213979Y-127669098D01*
X26188745Y-127659800D01*
X26156948Y-127656458D01*
X26133013Y-127656458D01*
X26133013Y-127633011D01*
X26583213Y-127633011D01*
X26583213Y-127656458D01*
X26536034Y-127662257D01*
X26511833Y-127670075D01*
X26494285Y-127683414D01*
X26480753Y-127704208D01*
X26476652Y-127721287D01*
X26474586Y-127765879D01*
X26474586Y-127964448D01*
X26384119Y-127998697D01*
X26289817Y-128023433D01*
X26192653Y-128038301D01*
X26090698Y-128043339D01*
X26003097Y-128038885D01*
X25930916Y-128026571D01*
X25871734Y-128007679D01*
X25789193Y-127966001D01*
X25718044Y-127913829D01*
X25676338Y-127872874D01*
X25641785Y-127829327D01*
X25613874Y-127782976D01*
X25587618Y-127718917D01*
X25571573Y-127649265D01*
X25566064Y-127572927D01*
X25572121Y-127491117D01*
X25589806Y-127416114D01*
X25618847Y-127346755D01*
X25659576Y-127282107D01*
X25712915Y-127221523D01*
X25774389Y-127170100D01*
X25841175Y-127130387D01*
X25914040Y-127101762D01*
X25994038Y-127084162D01*
X26082454Y-127078091D01*
X26149714Y-127080747D01*
X26206835Y-127088166D01*
X26304166Y-127116926D01*
X26365340Y-127136891D01*
X26383728Y-127140617D01*
X26401948Y-127137426D01*
X26419204Y-127127550D01*
X26433699Y-127110649D01*
X26449307Y-127078091D01*
X26474586Y-127078091D01*
G37*
G36*
X26946097Y-127097631D02*
G01*
X27403075Y-127666778D01*
X27403075Y-127273485D01*
X27399582Y-127217142D01*
X27390927Y-127181240D01*
X27379140Y-127159668D01*
X27354361Y-127138743D01*
X27318988Y-127125433D01*
X27269169Y-127121078D01*
X27269169Y-127097631D01*
X27575206Y-127097631D01*
X27575206Y-127121078D01*
X27521549Y-127130967D01*
X27496315Y-127140739D01*
X27478837Y-127156047D01*
X27464869Y-127180063D01*
X27457065Y-127212227D01*
X27453634Y-127273485D01*
X27453634Y-128043339D01*
X27430431Y-128043339D01*
X26804009Y-127271532D01*
X26804009Y-127863576D01*
X26809003Y-127915915D01*
X26821781Y-127950373D01*
X26840523Y-127972203D01*
X26879628Y-127993277D01*
X26924237Y-128000352D01*
X26946097Y-128000352D01*
X26946097Y-128023800D01*
X26617468Y-128023800D01*
X26617468Y-128000352D01*
X26667701Y-127995722D01*
X26701725Y-127984645D01*
X26724019Y-127968784D01*
X26739495Y-127946055D01*
X26750053Y-127912322D01*
X26754122Y-127863576D01*
X26754122Y-127210104D01*
X26734339Y-127185741D01*
X26704474Y-127151496D01*
X26682376Y-127134756D01*
X26657033Y-127125700D01*
X26617468Y-127121078D01*
X26617468Y-127097631D01*
X26946097Y-127097631D01*
G37*
G36*
X28151399Y-127103395D02*
G01*
X28239082Y-127119072D01*
X28308056Y-127142693D01*
X28366977Y-127174433D01*
X28417336Y-127212711D01*
X28460022Y-127257732D01*
X28495574Y-127310061D01*
X28530692Y-127386949D01*
X28552093Y-127470903D01*
X28559443Y-127563463D01*
X28555822Y-127627960D01*
X28545249Y-127687739D01*
X28527997Y-127743409D01*
X28504205Y-127796660D01*
X28477065Y-127841641D01*
X28446725Y-127879330D01*
X28392971Y-127927686D01*
X28331626Y-127965425D01*
X28262023Y-127993272D01*
X28172135Y-128015617D01*
X28124453Y-128021358D01*
X28040977Y-128023800D01*
X27626313Y-128023800D01*
X27626313Y-128000352D01*
X27657027Y-128000352D01*
X27694601Y-127996695D01*
X27718881Y-127987407D01*
X27737599Y-127971998D01*
X27750633Y-127951931D01*
X27754635Y-127930150D01*
X27756512Y-127872430D01*
X27979489Y-127872430D01*
X27981354Y-127924501D01*
X27984923Y-127942894D01*
X27992249Y-127954308D01*
X28003424Y-127962739D01*
X28024204Y-127970080D01*
X28056669Y-127972997D01*
X28112493Y-127967695D01*
X28158989Y-127952714D01*
X28198034Y-127928640D01*
X28230875Y-127894961D01*
X28263831Y-127841247D01*
X28289511Y-127771468D01*
X28306584Y-127681847D01*
X28312880Y-127567920D01*
X28308789Y-127476615D01*
X28297398Y-127399962D01*
X28279827Y-127335898D01*
X28256887Y-127282584D01*
X28222966Y-127231004D01*
X28185043Y-127193895D01*
X28142765Y-127168950D01*
X28108788Y-127158504D01*
X28056430Y-127151047D01*
X27979489Y-127148433D01*
X27979489Y-127872430D01*
X27756512Y-127872430D01*
X27756800Y-127863576D01*
X27756800Y-127257854D01*
X27754267Y-127191574D01*
X27749290Y-127166690D01*
X27738519Y-127150202D01*
X27718881Y-127134756D01*
X27693493Y-127124845D01*
X27657027Y-127121078D01*
X27626313Y-127121078D01*
X27626313Y-127097631D01*
X28040977Y-127097631D01*
X28151399Y-127103395D01*
G37*
G36*
X26474586Y-141556091D02*
G01*
X26474586Y-141884354D01*
X26449307Y-141884354D01*
X26422215Y-141817670D01*
X26390187Y-141761868D01*
X26353465Y-141715559D01*
X26311982Y-141677663D01*
X26264258Y-141646210D01*
X26215382Y-141624306D01*
X26164800Y-141611271D01*
X26111825Y-141606894D01*
X26044764Y-141613750D01*
X25987873Y-141633331D01*
X25939023Y-141665268D01*
X25898511Y-141707974D01*
X25865894Y-141761580D01*
X25841326Y-141828117D01*
X25819827Y-141933713D01*
X25812627Y-142042440D01*
X25816410Y-142130963D01*
X25827136Y-142208374D01*
X25844012Y-142275997D01*
X25870506Y-142339260D01*
X25904361Y-142387552D01*
X25945495Y-142423459D01*
X25994116Y-142449217D01*
X26049073Y-142465038D01*
X26111825Y-142470536D01*
X26180457Y-142463331D01*
X26252569Y-142442448D01*
X26252569Y-142243879D01*
X26250118Y-142195488D01*
X26245059Y-142175247D01*
X26234414Y-142161236D01*
X26213979Y-142147098D01*
X26188745Y-142137800D01*
X26156948Y-142134458D01*
X26133013Y-142134458D01*
X26133013Y-142111011D01*
X26583213Y-142111011D01*
X26583213Y-142134458D01*
X26536034Y-142140257D01*
X26511833Y-142148075D01*
X26494285Y-142161414D01*
X26480753Y-142182208D01*
X26476652Y-142199287D01*
X26474586Y-142243879D01*
X26474586Y-142442448D01*
X26384119Y-142476697D01*
X26289817Y-142501433D01*
X26192653Y-142516301D01*
X26090698Y-142521339D01*
X26003097Y-142516885D01*
X25930916Y-142504571D01*
X25871734Y-142485679D01*
X25789193Y-142444001D01*
X25718044Y-142391829D01*
X25676338Y-142350874D01*
X25641785Y-142307327D01*
X25613874Y-142260976D01*
X25587618Y-142196917D01*
X25571573Y-142127265D01*
X25566064Y-142050927D01*
X25572121Y-141969117D01*
X25589806Y-141894114D01*
X25618847Y-141824755D01*
X25659576Y-141760107D01*
X25712915Y-141699523D01*
X25774389Y-141648100D01*
X25841175Y-141608387D01*
X25914040Y-141579762D01*
X25994038Y-141562162D01*
X26082454Y-141556091D01*
X26149714Y-141558747D01*
X26206835Y-141566166D01*
X26304166Y-141594926D01*
X26365340Y-141614891D01*
X26383728Y-141618617D01*
X26401948Y-141615426D01*
X26419204Y-141605550D01*
X26433699Y-141588649D01*
X26449307Y-141556091D01*
X26474586Y-141556091D01*
G37*
G36*
X26946097Y-141575631D02*
G01*
X27403075Y-142144778D01*
X27403075Y-141751485D01*
X27399582Y-141695142D01*
X27390927Y-141659240D01*
X27379140Y-141637668D01*
X27354361Y-141616743D01*
X27318988Y-141603433D01*
X27269169Y-141599078D01*
X27269169Y-141575631D01*
X27575206Y-141575631D01*
X27575206Y-141599078D01*
X27521549Y-141608967D01*
X27496315Y-141618739D01*
X27478837Y-141634047D01*
X27464869Y-141658063D01*
X27457065Y-141690227D01*
X27453634Y-141751485D01*
X27453634Y-142521339D01*
X27430431Y-142521339D01*
X26804009Y-141749532D01*
X26804009Y-142341576D01*
X26809003Y-142393915D01*
X26821781Y-142428373D01*
X26840523Y-142450203D01*
X26879628Y-142471277D01*
X26924237Y-142478352D01*
X26946097Y-142478352D01*
X26946097Y-142501800D01*
X26617468Y-142501800D01*
X26617468Y-142478352D01*
X26667701Y-142473722D01*
X26701725Y-142462645D01*
X26724019Y-142446784D01*
X26739495Y-142424055D01*
X26750053Y-142390322D01*
X26754122Y-142341576D01*
X26754122Y-141688104D01*
X26734339Y-141663741D01*
X26704474Y-141629496D01*
X26682376Y-141612756D01*
X26657033Y-141603700D01*
X26617468Y-141599078D01*
X26617468Y-141575631D01*
X26946097Y-141575631D01*
G37*
G36*
X28151399Y-141581395D02*
G01*
X28239082Y-141597072D01*
X28308056Y-141620693D01*
X28366977Y-141652433D01*
X28417336Y-141690711D01*
X28460022Y-141735732D01*
X28495574Y-141788061D01*
X28530692Y-141864949D01*
X28552093Y-141948903D01*
X28559443Y-142041463D01*
X28555822Y-142105960D01*
X28545249Y-142165739D01*
X28527997Y-142221409D01*
X28504205Y-142274660D01*
X28477065Y-142319641D01*
X28446725Y-142357330D01*
X28392971Y-142405686D01*
X28331626Y-142443425D01*
X28262023Y-142471272D01*
X28172135Y-142493617D01*
X28124453Y-142499358D01*
X28040977Y-142501800D01*
X27626313Y-142501800D01*
X27626313Y-142478352D01*
X27657027Y-142478352D01*
X27694601Y-142474695D01*
X27718881Y-142465407D01*
X27737599Y-142449998D01*
X27750633Y-142429931D01*
X27754635Y-142408150D01*
X27756512Y-142350430D01*
X27979489Y-142350430D01*
X27981354Y-142402501D01*
X27984923Y-142420894D01*
X27992249Y-142432308D01*
X28003424Y-142440739D01*
X28024204Y-142448080D01*
X28056669Y-142450997D01*
X28112493Y-142445695D01*
X28158989Y-142430714D01*
X28198034Y-142406640D01*
X28230875Y-142372961D01*
X28263831Y-142319247D01*
X28289511Y-142249468D01*
X28306584Y-142159847D01*
X28312880Y-142045920D01*
X28308789Y-141954615D01*
X28297398Y-141877962D01*
X28279827Y-141813898D01*
X28256887Y-141760584D01*
X28222966Y-141709004D01*
X28185043Y-141671895D01*
X28142765Y-141646950D01*
X28108788Y-141636504D01*
X28056430Y-141629047D01*
X27979489Y-141626433D01*
X27979489Y-142350430D01*
X27756512Y-142350430D01*
X27756800Y-142341576D01*
X27756800Y-141735854D01*
X27754267Y-141669574D01*
X27749290Y-141644690D01*
X27738519Y-141628202D01*
X27718881Y-141612756D01*
X27693493Y-141602845D01*
X27657027Y-141599078D01*
X27626313Y-141599078D01*
X27626313Y-141575631D01*
X28040977Y-141575631D01*
X28151399Y-141581395D01*
G37*
G36*
X72213658Y-138259974D02*
G01*
X72542225Y-138259974D01*
X72542225Y-137931712D01*
X72631679Y-137931712D01*
X72631679Y-138259974D01*
X72960247Y-138259974D01*
X72960247Y-138353764D01*
X72631679Y-138353764D01*
X72631679Y-138674210D01*
X72542225Y-138674210D01*
X72542225Y-138353764D01*
X72213658Y-138353764D01*
X72213658Y-138259974D01*
G37*
G36*
X73962101Y-137832982D02*
G01*
X74040933Y-137847730D01*
X74111618Y-137873586D01*
X74175415Y-137910437D01*
X74233241Y-137958823D01*
X74283107Y-138016385D01*
X74321434Y-138078593D01*
X74348944Y-138146133D01*
X74365802Y-138219974D01*
X74371604Y-138301312D01*
X74364971Y-138387726D01*
X74345553Y-138467269D01*
X74313551Y-138541186D01*
X74268473Y-138610463D01*
X74219995Y-138664377D01*
X74166154Y-138707953D01*
X74106436Y-138741982D01*
X74040019Y-138766782D01*
X73965813Y-138782184D01*
X73882508Y-138787539D01*
X73798515Y-138782373D01*
X73723856Y-138767540D01*
X73657229Y-138743725D01*
X73597540Y-138711176D01*
X73543940Y-138669695D01*
X73495872Y-138618645D01*
X73448847Y-138549170D01*
X73415350Y-138474040D01*
X73394928Y-138392126D01*
X73388381Y-138307968D01*
X73634540Y-138307968D01*
X73640964Y-138429795D01*
X73658372Y-138525661D01*
X73684498Y-138600275D01*
X73717888Y-138657663D01*
X73749880Y-138692306D01*
X73786876Y-138716634D01*
X73829861Y-138731528D01*
X73880432Y-138736736D01*
X73926241Y-138732674D01*
X73964949Y-138721159D01*
X73997913Y-138702665D01*
X74033328Y-138669792D01*
X74064622Y-138624273D01*
X74091519Y-138563263D01*
X74109010Y-138498464D01*
X74120685Y-138416342D01*
X74124980Y-138313464D01*
X74120278Y-138190169D01*
X74108064Y-138101224D01*
X74090786Y-138039118D01*
X74063928Y-137980780D01*
X74034815Y-137939074D01*
X74003714Y-137910585D01*
X73966901Y-137889868D01*
X73926593Y-137877373D01*
X73881836Y-137873094D01*
X73833633Y-137878231D01*
X73791247Y-137893149D01*
X73753365Y-137917927D01*
X73719188Y-137953711D01*
X73688518Y-138002603D01*
X73666919Y-138055286D01*
X73649934Y-138121844D01*
X73638664Y-138205042D01*
X73634540Y-138307968D01*
X73388381Y-138307968D01*
X73387916Y-138301984D01*
X73393784Y-138220778D01*
X73410846Y-138146974D01*
X73438721Y-138079371D01*
X73477612Y-138017003D01*
X73528295Y-137959189D01*
X73587296Y-137909912D01*
X73650468Y-137872866D01*
X73718533Y-137847241D01*
X73792496Y-137832841D01*
X73873593Y-137830107D01*
X73962101Y-137832982D01*
G37*
G36*
X75085587Y-138131014D02*
G01*
X75085587Y-138631224D01*
X75090130Y-138696772D01*
X75099265Y-138721838D01*
X75117656Y-138735513D01*
X75154586Y-138744552D01*
X75154586Y-138768000D01*
X74894345Y-138768000D01*
X74894345Y-138682637D01*
X74846692Y-138731520D01*
X74802754Y-138762443D01*
X74754809Y-138781136D01*
X74700355Y-138787539D01*
X74665516Y-138783814D01*
X74633785Y-138772842D01*
X74604368Y-138754383D01*
X74568794Y-138717739D01*
X74548009Y-138676775D01*
X74538077Y-138624042D01*
X74533659Y-138521497D01*
X74533659Y-138267790D01*
X74529226Y-138202457D01*
X74520348Y-138177665D01*
X74502192Y-138164037D01*
X74464661Y-138154461D01*
X74464661Y-138131014D01*
X74724902Y-138131014D01*
X74724902Y-138565827D01*
X74727025Y-138627922D01*
X74731374Y-138653633D01*
X74740009Y-138671320D01*
X74751890Y-138683553D01*
X74766859Y-138691160D01*
X74784314Y-138693750D01*
X74807835Y-138690483D01*
X74828766Y-138680805D01*
X74855788Y-138657248D01*
X74894345Y-138609120D01*
X74894345Y-138267790D01*
X74889912Y-138202457D01*
X74881034Y-138177665D01*
X74862878Y-138164037D01*
X74825346Y-138154461D01*
X74825346Y-138131014D01*
X75085587Y-138131014D01*
G37*
G36*
X75499884Y-137896541D02*
G01*
X75499884Y-138131014D01*
X75651498Y-138131014D01*
X75651498Y-138197448D01*
X75499884Y-138197448D01*
X75499884Y-138590679D01*
X75501568Y-138641063D01*
X75505013Y-138661876D01*
X75512131Y-138676397D01*
X75523087Y-138687766D01*
X75536206Y-138695440D01*
X75547023Y-138697658D01*
X75573677Y-138691833D01*
X75601221Y-138672693D01*
X75631043Y-138635131D01*
X75651498Y-138649603D01*
X75625177Y-138697107D01*
X75594551Y-138731867D01*
X75559477Y-138756034D01*
X75519079Y-138770709D01*
X75471857Y-138775815D01*
X75432504Y-138771883D01*
X75398604Y-138760590D01*
X75369031Y-138742110D01*
X75333865Y-138705329D01*
X75315420Y-138666822D01*
X75310932Y-138634142D01*
X75308581Y-138541464D01*
X75308581Y-138197448D01*
X75225233Y-138197448D01*
X75225233Y-138173573D01*
X75306377Y-138110017D01*
X75371779Y-138045957D01*
X75428125Y-137975557D01*
X75477353Y-137896541D01*
X75499884Y-137896541D01*
G37*
G36*
X76182100Y-138116383D02*
G01*
X76224462Y-138130988D01*
X76264731Y-138155805D01*
X76299496Y-138188359D01*
X76328743Y-138228787D01*
X76352536Y-138278293D01*
X76369082Y-138331100D01*
X76379151Y-138386986D01*
X76382578Y-138446454D01*
X76378979Y-138510427D01*
X76368511Y-138569211D01*
X76351498Y-138623469D01*
X76326802Y-138674099D01*
X76296753Y-138714305D01*
X76261311Y-138745590D01*
X76220313Y-138768960D01*
X76176796Y-138782846D01*
X76129848Y-138787539D01*
X76078782Y-138781701D01*
X76031479Y-138764336D01*
X75998310Y-138741813D01*
X75959732Y-138703519D01*
X75959732Y-138943854D01*
X75962184Y-138989333D01*
X75967548Y-139011143D01*
X75977642Y-139026678D01*
X75991789Y-139037216D01*
X76012198Y-139042856D01*
X76056025Y-139045459D01*
X76056025Y-139068907D01*
X75691920Y-139068907D01*
X75691920Y-139045459D01*
X75730174Y-139038256D01*
X75754752Y-139021463D01*
X75763892Y-138999108D01*
X75768429Y-138939946D01*
X75768429Y-138293191D01*
X75959732Y-138293191D01*
X75959732Y-138633910D01*
X75992679Y-138673435D01*
X76024158Y-138698703D01*
X76054761Y-138712697D01*
X76085456Y-138717197D01*
X76107976Y-138713119D01*
X76127926Y-138700746D01*
X76146212Y-138678301D01*
X76163488Y-138637481D01*
X76176471Y-138568581D01*
X76181749Y-138459826D01*
X76176027Y-138348524D01*
X76161859Y-138277040D01*
X76142792Y-138233840D01*
X76122959Y-138210985D01*
X76100119Y-138197956D01*
X76073122Y-138193540D01*
X76042513Y-138198874D01*
X76014027Y-138215287D01*
X75986504Y-138245223D01*
X75959732Y-138293191D01*
X75768429Y-138293191D01*
X75768429Y-138263882D01*
X75763347Y-138201965D01*
X75752675Y-138176260D01*
X75732086Y-138162208D01*
X75691920Y-138154461D01*
X75691920Y-138131014D01*
X75959732Y-138131014D01*
X75959732Y-138215034D01*
X75995201Y-138170951D01*
X76028059Y-138143959D01*
X76062447Y-138125841D01*
X76098441Y-138115092D01*
X76136686Y-138111475D01*
X76182100Y-138116383D01*
G37*
G36*
X77106941Y-138131014D02*
G01*
X77106941Y-138631224D01*
X77111483Y-138696772D01*
X77120619Y-138721838D01*
X77139010Y-138735513D01*
X77175940Y-138744552D01*
X77175940Y-138768000D01*
X76915699Y-138768000D01*
X76915699Y-138682637D01*
X76868045Y-138731520D01*
X76824108Y-138762443D01*
X76776163Y-138781136D01*
X76721709Y-138787539D01*
X76686870Y-138783814D01*
X76655139Y-138772842D01*
X76625722Y-138754383D01*
X76590147Y-138717739D01*
X76569363Y-138676775D01*
X76559430Y-138624042D01*
X76555013Y-138521497D01*
X76555013Y-138267790D01*
X76550580Y-138202457D01*
X76541702Y-138177665D01*
X76523546Y-138164037D01*
X76486015Y-138154461D01*
X76486015Y-138131014D01*
X76746255Y-138131014D01*
X76746255Y-138565827D01*
X76748379Y-138627922D01*
X76752728Y-138653633D01*
X76761363Y-138671320D01*
X76773244Y-138683553D01*
X76788212Y-138691160D01*
X76805667Y-138693750D01*
X76829189Y-138690483D01*
X76850120Y-138680805D01*
X76877142Y-138657248D01*
X76915699Y-138609120D01*
X76915699Y-138267790D01*
X76911266Y-138202457D01*
X76902388Y-138177665D01*
X76884231Y-138164037D01*
X76846700Y-138154461D01*
X76846700Y-138131014D01*
X77106941Y-138131014D01*
G37*
G36*
X77521238Y-137896541D02*
G01*
X77521238Y-138131014D01*
X77672852Y-138131014D01*
X77672852Y-138197448D01*
X77521238Y-138197448D01*
X77521238Y-138590679D01*
X77522922Y-138641063D01*
X77526367Y-138661876D01*
X77533485Y-138676397D01*
X77544441Y-138687766D01*
X77557560Y-138695440D01*
X77568377Y-138697658D01*
X77595031Y-138691833D01*
X77622575Y-138672693D01*
X77652396Y-138635131D01*
X77672852Y-138649603D01*
X77646531Y-138697107D01*
X77615905Y-138731867D01*
X77580831Y-138756034D01*
X77540433Y-138770709D01*
X77493211Y-138775815D01*
X77453858Y-138771883D01*
X77419958Y-138760590D01*
X77390385Y-138742110D01*
X77355219Y-138705329D01*
X77336774Y-138666822D01*
X77332286Y-138634142D01*
X77329935Y-138541464D01*
X77329935Y-138197448D01*
X77246587Y-138197448D01*
X77246587Y-138173573D01*
X77327731Y-138110017D01*
X77393133Y-138045957D01*
X77449479Y-137975557D01*
X77498707Y-137896541D01*
X77521238Y-137896541D01*
G37*
G36*
X72784331Y-129577095D02*
G01*
X72386032Y-129577095D01*
X72386032Y-129436411D01*
X72784331Y-129436411D01*
X72784331Y-129577095D01*
G37*
G36*
X73796505Y-128892182D02*
G01*
X73875336Y-128906930D01*
X73946022Y-128932786D01*
X74009819Y-128969637D01*
X74067644Y-129018023D01*
X74117510Y-129075585D01*
X74155838Y-129137793D01*
X74183348Y-129205333D01*
X74200206Y-129279174D01*
X74206008Y-129360512D01*
X74199375Y-129446926D01*
X74179957Y-129526469D01*
X74147955Y-129600386D01*
X74102876Y-129669663D01*
X74054399Y-129723577D01*
X74000558Y-129767153D01*
X73940840Y-129801182D01*
X73874423Y-129825982D01*
X73800217Y-129841384D01*
X73716912Y-129846739D01*
X73632919Y-129841573D01*
X73558259Y-129826740D01*
X73491633Y-129802925D01*
X73431944Y-129770376D01*
X73378344Y-129728895D01*
X73330275Y-129677845D01*
X73283251Y-129608370D01*
X73249754Y-129533240D01*
X73229332Y-129451326D01*
X73222785Y-129367168D01*
X73468944Y-129367168D01*
X73475368Y-129488995D01*
X73492776Y-129584861D01*
X73518902Y-129659475D01*
X73552292Y-129716863D01*
X73584284Y-129751506D01*
X73621280Y-129775834D01*
X73664265Y-129790728D01*
X73714836Y-129795936D01*
X73760645Y-129791874D01*
X73799353Y-129780359D01*
X73832316Y-129761865D01*
X73867732Y-129728992D01*
X73899026Y-129683473D01*
X73925923Y-129622463D01*
X73943414Y-129557664D01*
X73955088Y-129475542D01*
X73959384Y-129372664D01*
X73954681Y-129249369D01*
X73942467Y-129160424D01*
X73925190Y-129098318D01*
X73898331Y-129039980D01*
X73869218Y-128998274D01*
X73838117Y-128969785D01*
X73801305Y-128949068D01*
X73760997Y-128936573D01*
X73716240Y-128932294D01*
X73668037Y-128937431D01*
X73625651Y-128952349D01*
X73587769Y-128977127D01*
X73553592Y-129012911D01*
X73522922Y-129061803D01*
X73501322Y-129114486D01*
X73484338Y-129181044D01*
X73473068Y-129264242D01*
X73468944Y-129367168D01*
X73222785Y-129367168D01*
X73222320Y-129361184D01*
X73228188Y-129279978D01*
X73245249Y-129206174D01*
X73273124Y-129138571D01*
X73312016Y-129076203D01*
X73362699Y-129018389D01*
X73421700Y-128969112D01*
X73484872Y-128932066D01*
X73552936Y-128906441D01*
X73626899Y-128892041D01*
X73707997Y-128889307D01*
X73796505Y-128892182D01*
G37*
G36*
X74919991Y-129190214D02*
G01*
X74919991Y-129690424D01*
X74924533Y-129755972D01*
X74933669Y-129781038D01*
X74952060Y-129794713D01*
X74988990Y-129803752D01*
X74988990Y-129827200D01*
X74728749Y-129827200D01*
X74728749Y-129741837D01*
X74681095Y-129790720D01*
X74637158Y-129821643D01*
X74589213Y-129840336D01*
X74534759Y-129846739D01*
X74499919Y-129843014D01*
X74468189Y-129832042D01*
X74438771Y-129813583D01*
X74403197Y-129776939D01*
X74382412Y-129735975D01*
X74372480Y-129683242D01*
X74368063Y-129580697D01*
X74368063Y-129326990D01*
X74363630Y-129261657D01*
X74354752Y-129236865D01*
X74336596Y-129223237D01*
X74299065Y-129213661D01*
X74299065Y-129190214D01*
X74559305Y-129190214D01*
X74559305Y-129625027D01*
X74561428Y-129687122D01*
X74565778Y-129712833D01*
X74574413Y-129730520D01*
X74586294Y-129742753D01*
X74601262Y-129750360D01*
X74618717Y-129752950D01*
X74642239Y-129749683D01*
X74663170Y-129740005D01*
X74690192Y-129716448D01*
X74728749Y-129668320D01*
X74728749Y-129326990D01*
X74724316Y-129261657D01*
X74715438Y-129236865D01*
X74697281Y-129223237D01*
X74659750Y-129213661D01*
X74659750Y-129190214D01*
X74919991Y-129190214D01*
G37*
G36*
X75334288Y-128955741D02*
G01*
X75334288Y-129190214D01*
X75485902Y-129190214D01*
X75485902Y-129256648D01*
X75334288Y-129256648D01*
X75334288Y-129649879D01*
X75335972Y-129700263D01*
X75339417Y-129721076D01*
X75346535Y-129735597D01*
X75357491Y-129746966D01*
X75370610Y-129754640D01*
X75381427Y-129756858D01*
X75408081Y-129751033D01*
X75435625Y-129731893D01*
X75465446Y-129694331D01*
X75485902Y-129708803D01*
X75459581Y-129756307D01*
X75428955Y-129791067D01*
X75393881Y-129815234D01*
X75353483Y-129829909D01*
X75306261Y-129835015D01*
X75266907Y-129831083D01*
X75233007Y-129819790D01*
X75203435Y-129801310D01*
X75168269Y-129764529D01*
X75149823Y-129726022D01*
X75145336Y-129693342D01*
X75142985Y-129600664D01*
X75142985Y-129256648D01*
X75059637Y-129256648D01*
X75059637Y-129232773D01*
X75140781Y-129169217D01*
X75206182Y-129105157D01*
X75262529Y-129034757D01*
X75311756Y-128955741D01*
X75334288Y-128955741D01*
G37*
G36*
X76016504Y-129175583D02*
G01*
X76058865Y-129190188D01*
X76099134Y-129215005D01*
X76133899Y-129247559D01*
X76163147Y-129287987D01*
X76186940Y-129337493D01*
X76203486Y-129390300D01*
X76213555Y-129446186D01*
X76216981Y-129505654D01*
X76213383Y-129569627D01*
X76202915Y-129628411D01*
X76185902Y-129682669D01*
X76161205Y-129733299D01*
X76131157Y-129773505D01*
X76095715Y-129804790D01*
X76054717Y-129828160D01*
X76011200Y-129842046D01*
X75964251Y-129846739D01*
X75913186Y-129840901D01*
X75865882Y-129823536D01*
X75832713Y-129801013D01*
X75794136Y-129762719D01*
X75794136Y-130003054D01*
X75796588Y-130048533D01*
X75801952Y-130070343D01*
X75812046Y-130085878D01*
X75826193Y-130096416D01*
X75846601Y-130102056D01*
X75890429Y-130104659D01*
X75890429Y-130128107D01*
X75526324Y-130128107D01*
X75526324Y-130104659D01*
X75564578Y-130097456D01*
X75589155Y-130080663D01*
X75598296Y-130058308D01*
X75602833Y-129999146D01*
X75602833Y-129352391D01*
X75794136Y-129352391D01*
X75794136Y-129693110D01*
X75827083Y-129732635D01*
X75858561Y-129757903D01*
X75889165Y-129771897D01*
X75919860Y-129776397D01*
X75942380Y-129772319D01*
X75962330Y-129759946D01*
X75980615Y-129737501D01*
X75997892Y-129696681D01*
X76010875Y-129627781D01*
X76016153Y-129519026D01*
X76010431Y-129407724D01*
X75996263Y-129336240D01*
X75977196Y-129293040D01*
X75957363Y-129270185D01*
X75934523Y-129257156D01*
X75907526Y-129252740D01*
X75876917Y-129258074D01*
X75848431Y-129274487D01*
X75820907Y-129304423D01*
X75794136Y-129352391D01*
X75602833Y-129352391D01*
X75602833Y-129323082D01*
X75597751Y-129261165D01*
X75587079Y-129235460D01*
X75566489Y-129221408D01*
X75526324Y-129213661D01*
X75526324Y-129190214D01*
X75794136Y-129190214D01*
X75794136Y-129274234D01*
X75829605Y-129230151D01*
X75862463Y-129203159D01*
X75896851Y-129185041D01*
X75932844Y-129174292D01*
X75971090Y-129170675D01*
X76016504Y-129175583D01*
G37*
G36*
X76941345Y-129190214D02*
G01*
X76941345Y-129690424D01*
X76945887Y-129755972D01*
X76955022Y-129781038D01*
X76973414Y-129794713D01*
X77010343Y-129803752D01*
X77010343Y-129827200D01*
X76750103Y-129827200D01*
X76750103Y-129741837D01*
X76702449Y-129790720D01*
X76658512Y-129821643D01*
X76610567Y-129840336D01*
X76556113Y-129846739D01*
X76521273Y-129843014D01*
X76489543Y-129832042D01*
X76460125Y-129813583D01*
X76424551Y-129776939D01*
X76403766Y-129735975D01*
X76393834Y-129683242D01*
X76389417Y-129580697D01*
X76389417Y-129326990D01*
X76384984Y-129261657D01*
X76376106Y-129236865D01*
X76357949Y-129223237D01*
X76320418Y-129213661D01*
X76320418Y-129190214D01*
X76580659Y-129190214D01*
X76580659Y-129625027D01*
X76582782Y-129687122D01*
X76587132Y-129712833D01*
X76595766Y-129730520D01*
X76607648Y-129742753D01*
X76622616Y-129750360D01*
X76640071Y-129752950D01*
X76663592Y-129749683D01*
X76684523Y-129740005D01*
X76711546Y-129716448D01*
X76750103Y-129668320D01*
X76750103Y-129326990D01*
X76745669Y-129261657D01*
X76736791Y-129236865D01*
X76718635Y-129223237D01*
X76681104Y-129213661D01*
X76681104Y-129190214D01*
X76941345Y-129190214D01*
G37*
G36*
X77355642Y-128955741D02*
G01*
X77355642Y-129190214D01*
X77507255Y-129190214D01*
X77507255Y-129256648D01*
X77355642Y-129256648D01*
X77355642Y-129649879D01*
X77357325Y-129700263D01*
X77360771Y-129721076D01*
X77367888Y-129735597D01*
X77378845Y-129746966D01*
X77391964Y-129754640D01*
X77402781Y-129756858D01*
X77429435Y-129751033D01*
X77456978Y-129731893D01*
X77486800Y-129694331D01*
X77507255Y-129708803D01*
X77480935Y-129756307D01*
X77450309Y-129791067D01*
X77415235Y-129815234D01*
X77374837Y-129829909D01*
X77327615Y-129835015D01*
X77288261Y-129831083D01*
X77254361Y-129819790D01*
X77224789Y-129801310D01*
X77189622Y-129764529D01*
X77171177Y-129726022D01*
X77166689Y-129693342D01*
X77164338Y-129600664D01*
X77164338Y-129256648D01*
X77080991Y-129256648D01*
X77080991Y-129232773D01*
X77162135Y-129169217D01*
X77227536Y-129105157D01*
X77283883Y-129034757D01*
X77333110Y-128955741D01*
X77355642Y-128955741D01*
G37*
G36*
X74201186Y-127078091D02*
G01*
X74201186Y-127406354D01*
X74175907Y-127406354D01*
X74148815Y-127339670D01*
X74116787Y-127283868D01*
X74080065Y-127237559D01*
X74038582Y-127199663D01*
X73990858Y-127168210D01*
X73941982Y-127146306D01*
X73891400Y-127133271D01*
X73838425Y-127128894D01*
X73771364Y-127135750D01*
X73714473Y-127155331D01*
X73665623Y-127187268D01*
X73625111Y-127229974D01*
X73592494Y-127283580D01*
X73567926Y-127350117D01*
X73546427Y-127455713D01*
X73539227Y-127564440D01*
X73543010Y-127652963D01*
X73553736Y-127730374D01*
X73570612Y-127797997D01*
X73597106Y-127861260D01*
X73630961Y-127909552D01*
X73672095Y-127945459D01*
X73720716Y-127971217D01*
X73775673Y-127987038D01*
X73838425Y-127992536D01*
X73907057Y-127985331D01*
X73979169Y-127964448D01*
X73979169Y-127765879D01*
X73976718Y-127717488D01*
X73971659Y-127697247D01*
X73961014Y-127683236D01*
X73940579Y-127669098D01*
X73915345Y-127659800D01*
X73883548Y-127656458D01*
X73859613Y-127656458D01*
X73859613Y-127633011D01*
X74309813Y-127633011D01*
X74309813Y-127656458D01*
X74262634Y-127662257D01*
X74238433Y-127670075D01*
X74220885Y-127683414D01*
X74207353Y-127704208D01*
X74203252Y-127721287D01*
X74201186Y-127765879D01*
X74201186Y-127964448D01*
X74110719Y-127998697D01*
X74016417Y-128023433D01*
X73919253Y-128038301D01*
X73817298Y-128043339D01*
X73729697Y-128038885D01*
X73657516Y-128026571D01*
X73598334Y-128007679D01*
X73515793Y-127966001D01*
X73444644Y-127913829D01*
X73402938Y-127872874D01*
X73368385Y-127829327D01*
X73340474Y-127782976D01*
X73314218Y-127718917D01*
X73298173Y-127649265D01*
X73292664Y-127572927D01*
X73298721Y-127491117D01*
X73316406Y-127416114D01*
X73345447Y-127346755D01*
X73386176Y-127282107D01*
X73439515Y-127221523D01*
X73500989Y-127170100D01*
X73567775Y-127130387D01*
X73640640Y-127101762D01*
X73720638Y-127084162D01*
X73809054Y-127078091D01*
X73876314Y-127080747D01*
X73933435Y-127088166D01*
X74030766Y-127116926D01*
X74091940Y-127136891D01*
X74110328Y-127140617D01*
X74128548Y-127137426D01*
X74145804Y-127127550D01*
X74160299Y-127110649D01*
X74175907Y-127078091D01*
X74201186Y-127078091D01*
G37*
G36*
X74672697Y-127097631D02*
G01*
X75129675Y-127666778D01*
X75129675Y-127273485D01*
X75126182Y-127217142D01*
X75117527Y-127181240D01*
X75105740Y-127159668D01*
X75080961Y-127138743D01*
X75045588Y-127125433D01*
X74995769Y-127121078D01*
X74995769Y-127097631D01*
X75301806Y-127097631D01*
X75301806Y-127121078D01*
X75248149Y-127130967D01*
X75222915Y-127140739D01*
X75205437Y-127156047D01*
X75191469Y-127180063D01*
X75183665Y-127212227D01*
X75180234Y-127273485D01*
X75180234Y-128043339D01*
X75157031Y-128043339D01*
X74530609Y-127271532D01*
X74530609Y-127863576D01*
X74535603Y-127915915D01*
X74548381Y-127950373D01*
X74567123Y-127972203D01*
X74606228Y-127993277D01*
X74650837Y-128000352D01*
X74672697Y-128000352D01*
X74672697Y-128023800D01*
X74344068Y-128023800D01*
X74344068Y-128000352D01*
X74394301Y-127995722D01*
X74428325Y-127984645D01*
X74450619Y-127968784D01*
X74466095Y-127946055D01*
X74476653Y-127912322D01*
X74480722Y-127863576D01*
X74480722Y-127210104D01*
X74460939Y-127185741D01*
X74431074Y-127151496D01*
X74408976Y-127134756D01*
X74383633Y-127125700D01*
X74344068Y-127121078D01*
X74344068Y-127097631D01*
X74672697Y-127097631D01*
G37*
G36*
X75877999Y-127103395D02*
G01*
X75965682Y-127119072D01*
X76034656Y-127142693D01*
X76093577Y-127174433D01*
X76143936Y-127212711D01*
X76186622Y-127257732D01*
X76222174Y-127310061D01*
X76257292Y-127386949D01*
X76278693Y-127470903D01*
X76286043Y-127563463D01*
X76282422Y-127627960D01*
X76271849Y-127687739D01*
X76254597Y-127743409D01*
X76230805Y-127796660D01*
X76203665Y-127841641D01*
X76173325Y-127879330D01*
X76119571Y-127927686D01*
X76058226Y-127965425D01*
X75988623Y-127993272D01*
X75898735Y-128015617D01*
X75851053Y-128021358D01*
X75767577Y-128023800D01*
X75352913Y-128023800D01*
X75352913Y-128000352D01*
X75383627Y-128000352D01*
X75421201Y-127996695D01*
X75445481Y-127987407D01*
X75464199Y-127971998D01*
X75477233Y-127951931D01*
X75481235Y-127930150D01*
X75483112Y-127872430D01*
X75706089Y-127872430D01*
X75707954Y-127924501D01*
X75711523Y-127942894D01*
X75718849Y-127954308D01*
X75730024Y-127962739D01*
X75750804Y-127970080D01*
X75783269Y-127972997D01*
X75839093Y-127967695D01*
X75885589Y-127952714D01*
X75924634Y-127928640D01*
X75957475Y-127894961D01*
X75990431Y-127841247D01*
X76016111Y-127771468D01*
X76033184Y-127681847D01*
X76039480Y-127567920D01*
X76035389Y-127476615D01*
X76023998Y-127399962D01*
X76006427Y-127335898D01*
X75983487Y-127282584D01*
X75949566Y-127231004D01*
X75911643Y-127193895D01*
X75869365Y-127168950D01*
X75835388Y-127158504D01*
X75783030Y-127151047D01*
X75706089Y-127148433D01*
X75706089Y-127872430D01*
X75483112Y-127872430D01*
X75483400Y-127863576D01*
X75483400Y-127257854D01*
X75480867Y-127191574D01*
X75475890Y-127166690D01*
X75465119Y-127150202D01*
X75445481Y-127134756D01*
X75420093Y-127124845D01*
X75383627Y-127121078D01*
X75352913Y-127121078D01*
X75352913Y-127097631D01*
X75767577Y-127097631D01*
X75877999Y-127103395D01*
G37*
G36*
X74201186Y-141556091D02*
G01*
X74201186Y-141884354D01*
X74175907Y-141884354D01*
X74148815Y-141817670D01*
X74116787Y-141761868D01*
X74080065Y-141715559D01*
X74038582Y-141677663D01*
X73990858Y-141646210D01*
X73941982Y-141624306D01*
X73891400Y-141611271D01*
X73838425Y-141606894D01*
X73771364Y-141613750D01*
X73714473Y-141633331D01*
X73665623Y-141665268D01*
X73625111Y-141707974D01*
X73592494Y-141761580D01*
X73567926Y-141828117D01*
X73546427Y-141933713D01*
X73539227Y-142042440D01*
X73543010Y-142130963D01*
X73553736Y-142208374D01*
X73570612Y-142275997D01*
X73597106Y-142339260D01*
X73630961Y-142387552D01*
X73672095Y-142423459D01*
X73720716Y-142449217D01*
X73775673Y-142465038D01*
X73838425Y-142470536D01*
X73907057Y-142463331D01*
X73979169Y-142442448D01*
X73979169Y-142243879D01*
X73976718Y-142195488D01*
X73971659Y-142175247D01*
X73961014Y-142161236D01*
X73940579Y-142147098D01*
X73915345Y-142137800D01*
X73883548Y-142134458D01*
X73859613Y-142134458D01*
X73859613Y-142111011D01*
X74309813Y-142111011D01*
X74309813Y-142134458D01*
X74262634Y-142140257D01*
X74238433Y-142148075D01*
X74220885Y-142161414D01*
X74207353Y-142182208D01*
X74203252Y-142199287D01*
X74201186Y-142243879D01*
X74201186Y-142442448D01*
X74110719Y-142476697D01*
X74016417Y-142501433D01*
X73919253Y-142516301D01*
X73817298Y-142521339D01*
X73729697Y-142516885D01*
X73657516Y-142504571D01*
X73598334Y-142485679D01*
X73515793Y-142444001D01*
X73444644Y-142391829D01*
X73402938Y-142350874D01*
X73368385Y-142307327D01*
X73340474Y-142260976D01*
X73314218Y-142196917D01*
X73298173Y-142127265D01*
X73292664Y-142050927D01*
X73298721Y-141969117D01*
X73316406Y-141894114D01*
X73345447Y-141824755D01*
X73386176Y-141760107D01*
X73439515Y-141699523D01*
X73500989Y-141648100D01*
X73567775Y-141608387D01*
X73640640Y-141579762D01*
X73720638Y-141562162D01*
X73809054Y-141556091D01*
X73876314Y-141558747D01*
X73933435Y-141566166D01*
X74030766Y-141594926D01*
X74091940Y-141614891D01*
X74110328Y-141618617D01*
X74128548Y-141615426D01*
X74145804Y-141605550D01*
X74160299Y-141588649D01*
X74175907Y-141556091D01*
X74201186Y-141556091D01*
G37*
G36*
X74672697Y-141575631D02*
G01*
X75129675Y-142144778D01*
X75129675Y-141751485D01*
X75126182Y-141695142D01*
X75117527Y-141659240D01*
X75105740Y-141637668D01*
X75080961Y-141616743D01*
X75045588Y-141603433D01*
X74995769Y-141599078D01*
X74995769Y-141575631D01*
X75301806Y-141575631D01*
X75301806Y-141599078D01*
X75248149Y-141608967D01*
X75222915Y-141618739D01*
X75205437Y-141634047D01*
X75191469Y-141658063D01*
X75183665Y-141690227D01*
X75180234Y-141751485D01*
X75180234Y-142521339D01*
X75157031Y-142521339D01*
X74530609Y-141749532D01*
X74530609Y-142341576D01*
X74535603Y-142393915D01*
X74548381Y-142428373D01*
X74567123Y-142450203D01*
X74606228Y-142471277D01*
X74650837Y-142478352D01*
X74672697Y-142478352D01*
X74672697Y-142501800D01*
X74344068Y-142501800D01*
X74344068Y-142478352D01*
X74394301Y-142473722D01*
X74428325Y-142462645D01*
X74450619Y-142446784D01*
X74466095Y-142424055D01*
X74476653Y-142390322D01*
X74480722Y-142341576D01*
X74480722Y-141688104D01*
X74460939Y-141663741D01*
X74431074Y-141629496D01*
X74408976Y-141612756D01*
X74383633Y-141603700D01*
X74344068Y-141599078D01*
X74344068Y-141575631D01*
X74672697Y-141575631D01*
G37*
G36*
X75877999Y-141581395D02*
G01*
X75965682Y-141597072D01*
X76034656Y-141620693D01*
X76093577Y-141652433D01*
X76143936Y-141690711D01*
X76186622Y-141735732D01*
X76222174Y-141788061D01*
X76257292Y-141864949D01*
X76278693Y-141948903D01*
X76286043Y-142041463D01*
X76282422Y-142105960D01*
X76271849Y-142165739D01*
X76254597Y-142221409D01*
X76230805Y-142274660D01*
X76203665Y-142319641D01*
X76173325Y-142357330D01*
X76119571Y-142405686D01*
X76058226Y-142443425D01*
X75988623Y-142471272D01*
X75898735Y-142493617D01*
X75851053Y-142499358D01*
X75767577Y-142501800D01*
X75352913Y-142501800D01*
X75352913Y-142478352D01*
X75383627Y-142478352D01*
X75421201Y-142474695D01*
X75445481Y-142465407D01*
X75464199Y-142449998D01*
X75477233Y-142429931D01*
X75481235Y-142408150D01*
X75483112Y-142350430D01*
X75706089Y-142350430D01*
X75707954Y-142402501D01*
X75711523Y-142420894D01*
X75718849Y-142432308D01*
X75730024Y-142440739D01*
X75750804Y-142448080D01*
X75783269Y-142450997D01*
X75839093Y-142445695D01*
X75885589Y-142430714D01*
X75924634Y-142406640D01*
X75957475Y-142372961D01*
X75990431Y-142319247D01*
X76016111Y-142249468D01*
X76033184Y-142159847D01*
X76039480Y-142045920D01*
X76035389Y-141954615D01*
X76023998Y-141877962D01*
X76006427Y-141813898D01*
X75983487Y-141760584D01*
X75949566Y-141709004D01*
X75911643Y-141671895D01*
X75869365Y-141646950D01*
X75835388Y-141636504D01*
X75783030Y-141629047D01*
X75706089Y-141626433D01*
X75706089Y-142350430D01*
X75483112Y-142350430D01*
X75483400Y-142341576D01*
X75483400Y-141735854D01*
X75480867Y-141669574D01*
X75475890Y-141644690D01*
X75465119Y-141628202D01*
X75445481Y-141612756D01*
X75420093Y-141602845D01*
X75383627Y-141599078D01*
X75352913Y-141599078D01*
X75352913Y-141575631D01*
X75767577Y-141575631D01*
X75877999Y-141581395D01*
G37*
G36*
X70886002Y-128899878D02*
G01*
X70886002Y-128876431D01*
X71378518Y-128876431D01*
X71378518Y-128899878D01*
X71348476Y-128899878D01*
X71310032Y-128903911D01*
X71282897Y-128914594D01*
X71267999Y-128927340D01*
X71255542Y-128948299D01*
X71250591Y-128971763D01*
X71248031Y-129036654D01*
X71248031Y-129488198D01*
X71244281Y-129577459D01*
X71234689Y-129639551D01*
X71221348Y-129681028D01*
X71199742Y-129717990D01*
X71168722Y-129751449D01*
X71126765Y-129781717D01*
X71079884Y-129803645D01*
X71025847Y-129817331D01*
X70963183Y-129822139D01*
X70905038Y-129817917D01*
X70855012Y-129805928D01*
X70811771Y-129786804D01*
X70774261Y-129760651D01*
X70732664Y-129715998D01*
X70709660Y-129671180D01*
X70702209Y-129624608D01*
X70705664Y-129593940D01*
X70715492Y-129568478D01*
X70731580Y-129547060D01*
X70752683Y-129530494D01*
X70776312Y-129520682D01*
X70803326Y-129517324D01*
X70841907Y-129524220D01*
X70873302Y-129544496D01*
X70894576Y-129574704D01*
X70901695Y-129611296D01*
X70896932Y-129645368D01*
X70875378Y-129680539D01*
X70860118Y-129707285D01*
X70856632Y-129720534D01*
X70860834Y-129736972D01*
X70874401Y-129751858D01*
X70903194Y-129766149D01*
X70941995Y-129771336D01*
X70969385Y-129767397D01*
X70990477Y-129756315D01*
X71006291Y-129737941D01*
X71017466Y-129709421D01*
X71022619Y-129664002D01*
X71025343Y-129532589D01*
X71025343Y-129036654D01*
X71022687Y-128970384D01*
X71017466Y-128945490D01*
X71006460Y-128928989D01*
X70986752Y-128913556D01*
X70961371Y-128903643D01*
X70924959Y-128899878D01*
X70886002Y-128899878D01*
G37*
G36*
X71965983Y-129802600D02*
G01*
X71420833Y-129802600D01*
X71420833Y-129787518D01*
X71589210Y-129580678D01*
X71682106Y-129455205D01*
X71725160Y-129385616D01*
X71755689Y-129315281D01*
X71773171Y-129248372D01*
X71778832Y-129183932D01*
X71773678Y-129137818D01*
X71758871Y-129098557D01*
X71734441Y-129064620D01*
X71702357Y-129038052D01*
X71666594Y-129022437D01*
X71625814Y-129017115D01*
X71576590Y-129023602D01*
X71533946Y-129042559D01*
X71496164Y-129074756D01*
X71462537Y-129122872D01*
X71437258Y-129113896D01*
X71468114Y-129029652D01*
X71505662Y-128966264D01*
X71549244Y-128919784D01*
X71602145Y-128884736D01*
X71659470Y-128863950D01*
X71722778Y-128856891D01*
X71768801Y-128860616D01*
X71811376Y-128871557D01*
X71851189Y-128889681D01*
X71887250Y-128914329D01*
X71917367Y-128944106D01*
X71942047Y-128979440D01*
X71967212Y-129036521D01*
X71974837Y-129086235D01*
X71969486Y-129145605D01*
X71953004Y-129206756D01*
X71924279Y-129270578D01*
X71871070Y-129351485D01*
X71775795Y-129465691D01*
X71623066Y-129622837D01*
X71823223Y-129622837D01*
X71890643Y-129620907D01*
X71919210Y-129616914D01*
X71939763Y-129608705D01*
X71955786Y-129596703D01*
X71970178Y-129578029D01*
X71993338Y-129536863D01*
X72017885Y-129536863D01*
X71965983Y-129802600D01*
G37*
G36*
X60238852Y-141067742D02*
G01*
X60238852Y-141388189D01*
X60212229Y-141388189D01*
X60192973Y-141325965D01*
X60167728Y-141273712D01*
X60136823Y-141230040D01*
X60100183Y-141193894D01*
X60042637Y-141156133D01*
X59981224Y-141133874D01*
X59914375Y-141126360D01*
X59858122Y-141131945D01*
X59805427Y-141148534D01*
X59755251Y-141176552D01*
X59711156Y-141213560D01*
X59676080Y-141257043D01*
X59649372Y-141307772D01*
X59625819Y-141378164D01*
X59611317Y-141454817D01*
X59606324Y-141538703D01*
X59609996Y-141621647D01*
X59620617Y-141697333D01*
X59637709Y-141766521D01*
X59663866Y-141831881D01*
X59696735Y-141882839D01*
X59736078Y-141921798D01*
X59783313Y-141950202D01*
X59840339Y-141968023D01*
X59909613Y-141974372D01*
X59966942Y-141970006D01*
X60020069Y-141957193D01*
X60069775Y-141936026D01*
X60115628Y-141906897D01*
X60166483Y-141863804D01*
X60223159Y-141803707D01*
X60223159Y-141883635D01*
X60168749Y-141932680D01*
X60114784Y-141970261D01*
X60060921Y-141997636D01*
X60003618Y-142016744D01*
X59938338Y-142028768D01*
X59863817Y-142032990D01*
X59766463Y-142026084D01*
X59679207Y-142006131D01*
X59600462Y-141973761D01*
X59545780Y-141940618D01*
X59498326Y-141901430D01*
X59457467Y-141855932D01*
X59422837Y-141803585D01*
X59387993Y-141727641D01*
X59367307Y-141649278D01*
X59360372Y-141567402D01*
X59368014Y-141481186D01*
X59390902Y-141398079D01*
X59429675Y-141316870D01*
X59467705Y-141260552D01*
X59511375Y-141211482D01*
X59560945Y-141169101D01*
X59616888Y-141133077D01*
X59697494Y-141096633D01*
X59780568Y-141074995D01*
X59867236Y-141067742D01*
X59931762Y-141071905D01*
X60000308Y-141084816D01*
X60073561Y-141107310D01*
X60131279Y-141126276D01*
X60153489Y-141130268D01*
X60173889Y-141126532D01*
X60191408Y-141115308D01*
X60204082Y-141097157D01*
X60212229Y-141067742D01*
X60238852Y-141067742D01*
G37*
G36*
X60522235Y-141544504D02*
G01*
X60522235Y-141524965D01*
X60593602Y-141501026D01*
X60630129Y-141482955D01*
X60657380Y-141459261D01*
X60682092Y-141423543D01*
X60698628Y-141382762D01*
X60703951Y-141342515D01*
X60699341Y-141306452D01*
X60685759Y-141274375D01*
X60662613Y-141245185D01*
X60632958Y-141222669D01*
X60599132Y-141209178D01*
X60559848Y-141204518D01*
X60515312Y-141210508D01*
X60474116Y-141228485D01*
X60434970Y-141259761D01*
X60397243Y-141307222D01*
X60371964Y-141298307D01*
X60409660Y-141225035D01*
X60451722Y-141168320D01*
X60497994Y-141125567D01*
X60551571Y-141093255D01*
X60608182Y-141074171D01*
X60669086Y-141067742D01*
X60731017Y-141074560D01*
X60783246Y-141094056D01*
X60827905Y-141126055D01*
X60863257Y-141168079D01*
X60883617Y-141213003D01*
X60890431Y-141262343D01*
X60883319Y-141311704D01*
X60861366Y-141360284D01*
X60839459Y-141389247D01*
X60809540Y-141416906D01*
X60770202Y-141443327D01*
X60821095Y-141472488D01*
X60861237Y-141504455D01*
X60892141Y-141539192D01*
X60914931Y-141579063D01*
X60929133Y-141626097D01*
X60934150Y-141682013D01*
X60927483Y-141752138D01*
X60907985Y-141815594D01*
X60875608Y-141873827D01*
X60829248Y-141927843D01*
X60774040Y-141971092D01*
X60710015Y-142002509D01*
X60635477Y-142022158D01*
X60548186Y-142029082D01*
X60470300Y-142023737D01*
X60415008Y-142009821D01*
X60376727Y-141989637D01*
X60354652Y-141968837D01*
X60342032Y-141945421D01*
X60337770Y-141918318D01*
X60343403Y-141888842D01*
X60360302Y-141864035D01*
X60384825Y-141847021D01*
X60412264Y-141841504D01*
X60434169Y-141843929D01*
X60454579Y-141851151D01*
X60532127Y-141911662D01*
X60578738Y-141943936D01*
X60619781Y-141961222D01*
X60656813Y-141966556D01*
X60688788Y-141962165D01*
X60717368Y-141949143D01*
X60743580Y-141926683D01*
X60763418Y-141898252D01*
X60775543Y-141864954D01*
X60779789Y-141825445D01*
X60772665Y-141765453D01*
X60751226Y-141708516D01*
X60714210Y-141653253D01*
X60679179Y-141618213D01*
X60636331Y-141588347D01*
X60584514Y-141563649D01*
X60522235Y-141544504D01*
G37*
G36*
X56473030Y-123291702D02*
G01*
X56552391Y-123300087D01*
X56605579Y-123311695D01*
X56654648Y-123331704D01*
X56696689Y-123360116D01*
X56732646Y-123397424D01*
X56759875Y-123441224D01*
X56776246Y-123489609D01*
X56781861Y-123543909D01*
X56777099Y-123593688D01*
X56763286Y-123637808D01*
X56740524Y-123677433D01*
X56708100Y-123713352D01*
X56674598Y-123737961D01*
X56631321Y-123759288D01*
X56576270Y-123776855D01*
X56798958Y-124090768D01*
X56840523Y-124141599D01*
X56861118Y-124161660D01*
X56891061Y-124176871D01*
X56926025Y-124183336D01*
X56926025Y-124214600D01*
X56634338Y-124214600D01*
X56335812Y-123792548D01*
X56274996Y-123792548D01*
X56274996Y-124054376D01*
X56278078Y-124122408D01*
X56284216Y-124148654D01*
X56296539Y-124165694D01*
X56316639Y-124179612D01*
X56345040Y-124187555D01*
X56403407Y-124191152D01*
X56403407Y-124214600D01*
X55929331Y-124214600D01*
X55929331Y-124191152D01*
X55988267Y-124187422D01*
X56016404Y-124179245D01*
X56036286Y-124165160D01*
X56048522Y-124148288D01*
X56054650Y-124122367D01*
X56057742Y-124054376D01*
X56057742Y-123741745D01*
X56274996Y-123741745D01*
X56313953Y-123741745D01*
X56402807Y-123736670D01*
X56455980Y-123724465D01*
X56485077Y-123709917D01*
X56509610Y-123689359D01*
X56530108Y-123662122D01*
X56544461Y-123630929D01*
X56553737Y-123592309D01*
X56557096Y-123544580D01*
X56550718Y-123476231D01*
X56533639Y-123425961D01*
X56507576Y-123389364D01*
X56471204Y-123363171D01*
X56419746Y-123345795D01*
X56348086Y-123339233D01*
X56274996Y-123339233D01*
X56274996Y-123741745D01*
X56057742Y-123741745D01*
X56057742Y-123448654D01*
X56054658Y-123380629D01*
X56048522Y-123354437D01*
X56036181Y-123337364D01*
X56016038Y-123323479D01*
X55987687Y-123315496D01*
X55929331Y-123311878D01*
X55929331Y-123288431D01*
X56359687Y-123288431D01*
X56473030Y-123291702D01*
G37*
G36*
X57860682Y-123288431D02*
G01*
X57860682Y-123311878D01*
X57828938Y-123321178D01*
X57799080Y-123338753D01*
X57770495Y-123365795D01*
X57740620Y-123412282D01*
X57685132Y-123526201D01*
X57366151Y-124234139D01*
X57343558Y-124234139D01*
X57025921Y-123498296D01*
X56971189Y-123378609D01*
X56949045Y-123341370D01*
X56923820Y-123323521D01*
X56875650Y-123311878D01*
X56875650Y-123288431D01*
X57319684Y-123288431D01*
X57319684Y-123311878D01*
X57304663Y-123311878D01*
X57249743Y-123316570D01*
X57222658Y-123327143D01*
X57210960Y-123339874D01*
X57206966Y-123357735D01*
X57212400Y-123387288D01*
X57249342Y-123477536D01*
X57446751Y-123937567D01*
X57629811Y-123527911D01*
X57670111Y-123427893D01*
X57677622Y-123384357D01*
X57674840Y-123364700D01*
X57666692Y-123347782D01*
X57653533Y-123334053D01*
X57634574Y-123323602D01*
X57602614Y-123315150D01*
X57556721Y-123311878D01*
X57556721Y-123288431D01*
X57860682Y-123288431D01*
G37*
G36*
X58330544Y-123268891D02*
G01*
X58330544Y-124027021D01*
X58333032Y-124105598D01*
X58338054Y-124137052D01*
X58349401Y-124158350D01*
X58369439Y-124176009D01*
X58397427Y-124186713D01*
X58446010Y-124191152D01*
X58467198Y-124191152D01*
X58467198Y-124214600D01*
X57979445Y-124214600D01*
X57979445Y-124191152D01*
X58004052Y-124191152D01*
X58058928Y-124187006D01*
X58088743Y-124177352D01*
X58110164Y-124160696D01*
X58122876Y-124139434D01*
X58128833Y-124107447D01*
X58131791Y-124027021D01*
X58131791Y-123546351D01*
X58129711Y-123487598D01*
X58125624Y-123465507D01*
X58117071Y-123450832D01*
X58102726Y-123438090D01*
X58084905Y-123429675D01*
X58064136Y-123426794D01*
X58028007Y-123431632D01*
X57979384Y-123448654D01*
X57967110Y-123425207D01*
X58308012Y-123268891D01*
X58330544Y-123268891D01*
G37*
G36*
X55556260Y-136787499D02*
G01*
X55616039Y-136798073D01*
X55671709Y-136815325D01*
X55724960Y-136839116D01*
X55769941Y-136866257D01*
X55807630Y-136896596D01*
X55855986Y-136950350D01*
X55893725Y-137011696D01*
X55921572Y-137081299D01*
X55943917Y-137171186D01*
X55949658Y-137218868D01*
X55952100Y-137302345D01*
X55952100Y-137717008D01*
X55928652Y-137717008D01*
X55928652Y-137686295D01*
X55924995Y-137648720D01*
X55915707Y-137624440D01*
X55900298Y-137605722D01*
X55880231Y-137592689D01*
X55858450Y-137588686D01*
X55791876Y-137586521D01*
X55186154Y-137586521D01*
X55119874Y-137589055D01*
X55094990Y-137594032D01*
X55078502Y-137604802D01*
X55063056Y-137624440D01*
X55053145Y-137649829D01*
X55049378Y-137686295D01*
X55049378Y-137717008D01*
X55025931Y-137717008D01*
X55025931Y-137363833D01*
X55076733Y-137363833D01*
X55800730Y-137363833D01*
X55852801Y-137361967D01*
X55871194Y-137358399D01*
X55882608Y-137351072D01*
X55891039Y-137339897D01*
X55898380Y-137319118D01*
X55901297Y-137286652D01*
X55895995Y-137230829D01*
X55881014Y-137184333D01*
X55856940Y-137145287D01*
X55823261Y-137112446D01*
X55769547Y-137079491D01*
X55699768Y-137053811D01*
X55610147Y-137036737D01*
X55496220Y-137030442D01*
X55404915Y-137034533D01*
X55328262Y-137045923D01*
X55264198Y-137063495D01*
X55210884Y-137086434D01*
X55159304Y-137120355D01*
X55122195Y-137158278D01*
X55097250Y-137200557D01*
X55086804Y-137234533D01*
X55079347Y-137286892D01*
X55076733Y-137363833D01*
X55025931Y-137363833D01*
X55025931Y-137302345D01*
X55031695Y-137191923D01*
X55047372Y-137104239D01*
X55070993Y-137035265D01*
X55102733Y-136976345D01*
X55141011Y-136925986D01*
X55186032Y-136883299D01*
X55238361Y-136847748D01*
X55315249Y-136812629D01*
X55399203Y-136791228D01*
X55491763Y-136783878D01*
X55556260Y-136787499D01*
G37*
G36*
X55006391Y-136269625D02*
G01*
X55764521Y-136269625D01*
X55843098Y-136267137D01*
X55874552Y-136262115D01*
X55895850Y-136250767D01*
X55913509Y-136230729D01*
X55924213Y-136202742D01*
X55928652Y-136154159D01*
X55928652Y-136132971D01*
X55952100Y-136132971D01*
X55952100Y-136620724D01*
X55928652Y-136620724D01*
X55928652Y-136596117D01*
X55924506Y-136541241D01*
X55914852Y-136511425D01*
X55898196Y-136490004D01*
X55876934Y-136477293D01*
X55844947Y-136471336D01*
X55764521Y-136468378D01*
X55283851Y-136468378D01*
X55225098Y-136470458D01*
X55203007Y-136474545D01*
X55188332Y-136483098D01*
X55175590Y-136497443D01*
X55167175Y-136515264D01*
X55164294Y-136536033D01*
X55169132Y-136572161D01*
X55186154Y-136620785D01*
X55162707Y-136633058D01*
X55006391Y-136292156D01*
X55006391Y-136269625D01*
G37*
G36*
X41874652Y-126240691D02*
G01*
X41874652Y-126561138D01*
X41848029Y-126561138D01*
X41828773Y-126498914D01*
X41803528Y-126446661D01*
X41772623Y-126402989D01*
X41735983Y-126366843D01*
X41678437Y-126329082D01*
X41617024Y-126306823D01*
X41550175Y-126299309D01*
X41493922Y-126304894D01*
X41441227Y-126321483D01*
X41391051Y-126349501D01*
X41346956Y-126386509D01*
X41311880Y-126429992D01*
X41285172Y-126480721D01*
X41261619Y-126551113D01*
X41247117Y-126627766D01*
X41242124Y-126711652D01*
X41245796Y-126794596D01*
X41256417Y-126870282D01*
X41273509Y-126939470D01*
X41299666Y-127004830D01*
X41332535Y-127055788D01*
X41371878Y-127094747D01*
X41419113Y-127123151D01*
X41476139Y-127140972D01*
X41545413Y-127147321D01*
X41602742Y-127142955D01*
X41655869Y-127130142D01*
X41705575Y-127108975D01*
X41751428Y-127079846D01*
X41802283Y-127036753D01*
X41858959Y-126976656D01*
X41858959Y-127056584D01*
X41804549Y-127105629D01*
X41750584Y-127143210D01*
X41696721Y-127170585D01*
X41639418Y-127189693D01*
X41574138Y-127201717D01*
X41499617Y-127205939D01*
X41402263Y-127199033D01*
X41315007Y-127179080D01*
X41236262Y-127146710D01*
X41181580Y-127113567D01*
X41134126Y-127074379D01*
X41093267Y-127028881D01*
X41058637Y-126976534D01*
X41023793Y-126900590D01*
X41003107Y-126822227D01*
X40996172Y-126740351D01*
X41003814Y-126654135D01*
X41026702Y-126571028D01*
X41065475Y-126489819D01*
X41103505Y-126433501D01*
X41147175Y-126384431D01*
X41196745Y-126342050D01*
X41252688Y-126306026D01*
X41333294Y-126269582D01*
X41416368Y-126247944D01*
X41503036Y-126240691D01*
X41567562Y-126244854D01*
X41636108Y-126257765D01*
X41709361Y-126280259D01*
X41767079Y-126299225D01*
X41789289Y-126303217D01*
X41809689Y-126299481D01*
X41827208Y-126288257D01*
X41839882Y-126270106D01*
X41848029Y-126240691D01*
X41874652Y-126240691D01*
G37*
G36*
X42530322Y-127186400D02*
G01*
X41985172Y-127186400D01*
X41985172Y-127171318D01*
X42153549Y-126964478D01*
X42246445Y-126839005D01*
X42289498Y-126769416D01*
X42320028Y-126699081D01*
X42337510Y-126632172D01*
X42343171Y-126567732D01*
X42338017Y-126521618D01*
X42323210Y-126482357D01*
X42298780Y-126448420D01*
X42266696Y-126421852D01*
X42230933Y-126406237D01*
X42190153Y-126400915D01*
X42140928Y-126407402D01*
X42098284Y-126426359D01*
X42060503Y-126458556D01*
X42026876Y-126506672D01*
X42001597Y-126497696D01*
X42032453Y-126413452D01*
X42070001Y-126350064D01*
X42113583Y-126303584D01*
X42166483Y-126268536D01*
X42223809Y-126247750D01*
X42287117Y-126240691D01*
X42333140Y-126244416D01*
X42375715Y-126255357D01*
X42415528Y-126273481D01*
X42451589Y-126298129D01*
X42481706Y-126327906D01*
X42506386Y-126363240D01*
X42531551Y-126420321D01*
X42539176Y-126470035D01*
X42533824Y-126529405D01*
X42517343Y-126590556D01*
X42488617Y-126654378D01*
X42435409Y-126735285D01*
X42340134Y-126849491D01*
X42187405Y-127006637D01*
X42387562Y-127006637D01*
X42454982Y-127004707D01*
X42483549Y-127000714D01*
X42504102Y-126992505D01*
X42520125Y-126980503D01*
X42534516Y-126961829D01*
X42557677Y-126920663D01*
X42582223Y-126920663D01*
X42530322Y-127186400D01*
G37*
G36*
X67731852Y-136908691D02*
G01*
X67731852Y-137229138D01*
X67705229Y-137229138D01*
X67685973Y-137166914D01*
X67660728Y-137114661D01*
X67629823Y-137070989D01*
X67593183Y-137034843D01*
X67535637Y-136997082D01*
X67474224Y-136974823D01*
X67407375Y-136967309D01*
X67351122Y-136972894D01*
X67298427Y-136989483D01*
X67248251Y-137017501D01*
X67204156Y-137054509D01*
X67169080Y-137097992D01*
X67142372Y-137148721D01*
X67118819Y-137219113D01*
X67104317Y-137295766D01*
X67099324Y-137379652D01*
X67102996Y-137462596D01*
X67113617Y-137538282D01*
X67130709Y-137607470D01*
X67156866Y-137672830D01*
X67189735Y-137723788D01*
X67229078Y-137762747D01*
X67276313Y-137791151D01*
X67333339Y-137808972D01*
X67402613Y-137815321D01*
X67459942Y-137810955D01*
X67513069Y-137798142D01*
X67562775Y-137776975D01*
X67608628Y-137747846D01*
X67659483Y-137704753D01*
X67716159Y-137644656D01*
X67716159Y-137724584D01*
X67661749Y-137773629D01*
X67607784Y-137811210D01*
X67553921Y-137838585D01*
X67496618Y-137857693D01*
X67431338Y-137869717D01*
X67356817Y-137873939D01*
X67259463Y-137867033D01*
X67172207Y-137847080D01*
X67093462Y-137814710D01*
X67038780Y-137781567D01*
X66991326Y-137742379D01*
X66950467Y-137696881D01*
X66915837Y-137644534D01*
X66880993Y-137568590D01*
X66860307Y-137490227D01*
X66853372Y-137408351D01*
X66861014Y-137322135D01*
X66883902Y-137239028D01*
X66922675Y-137157819D01*
X66960705Y-137101501D01*
X67004375Y-137052431D01*
X67053945Y-137010050D01*
X67109888Y-136974026D01*
X67190494Y-136937582D01*
X67273568Y-136915944D01*
X67360236Y-136908691D01*
X67424762Y-136912854D01*
X67493308Y-136925765D01*
X67566561Y-136948259D01*
X67624279Y-136967225D01*
X67646489Y-136971217D01*
X67666889Y-136967481D01*
X67684408Y-136956257D01*
X67697082Y-136938106D01*
X67705229Y-136908691D01*
X67731852Y-136908691D01*
G37*
G36*
X68366334Y-137506598D02*
G01*
X68451025Y-137506598D01*
X68451025Y-137647282D01*
X68366334Y-137647282D01*
X68366334Y-137854400D01*
X68178511Y-137854400D01*
X68178511Y-137647282D01*
X67843105Y-137647282D01*
X67843105Y-137506598D01*
X67909355Y-137506598D01*
X68178511Y-137506598D01*
X68178511Y-137140783D01*
X67909355Y-137506598D01*
X67843105Y-137506598D01*
X68282986Y-136908691D01*
X68366334Y-136908691D01*
X68366334Y-137506598D01*
G37*
G36*
X43176439Y-136768045D02*
G01*
X43141634Y-137092400D01*
X42319146Y-137092400D01*
X42319146Y-137068952D01*
X42349860Y-137068952D01*
X42387711Y-137064937D01*
X42414767Y-137054237D01*
X42430072Y-137041405D01*
X42442123Y-137020531D01*
X42447073Y-136997067D01*
X42449633Y-136932176D01*
X42449633Y-136326454D01*
X42447100Y-136260174D01*
X42442123Y-136235290D01*
X42431352Y-136218802D01*
X42411714Y-136203356D01*
X42386326Y-136193445D01*
X42349860Y-136189678D01*
X42319146Y-136189678D01*
X42319146Y-136166231D01*
X42813066Y-136166231D01*
X42813066Y-136189678D01*
X42772766Y-136189678D01*
X42734961Y-136193690D01*
X42707859Y-136204394D01*
X42692414Y-136217204D01*
X42679832Y-136238099D01*
X42674881Y-136261563D01*
X42672321Y-136326454D01*
X42672321Y-136916056D01*
X42675031Y-136980675D01*
X42680504Y-137006487D01*
X42692206Y-137023050D01*
X42712622Y-137035430D01*
X42735640Y-137039532D01*
X42795298Y-137041597D01*
X42872478Y-137041597D01*
X42921130Y-137038413D01*
X42961649Y-137029525D01*
X42995394Y-137015646D01*
X43025901Y-136995621D01*
X43054200Y-136968600D01*
X43080451Y-136933581D01*
X43113005Y-136869910D01*
X43148473Y-136768045D01*
X43176439Y-136768045D01*
G37*
G36*
X43681838Y-136146691D02*
G01*
X43681838Y-136904821D01*
X43684326Y-136983398D01*
X43689349Y-137014852D01*
X43700696Y-137036150D01*
X43720734Y-137053809D01*
X43748721Y-137064513D01*
X43797304Y-137068952D01*
X43818492Y-137068952D01*
X43818492Y-137092400D01*
X43330739Y-137092400D01*
X43330739Y-137068952D01*
X43355347Y-137068952D01*
X43410222Y-137064806D01*
X43440038Y-137055152D01*
X43461459Y-137038496D01*
X43474171Y-137017234D01*
X43480127Y-136985247D01*
X43483086Y-136904821D01*
X43483086Y-136424151D01*
X43481006Y-136365398D01*
X43476918Y-136343307D01*
X43468365Y-136328632D01*
X43454021Y-136315890D01*
X43436199Y-136307475D01*
X43415430Y-136304594D01*
X43379302Y-136309432D01*
X43330678Y-136326454D01*
X43318405Y-136303007D01*
X43659307Y-136146691D01*
X43681838Y-136146691D01*
G37*
G36*
X39766452Y-137552968D02*
G01*
X39766452Y-137873415D01*
X39739829Y-137873415D01*
X39720573Y-137811191D01*
X39695328Y-137758938D01*
X39664423Y-137715266D01*
X39627783Y-137679120D01*
X39570237Y-137641359D01*
X39508824Y-137619100D01*
X39441975Y-137611586D01*
X39385722Y-137617171D01*
X39333027Y-137633760D01*
X39282851Y-137661778D01*
X39238756Y-137698786D01*
X39203680Y-137742269D01*
X39176972Y-137792998D01*
X39153419Y-137863390D01*
X39138917Y-137940043D01*
X39133924Y-138023929D01*
X39137596Y-138106873D01*
X39148217Y-138182559D01*
X39165309Y-138251747D01*
X39191466Y-138317107D01*
X39224335Y-138368065D01*
X39263678Y-138407024D01*
X39310913Y-138435428D01*
X39367939Y-138453249D01*
X39437213Y-138459598D01*
X39494542Y-138455232D01*
X39547669Y-138442419D01*
X39597375Y-138421252D01*
X39643228Y-138392123D01*
X39694083Y-138349030D01*
X39750759Y-138288933D01*
X39750759Y-138368861D01*
X39696349Y-138417906D01*
X39642384Y-138455487D01*
X39588521Y-138482862D01*
X39531218Y-138501970D01*
X39465938Y-138513994D01*
X39391417Y-138518216D01*
X39294063Y-138511310D01*
X39206807Y-138491357D01*
X39128062Y-138458987D01*
X39073380Y-138425844D01*
X39025926Y-138386656D01*
X38985067Y-138341158D01*
X38950437Y-138288811D01*
X38915593Y-138212867D01*
X38894907Y-138134504D01*
X38887972Y-138052628D01*
X38895614Y-137966412D01*
X38918502Y-137883305D01*
X38957275Y-137802096D01*
X38995305Y-137745778D01*
X39038975Y-137696708D01*
X39088545Y-137654327D01*
X39144488Y-137618303D01*
X39225094Y-137581859D01*
X39308168Y-137560221D01*
X39394836Y-137552968D01*
X39459362Y-137557131D01*
X39527908Y-137570042D01*
X39601161Y-137592536D01*
X39658879Y-137611502D01*
X39681089Y-137615494D01*
X39701489Y-137611758D01*
X39719008Y-137600534D01*
X39731682Y-137582383D01*
X39739829Y-137552968D01*
X39766452Y-137552968D01*
G37*
G36*
X40298474Y-137552968D02*
G01*
X40298474Y-138311098D01*
X40300962Y-138389675D01*
X40305984Y-138421129D01*
X40317332Y-138442427D01*
X40337370Y-138460086D01*
X40365357Y-138470790D01*
X40413940Y-138475229D01*
X40435128Y-138475229D01*
X40435128Y-138498677D01*
X39947375Y-138498677D01*
X39947375Y-138475229D01*
X39971982Y-138475229D01*
X40026858Y-138471083D01*
X40056674Y-138461429D01*
X40078095Y-138444773D01*
X40090806Y-138423511D01*
X40096763Y-138391524D01*
X40099721Y-138311098D01*
X40099721Y-137830428D01*
X40097641Y-137771675D01*
X40093554Y-137749584D01*
X40085001Y-137734909D01*
X40070656Y-137722167D01*
X40052835Y-137713752D01*
X40032066Y-137710871D01*
X39995938Y-137715709D01*
X39947314Y-137732731D01*
X39935041Y-137709284D01*
X40275943Y-137552968D01*
X40298474Y-137552968D01*
G37*
D11*
X42794442Y-121437304D02*
X43603965Y-121437304D01*
X43603965Y-121437304D02*
X43699203Y-121389685D01*
X43699203Y-121389685D02*
X43746823Y-121342066D01*
X43746823Y-121342066D02*
X43794442Y-121246828D01*
X43794442Y-121246828D02*
X43794442Y-121056352D01*
X43794442Y-121056352D02*
X43746823Y-120961114D01*
X43746823Y-120961114D02*
X43699203Y-120913495D01*
X43699203Y-120913495D02*
X43603965Y-120865876D01*
X43603965Y-120865876D02*
X42794442Y-120865876D01*
X43794442Y-119865876D02*
X43794442Y-120437304D01*
X43794442Y-120151590D02*
X42794442Y-120151590D01*
X42794442Y-120151590D02*
X42937299Y-120246828D01*
X42937299Y-120246828D02*
X43032537Y-120342066D01*
X43032537Y-120342066D02*
X43080156Y-120437304D01*
D10*
G36*
X23692802Y-128874478D02*
G01*
X23692802Y-128851031D01*
X24185318Y-128851031D01*
X24185318Y-128874478D01*
X24155276Y-128874478D01*
X24116832Y-128878511D01*
X24089697Y-128889194D01*
X24074799Y-128901940D01*
X24062342Y-128922899D01*
X24057391Y-128946363D01*
X24054831Y-129011254D01*
X24054831Y-129462798D01*
X24051081Y-129552059D01*
X24041489Y-129614151D01*
X24028148Y-129655628D01*
X24006542Y-129692590D01*
X23975522Y-129726049D01*
X23933565Y-129756317D01*
X23886684Y-129778245D01*
X23832647Y-129791931D01*
X23769983Y-129796739D01*
X23711838Y-129792517D01*
X23661812Y-129780528D01*
X23618571Y-129761404D01*
X23581061Y-129735251D01*
X23539464Y-129690598D01*
X23516460Y-129645780D01*
X23509009Y-129599208D01*
X23512464Y-129568540D01*
X23522292Y-129543078D01*
X23538380Y-129521660D01*
X23559483Y-129505094D01*
X23583112Y-129495282D01*
X23610126Y-129491924D01*
X23648707Y-129498820D01*
X23680102Y-129519096D01*
X23701376Y-129549304D01*
X23708495Y-129585896D01*
X23703732Y-129619968D01*
X23682178Y-129655139D01*
X23666918Y-129681885D01*
X23663432Y-129695134D01*
X23667634Y-129711572D01*
X23681201Y-129726458D01*
X23709994Y-129740749D01*
X23748795Y-129745936D01*
X23776185Y-129741997D01*
X23797277Y-129730915D01*
X23813091Y-129712541D01*
X23824266Y-129684021D01*
X23829419Y-129638602D01*
X23832143Y-129507189D01*
X23832143Y-129011254D01*
X23829487Y-128944984D01*
X23824266Y-128920090D01*
X23813260Y-128903589D01*
X23793552Y-128888156D01*
X23768171Y-128878243D01*
X23731759Y-128874478D01*
X23692802Y-128874478D01*
G37*
G36*
X24649135Y-128831491D02*
G01*
X24649135Y-129589621D01*
X24651623Y-129668198D01*
X24656646Y-129699652D01*
X24667993Y-129720950D01*
X24688031Y-129738609D01*
X24716018Y-129749313D01*
X24764601Y-129753752D01*
X24785789Y-129753752D01*
X24785789Y-129777200D01*
X24298036Y-129777200D01*
X24298036Y-129753752D01*
X24322643Y-129753752D01*
X24377519Y-129749606D01*
X24407335Y-129739952D01*
X24428756Y-129723296D01*
X24441468Y-129702034D01*
X24447424Y-129670047D01*
X24450382Y-129589621D01*
X24450382Y-129108951D01*
X24448303Y-129050198D01*
X24444215Y-129028107D01*
X24435662Y-129013432D01*
X24421318Y-129000690D01*
X24403496Y-128992275D01*
X24382727Y-128989394D01*
X24346599Y-128994232D01*
X24297975Y-129011254D01*
X24285702Y-128987807D01*
X24626604Y-128831491D01*
X24649135Y-128831491D01*
G37*
G36*
X61195500Y-121285102D02*
G01*
X61274861Y-121293487D01*
X61328049Y-121305095D01*
X61377118Y-121325104D01*
X61419159Y-121353516D01*
X61455116Y-121390824D01*
X61482345Y-121434624D01*
X61498716Y-121483009D01*
X61504331Y-121537309D01*
X61499569Y-121587088D01*
X61485756Y-121631208D01*
X61462994Y-121670833D01*
X61430570Y-121706752D01*
X61397068Y-121731361D01*
X61353791Y-121752688D01*
X61298740Y-121770255D01*
X61521428Y-122084168D01*
X61562993Y-122134999D01*
X61583588Y-122155060D01*
X61613531Y-122170271D01*
X61648495Y-122176736D01*
X61648495Y-122208000D01*
X61356808Y-122208000D01*
X61058282Y-121785948D01*
X60997466Y-121785948D01*
X60997466Y-122047776D01*
X61000548Y-122115808D01*
X61006686Y-122142054D01*
X61019009Y-122159094D01*
X61039109Y-122173012D01*
X61067510Y-122180955D01*
X61125877Y-122184552D01*
X61125877Y-122208000D01*
X60651801Y-122208000D01*
X60651801Y-122184552D01*
X60710737Y-122180822D01*
X60738874Y-122172645D01*
X60758756Y-122158560D01*
X60770992Y-122141688D01*
X60777120Y-122115767D01*
X60780212Y-122047776D01*
X60780212Y-121735145D01*
X60997466Y-121735145D01*
X61036423Y-121735145D01*
X61125277Y-121730070D01*
X61178450Y-121717865D01*
X61207547Y-121703317D01*
X61232080Y-121682759D01*
X61252578Y-121655522D01*
X61266931Y-121624329D01*
X61276207Y-121585709D01*
X61279566Y-121537980D01*
X61273188Y-121469631D01*
X61256109Y-121419361D01*
X61230046Y-121382764D01*
X61193674Y-121356571D01*
X61142216Y-121339195D01*
X61070556Y-121332633D01*
X60997466Y-121332633D01*
X60997466Y-121735145D01*
X60780212Y-121735145D01*
X60780212Y-121442054D01*
X60777128Y-121374029D01*
X60770992Y-121347837D01*
X60758651Y-121330764D01*
X60738508Y-121316879D01*
X60710157Y-121308896D01*
X60651801Y-121305278D01*
X60651801Y-121281831D01*
X61082157Y-121281831D01*
X61195500Y-121285102D01*
G37*
G36*
X62091674Y-121262291D02*
G01*
X62091674Y-122020421D01*
X62094162Y-122098998D01*
X62099184Y-122130452D01*
X62110532Y-122151750D01*
X62130570Y-122169409D01*
X62158557Y-122180113D01*
X62207140Y-122184552D01*
X62228328Y-122184552D01*
X62228328Y-122208000D01*
X61740575Y-122208000D01*
X61740575Y-122184552D01*
X61765182Y-122184552D01*
X61820058Y-122180406D01*
X61849874Y-122170752D01*
X61871295Y-122154096D01*
X61884006Y-122132834D01*
X61889963Y-122100847D01*
X61892921Y-122020421D01*
X61892921Y-121539751D01*
X61890841Y-121480998D01*
X61886754Y-121458907D01*
X61878201Y-121444232D01*
X61863856Y-121431490D01*
X61846035Y-121423075D01*
X61825266Y-121420194D01*
X61789138Y-121425032D01*
X61740514Y-121442054D01*
X61728241Y-121418607D01*
X62069143Y-121262291D01*
X62091674Y-121262291D01*
G37*
D12*
%TO.C,G\u002A\u002A\u002A*%
G36*
X31829950Y-122279175D02*
G01*
X31818266Y-122290858D01*
X31806583Y-122279175D01*
X31818266Y-122267491D01*
X31829950Y-122279175D01*
G37*
G36*
X34400327Y-122279175D02*
G01*
X34388644Y-122290858D01*
X34376960Y-122279175D01*
X34388644Y-122267491D01*
X34400327Y-122279175D01*
G37*
G36*
X31775427Y-122275280D02*
G01*
X31772219Y-122289172D01*
X31759849Y-122290858D01*
X31740615Y-122282308D01*
X31744271Y-122275280D01*
X31772002Y-122272483D01*
X31775427Y-122275280D01*
G37*
G36*
X34462639Y-122275280D02*
G01*
X34459432Y-122289172D01*
X34447061Y-122290858D01*
X34427827Y-122282308D01*
X34431483Y-122275280D01*
X34459214Y-122272483D01*
X34462639Y-122275280D01*
G37*
G36*
X41496631Y-123453035D02*
G01*
X41503915Y-123482578D01*
X41485924Y-123518005D01*
X41446430Y-123530825D01*
X41407146Y-123516213D01*
X41398763Y-123505945D01*
X41395207Y-123467207D01*
X41427733Y-123440698D01*
X41458560Y-123435844D01*
X41496631Y-123453035D01*
G37*
G36*
X41626592Y-123440061D02*
G01*
X41667698Y-123459159D01*
X41679168Y-123482578D01*
X41659277Y-123512807D01*
X41626592Y-123525096D01*
X41585581Y-123520773D01*
X41574028Y-123484670D01*
X41574016Y-123482578D01*
X41584689Y-123445104D01*
X41624390Y-123439760D01*
X41626592Y-123440061D01*
G37*
G36*
X41644035Y-123579949D02*
G01*
X41657990Y-123597925D01*
X41664966Y-123639373D01*
X41667312Y-123713696D01*
X41667484Y-123762983D01*
X41666509Y-123856123D01*
X41662015Y-123911944D01*
X41651653Y-123939847D01*
X41633072Y-123949232D01*
X41620750Y-123949920D01*
X41597465Y-123946017D01*
X41583510Y-123928042D01*
X41576534Y-123886593D01*
X41574188Y-123812270D01*
X41574016Y-123762983D01*
X41574992Y-123669843D01*
X41579486Y-123614022D01*
X41589848Y-123586120D01*
X41608428Y-123576735D01*
X41620750Y-123576047D01*
X41644035Y-123579949D01*
G37*
G36*
X40822631Y-123391861D02*
G01*
X40835861Y-123405278D01*
X40843884Y-123437104D01*
X40847990Y-123495084D01*
X40849471Y-123586964D01*
X40849637Y-123669515D01*
X40849179Y-123787882D01*
X40846943Y-123867261D01*
X40841638Y-123915398D01*
X40831975Y-123940038D01*
X40816662Y-123948923D01*
X40802903Y-123949920D01*
X40783175Y-123947169D01*
X40769945Y-123933752D01*
X40761922Y-123901926D01*
X40757816Y-123843946D01*
X40756335Y-123752066D01*
X40756169Y-123669515D01*
X40756627Y-123551148D01*
X40758863Y-123471768D01*
X40764168Y-123423631D01*
X40773831Y-123398992D01*
X40789144Y-123390107D01*
X40802903Y-123389110D01*
X40822631Y-123391861D01*
G37*
G36*
X41491571Y-123576217D02*
G01*
X41499317Y-123606557D01*
X41502889Y-123665317D01*
X41503881Y-123760377D01*
X41503915Y-123800221D01*
X41502845Y-123912740D01*
X41498554Y-123988610D01*
X41489422Y-124037888D01*
X41473825Y-124070633D01*
X41457181Y-124090122D01*
X41401124Y-124127034D01*
X41343874Y-124136400D01*
X41309189Y-124121278D01*
X41293154Y-124082038D01*
X41312147Y-124050269D01*
X41337845Y-124043388D01*
X41369668Y-124036584D01*
X41390844Y-124011274D01*
X41403365Y-123960109D01*
X41409221Y-123875742D01*
X41410447Y-123775481D01*
X41411539Y-123679391D01*
X41416304Y-123620171D01*
X41426971Y-123587978D01*
X41445771Y-123572968D01*
X41457181Y-123569276D01*
X41478058Y-123566417D01*
X41491571Y-123576217D01*
G37*
G36*
X41206884Y-123573131D02*
G01*
X41279917Y-123626487D01*
X41328069Y-123700752D01*
X41340345Y-123762983D01*
X41319492Y-123843544D01*
X41272042Y-123904983D01*
X41187544Y-123961140D01*
X41095884Y-123973106D01*
X41005402Y-123940536D01*
X40974148Y-123917349D01*
X40929039Y-123866771D01*
X40911011Y-123806138D01*
X40909117Y-123762983D01*
X41013207Y-123762983D01*
X41030750Y-123831991D01*
X41074668Y-123872131D01*
X41131892Y-123879601D01*
X41189353Y-123850596D01*
X41213975Y-123821401D01*
X41238699Y-123775667D01*
X41234700Y-123739707D01*
X41213975Y-123704565D01*
X41161265Y-123655999D01*
X41102290Y-123645798D01*
X41050118Y-123670160D01*
X41017820Y-123725281D01*
X41013207Y-123762983D01*
X40909117Y-123762983D01*
X40929355Y-123666674D01*
X40985556Y-123595992D01*
X41070952Y-123557639D01*
X41121459Y-123552680D01*
X41206884Y-123573131D01*
G37*
G36*
X32858101Y-122033820D02*
G01*
X32858101Y-122174023D01*
X32495911Y-122174023D01*
X32133722Y-122174023D01*
X32133722Y-122396010D01*
X32133722Y-122617997D01*
X32495911Y-122617997D01*
X32858101Y-122617997D01*
X32858101Y-123120389D01*
X32858101Y-123622781D01*
X32717898Y-123622781D01*
X32577696Y-123622781D01*
X32577696Y-123260591D01*
X32577696Y-122898402D01*
X32355709Y-122898402D01*
X32133722Y-122898402D01*
X32133722Y-123260591D01*
X32133722Y-123622781D01*
X32005203Y-123622781D01*
X31876684Y-123622781D01*
X31874526Y-123383268D01*
X31873520Y-123240149D01*
X31872785Y-123070953D01*
X31872322Y-122886044D01*
X31872135Y-122695787D01*
X31872227Y-122510545D01*
X31872598Y-122340683D01*
X31873253Y-122196565D01*
X31874193Y-122088555D01*
X31874220Y-122086396D01*
X31876684Y-121893618D01*
X32367392Y-121893618D01*
X32858101Y-121893618D01*
X32858101Y-122033820D01*
G37*
G36*
X40558169Y-123573177D02*
G01*
X40621980Y-123625188D01*
X40668993Y-123694492D01*
X40686068Y-123762983D01*
X40665628Y-123848379D01*
X40611871Y-123914828D01*
X40536144Y-123957145D01*
X40449794Y-123970143D01*
X40364164Y-123948637D01*
X40328823Y-123926268D01*
X40269541Y-123855624D01*
X40249167Y-123775909D01*
X40251524Y-123762983D01*
X40358929Y-123762983D01*
X40376472Y-123831991D01*
X40420391Y-123872131D01*
X40477615Y-123879601D01*
X40535075Y-123850596D01*
X40559698Y-123821401D01*
X40584421Y-123775667D01*
X40580423Y-123739707D01*
X40559698Y-123704565D01*
X40506987Y-123655999D01*
X40448012Y-123645798D01*
X40395840Y-123670160D01*
X40363542Y-123725281D01*
X40358929Y-123762983D01*
X40251524Y-123762983D01*
X40263656Y-123696459D01*
X40308960Y-123626610D01*
X40381031Y-123575699D01*
X40475824Y-123553061D01*
X40490766Y-123552680D01*
X40558169Y-123573177D01*
G37*
G36*
X39256041Y-123574213D02*
G01*
X39312394Y-123618650D01*
X39342932Y-123683099D01*
X39340494Y-123750820D01*
X39317829Y-123795119D01*
X39270665Y-123809428D01*
X39257945Y-123809717D01*
X39212378Y-123806203D01*
X39204938Y-123789603D01*
X39217432Y-123766078D01*
X39234569Y-123709851D01*
X39217574Y-123666521D01*
X39172916Y-123649466D01*
X39161471Y-123650351D01*
X39118305Y-123672176D01*
X39101261Y-123723504D01*
X39108051Y-123795597D01*
X39150685Y-123843087D01*
X39233052Y-123870109D01*
X39240344Y-123871331D01*
X39308694Y-123890422D01*
X39333135Y-123914174D01*
X39315083Y-123935856D01*
X39255951Y-123948734D01*
X39223829Y-123949920D01*
X39145081Y-123943039D01*
X39087684Y-123916119D01*
X39048576Y-123881616D01*
X38992830Y-123800335D01*
X38981484Y-123716492D01*
X39014796Y-123636506D01*
X39037627Y-123610035D01*
X39108104Y-123565000D01*
X39184426Y-123554694D01*
X39256041Y-123574213D01*
G37*
G36*
X38829983Y-123449536D02*
G01*
X38840069Y-123494262D01*
X38851023Y-123540071D01*
X38886804Y-123552680D01*
X38925857Y-123569203D01*
X38933538Y-123599414D01*
X38917015Y-123638467D01*
X38886804Y-123646148D01*
X38857832Y-123652877D01*
X38843982Y-123680942D01*
X38840109Y-123742160D01*
X38840069Y-123753487D01*
X38843930Y-123822614D01*
X38858900Y-123858401D01*
X38886804Y-123873048D01*
X38924987Y-123901618D01*
X38933538Y-123929278D01*
X38915501Y-123962695D01*
X38872105Y-123973707D01*
X38819417Y-123961532D01*
X38783321Y-123936567D01*
X38756339Y-123879450D01*
X38746629Y-123779891D01*
X38746601Y-123772998D01*
X38742712Y-123703138D01*
X38732692Y-123657066D01*
X38723234Y-123646148D01*
X38704249Y-123626577D01*
X38699867Y-123599414D01*
X38709653Y-123561443D01*
X38723234Y-123552680D01*
X38740800Y-123532682D01*
X38746601Y-123494262D01*
X38757554Y-123448453D01*
X38793335Y-123435844D01*
X38829983Y-123449536D01*
G37*
G36*
X33582480Y-122255807D02*
G01*
X33582480Y-122617997D01*
X33804467Y-122617997D01*
X34026454Y-122617997D01*
X34026454Y-122255807D01*
X34026454Y-121893618D01*
X34166656Y-121893618D01*
X34306859Y-121893618D01*
X34306859Y-122078607D01*
X34310298Y-122187669D01*
X34320840Y-122252757D01*
X34336068Y-122275382D01*
X34353287Y-122285940D01*
X34336068Y-122289013D01*
X34327157Y-122299807D01*
X34320121Y-122333634D01*
X34314782Y-122394541D01*
X34310965Y-122486573D01*
X34308491Y-122613777D01*
X34307184Y-122780199D01*
X34306859Y-122956819D01*
X34306859Y-123622781D01*
X33804467Y-123622781D01*
X33302075Y-123622781D01*
X33302075Y-123482578D01*
X33302075Y-123342376D01*
X33664265Y-123342376D01*
X34026454Y-123342376D01*
X34026454Y-123120389D01*
X34026454Y-122898402D01*
X33664265Y-122898402D01*
X33302075Y-122898402D01*
X33302075Y-122396010D01*
X33302075Y-121893618D01*
X33442277Y-121893618D01*
X33582480Y-121893618D01*
X33582480Y-122255807D01*
G37*
G36*
X39491016Y-123392798D02*
G01*
X39507200Y-123410499D01*
X39516131Y-123452168D01*
X39521273Y-123527763D01*
X39522532Y-123557029D01*
X39529398Y-123724947D01*
X39587816Y-123638973D01*
X39645694Y-123574173D01*
X39698809Y-123552839D01*
X39737544Y-123556739D01*
X39747322Y-123573992D01*
X39727542Y-123612450D01*
X39690350Y-123663339D01*
X39629316Y-123743360D01*
X39703486Y-123846640D01*
X39777656Y-123949920D01*
X39717933Y-123949920D01*
X39666570Y-123935024D01*
X39613269Y-123885728D01*
X39587962Y-123852945D01*
X39517714Y-123755971D01*
X39517714Y-123852945D01*
X39514496Y-123914903D01*
X39500258Y-123942994D01*
X39468122Y-123949902D01*
X39465138Y-123949920D01*
X39442984Y-123948173D01*
X39428132Y-123937743D01*
X39419124Y-123910844D01*
X39414500Y-123859693D01*
X39412799Y-123776505D01*
X39412563Y-123669515D01*
X39412911Y-123551339D01*
X39414911Y-123472116D01*
X39419992Y-123424064D01*
X39429586Y-123399401D01*
X39445122Y-123390347D01*
X39464115Y-123389110D01*
X39491016Y-123392798D01*
G37*
G36*
X40115565Y-123560851D02*
G01*
X40166094Y-123590343D01*
X40196264Y-123648617D01*
X40211747Y-123743136D01*
X40214614Y-123783803D01*
X40218540Y-123870134D01*
X40216512Y-123919880D01*
X40206119Y-123943052D01*
X40184951Y-123949664D01*
X40174629Y-123949920D01*
X40144082Y-123943893D01*
X40129512Y-123917773D01*
X40125337Y-123859497D01*
X40125258Y-123843232D01*
X40115476Y-123739374D01*
X40087130Y-123672671D01*
X40041721Y-123646424D01*
X40035641Y-123646148D01*
X39982948Y-123661260D01*
X39951543Y-123709752D01*
X39938866Y-123796356D01*
X39938322Y-123826074D01*
X39936136Y-123898688D01*
X39926752Y-123935898D01*
X39905929Y-123948941D01*
X39891587Y-123949920D01*
X39868864Y-123946224D01*
X39854984Y-123929043D01*
X39847797Y-123889240D01*
X39845154Y-123817676D01*
X39844853Y-123751300D01*
X39845787Y-123654568D01*
X39849960Y-123595466D01*
X39859434Y-123564904D01*
X39876269Y-123553794D01*
X39889874Y-123552680D01*
X39932166Y-123571014D01*
X39945581Y-123593572D01*
X39954462Y-123622371D01*
X39958123Y-123605777D01*
X39958978Y-123593572D01*
X39975128Y-123563641D01*
X40024540Y-123552944D01*
X40039007Y-123552680D01*
X40115565Y-123560851D01*
G37*
G36*
X35288276Y-122198452D02*
G01*
X35288276Y-122760324D01*
X35345631Y-122817679D01*
X35418598Y-122860511D01*
X35509920Y-122872996D01*
X35604898Y-122857787D01*
X35688835Y-122817536D01*
X35747032Y-122754894D01*
X35752379Y-122744290D01*
X35762554Y-122696306D01*
X35770348Y-122603129D01*
X35775693Y-122466247D01*
X35778522Y-122287144D01*
X35778984Y-122161240D01*
X35778984Y-121636580D01*
X36047705Y-121636580D01*
X36316426Y-121636580D01*
X36316296Y-122518687D01*
X36315530Y-122778405D01*
X36313348Y-123001725D01*
X36309805Y-123186629D01*
X36304952Y-123331098D01*
X36298843Y-123433113D01*
X36291532Y-123490653D01*
X36290634Y-123494262D01*
X36232390Y-123626174D01*
X36137412Y-123729279D01*
X36043069Y-123787392D01*
X35995809Y-123808153D01*
X35947744Y-123823116D01*
X35889784Y-123833411D01*
X35812836Y-123840165D01*
X35707811Y-123844506D01*
X35565618Y-123847563D01*
X35556997Y-123847708D01*
X35420764Y-123848558D01*
X35293058Y-123846751D01*
X35184766Y-123842629D01*
X35106775Y-123836535D01*
X35082277Y-123832799D01*
X34942439Y-123785833D01*
X34840471Y-123711768D01*
X34776663Y-123610928D01*
X34751304Y-123483638D01*
X34750833Y-123461448D01*
X34750833Y-123342376D01*
X35004950Y-123342376D01*
X35259067Y-123342376D01*
X35272711Y-123410598D01*
X35291018Y-123458254D01*
X35328442Y-123489246D01*
X35392934Y-123506562D01*
X35492441Y-123513193D01*
X35546314Y-123513512D01*
X35650545Y-123511014D01*
X35721805Y-123499722D01*
X35766345Y-123472153D01*
X35790414Y-123420822D01*
X35800261Y-123338246D01*
X35802137Y-123216942D01*
X35802132Y-123207193D01*
X35801912Y-122956819D01*
X35734778Y-123073859D01*
X35672371Y-123162697D01*
X35599177Y-123222017D01*
X35505261Y-123256530D01*
X35380689Y-123270948D01*
X35316692Y-123272144D01*
X35161047Y-123265192D01*
X35041232Y-123242853D01*
X34948125Y-123202523D01*
X34877709Y-123146787D01*
X34842580Y-123106406D01*
X34814452Y-123059436D01*
X34792581Y-123000501D01*
X34776222Y-122924225D01*
X34764629Y-122825230D01*
X34757058Y-122698140D01*
X34752763Y-122537579D01*
X34751000Y-122338169D01*
X34750833Y-122231290D01*
X34750833Y-121636580D01*
X35019554Y-121636580D01*
X35288276Y-121636580D01*
X35288276Y-122198452D01*
G37*
G36*
X39220419Y-121643489D02*
G01*
X39349791Y-121650755D01*
X39444217Y-121660648D01*
X39515479Y-121675218D01*
X39575360Y-121696515D01*
X39604761Y-121710350D01*
X39710855Y-121779042D01*
X39777440Y-121863044D01*
X39811408Y-121972088D01*
X39816039Y-122008713D01*
X39827432Y-122127289D01*
X39584947Y-122127141D01*
X39342461Y-122126993D01*
X39302656Y-122057040D01*
X39280771Y-122022264D01*
X39256251Y-122001480D01*
X39217446Y-121991088D01*
X39152703Y-121987491D01*
X39076152Y-121987086D01*
X38980774Y-121988460D01*
X38920538Y-121994373D01*
X38883889Y-122007518D01*
X38859273Y-122030582D01*
X38853078Y-122039020D01*
X38821332Y-122099127D01*
X38826652Y-122149087D01*
X38857595Y-122194086D01*
X38878876Y-122213744D01*
X38910042Y-122228652D01*
X38958966Y-122240329D01*
X39033515Y-122250290D01*
X39141562Y-122260053D01*
X39237310Y-122267289D01*
X39430535Y-122285698D01*
X39582115Y-122311786D01*
X39696926Y-122348814D01*
X39779847Y-122400047D01*
X39835756Y-122468745D01*
X39869533Y-122558171D01*
X39886055Y-122671588D01*
X39887978Y-122702402D01*
X39881943Y-122873947D01*
X39843646Y-123013311D01*
X39771381Y-123123670D01*
X39663443Y-123208204D01*
X39599499Y-123240092D01*
X39532383Y-123258089D01*
X39429455Y-123272476D01*
X39301515Y-123282990D01*
X39159366Y-123289365D01*
X39013808Y-123291337D01*
X38875644Y-123288640D01*
X38755674Y-123281012D01*
X38664701Y-123268185D01*
X38645363Y-123263478D01*
X38509062Y-123208576D01*
X38410910Y-123128893D01*
X38347010Y-123020046D01*
X38315427Y-122892560D01*
X38299763Y-122781566D01*
X38565699Y-122781566D01*
X38831636Y-122781566D01*
X38865061Y-122857423D01*
X38898219Y-122911290D01*
X38947551Y-122939412D01*
X38991955Y-122949547D01*
X39117111Y-122960420D01*
X39226608Y-122949414D01*
X39313622Y-122919346D01*
X39371329Y-122873032D01*
X39392908Y-122813288D01*
X39389683Y-122785383D01*
X39375391Y-122739364D01*
X39353710Y-122705791D01*
X39317408Y-122682100D01*
X39259254Y-122665729D01*
X39172016Y-122654117D01*
X39048464Y-122644701D01*
X38981128Y-122640616D01*
X38840102Y-122631243D01*
X38735909Y-122621045D01*
X38658653Y-122608366D01*
X38598442Y-122591549D01*
X38545381Y-122568938D01*
X38541571Y-122567041D01*
X38454290Y-122515925D01*
X38395348Y-122459196D01*
X38358925Y-122386129D01*
X38339202Y-122285998D01*
X38331572Y-122179972D01*
X38334797Y-122017881D01*
X38362943Y-121891941D01*
X38420182Y-121797223D01*
X38510691Y-121728797D01*
X38638643Y-121681735D01*
X38775782Y-121655435D01*
X38871404Y-121646528D01*
X38995342Y-121641539D01*
X39129305Y-121640958D01*
X39220419Y-121643489D01*
G37*
G36*
X41093071Y-121653936D02*
G01*
X41249720Y-121667506D01*
X41372490Y-121692236D01*
X41467553Y-121730258D01*
X41541081Y-121783701D01*
X41599244Y-121854695D01*
X41626621Y-121901428D01*
X41641956Y-121932578D01*
X41654030Y-121965325D01*
X41663327Y-122005642D01*
X41670332Y-122059503D01*
X41675528Y-122132884D01*
X41679402Y-122231759D01*
X41682437Y-122362101D01*
X41685117Y-122529886D01*
X41686630Y-122641364D01*
X41695092Y-123283958D01*
X41430092Y-123283958D01*
X41165092Y-123283958D01*
X41171988Y-123143756D01*
X41178884Y-123003554D01*
X41125254Y-123094825D01*
X41074399Y-123172057D01*
X41021649Y-123225398D01*
X40956873Y-123259370D01*
X40869940Y-123278493D01*
X40750717Y-123287291D01*
X40690280Y-123288961D01*
X40579127Y-123288704D01*
X40478538Y-123284018D01*
X40401998Y-123275763D01*
X40370612Y-123268567D01*
X40268103Y-123209575D01*
X40183655Y-123120033D01*
X40130825Y-123014779D01*
X40127401Y-123002383D01*
X40103355Y-122848232D01*
X40104916Y-122777050D01*
X40639691Y-122777050D01*
X40648206Y-122860558D01*
X40679296Y-122910482D01*
X40742574Y-122938138D01*
X40783391Y-122946218D01*
X40870235Y-122959447D01*
X40927862Y-122964368D01*
X40973051Y-122960937D01*
X41022584Y-122949110D01*
X41035085Y-122945563D01*
X41103779Y-122917732D01*
X41139701Y-122875799D01*
X41152362Y-122806176D01*
X41153051Y-122777050D01*
X41141905Y-122704526D01*
X41103998Y-122656224D01*
X41033691Y-122628648D01*
X40925347Y-122618306D01*
X40896371Y-122617997D01*
X40779061Y-122625072D01*
X40701008Y-122648625D01*
X40656572Y-122692150D01*
X40640118Y-122759140D01*
X40639691Y-122777050D01*
X40104916Y-122777050D01*
X40106658Y-122697642D01*
X40136461Y-122565629D01*
X40154467Y-122523638D01*
X40229303Y-122426094D01*
X40340756Y-122354543D01*
X40486009Y-122309895D01*
X40662246Y-122293061D01*
X40840450Y-122301947D01*
X40932012Y-122314677D01*
X40993753Y-122333354D01*
X41042577Y-122364720D01*
X41076324Y-122396036D01*
X41153409Y-122473121D01*
X41153409Y-122266850D01*
X41152516Y-122166998D01*
X41148001Y-122102477D01*
X41137109Y-122061891D01*
X41117086Y-122033846D01*
X41091840Y-122012149D01*
X41020972Y-121976425D01*
X40937149Y-121962887D01*
X40852237Y-121969372D01*
X40778103Y-121993717D01*
X40726612Y-122033757D01*
X40709435Y-122081879D01*
X40706291Y-122101407D01*
X40691602Y-122114370D01*
X40657483Y-122122101D01*
X40596048Y-122125934D01*
X40499410Y-122127201D01*
X40440713Y-122127289D01*
X40171992Y-122127289D01*
X40171992Y-122032660D01*
X40181881Y-121949997D01*
X40206075Y-121872614D01*
X40209940Y-121864648D01*
X40255920Y-121793126D01*
X40314600Y-121738454D01*
X40392109Y-121698710D01*
X40494579Y-121671972D01*
X40628138Y-121656317D01*
X40798917Y-121649824D01*
X40896371Y-121649398D01*
X41093071Y-121653936D01*
G37*
G36*
X37442731Y-121650402D02*
G01*
X37573796Y-121656167D01*
X37683750Y-121665845D01*
X37761315Y-121679435D01*
X37765184Y-121680517D01*
X37903481Y-121740957D01*
X38008523Y-121831299D01*
X38059826Y-121909824D01*
X38073072Y-121940466D01*
X38083565Y-121976853D01*
X38091716Y-122024822D01*
X38097936Y-122090205D01*
X38102636Y-122178839D01*
X38106225Y-122296557D01*
X38109115Y-122449194D01*
X38111717Y-122642585D01*
X38111782Y-122647989D01*
X38119556Y-123297209D01*
X37856017Y-123290583D01*
X37592478Y-123283958D01*
X37597776Y-123143756D01*
X37603075Y-123003554D01*
X37549769Y-123094825D01*
X37499202Y-123171918D01*
X37446448Y-123225280D01*
X37381413Y-123259452D01*
X37294003Y-123278974D01*
X37174124Y-123288386D01*
X37115119Y-123290330D01*
X36993419Y-123291819D01*
X36906193Y-123288099D01*
X36841341Y-123277838D01*
X36786765Y-123259705D01*
X36770248Y-123252373D01*
X36660046Y-123179323D01*
X36583842Y-123077533D01*
X36540796Y-122945167D01*
X36530074Y-122780388D01*
X36530241Y-122777050D01*
X37064530Y-122777050D01*
X37072929Y-122860384D01*
X37103285Y-122910388D01*
X37164632Y-122938643D01*
X37196099Y-122945731D01*
X37279179Y-122960159D01*
X37338590Y-122963991D01*
X37396168Y-122957275D01*
X37447306Y-122946268D01*
X37522134Y-122920957D01*
X37562004Y-122880842D01*
X37576791Y-122813125D01*
X37577890Y-122777050D01*
X37566744Y-122704526D01*
X37528837Y-122656224D01*
X37458530Y-122628648D01*
X37350186Y-122618306D01*
X37321210Y-122617997D01*
X37203900Y-122625072D01*
X37125847Y-122648625D01*
X37081411Y-122692150D01*
X37064957Y-122759140D01*
X37064530Y-122777050D01*
X36530241Y-122777050D01*
X36532557Y-122730881D01*
X36552577Y-122595023D01*
X36594336Y-122493325D01*
X36663542Y-122416047D01*
X36748808Y-122361978D01*
X36807442Y-122334508D01*
X36863205Y-122317005D01*
X36929296Y-122307297D01*
X37018914Y-122303216D01*
X37110283Y-122302542D01*
X37258040Y-122306319D01*
X37367363Y-122319156D01*
X37446056Y-122343305D01*
X37501919Y-122381020D01*
X37537644Y-122426011D01*
X37556101Y-122453871D01*
X37567675Y-122460915D01*
X37574013Y-122440925D01*
X37576761Y-122387684D01*
X37577565Y-122294973D01*
X37577626Y-122275029D01*
X37577129Y-122173052D01*
X37573209Y-122106733D01*
X37563301Y-122065002D01*
X37544839Y-122036791D01*
X37516679Y-122012149D01*
X37445811Y-121976425D01*
X37361988Y-121962887D01*
X37277076Y-121969372D01*
X37202942Y-121993717D01*
X37151451Y-122033757D01*
X37134274Y-122081879D01*
X37131130Y-122101407D01*
X37116441Y-122114370D01*
X37082322Y-122122101D01*
X37020887Y-122125934D01*
X36924249Y-122127201D01*
X36865552Y-122127289D01*
X36596831Y-122127289D01*
X36596831Y-122044753D01*
X36618051Y-121913809D01*
X36679549Y-121804293D01*
X36778085Y-121720600D01*
X36865552Y-121680351D01*
X36932970Y-121666518D01*
X37035676Y-121656608D01*
X37162392Y-121650620D01*
X37301837Y-121648552D01*
X37442731Y-121650402D01*
G37*
G36*
X33368248Y-121455485D02*
G01*
X33380764Y-121519534D01*
X33404555Y-121544480D01*
X33430170Y-121528951D01*
X33448159Y-121471576D01*
X33448741Y-121467169D01*
X33458165Y-121391226D01*
X33461905Y-121467169D01*
X33465644Y-121543112D01*
X33710999Y-121543112D01*
X33956353Y-121543112D01*
X33956353Y-122045504D01*
X33956353Y-122547896D01*
X33816150Y-122547896D01*
X33675948Y-122547896D01*
X33675948Y-122185706D01*
X33675948Y-121823517D01*
X33453961Y-121823517D01*
X33231974Y-121823517D01*
X33231974Y-122185706D01*
X33231974Y-122547896D01*
X32729582Y-122547896D01*
X32227190Y-122547896D01*
X32227190Y-122407693D01*
X32227190Y-122380432D01*
X32367392Y-122380432D01*
X32382240Y-122430346D01*
X32416684Y-122455761D01*
X32455578Y-122449382D01*
X32472544Y-122431060D01*
X32502475Y-122419134D01*
X32566599Y-122411500D01*
X32652585Y-122408029D01*
X32748100Y-122408592D01*
X32840814Y-122413061D01*
X32918394Y-122421305D01*
X32968510Y-122433196D01*
X32974670Y-122436317D01*
X33024022Y-122448819D01*
X33058239Y-122427715D01*
X33063421Y-122383057D01*
X33060557Y-122374213D01*
X33034247Y-122348476D01*
X32993940Y-122337808D01*
X32960225Y-122344714D01*
X32951569Y-122360959D01*
X32929362Y-122371834D01*
X32867261Y-122379690D01*
X32772051Y-122383845D01*
X32719277Y-122384326D01*
X32617752Y-122382100D01*
X32536099Y-122376074D01*
X32484639Y-122367226D01*
X32472544Y-122360959D01*
X32438333Y-122338197D01*
X32396613Y-122341973D01*
X32369424Y-122368206D01*
X32367392Y-122380432D01*
X32227190Y-122380432D01*
X32227190Y-122267491D01*
X32589380Y-122267491D01*
X32951569Y-122267491D01*
X32951569Y-122045504D01*
X32951569Y-121823517D01*
X32589380Y-121823517D01*
X32227190Y-121823517D01*
X32227190Y-121683314D01*
X32227190Y-121543112D01*
X32459450Y-121543112D01*
X32691710Y-121543112D01*
X32700876Y-121455485D01*
X32710042Y-121367860D01*
X32713970Y-121455485D01*
X32726393Y-121521558D01*
X32749775Y-121545421D01*
X32775013Y-121527077D01*
X32793006Y-121466523D01*
X32794344Y-121455485D01*
X32803510Y-121367860D01*
X32807439Y-121455485D01*
X32818602Y-121521051D01*
X32844513Y-121543107D01*
X32845007Y-121543112D01*
X32872082Y-121520945D01*
X32887616Y-121457324D01*
X32887813Y-121455485D01*
X32896979Y-121367860D01*
X32900907Y-121455485D01*
X32906713Y-121512902D01*
X32925998Y-121537464D01*
X32972114Y-121543050D01*
X32985209Y-121543112D01*
X33038307Y-121539260D01*
X33063030Y-121518487D01*
X33073507Y-121466968D01*
X33074749Y-121455485D01*
X33083915Y-121367860D01*
X33087843Y-121455485D01*
X33099007Y-121521051D01*
X33124917Y-121543107D01*
X33125411Y-121543112D01*
X33152487Y-121520945D01*
X33168021Y-121457324D01*
X33168218Y-121455485D01*
X33177384Y-121367860D01*
X33181312Y-121455485D01*
X33192475Y-121521051D01*
X33218386Y-121543107D01*
X33218880Y-121543112D01*
X33245955Y-121520945D01*
X33261489Y-121457324D01*
X33261686Y-121455485D01*
X33270852Y-121367860D01*
X33274780Y-121455485D01*
X33285943Y-121521051D01*
X33311854Y-121543107D01*
X33312348Y-121543112D01*
X33339424Y-121520945D01*
X33354957Y-121457324D01*
X33355154Y-121455485D01*
X33364320Y-121367860D01*
X33368248Y-121455485D01*
G37*
G36*
X32507595Y-123330692D02*
G01*
X32507595Y-123692882D01*
X32729582Y-123692882D01*
X32951569Y-123692882D01*
X32951569Y-123334080D01*
X32951569Y-123133342D01*
X33120122Y-123133342D01*
X33122986Y-123142185D01*
X33149295Y-123167923D01*
X33189603Y-123178590D01*
X33223318Y-123171684D01*
X33231974Y-123155439D01*
X33253304Y-123144169D01*
X33309448Y-123136568D01*
X33388634Y-123132560D01*
X33479093Y-123132070D01*
X33569054Y-123135022D01*
X33646746Y-123141342D01*
X33700399Y-123150953D01*
X33716438Y-123158542D01*
X33757773Y-123174335D01*
X33798327Y-123158503D01*
X33816150Y-123120389D01*
X33797677Y-123081712D01*
X33756896Y-123066421D01*
X33716438Y-123082236D01*
X33679578Y-123095643D01*
X33609186Y-123104356D01*
X33518222Y-123108428D01*
X33419646Y-123107914D01*
X33326417Y-123102870D01*
X33251496Y-123093350D01*
X33208873Y-123080082D01*
X33159521Y-123067580D01*
X33125304Y-123088683D01*
X33120122Y-123133342D01*
X32951569Y-123133342D01*
X32951569Y-122975279D01*
X33448119Y-122977733D01*
X33944669Y-122980186D01*
X33944669Y-123120389D01*
X33944669Y-123260591D01*
X33588322Y-123267042D01*
X33231974Y-123273492D01*
X33231974Y-123483187D01*
X33231974Y-123692882D01*
X33594163Y-123692882D01*
X33956353Y-123692882D01*
X33956353Y-123833084D01*
X33956353Y-123973287D01*
X33751891Y-123976989D01*
X33654520Y-123978323D01*
X33572038Y-123978671D01*
X33517916Y-123978006D01*
X33507916Y-123977509D01*
X33478739Y-123989184D01*
X33462652Y-124035833D01*
X33459269Y-124061433D01*
X33450134Y-124148540D01*
X33446205Y-124060913D01*
X33435042Y-123995348D01*
X33409131Y-123973291D01*
X33408637Y-123973287D01*
X33381562Y-123995453D01*
X33366028Y-124059075D01*
X33365831Y-124060913D01*
X33356665Y-124148540D01*
X33352737Y-124060913D01*
X33341574Y-123995348D01*
X33315663Y-123973291D01*
X33315169Y-123973287D01*
X33288093Y-123995453D01*
X33272560Y-124059075D01*
X33272363Y-124060913D01*
X33263197Y-124148540D01*
X33259269Y-124060913D01*
X33248106Y-123995348D01*
X33222195Y-123973291D01*
X33221701Y-123973287D01*
X33194625Y-123995453D01*
X33179091Y-124059075D01*
X33178895Y-124060913D01*
X33169729Y-124148540D01*
X33165801Y-124060913D01*
X33154637Y-123995348D01*
X33128727Y-123973291D01*
X33128233Y-123973287D01*
X33101157Y-123995453D01*
X33085623Y-124059075D01*
X33085427Y-124060913D01*
X33076261Y-124148540D01*
X33072332Y-124063250D01*
X33066251Y-124006836D01*
X33045863Y-123983101D01*
X32997253Y-123977990D01*
X32987891Y-123977960D01*
X32934170Y-123981985D01*
X32909478Y-124003396D01*
X32899113Y-124056194D01*
X32898351Y-124063250D01*
X32889324Y-124148540D01*
X32885396Y-124060913D01*
X32874233Y-123995348D01*
X32848322Y-123973291D01*
X32847828Y-123973287D01*
X32820752Y-123995453D01*
X32805218Y-124059075D01*
X32805022Y-124060913D01*
X32795856Y-124148540D01*
X32791928Y-124060913D01*
X32780764Y-123995348D01*
X32754854Y-123973291D01*
X32754360Y-123973287D01*
X32727284Y-123995453D01*
X32711750Y-124059075D01*
X32711553Y-124060913D01*
X32702387Y-124148540D01*
X32698459Y-124060913D01*
X32694531Y-123973287D01*
X32460861Y-123973287D01*
X32227190Y-123973287D01*
X32227190Y-123470895D01*
X32227190Y-122968503D01*
X32367392Y-122968503D01*
X32507595Y-122968503D01*
X32507595Y-123330692D01*
G37*
%TO.C,J2*%
D13*
X70224100Y-130189800D02*
X78064100Y-130189800D01*
X70224100Y-137429800D02*
X70224100Y-130189800D01*
X76444100Y-137429800D02*
X76444100Y-130189800D01*
X77544100Y-137429800D02*
X77544100Y-130189800D01*
X78064100Y-130189800D02*
X78064100Y-135259800D01*
X78064100Y-135859800D02*
X78064100Y-137429800D01*
X78064100Y-137429800D02*
X70224100Y-137429800D01*
X78064100Y-135559800D02*
X78674100Y-135119800D01*
X78674100Y-135999800D01*
X78064100Y-135559800D01*
G36*
X78674100Y-135999800D02*
G01*
X78064100Y-135559800D01*
X78674100Y-135119800D01*
X78674100Y-135999800D01*
G37*
%TO.C,C3*%
X59170700Y-147798600D02*
X56405700Y-147798600D01*
X59170700Y-147838600D02*
X56421700Y-147838600D01*
X59170700Y-147878600D02*
X56437700Y-147878600D01*
X59170700Y-147918600D02*
X56453700Y-147918600D01*
X59170700Y-147958600D02*
X56470700Y-147958600D01*
X59170700Y-147998600D02*
X56488700Y-147998600D01*
X59170700Y-148038600D02*
X56506700Y-148038600D01*
X59170700Y-148078600D02*
X56525700Y-148078600D01*
X59170700Y-148118600D02*
X56544700Y-148118600D01*
X59170700Y-148158600D02*
X56564700Y-148158600D01*
X59170700Y-148198600D02*
X56584700Y-148198600D01*
X59170700Y-148238600D02*
X56605700Y-148238600D01*
X59170700Y-148278600D02*
X56626700Y-148278600D01*
X59170700Y-148318600D02*
X56648700Y-148318600D01*
X59170700Y-148358600D02*
X56671700Y-148358600D01*
X59170700Y-148398600D02*
X56694700Y-148398600D01*
X59170700Y-148438600D02*
X56717700Y-148438600D01*
X59170700Y-148478600D02*
X56742700Y-148478600D01*
X59170700Y-148518600D02*
X56767700Y-148518600D01*
X59170700Y-148558600D02*
X56792700Y-148558600D01*
X59170700Y-148598600D02*
X56818700Y-148598600D01*
X59170700Y-148638600D02*
X56845700Y-148638600D01*
X59170700Y-148678600D02*
X56873700Y-148678600D01*
X59170700Y-148718600D02*
X56901700Y-148718600D01*
X59170700Y-148758600D02*
X56930700Y-148758600D01*
X59170700Y-148798600D02*
X56960700Y-148798600D01*
X59170700Y-148838600D02*
X56991700Y-148838600D01*
X59170700Y-148878600D02*
X57022700Y-148878600D01*
X59170700Y-148918600D02*
X57054700Y-148918600D01*
X59170700Y-148958600D02*
X57087700Y-148958600D01*
X59170700Y-148998600D02*
X57121700Y-148998600D01*
X59170700Y-149038600D02*
X57155700Y-149038600D01*
X59170700Y-149078600D02*
X57191700Y-149078600D01*
X59170700Y-149118600D02*
X57228700Y-149118600D01*
X59170700Y-149158600D02*
X57265700Y-149158600D01*
X59170700Y-149198600D02*
X57304700Y-149198600D01*
X59170700Y-149238600D02*
X57343700Y-149238600D01*
X59170700Y-149278600D02*
X57384700Y-149278600D01*
X59170700Y-149318600D02*
X57426700Y-149318600D01*
X59170700Y-149358600D02*
X57469700Y-149358600D01*
X59170700Y-149398600D02*
X57514700Y-149398600D01*
X59170700Y-149438600D02*
X57559700Y-149438600D01*
X59170700Y-149478600D02*
X57606700Y-149478600D01*
X59170700Y-149518600D02*
X57655700Y-149518600D01*
X59170700Y-149558600D02*
X57705700Y-149558600D01*
X59170700Y-149598600D02*
X57757700Y-149598600D01*
X59170700Y-149638600D02*
X57810700Y-149638600D01*
X59170700Y-149678600D02*
X57866700Y-149678600D01*
X59170700Y-149718600D02*
X57923700Y-149718600D01*
X59170700Y-149758600D02*
X57983700Y-149758600D01*
X59170700Y-149798600D02*
X58045700Y-149798600D01*
X59170700Y-149838600D02*
X58109700Y-149838600D01*
X60743700Y-150398600D02*
X59677700Y-150398600D01*
X60978700Y-150358600D02*
X59442700Y-150358600D01*
X61157700Y-150318600D02*
X59263700Y-150318600D01*
X61307700Y-150278600D02*
X59113700Y-150278600D01*
X61438700Y-150238600D02*
X58982700Y-150238600D01*
X61556700Y-150198600D02*
X58864700Y-150198600D01*
X61663700Y-150158600D02*
X58757700Y-150158600D01*
X61762700Y-150118600D02*
X58658700Y-150118600D01*
X61854700Y-150078600D02*
X58566700Y-150078600D01*
X61941700Y-150038600D02*
X58479700Y-150038600D01*
X62023700Y-149998600D02*
X58397700Y-149998600D01*
X62100700Y-149958600D02*
X58320700Y-149958600D01*
X62174700Y-149918600D02*
X58246700Y-149918600D01*
X62244700Y-149878600D02*
X58176700Y-149878600D01*
X62311700Y-149838600D02*
X61250700Y-149838600D01*
X62375700Y-149798600D02*
X61250700Y-149798600D01*
X62437700Y-149758600D02*
X61250700Y-149758600D01*
X62497700Y-149718600D02*
X61250700Y-149718600D01*
X62525700Y-141908902D02*
X62525700Y-142708902D01*
X62554700Y-149678600D02*
X61250700Y-149678600D01*
X62610700Y-149638600D02*
X61250700Y-149638600D01*
X62663700Y-149598600D02*
X61250700Y-149598600D01*
X62715700Y-149558600D02*
X61250700Y-149558600D01*
X62765700Y-149518600D02*
X61250700Y-149518600D01*
X62814700Y-149478600D02*
X61250700Y-149478600D01*
X62861700Y-149438600D02*
X61250700Y-149438600D01*
X62906700Y-149398600D02*
X61250700Y-149398600D01*
X62925700Y-142308902D02*
X62125700Y-142308902D01*
X62951700Y-149358600D02*
X61250700Y-149358600D01*
X62994700Y-149318600D02*
X61250700Y-149318600D01*
X63036700Y-149278600D02*
X61250700Y-149278600D01*
X63077700Y-149238600D02*
X61250700Y-149238600D01*
X63116700Y-149198600D02*
X61250700Y-149198600D01*
X63155700Y-149158600D02*
X61250700Y-149158600D01*
X63192700Y-149118600D02*
X61250700Y-149118600D01*
X63229700Y-149078600D02*
X61250700Y-149078600D01*
X63265700Y-149038600D02*
X61250700Y-149038600D01*
X63299700Y-148998600D02*
X61250700Y-148998600D01*
X63333700Y-148958600D02*
X61250700Y-148958600D01*
X63366700Y-148918600D02*
X61250700Y-148918600D01*
X63398700Y-148878600D02*
X61250700Y-148878600D01*
X63429700Y-148838600D02*
X61250700Y-148838600D01*
X63460700Y-148798600D02*
X61250700Y-148798600D01*
X63490700Y-148758600D02*
X61250700Y-148758600D01*
X63519700Y-148718600D02*
X61250700Y-148718600D01*
X63547700Y-148678600D02*
X61250700Y-148678600D01*
X63575700Y-148638600D02*
X61250700Y-148638600D01*
X63602700Y-148598600D02*
X61250700Y-148598600D01*
X63628700Y-148558600D02*
X61250700Y-148558600D01*
X63653700Y-148518600D02*
X61250700Y-148518600D01*
X63678700Y-148478600D02*
X61250700Y-148478600D01*
X63703700Y-148438600D02*
X61250700Y-148438600D01*
X63726700Y-148398600D02*
X61250700Y-148398600D01*
X63749700Y-148358600D02*
X61250700Y-148358600D01*
X63772700Y-148318600D02*
X61250700Y-148318600D01*
X63794700Y-148278600D02*
X61250700Y-148278600D01*
X63815700Y-148238600D02*
X61250700Y-148238600D01*
X63836700Y-148198600D02*
X61250700Y-148198600D01*
X63856700Y-148158600D02*
X61250700Y-148158600D01*
X63876700Y-148118600D02*
X61250700Y-148118600D01*
X63895700Y-148078600D02*
X61250700Y-148078600D01*
X63914700Y-148038600D02*
X61250700Y-148038600D01*
X63932700Y-147998600D02*
X61250700Y-147998600D01*
X63950700Y-147958600D02*
X61250700Y-147958600D01*
X63967700Y-147918600D02*
X61250700Y-147918600D01*
X63983700Y-147878600D02*
X61250700Y-147878600D01*
X63999700Y-147838600D02*
X61250700Y-147838600D01*
X64015700Y-147798600D02*
X61250700Y-147798600D01*
X64030700Y-147758600D02*
X56390700Y-147758600D01*
X64045700Y-147718600D02*
X56375700Y-147718600D01*
X64059700Y-147678600D02*
X56361700Y-147678600D01*
X64073700Y-147638600D02*
X56347700Y-147638600D01*
X64086700Y-147598600D02*
X56334700Y-147598600D01*
X64099700Y-147558600D02*
X56321700Y-147558600D01*
X64111700Y-147518600D02*
X56309700Y-147518600D01*
X64123700Y-147478600D02*
X56297700Y-147478600D01*
X64135700Y-147438600D02*
X56285700Y-147438600D01*
X64146700Y-147398600D02*
X56274700Y-147398600D01*
X64157700Y-147358600D02*
X56263700Y-147358600D01*
X64167700Y-147318600D02*
X56253700Y-147318600D01*
X64177700Y-147278600D02*
X56243700Y-147278600D01*
X64186700Y-147238600D02*
X56234700Y-147238600D01*
X64195700Y-147198600D02*
X56225700Y-147198600D01*
X64203700Y-147158600D02*
X56217700Y-147158600D01*
X64212700Y-147118600D02*
X56208700Y-147118600D01*
X64219700Y-147078600D02*
X56201700Y-147078600D01*
X64227700Y-147038600D02*
X56193700Y-147038600D01*
X64233700Y-146998600D02*
X56187700Y-146998600D01*
X64240700Y-146958600D02*
X56180700Y-146958600D01*
X64246700Y-146918600D02*
X56174700Y-146918600D01*
X64252700Y-146878600D02*
X56168700Y-146878600D01*
X64257700Y-146838600D02*
X56163700Y-146838600D01*
X64262700Y-146798600D02*
X56158700Y-146798600D01*
X64266700Y-146758600D02*
X56154700Y-146758600D01*
X64271700Y-146718600D02*
X56149700Y-146718600D01*
X64274700Y-146678600D02*
X56146700Y-146678600D01*
X64278700Y-146638600D02*
X56142700Y-146638600D01*
X64280700Y-146598600D02*
X56140700Y-146598600D01*
X64283700Y-146558600D02*
X56137700Y-146558600D01*
X64285700Y-146518600D02*
X56135700Y-146518600D01*
X64287700Y-146478600D02*
X56133700Y-146478600D01*
X64288700Y-146438600D02*
X56132700Y-146438600D01*
X64289700Y-146398600D02*
X56131700Y-146398600D01*
X64290700Y-146318600D02*
X56130700Y-146318600D01*
X64290700Y-146358600D02*
X56130700Y-146358600D01*
X64330700Y-146318600D02*
G75*
G02*
X56090700Y-146318600I-4120000J0D01*
G01*
X56090700Y-146318600D02*
G75*
G02*
X64330700Y-146318600I4120000J0D01*
G01*
%TO.C,RV1*%
X55640500Y-124378400D02*
X65390500Y-124378400D01*
X55640500Y-129428400D02*
X55640500Y-124378400D01*
X65390500Y-124378400D02*
X65390500Y-129428400D01*
X65390500Y-129428400D02*
X55640500Y-129428400D01*
%TO.C,D1*%
X56097100Y-140012600D02*
X56097100Y-131502600D01*
X62597100Y-140012600D02*
X56097100Y-140012600D01*
X62597100Y-140012600D02*
X62597100Y-131502600D01*
%TO.C,C2*%
X33337500Y-131628277D02*
X43497500Y-131628277D01*
X33337500Y-131668277D02*
X43497500Y-131668277D01*
X33338500Y-131548277D02*
X43496500Y-131548277D01*
X33338500Y-131588277D02*
X43496500Y-131588277D01*
X33340500Y-131508277D02*
X43494500Y-131508277D01*
X33341500Y-131468277D02*
X43493500Y-131468277D01*
X33343500Y-131428277D02*
X43491500Y-131428277D01*
X33345500Y-131388277D02*
X43489500Y-131388277D01*
X33347500Y-131348277D02*
X43487500Y-131348277D01*
X33350500Y-131308277D02*
X43484500Y-131308277D01*
X33353500Y-131268277D02*
X43481500Y-131268277D01*
X33356500Y-131228277D02*
X43478500Y-131228277D01*
X33360500Y-131188277D02*
X43474500Y-131188277D01*
X33363500Y-131148277D02*
X43471500Y-131148277D01*
X33368500Y-131108277D02*
X43466500Y-131108277D01*
X33372500Y-131068277D02*
X43462500Y-131068277D01*
X33377500Y-131028277D02*
X43457500Y-131028277D01*
X33382500Y-130988277D02*
X43452500Y-130988277D01*
X33388500Y-130948277D02*
X43446500Y-130948277D01*
X33394500Y-130908277D02*
X43440500Y-130908277D01*
X33400500Y-130868277D02*
X43434500Y-130868277D01*
X33406500Y-130828277D02*
X43428500Y-130828277D01*
X33413500Y-130788277D02*
X43421500Y-130788277D01*
X33420500Y-130748277D02*
X43414500Y-130748277D01*
X33428500Y-130708277D02*
X43406500Y-130708277D01*
X33436500Y-130668277D02*
X43398500Y-130668277D01*
X33444500Y-130628277D02*
X43390500Y-130628277D01*
X33452500Y-130588277D02*
X43382500Y-130588277D01*
X33461500Y-130548277D02*
X43373500Y-130548277D01*
X33470500Y-130508277D02*
X43364500Y-130508277D01*
X33480500Y-130468277D02*
X43354500Y-130468277D01*
X33489500Y-130428277D02*
X43345500Y-130428277D01*
X33500500Y-130388277D02*
X37177500Y-130388277D01*
X33510500Y-130348277D02*
X37177500Y-130348277D01*
X33521500Y-130308277D02*
X37177500Y-130308277D01*
X33532500Y-130268277D02*
X37177500Y-130268277D01*
X33544500Y-130228277D02*
X37177500Y-130228277D01*
X33556500Y-130188277D02*
X37177500Y-130188277D01*
X33568500Y-130148277D02*
X37177500Y-130148277D01*
X33580500Y-130108277D02*
X37177500Y-130108277D01*
X33593500Y-130068277D02*
X37177500Y-130068277D01*
X33607500Y-130028277D02*
X37177500Y-130028277D01*
X33620500Y-129988277D02*
X37177500Y-129988277D01*
X33635500Y-129948277D02*
X37177500Y-129948277D01*
X33649500Y-129908277D02*
X37177500Y-129908277D01*
X33664500Y-129868277D02*
X37177500Y-129868277D01*
X33679500Y-129828277D02*
X37177500Y-129828277D01*
X33695500Y-129788277D02*
X37177500Y-129788277D01*
X33711500Y-129748277D02*
X37177500Y-129748277D01*
X33727500Y-129708277D02*
X37177500Y-129708277D01*
X33744500Y-129668277D02*
X37177500Y-129668277D01*
X33761500Y-129628277D02*
X37177500Y-129628277D01*
X33779500Y-129588277D02*
X37177500Y-129588277D01*
X33797500Y-129548277D02*
X37177500Y-129548277D01*
X33815500Y-129508277D02*
X37177500Y-129508277D01*
X33834500Y-129468277D02*
X37177500Y-129468277D01*
X33853500Y-129428277D02*
X37177500Y-129428277D01*
X33873500Y-129388277D02*
X37177500Y-129388277D01*
X33893500Y-129348277D02*
X37177500Y-129348277D01*
X33913500Y-129308277D02*
X37177500Y-129308277D01*
X33934500Y-129268277D02*
X37177500Y-129268277D01*
X33956500Y-129228277D02*
X37177500Y-129228277D01*
X33978500Y-129188277D02*
X37177500Y-129188277D01*
X34000500Y-129148277D02*
X37177500Y-129148277D01*
X34023500Y-129108277D02*
X37177500Y-129108277D01*
X34046500Y-129068277D02*
X37177500Y-129068277D01*
X34070500Y-129028277D02*
X37177500Y-129028277D01*
X34094500Y-128988277D02*
X37177500Y-128988277D01*
X34119500Y-128948277D02*
X37177500Y-128948277D01*
X34145500Y-128908277D02*
X37177500Y-128908277D01*
X34170500Y-128868277D02*
X37177500Y-128868277D01*
X34197500Y-128828277D02*
X37177500Y-128828277D01*
X34224500Y-128788277D02*
X37177500Y-128788277D01*
X34251500Y-128748277D02*
X37177500Y-128748277D01*
X34279500Y-128708277D02*
X37177500Y-128708277D01*
X34308500Y-128668277D02*
X37177500Y-128668277D01*
X34337500Y-128628277D02*
X37177500Y-128628277D01*
X34367500Y-128588277D02*
X37177500Y-128588277D01*
X34397500Y-128548277D02*
X37177500Y-128548277D01*
X34429500Y-128508277D02*
X37177500Y-128508277D01*
X34460500Y-128468277D02*
X37177500Y-128468277D01*
X34493500Y-128428277D02*
X37177500Y-128428277D01*
X34526500Y-128388277D02*
X37177500Y-128388277D01*
X34559500Y-128348277D02*
X37177500Y-128348277D01*
X34594500Y-128308277D02*
X37177500Y-128308277D01*
X34629500Y-128268277D02*
X37177500Y-128268277D01*
X34665500Y-128228277D02*
X37177500Y-128228277D01*
X34701500Y-128188277D02*
X37177500Y-128188277D01*
X34739500Y-128148277D02*
X37177500Y-128148277D01*
X34777500Y-128108277D02*
X37177500Y-128108277D01*
X34816500Y-128068277D02*
X37177500Y-128068277D01*
X34856500Y-128028277D02*
X37177500Y-128028277D01*
X34897500Y-127988277D02*
X37177500Y-127988277D01*
X34939500Y-127948277D02*
X37177500Y-127948277D01*
X34982500Y-127908277D02*
X41852500Y-127908277D01*
X35026500Y-127868277D02*
X41808500Y-127868277D01*
X35042500Y-136647923D02*
X36042500Y-136647923D01*
X35070500Y-127828277D02*
X41764500Y-127828277D01*
X35116500Y-127788277D02*
X41718500Y-127788277D01*
X35163500Y-127748277D02*
X41671500Y-127748277D01*
X35212500Y-127708277D02*
X41622500Y-127708277D01*
X35261500Y-127668277D02*
X41573500Y-127668277D01*
X35312500Y-127628277D02*
X41522500Y-127628277D01*
X35364500Y-127588277D02*
X41470500Y-127588277D01*
X35417500Y-127548277D02*
X41417500Y-127548277D01*
X35472500Y-127508277D02*
X41362500Y-127508277D01*
X35529500Y-127468277D02*
X41305500Y-127468277D01*
X35542500Y-137147923D02*
X35542500Y-136147923D01*
X35587500Y-127428277D02*
X41247500Y-127428277D01*
X35647500Y-127388277D02*
X41187500Y-127388277D01*
X35709500Y-127348277D02*
X41125500Y-127348277D01*
X35773500Y-127308277D02*
X41061500Y-127308277D01*
X35839500Y-127268277D02*
X40995500Y-127268277D01*
X35907500Y-127228277D02*
X40927500Y-127228277D01*
X35978500Y-127188277D02*
X40856500Y-127188277D01*
X36052500Y-127148277D02*
X40782500Y-127148277D01*
X36129500Y-127108277D02*
X40705500Y-127108277D01*
X36209500Y-127068277D02*
X40625500Y-127068277D01*
X36293500Y-127028277D02*
X40541500Y-127028277D01*
X36380500Y-126988277D02*
X40454500Y-126988277D01*
X36473500Y-126948277D02*
X40361500Y-126948277D01*
X36571500Y-126908277D02*
X40263500Y-126908277D01*
X36675500Y-126868277D02*
X40159500Y-126868277D01*
X36787500Y-126828277D02*
X40047500Y-126828277D01*
X36908500Y-126788277D02*
X39926500Y-126788277D01*
X37040500Y-126748277D02*
X39794500Y-126748277D01*
X37187500Y-126708277D02*
X39647500Y-126708277D01*
X37355500Y-126668277D02*
X39479500Y-126668277D01*
X37555500Y-126628277D02*
X39279500Y-126628277D01*
X37818500Y-126588277D02*
X39016500Y-126588277D01*
X39657500Y-127948277D02*
X41895500Y-127948277D01*
X39657500Y-127988277D02*
X41937500Y-127988277D01*
X39657500Y-128028277D02*
X41978500Y-128028277D01*
X39657500Y-128068277D02*
X42018500Y-128068277D01*
X39657500Y-128108277D02*
X42057500Y-128108277D01*
X39657500Y-128148277D02*
X42095500Y-128148277D01*
X39657500Y-128188277D02*
X42133500Y-128188277D01*
X39657500Y-128228277D02*
X42169500Y-128228277D01*
X39657500Y-128268277D02*
X42205500Y-128268277D01*
X39657500Y-128308277D02*
X42240500Y-128308277D01*
X39657500Y-128348277D02*
X42275500Y-128348277D01*
X39657500Y-128388277D02*
X42308500Y-128388277D01*
X39657500Y-128428277D02*
X42341500Y-128428277D01*
X39657500Y-128468277D02*
X42374500Y-128468277D01*
X39657500Y-128508277D02*
X42405500Y-128508277D01*
X39657500Y-128548277D02*
X42437500Y-128548277D01*
X39657500Y-128588277D02*
X42467500Y-128588277D01*
X39657500Y-128628277D02*
X42497500Y-128628277D01*
X39657500Y-128668277D02*
X42526500Y-128668277D01*
X39657500Y-128708277D02*
X42555500Y-128708277D01*
X39657500Y-128748277D02*
X42583500Y-128748277D01*
X39657500Y-128788277D02*
X42610500Y-128788277D01*
X39657500Y-128828277D02*
X42637500Y-128828277D01*
X39657500Y-128868277D02*
X42664500Y-128868277D01*
X39657500Y-128908277D02*
X42689500Y-128908277D01*
X39657500Y-128948277D02*
X42715500Y-128948277D01*
X39657500Y-128988277D02*
X42740500Y-128988277D01*
X39657500Y-129028277D02*
X42764500Y-129028277D01*
X39657500Y-129068277D02*
X42788500Y-129068277D01*
X39657500Y-129108277D02*
X42811500Y-129108277D01*
X39657500Y-129148277D02*
X42834500Y-129148277D01*
X39657500Y-129188277D02*
X42856500Y-129188277D01*
X39657500Y-129228277D02*
X42878500Y-129228277D01*
X39657500Y-129268277D02*
X42900500Y-129268277D01*
X39657500Y-129308277D02*
X42921500Y-129308277D01*
X39657500Y-129348277D02*
X42941500Y-129348277D01*
X39657500Y-129388277D02*
X42961500Y-129388277D01*
X39657500Y-129428277D02*
X42981500Y-129428277D01*
X39657500Y-129468277D02*
X43000500Y-129468277D01*
X39657500Y-129508277D02*
X43019500Y-129508277D01*
X39657500Y-129548277D02*
X43037500Y-129548277D01*
X39657500Y-129588277D02*
X43055500Y-129588277D01*
X39657500Y-129628277D02*
X43073500Y-129628277D01*
X39657500Y-129668277D02*
X43090500Y-129668277D01*
X39657500Y-129708277D02*
X43107500Y-129708277D01*
X39657500Y-129748277D02*
X43123500Y-129748277D01*
X39657500Y-129788277D02*
X43139500Y-129788277D01*
X39657500Y-129828277D02*
X43155500Y-129828277D01*
X39657500Y-129868277D02*
X43170500Y-129868277D01*
X39657500Y-129908277D02*
X43185500Y-129908277D01*
X39657500Y-129948277D02*
X43199500Y-129948277D01*
X39657500Y-129988277D02*
X43214500Y-129988277D01*
X39657500Y-130028277D02*
X43227500Y-130028277D01*
X39657500Y-130068277D02*
X43241500Y-130068277D01*
X39657500Y-130108277D02*
X43254500Y-130108277D01*
X39657500Y-130148277D02*
X43266500Y-130148277D01*
X39657500Y-130188277D02*
X43278500Y-130188277D01*
X39657500Y-130228277D02*
X43290500Y-130228277D01*
X39657500Y-130268277D02*
X43302500Y-130268277D01*
X39657500Y-130308277D02*
X43313500Y-130308277D01*
X39657500Y-130348277D02*
X43324500Y-130348277D01*
X39657500Y-130388277D02*
X43334500Y-130388277D01*
X43537500Y-131668277D02*
G75*
G02*
X33297500Y-131668277I-5120000J0D01*
G01*
X33297500Y-131668277D02*
G75*
G02*
X43537500Y-131668277I5120000J0D01*
G01*
%TO.C,C4*%
X63569151Y-139848800D02*
X64369151Y-139848800D01*
X63969151Y-139448800D02*
X63969151Y-140248800D01*
X67978849Y-138083800D02*
X67978849Y-146243800D01*
X68018849Y-138083800D02*
X68018849Y-146243800D01*
X68058849Y-138084800D02*
X68058849Y-146242800D01*
X68098849Y-138085800D02*
X68098849Y-146241800D01*
X68138849Y-138086800D02*
X68138849Y-146240800D01*
X68178849Y-138088800D02*
X68178849Y-146238800D01*
X68218849Y-138090800D02*
X68218849Y-146236800D01*
X68258849Y-138093800D02*
X68258849Y-146233800D01*
X68298849Y-138095800D02*
X68298849Y-146231800D01*
X68338849Y-138099800D02*
X68338849Y-146227800D01*
X68378849Y-138102800D02*
X68378849Y-146224800D01*
X68418849Y-138107800D02*
X68418849Y-146219800D01*
X68458849Y-138111800D02*
X68458849Y-146215800D01*
X68498849Y-138116800D02*
X68498849Y-146210800D01*
X68538849Y-138121800D02*
X68538849Y-146205800D01*
X68578849Y-138127800D02*
X68578849Y-146199800D01*
X68618849Y-138133800D02*
X68618849Y-146193800D01*
X68658849Y-138140800D02*
X68658849Y-146186800D01*
X68698849Y-138146800D02*
X68698849Y-146180800D01*
X68738849Y-138154800D02*
X68738849Y-146172800D01*
X68778849Y-138161800D02*
X68778849Y-146165800D01*
X68818849Y-138170800D02*
X68818849Y-146156800D01*
X68858849Y-138178800D02*
X68858849Y-146148800D01*
X68898849Y-138187800D02*
X68898849Y-146139800D01*
X68938849Y-138196800D02*
X68938849Y-146130800D01*
X68978849Y-138206800D02*
X68978849Y-146120800D01*
X69018849Y-138216800D02*
X69018849Y-146110800D01*
X69058849Y-138227800D02*
X69058849Y-146099800D01*
X69098849Y-138238800D02*
X69098849Y-146088800D01*
X69138849Y-138250800D02*
X69138849Y-146076800D01*
X69178849Y-138262800D02*
X69178849Y-146064800D01*
X69218849Y-138274800D02*
X69218849Y-146052800D01*
X69258849Y-138287800D02*
X69258849Y-146039800D01*
X69298849Y-138300800D02*
X69298849Y-146026800D01*
X69338849Y-138314800D02*
X69338849Y-146012800D01*
X69378849Y-138328800D02*
X69378849Y-145998800D01*
X69418849Y-138343800D02*
X69418849Y-145983800D01*
X69458849Y-138358800D02*
X69458849Y-141123800D01*
X69458849Y-143203800D02*
X69458849Y-145968800D01*
X69498849Y-138374800D02*
X69498849Y-141123800D01*
X69498849Y-143203800D02*
X69498849Y-145952800D01*
X69538849Y-138390800D02*
X69538849Y-141123800D01*
X69538849Y-143203800D02*
X69538849Y-145936800D01*
X69578849Y-138406800D02*
X69578849Y-141123800D01*
X69578849Y-143203800D02*
X69578849Y-145920800D01*
X69618849Y-138423800D02*
X69618849Y-141123800D01*
X69618849Y-143203800D02*
X69618849Y-145903800D01*
X69658849Y-138441800D02*
X69658849Y-141123800D01*
X69658849Y-143203800D02*
X69658849Y-145885800D01*
X69698849Y-138459800D02*
X69698849Y-141123800D01*
X69698849Y-143203800D02*
X69698849Y-145867800D01*
X69738849Y-138478800D02*
X69738849Y-141123800D01*
X69738849Y-143203800D02*
X69738849Y-145848800D01*
X69778849Y-138497800D02*
X69778849Y-141123800D01*
X69778849Y-143203800D02*
X69778849Y-145829800D01*
X69818849Y-138517800D02*
X69818849Y-141123800D01*
X69818849Y-143203800D02*
X69818849Y-145809800D01*
X69858849Y-138537800D02*
X69858849Y-141123800D01*
X69858849Y-143203800D02*
X69858849Y-145789800D01*
X69898849Y-138558800D02*
X69898849Y-141123800D01*
X69898849Y-143203800D02*
X69898849Y-145768800D01*
X69938849Y-138579800D02*
X69938849Y-141123800D01*
X69938849Y-143203800D02*
X69938849Y-145747800D01*
X69978849Y-138601800D02*
X69978849Y-141123800D01*
X69978849Y-143203800D02*
X69978849Y-145725800D01*
X70018849Y-138624800D02*
X70018849Y-141123800D01*
X70018849Y-143203800D02*
X70018849Y-145702800D01*
X70058849Y-138647800D02*
X70058849Y-141123800D01*
X70058849Y-143203800D02*
X70058849Y-145679800D01*
X70098849Y-138670800D02*
X70098849Y-141123800D01*
X70098849Y-143203800D02*
X70098849Y-145656800D01*
X70138849Y-138695800D02*
X70138849Y-141123800D01*
X70138849Y-143203800D02*
X70138849Y-145631800D01*
X70178849Y-138720800D02*
X70178849Y-141123800D01*
X70178849Y-143203800D02*
X70178849Y-145606800D01*
X70218849Y-138745800D02*
X70218849Y-141123800D01*
X70218849Y-143203800D02*
X70218849Y-145581800D01*
X70258849Y-138771800D02*
X70258849Y-141123800D01*
X70258849Y-143203800D02*
X70258849Y-145555800D01*
X70298849Y-138798800D02*
X70298849Y-141123800D01*
X70298849Y-143203800D02*
X70298849Y-145528800D01*
X70338849Y-138826800D02*
X70338849Y-141123800D01*
X70338849Y-143203800D02*
X70338849Y-145500800D01*
X70378849Y-138854800D02*
X70378849Y-141123800D01*
X70378849Y-143203800D02*
X70378849Y-145472800D01*
X70418849Y-138883800D02*
X70418849Y-141123800D01*
X70418849Y-143203800D02*
X70418849Y-145443800D01*
X70458849Y-138913800D02*
X70458849Y-141123800D01*
X70458849Y-143203800D02*
X70458849Y-145413800D01*
X70498849Y-138944800D02*
X70498849Y-141123800D01*
X70498849Y-143203800D02*
X70498849Y-145382800D01*
X70538849Y-138975800D02*
X70538849Y-141123800D01*
X70538849Y-143203800D02*
X70538849Y-145351800D01*
X70578849Y-139007800D02*
X70578849Y-141123800D01*
X70578849Y-143203800D02*
X70578849Y-145319800D01*
X70618849Y-139040800D02*
X70618849Y-141123800D01*
X70618849Y-143203800D02*
X70618849Y-145286800D01*
X70658849Y-139074800D02*
X70658849Y-141123800D01*
X70658849Y-143203800D02*
X70658849Y-145252800D01*
X70698849Y-139108800D02*
X70698849Y-141123800D01*
X70698849Y-143203800D02*
X70698849Y-145218800D01*
X70738849Y-139144800D02*
X70738849Y-141123800D01*
X70738849Y-143203800D02*
X70738849Y-145182800D01*
X70778849Y-139181800D02*
X70778849Y-141123800D01*
X70778849Y-143203800D02*
X70778849Y-145145800D01*
X70818849Y-139218800D02*
X70818849Y-141123800D01*
X70818849Y-143203800D02*
X70818849Y-145108800D01*
X70858849Y-139257800D02*
X70858849Y-141123800D01*
X70858849Y-143203800D02*
X70858849Y-145069800D01*
X70898849Y-139296800D02*
X70898849Y-141123800D01*
X70898849Y-143203800D02*
X70898849Y-145030800D01*
X70938849Y-139337800D02*
X70938849Y-141123800D01*
X70938849Y-143203800D02*
X70938849Y-144989800D01*
X70978849Y-139379800D02*
X70978849Y-141123800D01*
X70978849Y-143203800D02*
X70978849Y-144947800D01*
X71018849Y-139422800D02*
X71018849Y-141123800D01*
X71018849Y-143203800D02*
X71018849Y-144904800D01*
X71058849Y-139467800D02*
X71058849Y-141123800D01*
X71058849Y-143203800D02*
X71058849Y-144859800D01*
X71098849Y-139512800D02*
X71098849Y-141123800D01*
X71098849Y-143203800D02*
X71098849Y-144814800D01*
X71138849Y-139559800D02*
X71138849Y-141123800D01*
X71138849Y-143203800D02*
X71138849Y-144767800D01*
X71178849Y-139608800D02*
X71178849Y-141123800D01*
X71178849Y-143203800D02*
X71178849Y-144718800D01*
X71218849Y-139658800D02*
X71218849Y-141123800D01*
X71218849Y-143203800D02*
X71218849Y-144668800D01*
X71258849Y-139710800D02*
X71258849Y-141123800D01*
X71258849Y-143203800D02*
X71258849Y-144616800D01*
X71298849Y-139763800D02*
X71298849Y-141123800D01*
X71298849Y-143203800D02*
X71298849Y-144563800D01*
X71338849Y-139819800D02*
X71338849Y-141123800D01*
X71338849Y-143203800D02*
X71338849Y-144507800D01*
X71378849Y-139876800D02*
X71378849Y-141123800D01*
X71378849Y-143203800D02*
X71378849Y-144450800D01*
X71418849Y-139936800D02*
X71418849Y-141123800D01*
X71418849Y-143203800D02*
X71418849Y-144390800D01*
X71458849Y-139998800D02*
X71458849Y-141123800D01*
X71458849Y-143203800D02*
X71458849Y-144328800D01*
X71498849Y-140062800D02*
X71498849Y-141123800D01*
X71498849Y-143203800D02*
X71498849Y-144264800D01*
X71538849Y-140129800D02*
X71538849Y-144197800D01*
X71578849Y-140199800D02*
X71578849Y-144127800D01*
X71618849Y-140273800D02*
X71618849Y-144053800D01*
X71658849Y-140350800D02*
X71658849Y-143976800D01*
X71698849Y-140432800D02*
X71698849Y-143894800D01*
X71738849Y-140519800D02*
X71738849Y-143807800D01*
X71778849Y-140611800D02*
X71778849Y-143715800D01*
X71818849Y-140710800D02*
X71818849Y-143616800D01*
X71858849Y-140817800D02*
X71858849Y-143509800D01*
X71898849Y-140935800D02*
X71898849Y-143391800D01*
X71938849Y-141066800D02*
X71938849Y-143260800D01*
X71978849Y-141216800D02*
X71978849Y-143110800D01*
X72018849Y-141395800D02*
X72018849Y-142931800D01*
X72058849Y-141630800D02*
X72058849Y-142696800D01*
X72098849Y-142163800D02*
G75*
G02*
X63858849Y-142163800I-4120000J0D01*
G01*
X63858849Y-142163800D02*
G75*
G02*
X72098849Y-142163800I4120000J0D01*
G01*
%TO.C,L1*%
X41660855Y-137692600D02*
X44660855Y-137692600D01*
X41660855Y-150292600D02*
X41660855Y-137692600D01*
X44660855Y-150292600D02*
X41660855Y-150292600D01*
X51260855Y-137692600D02*
X54260855Y-137692600D01*
X54260855Y-137692600D02*
X54260855Y-150292600D01*
X54260855Y-150292600D02*
X51260855Y-150292600D01*
%TO.C,C1*%
X34027900Y-143661600D02*
X30350900Y-143661600D01*
X34027900Y-143701600D02*
X30360900Y-143701600D01*
X34027900Y-143741600D02*
X30371900Y-143741600D01*
X34027900Y-143781600D02*
X30382900Y-143781600D01*
X34027900Y-143821600D02*
X30394900Y-143821600D01*
X34027900Y-143861600D02*
X30406900Y-143861600D01*
X34027900Y-143901600D02*
X30418900Y-143901600D01*
X34027900Y-143941600D02*
X30430900Y-143941600D01*
X34027900Y-143981600D02*
X30443900Y-143981600D01*
X34027900Y-144021600D02*
X30457900Y-144021600D01*
X34027900Y-144061600D02*
X30470900Y-144061600D01*
X34027900Y-144101600D02*
X30485900Y-144101600D01*
X34027900Y-144141600D02*
X30499900Y-144141600D01*
X34027900Y-144181600D02*
X30514900Y-144181600D01*
X34027900Y-144221600D02*
X30529900Y-144221600D01*
X34027900Y-144261600D02*
X30545900Y-144261600D01*
X34027900Y-144301600D02*
X30561900Y-144301600D01*
X34027900Y-144341600D02*
X30577900Y-144341600D01*
X34027900Y-144381600D02*
X30594900Y-144381600D01*
X34027900Y-144421600D02*
X30611900Y-144421600D01*
X34027900Y-144461600D02*
X30629900Y-144461600D01*
X34027900Y-144501600D02*
X30647900Y-144501600D01*
X34027900Y-144541600D02*
X30665900Y-144541600D01*
X34027900Y-144581600D02*
X30684900Y-144581600D01*
X34027900Y-144621600D02*
X30703900Y-144621600D01*
X34027900Y-144661600D02*
X30723900Y-144661600D01*
X34027900Y-144701600D02*
X30743900Y-144701600D01*
X34027900Y-144741600D02*
X30763900Y-144741600D01*
X34027900Y-144781600D02*
X30784900Y-144781600D01*
X34027900Y-144821600D02*
X30806900Y-144821600D01*
X34027900Y-144861600D02*
X30828900Y-144861600D01*
X34027900Y-144901600D02*
X30850900Y-144901600D01*
X34027900Y-144941600D02*
X30873900Y-144941600D01*
X34027900Y-144981600D02*
X30896900Y-144981600D01*
X34027900Y-145021600D02*
X30920900Y-145021600D01*
X34027900Y-145061600D02*
X30944900Y-145061600D01*
X34027900Y-145101600D02*
X30969900Y-145101600D01*
X34027900Y-145141600D02*
X30995900Y-145141600D01*
X34027900Y-145181600D02*
X31020900Y-145181600D01*
X34027900Y-145221600D02*
X31047900Y-145221600D01*
X34027900Y-145261600D02*
X31074900Y-145261600D01*
X34027900Y-145301600D02*
X31101900Y-145301600D01*
X34027900Y-145341600D02*
X31129900Y-145341600D01*
X34027900Y-145381600D02*
X31158900Y-145381600D01*
X34027900Y-145421600D02*
X31187900Y-145421600D01*
X34027900Y-145461600D02*
X31217900Y-145461600D01*
X34027900Y-145501600D02*
X31247900Y-145501600D01*
X34027900Y-145541600D02*
X31279900Y-145541600D01*
X34027900Y-145581600D02*
X31310900Y-145581600D01*
X34027900Y-145621600D02*
X31343900Y-145621600D01*
X34027900Y-145661600D02*
X31376900Y-145661600D01*
X34027900Y-145701600D02*
X31409900Y-145701600D01*
X34027900Y-145741600D02*
X31444900Y-145741600D01*
X34027900Y-145781600D02*
X31479900Y-145781600D01*
X34027900Y-145821600D02*
X31515900Y-145821600D01*
X34027900Y-145861600D02*
X31551900Y-145861600D01*
X34027900Y-145901600D02*
X31589900Y-145901600D01*
X34027900Y-145941600D02*
X31627900Y-145941600D01*
X34027900Y-145981600D02*
X31666900Y-145981600D01*
X34027900Y-146021600D02*
X31706900Y-146021600D01*
X34027900Y-146061600D02*
X31747900Y-146061600D01*
X34027900Y-146101600D02*
X31789900Y-146101600D01*
X35866900Y-147461600D02*
X34668900Y-147461600D01*
X36129900Y-147421600D02*
X34405900Y-147421600D01*
X36329900Y-147381600D02*
X34205900Y-147381600D01*
X36497900Y-147341600D02*
X34037900Y-147341600D01*
X36644900Y-147301600D02*
X33890900Y-147301600D01*
X36776900Y-147261600D02*
X33758900Y-147261600D01*
X36897900Y-147221600D02*
X33637900Y-147221600D01*
X37009900Y-147181600D02*
X33525900Y-147181600D01*
X37113900Y-147141600D02*
X33421900Y-147141600D01*
X37211900Y-147101600D02*
X33323900Y-147101600D01*
X37304900Y-147061600D02*
X33230900Y-147061600D01*
X37391900Y-147021600D02*
X33143900Y-147021600D01*
X37475900Y-146981600D02*
X33059900Y-146981600D01*
X37555900Y-146941600D02*
X32979900Y-146941600D01*
X37632900Y-146901600D02*
X32902900Y-146901600D01*
X37706900Y-146861600D02*
X32828900Y-146861600D01*
X37777900Y-146821600D02*
X32757900Y-146821600D01*
X37845900Y-146781600D02*
X32689900Y-146781600D01*
X37911900Y-146741600D02*
X32623900Y-146741600D01*
X37975900Y-146701600D02*
X32559900Y-146701600D01*
X38037900Y-146661600D02*
X32497900Y-146661600D01*
X38097900Y-146621600D02*
X32437900Y-146621600D01*
X38142900Y-136901954D02*
X38142900Y-137901954D01*
X38155900Y-146581600D02*
X32379900Y-146581600D01*
X38212900Y-146541600D02*
X32322900Y-146541600D01*
X38267900Y-146501600D02*
X32267900Y-146501600D01*
X38320900Y-146461600D02*
X32214900Y-146461600D01*
X38372900Y-146421600D02*
X32162900Y-146421600D01*
X38423900Y-146381600D02*
X32111900Y-146381600D01*
X38472900Y-146341600D02*
X32062900Y-146341600D01*
X38521900Y-146301600D02*
X32013900Y-146301600D01*
X38568900Y-146261600D02*
X31966900Y-146261600D01*
X38614900Y-146221600D02*
X31920900Y-146221600D01*
X38642900Y-137401954D02*
X37642900Y-137401954D01*
X38658900Y-146181600D02*
X31876900Y-146181600D01*
X38702900Y-146141600D02*
X31832900Y-146141600D01*
X38745900Y-146101600D02*
X36507900Y-146101600D01*
X38787900Y-146061600D02*
X36507900Y-146061600D01*
X38828900Y-146021600D02*
X36507900Y-146021600D01*
X38868900Y-145981600D02*
X36507900Y-145981600D01*
X38907900Y-145941600D02*
X36507900Y-145941600D01*
X38945900Y-145901600D02*
X36507900Y-145901600D01*
X38983900Y-145861600D02*
X36507900Y-145861600D01*
X39019900Y-145821600D02*
X36507900Y-145821600D01*
X39055900Y-145781600D02*
X36507900Y-145781600D01*
X39090900Y-145741600D02*
X36507900Y-145741600D01*
X39125900Y-145701600D02*
X36507900Y-145701600D01*
X39158900Y-145661600D02*
X36507900Y-145661600D01*
X39191900Y-145621600D02*
X36507900Y-145621600D01*
X39224900Y-145581600D02*
X36507900Y-145581600D01*
X39255900Y-145541600D02*
X36507900Y-145541600D01*
X39287900Y-145501600D02*
X36507900Y-145501600D01*
X39317900Y-145461600D02*
X36507900Y-145461600D01*
X39347900Y-145421600D02*
X36507900Y-145421600D01*
X39376900Y-145381600D02*
X36507900Y-145381600D01*
X39405900Y-145341600D02*
X36507900Y-145341600D01*
X39433900Y-145301600D02*
X36507900Y-145301600D01*
X39460900Y-145261600D02*
X36507900Y-145261600D01*
X39487900Y-145221600D02*
X36507900Y-145221600D01*
X39514900Y-145181600D02*
X36507900Y-145181600D01*
X39539900Y-145141600D02*
X36507900Y-145141600D01*
X39565900Y-145101600D02*
X36507900Y-145101600D01*
X39590900Y-145061600D02*
X36507900Y-145061600D01*
X39614900Y-145021600D02*
X36507900Y-145021600D01*
X39638900Y-144981600D02*
X36507900Y-144981600D01*
X39661900Y-144941600D02*
X36507900Y-144941600D01*
X39684900Y-144901600D02*
X36507900Y-144901600D01*
X39706900Y-144861600D02*
X36507900Y-144861600D01*
X39728900Y-144821600D02*
X36507900Y-144821600D01*
X39750900Y-144781600D02*
X36507900Y-144781600D01*
X39771900Y-144741600D02*
X36507900Y-144741600D01*
X39791900Y-144701600D02*
X36507900Y-144701600D01*
X39811900Y-144661600D02*
X36507900Y-144661600D01*
X39831900Y-144621600D02*
X36507900Y-144621600D01*
X39850900Y-144581600D02*
X36507900Y-144581600D01*
X39869900Y-144541600D02*
X36507900Y-144541600D01*
X39887900Y-144501600D02*
X36507900Y-144501600D01*
X39905900Y-144461600D02*
X36507900Y-144461600D01*
X39923900Y-144421600D02*
X36507900Y-144421600D01*
X39940900Y-144381600D02*
X36507900Y-144381600D01*
X39957900Y-144341600D02*
X36507900Y-144341600D01*
X39973900Y-144301600D02*
X36507900Y-144301600D01*
X39989900Y-144261600D02*
X36507900Y-144261600D01*
X40005900Y-144221600D02*
X36507900Y-144221600D01*
X40020900Y-144181600D02*
X36507900Y-144181600D01*
X40035900Y-144141600D02*
X36507900Y-144141600D01*
X40049900Y-144101600D02*
X36507900Y-144101600D01*
X40064900Y-144061600D02*
X36507900Y-144061600D01*
X40077900Y-144021600D02*
X36507900Y-144021600D01*
X40091900Y-143981600D02*
X36507900Y-143981600D01*
X40104900Y-143941600D02*
X36507900Y-143941600D01*
X40116900Y-143901600D02*
X36507900Y-143901600D01*
X40128900Y-143861600D02*
X36507900Y-143861600D01*
X40140900Y-143821600D02*
X36507900Y-143821600D01*
X40152900Y-143781600D02*
X36507900Y-143781600D01*
X40163900Y-143741600D02*
X36507900Y-143741600D01*
X40174900Y-143701600D02*
X36507900Y-143701600D01*
X40184900Y-143661600D02*
X36507900Y-143661600D01*
X40195900Y-143621600D02*
X30339900Y-143621600D01*
X40204900Y-143581600D02*
X30330900Y-143581600D01*
X40214900Y-143541600D02*
X30320900Y-143541600D01*
X40223900Y-143501600D02*
X30311900Y-143501600D01*
X40232900Y-143461600D02*
X30302900Y-143461600D01*
X40240900Y-143421600D02*
X30294900Y-143421600D01*
X40248900Y-143381600D02*
X30286900Y-143381600D01*
X40256900Y-143341600D02*
X30278900Y-143341600D01*
X40264900Y-143301600D02*
X30270900Y-143301600D01*
X40271900Y-143261600D02*
X30263900Y-143261600D01*
X40278900Y-143221600D02*
X30256900Y-143221600D01*
X40284900Y-143181600D02*
X30250900Y-143181600D01*
X40290900Y-143141600D02*
X30244900Y-143141600D01*
X40296900Y-143101600D02*
X30238900Y-143101600D01*
X40302900Y-143061600D02*
X30232900Y-143061600D01*
X40307900Y-143021600D02*
X30227900Y-143021600D01*
X40312900Y-142981600D02*
X30222900Y-142981600D01*
X40316900Y-142941600D02*
X30218900Y-142941600D01*
X40321900Y-142901600D02*
X30213900Y-142901600D01*
X40324900Y-142861600D02*
X30210900Y-142861600D01*
X40328900Y-142821600D02*
X30206900Y-142821600D01*
X40331900Y-142781600D02*
X30203900Y-142781600D01*
X40334900Y-142741600D02*
X30200900Y-142741600D01*
X40337900Y-142701600D02*
X30197900Y-142701600D01*
X40339900Y-142661600D02*
X30195900Y-142661600D01*
X40341900Y-142621600D02*
X30193900Y-142621600D01*
X40343900Y-142581600D02*
X30191900Y-142581600D01*
X40344900Y-142541600D02*
X30190900Y-142541600D01*
X40346900Y-142461600D02*
X30188900Y-142461600D01*
X40346900Y-142501600D02*
X30188900Y-142501600D01*
X40347900Y-142381600D02*
X30187900Y-142381600D01*
X40347900Y-142421600D02*
X30187900Y-142421600D01*
X40387900Y-142381600D02*
G75*
G02*
X30147900Y-142381600I-5120000J0D01*
G01*
X30147900Y-142381600D02*
G75*
G02*
X40387900Y-142381600I5120000J0D01*
G01*
%TO.C,U1*%
X44498700Y-129363200D02*
X44498700Y-130728200D01*
X44498700Y-130728200D02*
X45448700Y-130728200D01*
X54898700Y-129363200D02*
X54898700Y-130728200D01*
X54898700Y-130728200D02*
X53948700Y-130728200D01*
X45488700Y-133553200D02*
X45018700Y-133893200D01*
X45018700Y-133213200D01*
X45488700Y-133553200D01*
G36*
X45488700Y-133553200D02*
G01*
X45018700Y-133893200D01*
X45018700Y-133213200D01*
X45488700Y-133553200D01*
G37*
%TO.C,J1*%
X23688300Y-130189800D02*
X31528300Y-130189800D01*
X23688300Y-131759800D02*
X23688300Y-130189800D01*
X23688300Y-137429800D02*
X23688300Y-132359800D01*
X24208300Y-130189800D02*
X24208300Y-137429800D01*
X25308300Y-130189800D02*
X25308300Y-137429800D01*
X31528300Y-130189800D02*
X31528300Y-137429800D01*
X31528300Y-137429800D02*
X23688300Y-137429800D01*
X23688300Y-132059800D02*
X23078300Y-132499800D01*
X23078300Y-131619800D01*
X23688300Y-132059800D01*
G36*
X23688300Y-132059800D02*
G01*
X23078300Y-132499800D01*
X23078300Y-131619800D01*
X23688300Y-132059800D01*
G37*
%TO.C,R1*%
X61682364Y-122455000D02*
X61228236Y-122455000D01*
X61682364Y-123925000D02*
X61228236Y-123925000D01*
%TD*%
M02*
