%TF.GenerationSoftware,KiCad,Pcbnew,10.0.4*%
%TF.CreationDate,2026-07-06T22:31:50+03:00*%
%TF.ProjectId,LM2596project,4c4d3235-3936-4707-926f-6a6563742e6b,rev?*%
%TF.SameCoordinates,Original*%
%TF.FileFunction,Legend,Bot*%
%TF.FilePolarity,Positive*%
%FSLAX46Y46*%
G04 Gerber Fmt 4.6, Leading zero omitted, Abs format (unit mm)*
G04 Created by KiCad (PCBNEW 10.0.4) date 2026-07-06 22:31:50*
%MOMM*%
%LPD*%
G01*
G04 APERTURE LIST*
%ADD10C,1.387898*%
%ADD11C,0.250000*%
%ADD12C,0.500000*%
%ADD13C,0.000000*%
G04 APERTURE END LIST*
D10*
X40627300Y-134340600D02*
X65163700Y-134340600D01*
X65818947Y-134340600D02*
X63466452Y-131988101D01*
X65818947Y-134340600D02*
X63466452Y-136693099D01*
D11*
G36*
X25602071Y-135673095D02*
G01*
X26000370Y-135673095D01*
X26000370Y-135532411D01*
X25602071Y-135532411D01*
X25602071Y-135673095D01*
G37*
G36*
X26172744Y-132138574D02*
G01*
X25844177Y-132138574D01*
X25844177Y-131810312D01*
X25754723Y-131810312D01*
X25754723Y-132138574D01*
X25426155Y-132138574D01*
X25426155Y-132232364D01*
X25754723Y-132232364D01*
X25754723Y-132552810D01*
X25844177Y-132552810D01*
X25844177Y-132232364D01*
X26172744Y-132232364D01*
X26172744Y-132138574D01*
G37*
G36*
X75464858Y-135501225D02*
G01*
X75793425Y-135501225D01*
X75793425Y-135829487D01*
X75882879Y-135829487D01*
X75882879Y-135501225D01*
X76211447Y-135501225D01*
X76211447Y-135407435D01*
X75882879Y-135407435D01*
X75882879Y-135086989D01*
X75793425Y-135086989D01*
X75793425Y-135407435D01*
X75464858Y-135407435D01*
X75464858Y-135501225D01*
G37*
G36*
X76035531Y-131966704D02*
G01*
X75637232Y-131966704D01*
X75637232Y-132107388D01*
X76035531Y-132107388D01*
X76035531Y-131966704D01*
G37*
D12*
G36*
X37816620Y-137648494D02*
G01*
X37816620Y-137601600D01*
X36847953Y-137601600D01*
X36847953Y-137648494D01*
X36909380Y-137648494D01*
X36985082Y-137656525D01*
X37039195Y-137677925D01*
X37069804Y-137703588D01*
X37093906Y-137745336D01*
X37103807Y-137792264D01*
X37108927Y-137922046D01*
X37108927Y-139133491D01*
X37103860Y-139266051D01*
X37093906Y-139315818D01*
X37072365Y-139348794D01*
X37033089Y-139379687D01*
X36982312Y-139399509D01*
X36909380Y-139407043D01*
X36847953Y-139407043D01*
X36847953Y-139453937D01*
X37816620Y-139453937D01*
X37816620Y-139407043D01*
X37755193Y-139407043D01*
X37679582Y-139399019D01*
X37625378Y-139377611D01*
X37594489Y-139351991D01*
X37569324Y-139310200D01*
X37559423Y-139263273D01*
X37554304Y-139133491D01*
X37554304Y-137922046D01*
X37559571Y-137789490D01*
X37569935Y-137739597D01*
X37592030Y-137706690D01*
X37631484Y-137675849D01*
X37682262Y-137656028D01*
X37755193Y-137648494D01*
X37816620Y-137648494D01*
G37*
G36*
X38496470Y-138875570D02*
G01*
X38496470Y-138703623D01*
X38597212Y-138802851D01*
X38684904Y-138864335D01*
X38778485Y-138902056D01*
X38878955Y-138914649D01*
X38959300Y-138906492D01*
X39027189Y-138883241D01*
X39085218Y-138845406D01*
X39133986Y-138795337D01*
X39170155Y-138738438D01*
X39194516Y-138673581D01*
X39209465Y-138577708D01*
X39216376Y-138373651D01*
X39216376Y-137875151D01*
X39225245Y-137743585D01*
X39242999Y-137693679D01*
X39279349Y-137666539D01*
X39354373Y-137648494D01*
X39354373Y-137601600D01*
X38708229Y-137601600D01*
X38708229Y-137648494D01*
X38771853Y-137668884D01*
X38812032Y-137707845D01*
X38826603Y-137754168D01*
X38833892Y-137875151D01*
X38833892Y-138443138D01*
X38829761Y-138585918D01*
X38821558Y-138640975D01*
X38804657Y-138677948D01*
X38779914Y-138704478D01*
X38748883Y-138721480D01*
X38715068Y-138727071D01*
X38662563Y-138718206D01*
X38609812Y-138690228D01*
X38554795Y-138638421D01*
X38496470Y-138555124D01*
X38496470Y-137875151D01*
X38505215Y-137746872D01*
X38523093Y-137695633D01*
X38558151Y-137666462D01*
X38622133Y-137648494D01*
X38622133Y-137601600D01*
X37975867Y-137601600D01*
X37975867Y-137648494D01*
X38047780Y-137666686D01*
X38090661Y-137699785D01*
X38105868Y-137744078D01*
X38113864Y-137875151D01*
X38113864Y-138602018D01*
X38104998Y-138732685D01*
X38087241Y-138782269D01*
X38050929Y-138809525D01*
X37975867Y-138828676D01*
X37975867Y-138875570D01*
X38496470Y-138875570D01*
G37*
G36*
X40217039Y-137046680D02*
G01*
X40129384Y-137051887D01*
X40088567Y-137063166D01*
X40060273Y-137084242D01*
X40040085Y-137115312D01*
X40029357Y-137158932D01*
X40024454Y-137249890D01*
X40024454Y-137730560D01*
X40101608Y-137653973D01*
X40167946Y-137608927D01*
X40262553Y-137574196D01*
X40364684Y-137562521D01*
X40458582Y-137571907D01*
X40545616Y-137599678D01*
X40627611Y-137646418D01*
X40698495Y-137708989D01*
X40758592Y-137789401D01*
X40807985Y-137890661D01*
X40842011Y-137999176D01*
X40862948Y-138116744D01*
X40870144Y-138244691D01*
X40863292Y-138363627D01*
X40843154Y-138475398D01*
X40810061Y-138581013D01*
X40762476Y-138680025D01*
X40703980Y-138760880D01*
X40634450Y-138825989D01*
X40553912Y-138875622D01*
X40469188Y-138904832D01*
X40378361Y-138914649D01*
X40301870Y-138907414D01*
X40229883Y-138885916D01*
X40161107Y-138849680D01*
X40095392Y-138795696D01*
X40024454Y-138707531D01*
X40024454Y-138875570D01*
X39488829Y-138875570D01*
X39488829Y-138828676D01*
X39569160Y-138813183D01*
X39610340Y-138785078D01*
X39631684Y-138733668D01*
X39641847Y-138609834D01*
X39641847Y-137869778D01*
X40024454Y-137869778D01*
X40024454Y-138551216D01*
X40077996Y-138647152D01*
X40133043Y-138707025D01*
X40190015Y-138739850D01*
X40251233Y-138750518D01*
X40305227Y-138741686D01*
X40350906Y-138715629D01*
X40390574Y-138669918D01*
X40428707Y-138583518D01*
X40457043Y-138440551D01*
X40468487Y-138217946D01*
X40457931Y-138000436D01*
X40431966Y-137862636D01*
X40397412Y-137780996D01*
X40360841Y-137736107D01*
X40320941Y-137711360D01*
X40275902Y-137703205D01*
X40214511Y-137712205D01*
X40153304Y-137740193D01*
X40090347Y-137790728D01*
X40024454Y-137869778D01*
X39641847Y-137869778D01*
X39641847Y-137257706D01*
X39632774Y-137139383D01*
X39614492Y-137094673D01*
X39565337Y-137061087D01*
X39488829Y-137046680D01*
X39488829Y-136999785D01*
X40217039Y-136999785D01*
X40217039Y-137046680D01*
G37*
G36*
X42318871Y-138875570D02*
G01*
X42318871Y-137875151D01*
X42327956Y-137744054D01*
X42346226Y-137693923D01*
X42383009Y-137666572D01*
X42456868Y-137648494D01*
X42456868Y-137601600D01*
X41936387Y-137601600D01*
X41936387Y-137772325D01*
X41841080Y-137674559D01*
X41753204Y-137612713D01*
X41657315Y-137575326D01*
X41548407Y-137562521D01*
X41478728Y-137569970D01*
X41415267Y-137591914D01*
X41356432Y-137628833D01*
X41285284Y-137702120D01*
X41243714Y-137784049D01*
X41223849Y-137889514D01*
X41215015Y-138094604D01*
X41215015Y-138602018D01*
X41206149Y-138732685D01*
X41188393Y-138782269D01*
X41152080Y-138809525D01*
X41077018Y-138828676D01*
X41077018Y-138875570D01*
X41597500Y-138875570D01*
X41597500Y-138005944D01*
X41601746Y-137881755D01*
X41610445Y-137830333D01*
X41627714Y-137794959D01*
X41651477Y-137770493D01*
X41681414Y-137755279D01*
X41716324Y-137750099D01*
X41763366Y-137756633D01*
X41805228Y-137775989D01*
X41859273Y-137823103D01*
X41936387Y-137919359D01*
X41936387Y-138602018D01*
X41927520Y-138732685D01*
X41909764Y-138782269D01*
X41873452Y-138809525D01*
X41798389Y-138828676D01*
X41798389Y-138875570D01*
X42318871Y-138875570D01*
G37*
G36*
X43147465Y-139344516D02*
G01*
X43147465Y-138875570D01*
X43450692Y-138875570D01*
X43450692Y-138742702D01*
X43147465Y-138742702D01*
X43147465Y-137956240D01*
X43150832Y-137855473D01*
X43157723Y-137813847D01*
X43171958Y-137784805D01*
X43193871Y-137762067D01*
X43220109Y-137746719D01*
X43241742Y-137742283D01*
X43295051Y-137753933D01*
X43350138Y-137792213D01*
X43409782Y-137867336D01*
X43450692Y-137838393D01*
X43398051Y-137743384D01*
X43336799Y-137673864D01*
X43266650Y-137625530D01*
X43185855Y-137596181D01*
X43091411Y-137585968D01*
X43012704Y-137593833D01*
X42944904Y-137616418D01*
X42885759Y-137653379D01*
X42815426Y-137726940D01*
X42778536Y-137803955D01*
X42769560Y-137869315D01*
X42764858Y-138054670D01*
X42764858Y-138742702D01*
X42598163Y-138742702D01*
X42598163Y-138790452D01*
X42760451Y-138917564D01*
X42891254Y-139045685D01*
X43003947Y-139186485D01*
X43102402Y-139344516D01*
X43147465Y-139344516D01*
G37*
G36*
X64731544Y-137827231D02*
G01*
X64879956Y-137858035D01*
X65012790Y-137907635D01*
X65132225Y-137975692D01*
X65239908Y-138062845D01*
X65336863Y-138170673D01*
X65427021Y-138309226D01*
X65491024Y-138457061D01*
X65529860Y-138616147D01*
X65543126Y-138788974D01*
X65531523Y-138951651D01*
X65497807Y-139099332D01*
X65442786Y-139234412D01*
X65366131Y-139358828D01*
X65266399Y-139473953D01*
X65150747Y-139570724D01*
X65023154Y-139644426D01*
X64881783Y-139696139D01*
X64724119Y-139725634D01*
X64547104Y-139731385D01*
X64384909Y-139725916D01*
X64236983Y-139697117D01*
X64100854Y-139645866D01*
X63974510Y-139571774D01*
X63856507Y-139473220D01*
X63755141Y-139357592D01*
X63677359Y-139232856D01*
X63621609Y-139097650D01*
X63587485Y-138950043D01*
X63575750Y-138787630D01*
X63576681Y-138775662D01*
X64068999Y-138775662D01*
X64077246Y-138981515D01*
X64099786Y-139147910D01*
X64133755Y-139281026D01*
X64176954Y-139386392D01*
X64238293Y-139484177D01*
X64306647Y-139555744D01*
X64382412Y-139605300D01*
X64467183Y-139635136D01*
X64563590Y-139645411D01*
X64653104Y-139636852D01*
X64733721Y-139611863D01*
X64807345Y-139570429D01*
X64869547Y-139513450D01*
X64927773Y-139430039D01*
X64981490Y-139313363D01*
X65016045Y-139189150D01*
X65040473Y-139011261D01*
X65049878Y-138764671D01*
X65041287Y-138558915D01*
X65017938Y-138394670D01*
X64982955Y-138265073D01*
X64929162Y-138143052D01*
X64866574Y-138052014D01*
X64795743Y-137986269D01*
X64729815Y-137949281D01*
X64652400Y-137926250D01*
X64560782Y-137918126D01*
X64459640Y-137928543D01*
X64373669Y-137958330D01*
X64299678Y-138006987D01*
X64235694Y-138076273D01*
X64168914Y-138191048D01*
X64116662Y-138340277D01*
X64081846Y-138532008D01*
X64068999Y-138775662D01*
X63576681Y-138775662D01*
X63589774Y-138607347D01*
X63630618Y-138443519D01*
X63697612Y-138293258D01*
X63791661Y-138154309D01*
X63887799Y-138052208D01*
X63994998Y-137969246D01*
X64114376Y-137904149D01*
X64247629Y-137856519D01*
X64396948Y-137826853D01*
X64564934Y-137816521D01*
X64731544Y-137827231D01*
G37*
G36*
X66971092Y-139129570D02*
G01*
X66971092Y-138129151D01*
X66980177Y-137998054D01*
X66998447Y-137947923D01*
X67035230Y-137920572D01*
X67109089Y-137902494D01*
X67109089Y-137855600D01*
X66588608Y-137855600D01*
X66588608Y-138026325D01*
X66493301Y-137928559D01*
X66405426Y-137866713D01*
X66309536Y-137829326D01*
X66200628Y-137816521D01*
X66130949Y-137823970D01*
X66067489Y-137845914D01*
X66008653Y-137882833D01*
X65937505Y-137956120D01*
X65895935Y-138038049D01*
X65876071Y-138143514D01*
X65867237Y-138348604D01*
X65867237Y-138856018D01*
X65858370Y-138986685D01*
X65840614Y-139036269D01*
X65804302Y-139063525D01*
X65729239Y-139082676D01*
X65729239Y-139129570D01*
X66249721Y-139129570D01*
X66249721Y-138259944D01*
X66253967Y-138135755D01*
X66262666Y-138084333D01*
X66279935Y-138048959D01*
X66303699Y-138024493D01*
X66333635Y-138009279D01*
X66368545Y-138004099D01*
X66415588Y-138010633D01*
X66457449Y-138029989D01*
X66511494Y-138077103D01*
X66588608Y-138173359D01*
X66588608Y-138856018D01*
X66579742Y-138986685D01*
X66561985Y-139036269D01*
X66525673Y-139063525D01*
X66450611Y-139082676D01*
X66450611Y-139129570D01*
X66971092Y-139129570D01*
G37*
G36*
X67799686Y-139598516D02*
G01*
X67799686Y-139129570D01*
X68102913Y-139129570D01*
X68102913Y-138996702D01*
X67799686Y-138996702D01*
X67799686Y-138210240D01*
X67803053Y-138109473D01*
X67809944Y-138067847D01*
X67824180Y-138038805D01*
X67846092Y-138016067D01*
X67872331Y-138000719D01*
X67893964Y-137996283D01*
X67947272Y-138007933D01*
X68002360Y-138046213D01*
X68062003Y-138121336D01*
X68102913Y-138092393D01*
X68050272Y-137997384D01*
X67989020Y-137927864D01*
X67918872Y-137879530D01*
X67838076Y-137850181D01*
X67743632Y-137839968D01*
X67664925Y-137847833D01*
X67597125Y-137870418D01*
X67537980Y-137907379D01*
X67467647Y-137980940D01*
X67430757Y-138057955D01*
X67421781Y-138123315D01*
X67417080Y-138308670D01*
X67417080Y-138996702D01*
X67250384Y-138996702D01*
X67250384Y-139044452D01*
X67412672Y-139171564D01*
X67543475Y-139299685D01*
X67656168Y-139440485D01*
X67754623Y-139598516D01*
X67799686Y-139598516D01*
G37*
G36*
X68911968Y-137300680D02*
G01*
X68824313Y-137305887D01*
X68783496Y-137317166D01*
X68755202Y-137338242D01*
X68735014Y-137369312D01*
X68724285Y-137412932D01*
X68719382Y-137503890D01*
X68719382Y-137984560D01*
X68796537Y-137907973D01*
X68862875Y-137862927D01*
X68957481Y-137828196D01*
X69059613Y-137816521D01*
X69153511Y-137825907D01*
X69240544Y-137853678D01*
X69322540Y-137900418D01*
X69393424Y-137962989D01*
X69453521Y-138043401D01*
X69502913Y-138144661D01*
X69536940Y-138253176D01*
X69557876Y-138370744D01*
X69565073Y-138498691D01*
X69558220Y-138617627D01*
X69538082Y-138729398D01*
X69504990Y-138835013D01*
X69457404Y-138934025D01*
X69398909Y-139014880D01*
X69329379Y-139079989D01*
X69248841Y-139129622D01*
X69164117Y-139158832D01*
X69073290Y-139168649D01*
X68996799Y-139161414D01*
X68924812Y-139139916D01*
X68856036Y-139103680D01*
X68790321Y-139049696D01*
X68719382Y-138961531D01*
X68719382Y-139129570D01*
X68183758Y-139129570D01*
X68183758Y-139082676D01*
X68264089Y-139067183D01*
X68305269Y-139039078D01*
X68326613Y-138987668D01*
X68336776Y-138863834D01*
X68336776Y-138123778D01*
X68719382Y-138123778D01*
X68719382Y-138805216D01*
X68772925Y-138901152D01*
X68827972Y-138961025D01*
X68884943Y-138993850D01*
X68946162Y-139004518D01*
X69000156Y-138995686D01*
X69045835Y-138969629D01*
X69085502Y-138923918D01*
X69123636Y-138837518D01*
X69151972Y-138694551D01*
X69163416Y-138471946D01*
X69152860Y-138254436D01*
X69126895Y-138116636D01*
X69092341Y-138034996D01*
X69055770Y-137990107D01*
X69015870Y-137965360D01*
X68970830Y-137957205D01*
X68909440Y-137966205D01*
X68848233Y-137994193D01*
X68785275Y-138044728D01*
X68719382Y-138123778D01*
X68336776Y-138123778D01*
X68336776Y-137511706D01*
X68327703Y-137393383D01*
X68309421Y-137348673D01*
X68260266Y-137315087D01*
X68183758Y-137300680D01*
X68183758Y-137253785D01*
X68911968Y-137253785D01*
X68911968Y-137300680D01*
G37*
G36*
X71013800Y-139129570D02*
G01*
X71013800Y-138129151D01*
X71022884Y-137998054D01*
X71041155Y-137947923D01*
X71077938Y-137920572D01*
X71151797Y-137902494D01*
X71151797Y-137855600D01*
X70631315Y-137855600D01*
X70631315Y-138026325D01*
X70536009Y-137928559D01*
X70448133Y-137866713D01*
X70352244Y-137829326D01*
X70243336Y-137816521D01*
X70173657Y-137823970D01*
X70110196Y-137845914D01*
X70051361Y-137882833D01*
X69980213Y-137956120D01*
X69938643Y-138038049D01*
X69918778Y-138143514D01*
X69909944Y-138348604D01*
X69909944Y-138856018D01*
X69901078Y-138986685D01*
X69883322Y-139036269D01*
X69847009Y-139063525D01*
X69771947Y-139082676D01*
X69771947Y-139129570D01*
X70292428Y-139129570D01*
X70292428Y-138259944D01*
X70296675Y-138135755D01*
X70305373Y-138084333D01*
X70322643Y-138048959D01*
X70346406Y-138024493D01*
X70376343Y-138009279D01*
X70411253Y-138004099D01*
X70458295Y-138010633D01*
X70500157Y-138029989D01*
X70554202Y-138077103D01*
X70631315Y-138173359D01*
X70631315Y-138856018D01*
X70622449Y-138986685D01*
X70604693Y-139036269D01*
X70568381Y-139063525D01*
X70493318Y-139082676D01*
X70493318Y-139129570D01*
X71013800Y-139129570D01*
G37*
G36*
X71842394Y-139598516D02*
G01*
X71842394Y-139129570D01*
X72145621Y-139129570D01*
X72145621Y-138996702D01*
X71842394Y-138996702D01*
X71842394Y-138210240D01*
X71845761Y-138109473D01*
X71852652Y-138067847D01*
X71866887Y-138038805D01*
X71888800Y-138016067D01*
X71915038Y-138000719D01*
X71936671Y-137996283D01*
X71989980Y-138007933D01*
X72045067Y-138046213D01*
X72104710Y-138121336D01*
X72145621Y-138092393D01*
X72092980Y-137997384D01*
X72031728Y-137927864D01*
X71961579Y-137879530D01*
X71880784Y-137850181D01*
X71786340Y-137839968D01*
X71707633Y-137847833D01*
X71639833Y-137870418D01*
X71580687Y-137907379D01*
X71510355Y-137980940D01*
X71473465Y-138057955D01*
X71464489Y-138123315D01*
X71459787Y-138308670D01*
X71459787Y-138996702D01*
X71293091Y-138996702D01*
X71293091Y-139044452D01*
X71455379Y-139171564D01*
X71586183Y-139299685D01*
X71698876Y-139440485D01*
X71797331Y-139598516D01*
X71842394Y-139598516D01*
G37*
D13*
%TO.C,G\u002A\u002A\u002A*%
G36*
X46013697Y-138172425D02*
G01*
X46002013Y-138184109D01*
X45990330Y-138172425D01*
X46002013Y-138160742D01*
X46013697Y-138172425D01*
G37*
G36*
X48584074Y-138172425D02*
G01*
X48572391Y-138184109D01*
X48560707Y-138172425D01*
X48572391Y-138160742D01*
X48584074Y-138172425D01*
G37*
G36*
X45955966Y-138162428D02*
G01*
X45959174Y-138176320D01*
X45955749Y-138179117D01*
X45928018Y-138176320D01*
X45924362Y-138169292D01*
X45943596Y-138160742D01*
X45955966Y-138162428D01*
G37*
G36*
X48643179Y-138162428D02*
G01*
X48646386Y-138176320D01*
X48642961Y-138179117D01*
X48615230Y-138176320D01*
X48611574Y-138169292D01*
X48630808Y-138160742D01*
X48643179Y-138162428D01*
G37*
G36*
X55669671Y-136933595D02*
G01*
X55687662Y-136969022D01*
X55680378Y-136998565D01*
X55642307Y-137015756D01*
X55611480Y-137010902D01*
X55578954Y-136984393D01*
X55582510Y-136945655D01*
X55590893Y-136935387D01*
X55630177Y-136920775D01*
X55669671Y-136933595D01*
G37*
G36*
X55843024Y-136938793D02*
G01*
X55862915Y-136969022D01*
X55851445Y-136992441D01*
X55810339Y-137011539D01*
X55808137Y-137011840D01*
X55768436Y-137006496D01*
X55757763Y-136969022D01*
X55757775Y-136966930D01*
X55769328Y-136930827D01*
X55810339Y-136926504D01*
X55843024Y-136938793D01*
G37*
G36*
X55816819Y-136502368D02*
G01*
X55835400Y-136511753D01*
X55845762Y-136539656D01*
X55850256Y-136595477D01*
X55851231Y-136688617D01*
X55851059Y-136737904D01*
X55848713Y-136812227D01*
X55841737Y-136853675D01*
X55827782Y-136871651D01*
X55804497Y-136875553D01*
X55792175Y-136874865D01*
X55773595Y-136865480D01*
X55763233Y-136837578D01*
X55758739Y-136781757D01*
X55757763Y-136688617D01*
X55757935Y-136639330D01*
X55760281Y-136565007D01*
X55767257Y-136523558D01*
X55781212Y-136505583D01*
X55804497Y-136501680D01*
X55816819Y-136502368D01*
G37*
G36*
X55000409Y-136502677D02*
G01*
X55015722Y-136511562D01*
X55025385Y-136536202D01*
X55030690Y-136584339D01*
X55032926Y-136663718D01*
X55033384Y-136782085D01*
X55033218Y-136864636D01*
X55031737Y-136956516D01*
X55027631Y-137014496D01*
X55019608Y-137046322D01*
X55006378Y-137059739D01*
X54986650Y-137062490D01*
X54972891Y-137061493D01*
X54957578Y-137052608D01*
X54947915Y-137027969D01*
X54942610Y-136979832D01*
X54940374Y-136900452D01*
X54939916Y-136782085D01*
X54940082Y-136699534D01*
X54941563Y-136607654D01*
X54945669Y-136549674D01*
X54953692Y-136517848D01*
X54966922Y-136504431D01*
X54986650Y-136501680D01*
X55000409Y-136502677D01*
G37*
G36*
X55584871Y-136324566D02*
G01*
X55640928Y-136361478D01*
X55657572Y-136380967D01*
X55673169Y-136413712D01*
X55682301Y-136462990D01*
X55686592Y-136538860D01*
X55687662Y-136651379D01*
X55687628Y-136691223D01*
X55686636Y-136786283D01*
X55683064Y-136845043D01*
X55675318Y-136875383D01*
X55661805Y-136885183D01*
X55640928Y-136882324D01*
X55629518Y-136878632D01*
X55610718Y-136863622D01*
X55600051Y-136831429D01*
X55595286Y-136772209D01*
X55594194Y-136676119D01*
X55592968Y-136575858D01*
X55587112Y-136491491D01*
X55574591Y-136440326D01*
X55553415Y-136415016D01*
X55521592Y-136408212D01*
X55495894Y-136401331D01*
X55476901Y-136369562D01*
X55492936Y-136330322D01*
X55527621Y-136315200D01*
X55584871Y-136324566D01*
G37*
G36*
X55371291Y-136490460D02*
G01*
X55455789Y-136546617D01*
X55503239Y-136608056D01*
X55524092Y-136688617D01*
X55511816Y-136750848D01*
X55463664Y-136825113D01*
X55390631Y-136878469D01*
X55305206Y-136898920D01*
X55254699Y-136893961D01*
X55169303Y-136855608D01*
X55113102Y-136784926D01*
X55092864Y-136688617D01*
X55196954Y-136688617D01*
X55201567Y-136726319D01*
X55233865Y-136781440D01*
X55286037Y-136805802D01*
X55345012Y-136795601D01*
X55397722Y-136747035D01*
X55418447Y-136711893D01*
X55422446Y-136675933D01*
X55397722Y-136630199D01*
X55373100Y-136601004D01*
X55315639Y-136571999D01*
X55258415Y-136579469D01*
X55214497Y-136619609D01*
X55196954Y-136688617D01*
X55092864Y-136688617D01*
X55094758Y-136645462D01*
X55112786Y-136584829D01*
X55157895Y-136534251D01*
X55189149Y-136511064D01*
X55279631Y-136478494D01*
X55371291Y-136490460D01*
G37*
G36*
X46317469Y-137191009D02*
G01*
X46317469Y-137553198D01*
X46539456Y-137553198D01*
X46761443Y-137553198D01*
X46761443Y-137191009D01*
X46761443Y-136828819D01*
X46901645Y-136828819D01*
X47041848Y-136828819D01*
X47041848Y-137331211D01*
X47041848Y-137833603D01*
X46679658Y-137833603D01*
X46317469Y-137833603D01*
X46317469Y-138055590D01*
X46317469Y-138277577D01*
X46679658Y-138277577D01*
X47041848Y-138277577D01*
X47041848Y-138417780D01*
X47041848Y-138557982D01*
X46551139Y-138557982D01*
X46060431Y-138557982D01*
X46057967Y-138365204D01*
X46057940Y-138363045D01*
X46057000Y-138255035D01*
X46056345Y-138110917D01*
X46055974Y-137941055D01*
X46055882Y-137755813D01*
X46056069Y-137565556D01*
X46056532Y-137380647D01*
X46057267Y-137211451D01*
X46058273Y-137068332D01*
X46060431Y-136828819D01*
X46188950Y-136828819D01*
X46317469Y-136828819D01*
X46317469Y-137191009D01*
G37*
G36*
X54719891Y-136494455D02*
G01*
X54795618Y-136536772D01*
X54849375Y-136603221D01*
X54869815Y-136688617D01*
X54852740Y-136757108D01*
X54805727Y-136826412D01*
X54741916Y-136878423D01*
X54674513Y-136898920D01*
X54659571Y-136898539D01*
X54564778Y-136875901D01*
X54492707Y-136824990D01*
X54447403Y-136755141D01*
X54435271Y-136688617D01*
X54542676Y-136688617D01*
X54547289Y-136726319D01*
X54579587Y-136781440D01*
X54631759Y-136805802D01*
X54690734Y-136795601D01*
X54743445Y-136747035D01*
X54764170Y-136711893D01*
X54768168Y-136675933D01*
X54743445Y-136630199D01*
X54718822Y-136601004D01*
X54661362Y-136571999D01*
X54604138Y-136579469D01*
X54560219Y-136619609D01*
X54542676Y-136688617D01*
X54435271Y-136688617D01*
X54432914Y-136675691D01*
X54453288Y-136595976D01*
X54512570Y-136525332D01*
X54547911Y-136502963D01*
X54633541Y-136481457D01*
X54719891Y-136494455D01*
G37*
G36*
X53439698Y-136502866D02*
G01*
X53498830Y-136515744D01*
X53516882Y-136537426D01*
X53492441Y-136561178D01*
X53424091Y-136580269D01*
X53416799Y-136581491D01*
X53334432Y-136608513D01*
X53291798Y-136656003D01*
X53285008Y-136728096D01*
X53302052Y-136779424D01*
X53345218Y-136801249D01*
X53356663Y-136802134D01*
X53401321Y-136785079D01*
X53418316Y-136741749D01*
X53401179Y-136685522D01*
X53388685Y-136661997D01*
X53396125Y-136645397D01*
X53441692Y-136641883D01*
X53454412Y-136642172D01*
X53501576Y-136656481D01*
X53524241Y-136700780D01*
X53526679Y-136768501D01*
X53496141Y-136832950D01*
X53439788Y-136877387D01*
X53368173Y-136896906D01*
X53291851Y-136886600D01*
X53221374Y-136841565D01*
X53198543Y-136815094D01*
X53165231Y-136735108D01*
X53176577Y-136651265D01*
X53232323Y-136569984D01*
X53271431Y-136535481D01*
X53328828Y-136508561D01*
X53407576Y-136501680D01*
X53439698Y-136502866D01*
G37*
G36*
X53099248Y-136488905D02*
G01*
X53117285Y-136522322D01*
X53108734Y-136549982D01*
X53070551Y-136578552D01*
X53042647Y-136593199D01*
X53027677Y-136628986D01*
X53023816Y-136698113D01*
X53023856Y-136709440D01*
X53027729Y-136770658D01*
X53041579Y-136798723D01*
X53070551Y-136805452D01*
X53100762Y-136813133D01*
X53117285Y-136852186D01*
X53109604Y-136882397D01*
X53070551Y-136898920D01*
X53034770Y-136911529D01*
X53023816Y-136957338D01*
X53013730Y-137002064D01*
X52977082Y-137015756D01*
X52941301Y-137003147D01*
X52930348Y-136957338D01*
X52924547Y-136918918D01*
X52906981Y-136898920D01*
X52893400Y-136890157D01*
X52883614Y-136852186D01*
X52887996Y-136825023D01*
X52906981Y-136805452D01*
X52916439Y-136794534D01*
X52926459Y-136748462D01*
X52930348Y-136678602D01*
X52930376Y-136671709D01*
X52940086Y-136572150D01*
X52967068Y-136515033D01*
X53003164Y-136490068D01*
X53055852Y-136477893D01*
X53099248Y-136488905D01*
G37*
G36*
X48490606Y-137494781D02*
G01*
X48490931Y-137671401D01*
X48492238Y-137837823D01*
X48494712Y-137965027D01*
X48498529Y-138057059D01*
X48503868Y-138117966D01*
X48510904Y-138151793D01*
X48519815Y-138162587D01*
X48537034Y-138165660D01*
X48519815Y-138176218D01*
X48504587Y-138198843D01*
X48494045Y-138263931D01*
X48490606Y-138372993D01*
X48490606Y-138557982D01*
X48350403Y-138557982D01*
X48210201Y-138557982D01*
X48210201Y-138195793D01*
X48210201Y-137833603D01*
X47988214Y-137833603D01*
X47766227Y-137833603D01*
X47766227Y-138195793D01*
X47766227Y-138557982D01*
X47626024Y-138557982D01*
X47485822Y-138557982D01*
X47485822Y-138055590D01*
X47485822Y-137553198D01*
X47848012Y-137553198D01*
X48210201Y-137553198D01*
X48210201Y-137331211D01*
X48210201Y-137109224D01*
X47848012Y-137109224D01*
X47485822Y-137109224D01*
X47485822Y-136969022D01*
X47485822Y-136828819D01*
X47988214Y-136828819D01*
X48490606Y-136828819D01*
X48490606Y-137494781D01*
G37*
G36*
X53887233Y-136604960D02*
G01*
X53813063Y-136708240D01*
X53874097Y-136788261D01*
X53911289Y-136839150D01*
X53931069Y-136877608D01*
X53921291Y-136894861D01*
X53882556Y-136898761D01*
X53829441Y-136877427D01*
X53771563Y-136812627D01*
X53713145Y-136726653D01*
X53706279Y-136894571D01*
X53705020Y-136923837D01*
X53699878Y-136999432D01*
X53690947Y-137041101D01*
X53674763Y-137058802D01*
X53647862Y-137062490D01*
X53628869Y-137061253D01*
X53613333Y-137052199D01*
X53603739Y-137027536D01*
X53598658Y-136979484D01*
X53596658Y-136900261D01*
X53596310Y-136782085D01*
X53596546Y-136675095D01*
X53598247Y-136591907D01*
X53602871Y-136540756D01*
X53611879Y-136513857D01*
X53626731Y-136503427D01*
X53648885Y-136501680D01*
X53651869Y-136501698D01*
X53684005Y-136508606D01*
X53698243Y-136536697D01*
X53701461Y-136598655D01*
X53701461Y-136695629D01*
X53771709Y-136598655D01*
X53797016Y-136565872D01*
X53850317Y-136516576D01*
X53901680Y-136501680D01*
X53961403Y-136501680D01*
X53887233Y-136604960D01*
G37*
G36*
X54368698Y-136501936D02*
G01*
X54389866Y-136508548D01*
X54400259Y-136531720D01*
X54402287Y-136581466D01*
X54398361Y-136667797D01*
X54395494Y-136708464D01*
X54380011Y-136802983D01*
X54349841Y-136861257D01*
X54299312Y-136890749D01*
X54222754Y-136898920D01*
X54208287Y-136898656D01*
X54158875Y-136887959D01*
X54142725Y-136858028D01*
X54141870Y-136845823D01*
X54138209Y-136829229D01*
X54129328Y-136858028D01*
X54115913Y-136880586D01*
X54073621Y-136898920D01*
X54060016Y-136897806D01*
X54043181Y-136886696D01*
X54033707Y-136856134D01*
X54029534Y-136797032D01*
X54028600Y-136700300D01*
X54028901Y-136633924D01*
X54031544Y-136562360D01*
X54038731Y-136522557D01*
X54052611Y-136505376D01*
X54075334Y-136501680D01*
X54089676Y-136502659D01*
X54110499Y-136515702D01*
X54119883Y-136552912D01*
X54122069Y-136625526D01*
X54122613Y-136655244D01*
X54135290Y-136741848D01*
X54166695Y-136790340D01*
X54219388Y-136805452D01*
X54225468Y-136805176D01*
X54270877Y-136778929D01*
X54299223Y-136712226D01*
X54309005Y-136608368D01*
X54309084Y-136592103D01*
X54313259Y-136533827D01*
X54327829Y-136507707D01*
X54358376Y-136501680D01*
X54368698Y-136501936D01*
G37*
G36*
X49740744Y-136603892D02*
G01*
X49749365Y-136604037D01*
X49891558Y-136607094D01*
X49996583Y-136611435D01*
X50073531Y-136618189D01*
X50131491Y-136628484D01*
X50179556Y-136643447D01*
X50226816Y-136664208D01*
X50321159Y-136722321D01*
X50416137Y-136825426D01*
X50474381Y-136957338D01*
X50475279Y-136960947D01*
X50482590Y-137018487D01*
X50488699Y-137120502D01*
X50493552Y-137264971D01*
X50497095Y-137449875D01*
X50499277Y-137673195D01*
X50500043Y-137932913D01*
X50500173Y-138815020D01*
X50231452Y-138815020D01*
X49962731Y-138815020D01*
X49962731Y-138290360D01*
X49962269Y-138164456D01*
X49959440Y-137985353D01*
X49954095Y-137848471D01*
X49946301Y-137755294D01*
X49936126Y-137707310D01*
X49930779Y-137696706D01*
X49872582Y-137634064D01*
X49788645Y-137593813D01*
X49693667Y-137578604D01*
X49602345Y-137591089D01*
X49529378Y-137633921D01*
X49472023Y-137691276D01*
X49472023Y-138253148D01*
X49472023Y-138815020D01*
X49203301Y-138815020D01*
X48934580Y-138815020D01*
X48934580Y-138220310D01*
X48934747Y-138113431D01*
X48936510Y-137914021D01*
X48940805Y-137753460D01*
X48948376Y-137626370D01*
X48959969Y-137527375D01*
X48976328Y-137451099D01*
X48998199Y-137392164D01*
X49026327Y-137345194D01*
X49061456Y-137304813D01*
X49131872Y-137249077D01*
X49224979Y-137208747D01*
X49344794Y-137186408D01*
X49500439Y-137179456D01*
X49564436Y-137180652D01*
X49689008Y-137195070D01*
X49782924Y-137229583D01*
X49856118Y-137288903D01*
X49918525Y-137377741D01*
X49985659Y-137494781D01*
X49985879Y-137244407D01*
X49985884Y-137234658D01*
X49984008Y-137113354D01*
X49974161Y-137030778D01*
X49950092Y-136979447D01*
X49905552Y-136951878D01*
X49834292Y-136940586D01*
X49730061Y-136938088D01*
X49676188Y-136938407D01*
X49576681Y-136945038D01*
X49512189Y-136962354D01*
X49474765Y-136993346D01*
X49456458Y-137041002D01*
X49442814Y-137109224D01*
X49188697Y-137109224D01*
X48934580Y-137109224D01*
X48934580Y-136990152D01*
X48935051Y-136967962D01*
X48960410Y-136840672D01*
X49024218Y-136739832D01*
X49126186Y-136665767D01*
X49266024Y-136618801D01*
X49290522Y-136615065D01*
X49368513Y-136608971D01*
X49476805Y-136604849D01*
X49604511Y-136603042D01*
X49740744Y-136603892D01*
G37*
G36*
X53343113Y-137162235D02*
G01*
X53485262Y-137168610D01*
X53613202Y-137179124D01*
X53716130Y-137193511D01*
X53783246Y-137211508D01*
X53847190Y-137243396D01*
X53955128Y-137327930D01*
X54027393Y-137438289D01*
X54065690Y-137577653D01*
X54071725Y-137749198D01*
X54069802Y-137780012D01*
X54053280Y-137893429D01*
X54019503Y-137982855D01*
X53963594Y-138051553D01*
X53880673Y-138102786D01*
X53765862Y-138139814D01*
X53614282Y-138165902D01*
X53421057Y-138184311D01*
X53325309Y-138191547D01*
X53217262Y-138201310D01*
X53142713Y-138211271D01*
X53093789Y-138222948D01*
X53062623Y-138237856D01*
X53041342Y-138257514D01*
X53010399Y-138302513D01*
X53005079Y-138352473D01*
X53036825Y-138412580D01*
X53043020Y-138421018D01*
X53067636Y-138444082D01*
X53104285Y-138457227D01*
X53164521Y-138463140D01*
X53259899Y-138464514D01*
X53336450Y-138464109D01*
X53401193Y-138460512D01*
X53439998Y-138450120D01*
X53464518Y-138429336D01*
X53486403Y-138394560D01*
X53526208Y-138324607D01*
X53768694Y-138324459D01*
X54011179Y-138324311D01*
X53999786Y-138442887D01*
X53995155Y-138479512D01*
X53961187Y-138588556D01*
X53894602Y-138672558D01*
X53788508Y-138741250D01*
X53759107Y-138755085D01*
X53699226Y-138776382D01*
X53627964Y-138790952D01*
X53533538Y-138800845D01*
X53404166Y-138808111D01*
X53313052Y-138810642D01*
X53179089Y-138810061D01*
X53055151Y-138805072D01*
X52959529Y-138796165D01*
X52822390Y-138769865D01*
X52694438Y-138722803D01*
X52603929Y-138654377D01*
X52546690Y-138559659D01*
X52518544Y-138433719D01*
X52515319Y-138271628D01*
X52522949Y-138165602D01*
X52542672Y-138065471D01*
X52579095Y-137992404D01*
X52638037Y-137935675D01*
X52725318Y-137884559D01*
X52729128Y-137882662D01*
X52782189Y-137860051D01*
X52842400Y-137843234D01*
X52919656Y-137830555D01*
X53023849Y-137820357D01*
X53164875Y-137810984D01*
X53232211Y-137806899D01*
X53355763Y-137797483D01*
X53443001Y-137785871D01*
X53501155Y-137769500D01*
X53537457Y-137745809D01*
X53559138Y-137712236D01*
X53573430Y-137666217D01*
X53576655Y-137638312D01*
X53555076Y-137578568D01*
X53497369Y-137532254D01*
X53410355Y-137502186D01*
X53300858Y-137491180D01*
X53175702Y-137502053D01*
X53131298Y-137512188D01*
X53081966Y-137540310D01*
X53048808Y-137594177D01*
X53015383Y-137670034D01*
X52749446Y-137670034D01*
X52483510Y-137670034D01*
X52499174Y-137559040D01*
X52530757Y-137431554D01*
X52594657Y-137322707D01*
X52692809Y-137243024D01*
X52829110Y-137188122D01*
X52848448Y-137183415D01*
X52939421Y-137170588D01*
X53059391Y-137162960D01*
X53197555Y-137160263D01*
X53343113Y-137162235D01*
G37*
G36*
X54934464Y-137164309D02*
G01*
X55053687Y-137173107D01*
X55140620Y-137192230D01*
X55205396Y-137226202D01*
X55258146Y-137279543D01*
X55309001Y-137356775D01*
X55362631Y-137448046D01*
X55355735Y-137307844D01*
X55348839Y-137167642D01*
X55613839Y-137167642D01*
X55878839Y-137167642D01*
X55870377Y-137810236D01*
X55868864Y-137921714D01*
X55866184Y-138089499D01*
X55863149Y-138219841D01*
X55859275Y-138318716D01*
X55854079Y-138392097D01*
X55847074Y-138445958D01*
X55837777Y-138486275D01*
X55825703Y-138519022D01*
X55810368Y-138550172D01*
X55782991Y-138596905D01*
X55724828Y-138667899D01*
X55651300Y-138721342D01*
X55556237Y-138759364D01*
X55433467Y-138784094D01*
X55276818Y-138797664D01*
X55080118Y-138802202D01*
X54982664Y-138801776D01*
X54811885Y-138795283D01*
X54678326Y-138779628D01*
X54575856Y-138752890D01*
X54498347Y-138713146D01*
X54439667Y-138658474D01*
X54393687Y-138586952D01*
X54389822Y-138578986D01*
X54365628Y-138501603D01*
X54355739Y-138418940D01*
X54355739Y-138324311D01*
X54624460Y-138324311D01*
X54683157Y-138324399D01*
X54779795Y-138325666D01*
X54841230Y-138329499D01*
X54875349Y-138337230D01*
X54890038Y-138350193D01*
X54893182Y-138369721D01*
X54910359Y-138417843D01*
X54961850Y-138457883D01*
X55035984Y-138482228D01*
X55120896Y-138488713D01*
X55204719Y-138475175D01*
X55275587Y-138439451D01*
X55300833Y-138417754D01*
X55320856Y-138389709D01*
X55331748Y-138349123D01*
X55336263Y-138284602D01*
X55337156Y-138184750D01*
X55337156Y-137978479D01*
X55260071Y-138055564D01*
X55226324Y-138086880D01*
X55177500Y-138118246D01*
X55115759Y-138136923D01*
X55024197Y-138149653D01*
X54845993Y-138158539D01*
X54669756Y-138141705D01*
X54524503Y-138097057D01*
X54413050Y-138025506D01*
X54338214Y-137927962D01*
X54320208Y-137885971D01*
X54290405Y-137753958D01*
X54288663Y-137674550D01*
X54823438Y-137674550D01*
X54823865Y-137692460D01*
X54840319Y-137759450D01*
X54884755Y-137802975D01*
X54962808Y-137826528D01*
X55080118Y-137833603D01*
X55109094Y-137833294D01*
X55217438Y-137822952D01*
X55287745Y-137795376D01*
X55325652Y-137747074D01*
X55336798Y-137674550D01*
X55336109Y-137645424D01*
X55323448Y-137575801D01*
X55287526Y-137533868D01*
X55218832Y-137506037D01*
X55206331Y-137502490D01*
X55156798Y-137490663D01*
X55111609Y-137487232D01*
X55053982Y-137492153D01*
X54967138Y-137505382D01*
X54926321Y-137513462D01*
X54863043Y-137541118D01*
X54831953Y-137591042D01*
X54823438Y-137674550D01*
X54288663Y-137674550D01*
X54287102Y-137603368D01*
X54311148Y-137449217D01*
X54314572Y-137436821D01*
X54367402Y-137331567D01*
X54451850Y-137242025D01*
X54554359Y-137183033D01*
X54585745Y-137175837D01*
X54662285Y-137167582D01*
X54762874Y-137162896D01*
X54874027Y-137162639D01*
X54934464Y-137164309D01*
G37*
G36*
X52295529Y-137803611D02*
G01*
X52295464Y-137809015D01*
X52292862Y-138002406D01*
X52289972Y-138155043D01*
X52286383Y-138272761D01*
X52281683Y-138361395D01*
X52275463Y-138426778D01*
X52267312Y-138474747D01*
X52256819Y-138511134D01*
X52243573Y-138541776D01*
X52192270Y-138620301D01*
X52087228Y-138710643D01*
X51948931Y-138771083D01*
X51945062Y-138772165D01*
X51867497Y-138785755D01*
X51757543Y-138795433D01*
X51626478Y-138801198D01*
X51485584Y-138803048D01*
X51346139Y-138800980D01*
X51219423Y-138794992D01*
X51116717Y-138785082D01*
X51049299Y-138771249D01*
X50961832Y-138731000D01*
X50863296Y-138647307D01*
X50801798Y-138537791D01*
X50780578Y-138406847D01*
X50780578Y-138324311D01*
X51049299Y-138324311D01*
X51107996Y-138324399D01*
X51204634Y-138325666D01*
X51266069Y-138329499D01*
X51300188Y-138337230D01*
X51314877Y-138350193D01*
X51318021Y-138369721D01*
X51335198Y-138417843D01*
X51386689Y-138457883D01*
X51460823Y-138482228D01*
X51545735Y-138488713D01*
X51629558Y-138475175D01*
X51700426Y-138439451D01*
X51728586Y-138414809D01*
X51747048Y-138386598D01*
X51756956Y-138344867D01*
X51760876Y-138278548D01*
X51761373Y-138176571D01*
X51761312Y-138156627D01*
X51760508Y-138063916D01*
X51757760Y-138010675D01*
X51751422Y-137990685D01*
X51739848Y-137997729D01*
X51721391Y-138025589D01*
X51685666Y-138070580D01*
X51629803Y-138108295D01*
X51551110Y-138132444D01*
X51441787Y-138145281D01*
X51294030Y-138149058D01*
X51202661Y-138148384D01*
X51113043Y-138144303D01*
X51046952Y-138134595D01*
X50991189Y-138117092D01*
X50932555Y-138089622D01*
X50847289Y-138035553D01*
X50778083Y-137958275D01*
X50736324Y-137856577D01*
X50716304Y-137720719D01*
X50713988Y-137674550D01*
X51248277Y-137674550D01*
X51248704Y-137692460D01*
X51265158Y-137759450D01*
X51309594Y-137802975D01*
X51387647Y-137826528D01*
X51504957Y-137833603D01*
X51533933Y-137833294D01*
X51642277Y-137822952D01*
X51712584Y-137795376D01*
X51750491Y-137747074D01*
X51761637Y-137674550D01*
X51760538Y-137638475D01*
X51745751Y-137570758D01*
X51705881Y-137530643D01*
X51631053Y-137505332D01*
X51579915Y-137494325D01*
X51522337Y-137487609D01*
X51462926Y-137491441D01*
X51379846Y-137505869D01*
X51348379Y-137512957D01*
X51287032Y-137541212D01*
X51256676Y-137591216D01*
X51248277Y-137674550D01*
X50713988Y-137674550D01*
X50713821Y-137671212D01*
X50724543Y-137506433D01*
X50767589Y-137374067D01*
X50843793Y-137272277D01*
X50953995Y-137199227D01*
X50970512Y-137191895D01*
X51025088Y-137173762D01*
X51089940Y-137163501D01*
X51177166Y-137159781D01*
X51298866Y-137161270D01*
X51357871Y-137163214D01*
X51477750Y-137172626D01*
X51565160Y-137192148D01*
X51630195Y-137226320D01*
X51682949Y-137279682D01*
X51733516Y-137356775D01*
X51786822Y-137448046D01*
X51781523Y-137307844D01*
X51776225Y-137167642D01*
X52039764Y-137161017D01*
X52303303Y-137154391D01*
X52295529Y-137803611D01*
G37*
G36*
X47415721Y-138265894D02*
G01*
X47415721Y-138628083D01*
X47637708Y-138628083D01*
X47859695Y-138628083D01*
X47859695Y-138265894D01*
X47859695Y-137903704D01*
X47999897Y-137903704D01*
X48140100Y-137903704D01*
X48140100Y-138406096D01*
X48140100Y-138908488D01*
X47894746Y-138908488D01*
X47649391Y-138908488D01*
X47645652Y-138984431D01*
X47641912Y-139060374D01*
X47632488Y-138984431D01*
X47631906Y-138980024D01*
X47613917Y-138922649D01*
X47588302Y-138907120D01*
X47564511Y-138932066D01*
X47551995Y-138996115D01*
X47548067Y-139083740D01*
X47538901Y-138996115D01*
X47538704Y-138994276D01*
X47523171Y-138930655D01*
X47496095Y-138908488D01*
X47495601Y-138908493D01*
X47469690Y-138930549D01*
X47458527Y-138996115D01*
X47454599Y-139083740D01*
X47445433Y-138996115D01*
X47445236Y-138994276D01*
X47429702Y-138930655D01*
X47402627Y-138908488D01*
X47402133Y-138908493D01*
X47376222Y-138930549D01*
X47365059Y-138996115D01*
X47361131Y-139083740D01*
X47351965Y-138996115D01*
X47351768Y-138994276D01*
X47336234Y-138930655D01*
X47309158Y-138908488D01*
X47308664Y-138908493D01*
X47282754Y-138930549D01*
X47271590Y-138996115D01*
X47267662Y-139083740D01*
X47258496Y-138996115D01*
X47257254Y-138984632D01*
X47246777Y-138933113D01*
X47222054Y-138912340D01*
X47168956Y-138908488D01*
X47155861Y-138908550D01*
X47109745Y-138914136D01*
X47090460Y-138938698D01*
X47084654Y-138996115D01*
X47080726Y-139083740D01*
X47071560Y-138996115D01*
X47071363Y-138994276D01*
X47055829Y-138930655D01*
X47028754Y-138908488D01*
X47028260Y-138908493D01*
X47002349Y-138930549D01*
X46991186Y-138996115D01*
X46987257Y-139083740D01*
X46978091Y-138996115D01*
X46976753Y-138985077D01*
X46958760Y-138924523D01*
X46933522Y-138906179D01*
X46910140Y-138930042D01*
X46897717Y-138996115D01*
X46893789Y-139083740D01*
X46884623Y-138996115D01*
X46875457Y-138908488D01*
X46643197Y-138908488D01*
X46410937Y-138908488D01*
X46410937Y-138768286D01*
X46410937Y-138628083D01*
X46773127Y-138628083D01*
X47135316Y-138628083D01*
X47135316Y-138406096D01*
X47135316Y-138184109D01*
X46773127Y-138184109D01*
X46410937Y-138184109D01*
X46410937Y-138071168D01*
X46551139Y-138071168D01*
X46553171Y-138083394D01*
X46580360Y-138109627D01*
X46622080Y-138113403D01*
X46656291Y-138090641D01*
X46668386Y-138084374D01*
X46719846Y-138075526D01*
X46801499Y-138069500D01*
X46903024Y-138067274D01*
X46955798Y-138067755D01*
X47051008Y-138071910D01*
X47113109Y-138079766D01*
X47135316Y-138090641D01*
X47143972Y-138106886D01*
X47177687Y-138113792D01*
X47217994Y-138103124D01*
X47244304Y-138077387D01*
X47247168Y-138068543D01*
X47241986Y-138023885D01*
X47207769Y-138002781D01*
X47158417Y-138015283D01*
X47152257Y-138018404D01*
X47102141Y-138030295D01*
X47024561Y-138038539D01*
X46931847Y-138043008D01*
X46836332Y-138043571D01*
X46750346Y-138040100D01*
X46686222Y-138032466D01*
X46656291Y-138020540D01*
X46639325Y-138002218D01*
X46600431Y-137995839D01*
X46565987Y-138021254D01*
X46551139Y-138071168D01*
X46410937Y-138071168D01*
X46410937Y-138043907D01*
X46410937Y-137903704D01*
X46913329Y-137903704D01*
X47415721Y-137903704D01*
X47415721Y-138265894D01*
G37*
G36*
X47643016Y-136390167D02*
G01*
X47646399Y-136415767D01*
X47662486Y-136462416D01*
X47691663Y-136474091D01*
X47701663Y-136473594D01*
X47755785Y-136472929D01*
X47838267Y-136473277D01*
X47935638Y-136474611D01*
X48140100Y-136478313D01*
X48140100Y-136618516D01*
X48140100Y-136758718D01*
X47777910Y-136758718D01*
X47415721Y-136758718D01*
X47415721Y-136968413D01*
X47415721Y-137178108D01*
X47772069Y-137184558D01*
X48128416Y-137191009D01*
X48128416Y-137331211D01*
X48128416Y-137471414D01*
X47631866Y-137473867D01*
X47135316Y-137476321D01*
X47135316Y-137318258D01*
X47303869Y-137318258D01*
X47309051Y-137362917D01*
X47343268Y-137384020D01*
X47392620Y-137371518D01*
X47435243Y-137358250D01*
X47510164Y-137348730D01*
X47603393Y-137343686D01*
X47701969Y-137343172D01*
X47792933Y-137347244D01*
X47863325Y-137355957D01*
X47900185Y-137369364D01*
X47940643Y-137385179D01*
X47981424Y-137369888D01*
X47999897Y-137331211D01*
X47982074Y-137293097D01*
X47941520Y-137277265D01*
X47900185Y-137293058D01*
X47884146Y-137300647D01*
X47830493Y-137310258D01*
X47752801Y-137316578D01*
X47662840Y-137319530D01*
X47572381Y-137319040D01*
X47493195Y-137315032D01*
X47437051Y-137307431D01*
X47415721Y-137296161D01*
X47407065Y-137279916D01*
X47373350Y-137273010D01*
X47333042Y-137283677D01*
X47306733Y-137309415D01*
X47303869Y-137318258D01*
X47135316Y-137318258D01*
X47135316Y-137117520D01*
X47135316Y-136758718D01*
X46913329Y-136758718D01*
X46691342Y-136758718D01*
X46691342Y-137120908D01*
X46691342Y-137483097D01*
X46551139Y-137483097D01*
X46410937Y-137483097D01*
X46410937Y-136980705D01*
X46410937Y-136478313D01*
X46644608Y-136478313D01*
X46878278Y-136478313D01*
X46882206Y-136390687D01*
X46886134Y-136303060D01*
X46895300Y-136390687D01*
X46895497Y-136392525D01*
X46911031Y-136456147D01*
X46938107Y-136478313D01*
X46938601Y-136478309D01*
X46964511Y-136456252D01*
X46975675Y-136390687D01*
X46979603Y-136303060D01*
X46988769Y-136390687D01*
X46988965Y-136392525D01*
X47004499Y-136456147D01*
X47031575Y-136478313D01*
X47032069Y-136478309D01*
X47057980Y-136456252D01*
X47069143Y-136390687D01*
X47073071Y-136303060D01*
X47082098Y-136388350D01*
X47082860Y-136395406D01*
X47093225Y-136448204D01*
X47117917Y-136469615D01*
X47171638Y-136473640D01*
X47181000Y-136473610D01*
X47229610Y-136468499D01*
X47249998Y-136444764D01*
X47256079Y-136388350D01*
X47260008Y-136303060D01*
X47269174Y-136390687D01*
X47269370Y-136392525D01*
X47284904Y-136456147D01*
X47311980Y-136478313D01*
X47312474Y-136478309D01*
X47338384Y-136456252D01*
X47349548Y-136390687D01*
X47353476Y-136303060D01*
X47362642Y-136390687D01*
X47362838Y-136392525D01*
X47378372Y-136456147D01*
X47405448Y-136478313D01*
X47405942Y-136478309D01*
X47431853Y-136456252D01*
X47443016Y-136390687D01*
X47446944Y-136303060D01*
X47456110Y-136390687D01*
X47456307Y-136392525D01*
X47471840Y-136456147D01*
X47498916Y-136478313D01*
X47499410Y-136478309D01*
X47525321Y-136456252D01*
X47536484Y-136390687D01*
X47540412Y-136303060D01*
X47549578Y-136390687D01*
X47549775Y-136392525D01*
X47565309Y-136456147D01*
X47592384Y-136478313D01*
X47592878Y-136478309D01*
X47618789Y-136456252D01*
X47629952Y-136390687D01*
X47633881Y-136303060D01*
X47643016Y-136390167D01*
G37*
%TD*%
M02*
